<?xml version="1.0" encoding="utf-8"?>
<!-- Generator: Adobe Illustrator 25.2.3, SVG Export Plug-In . SVG Version: 6.00 Build 0)  -->
<!DOCTYPE svg PUBLIC "-//W3C//DTD SVG 1.1//EN" "http://www.w3.org/Graphics/SVG/1.1/DTD/svg11.dtd" [
	<!ENTITY ns_extend "http://ns.adobe.com/Extensibility/1.0/">
	<!ENTITY ns_ai "http://ns.adobe.com/AdobeIllustrator/10.0/">
	<!ENTITY ns_graphs "http://ns.adobe.com/Graphs/1.0/">
	<!ENTITY ns_vars "http://ns.adobe.com/Variables/1.0/">
	<!ENTITY ns_imrep "http://ns.adobe.com/ImageReplacement/1.0/">
	<!ENTITY ns_sfw "http://ns.adobe.com/SaveForWeb/1.0/">
	<!ENTITY ns_custom "http://ns.adobe.com/GenericCustomNamespace/1.0/">
	<!ENTITY ns_adobe_xpath "http://ns.adobe.com/XPath/1.0/">
]>
<svg version="1.1" xmlns:x="&ns_extend;" xmlns:i="&ns_ai;" xmlns:graph="&ns_graphs;"
	 xmlns="http://www.w3.org/2000/svg" xmlns:xlink="http://www.w3.org/1999/xlink" x="0px" y="0px" viewBox="0 0 300 300"
	 style="enable-background:new 0 0 300 300;" xml:space="preserve">
<style type="text/css">
	.st0{fill:#0D8036;}
	.st1{fill:#D2CFB5;}
	.st2{fill:#FED200;}
	.st3{fill:#2E2E2E;}
	.st4{fill:#D1E7D5;}
	.st5{fill:#9D8300;}
	.st6{fill:none;}
	.st7{fill:#E63F37;}
	.st8{fill:#F5A900;}
	.st9{fill:#00950A;}
	.st10{fill:#15C534;}
	.st11{fill:#7D4A26;}
	.st12{fill:#ADA77F;}
	.st13{fill:#3E1604;}
	.st14{fill:#00970A;}
	.st15{fill:#ABD2B1;}
	.st16{fill:#ACA77F;}
	.st17{fill:#6D6D6D;}
	.st18{fill:none;stroke:#000000;stroke-width:3;stroke-linecap:round;stroke-linejoin:round;stroke-miterlimit:10;}
	.st19{fill:none;stroke:#000000;stroke-width:3;stroke-miterlimit:10;}
	.st20{fill:none;stroke:#000000;stroke-width:3;stroke-linecap:round;stroke-miterlimit:10;}
	.st21{fill:none;stroke:#000000;stroke-linecap:round;stroke-miterlimit:10;}
	.st22{fill:#FFD103;}
	.st23{fill:#E53F37;}
	.st24{fill:#48AC38;}
	.st25{fill:#D0CEB4;}
	.st26{fill:#D0E6D4;}
	.st27{fill:#F4A806;}
	.st28{fill:#7D4A25;}
	.st29{fill:#ACA67F;}
	.st30{fill:#3B190F;}
	.st31{fill:#0D9739;}
	.st32{fill:#AAD1B1;}
	.st33{fill:#ABA67F;}
	.st34{fill:#6E6E6E;}
	.st35{fill:#9B8316;}
	.st36{fill:#0B9539;}
</style>
<metadata>
	<sfw  xmlns="&ns_sfw;">
		<slices></slices>
		<sliceSourceBounds  bottomLeftOrigin="true" height="341.2" width="917.2" x="-336.1" y="982.9"></sliceSourceBounds>
	</sfw>
</metadata>
<g id="duckfill">
</g>
<g id="rightwingfill">
</g>
<g id="rightwingline">
</g>
<g id="leftwingfill">
</g>
<g id="leftwingline">
</g>
<g id="duckline">
	<g>
		<path class="st22" d="M138.5,112.2c-0.8-5.4-11.5-18.6-24.8-18.6c-0.2,0-0.4,0-0.5,0c-1.7,0-3.4,0.1-5,0.3c-0.1,0-0.1,0-0.2,0
			c-0.1,0-0.2,0-0.3,0h-0.1c-0.1,0-0.1,0-0.2,0c-12.2,1.2-17.2,5.2-19.3,8.2c-0.5,0.7-1,1.6-0.6,2.5c0.3,1.1,1.3,2.6,6.6,4.9
			c2.2,1,6.4,2.1,11.2,3.1c-0.1,0.1-0.1,0.1-0.2,0.2c-3.2,4.8-4.7,8.6-4.6,11.3c0.1,2.4,1.5,3.3,2,3.6l0.1,0
			c1.2,0.8,3.6,1.3,6.5,1.3c1.8,0,3.6-0.2,5.7-0.5c2.1-0.4,4.3-0.9,6.6-1.6C133.5,123.2,139.3,118.2,138.5,112.2z M114.9,116.6
			c0.2-0.3,0.4-0.6,0.5-0.9c0.1-0.3,0-0.6,0-0.9c0,0,0,0,0-0.1c4.7,0.9,9.1,1.7,12.2,2.2c-0.6,0.2-1.1,0.5-1.6,0.7
			c-8.1,3.3-12.4,4.7-14.1,4.7C111.9,121.3,113.3,118.8,114.9,116.6z"/>
		<path class="st23" d="M113.4,123.8c-0.5,0-1.5,0.3-1.9,0.1c-0.5-0.3-0.3-1.3-0.4-2c-0.2-1.6,1.7-4.6,2.8-6.1
			c0-0.3,0.1-0.6,0.3-0.8c0.3-0.4,0.7-0.6,1.2-0.6c0.1,0,0.2,0,0.3,0c4.7,0.9,8.9,1.6,10.9,1.9c0.7,0.1,1.2,0.7,1.3,1.3
			c0.1,0.7-0.3,1.3-0.9,1.6C117.7,123.1,114.9,123.8,113.4,123.8z"/>
		<path class="st24" d="M180.4,97.9c0-0.3,0-0.7-0.1-1.1c-0.1-1.6-0.3-3.5-0.7-5.4c-0.9-5.4-2.9-11.6-6.7-16.9
			c-3.9-5.3-9.7-9.7-18.5-11.2c-0.4-0.1-0.8-0.1-1.3-0.2v0c-1.8-0.3-3.8-0.4-5.9-0.4c-0.3,0-0.6,0-0.9,0
			c-26.2,0.5-36.1,22.7-38.6,29.5c-0.2,0.6-0.1,1.2,0.2,1.7c0,0,0,0,0,0.1c0.4,0.5,0.9,0.7,1.5,0.7h0.1c1.2-0.1,2.3-0.1,3.4-0.2
			c0.2,0,0.3,0,0.5,0c13,0,23.3,13.2,23.9,17.8c0.8,5.5-4.8,10.1-16.6,13.9c-1.8,0.6-3.4,1-5,1.3c-0.7,0.1-1.2,0.6-1.4,1.2
			c-0.1,0.2-0.1,0.5-0.1,0.8c0.1,1.7,0.7,11-2.9,25.4c0,0.1-0.1,0.2-0.1,0.4c-0.4,1.6-0.9,3.3-1.4,5.2c-0.2,0.5-0.1,1.1,0.3,1.6
			c0,0.1,0.1,0.2,0.2,0.2c0.1,0.1,0.2,0.2,0.4,0.3c2.8,1.8,11.7,6.7,26.9,8.6c3.7,0.5,7.8,0.7,12.3,0.7c1.6,0,3.2,0,4.8-0.1
			c0.3,0,0.6-0.1,0.9-0.3c0.4-0.3,0.8-0.7,0.8-1.3c2-12.4,7.1-22.2,12.1-31.7c5.5-10.6,10.7-20.6,11.6-33.4c0.1-1.2,0.1-2.5,0.1-3.7
			C180.5,100.4,180.5,99.2,180.4,97.9z M172.2,95.6c-0.1,2.4-0.5,5-1.1,8.1c-0.6,2.9-1.2,5.4-2,7.9c-0.4,1.3-1.6,2.2-3,2.2
			c-0.3,0-0.6,0-0.9-0.1c-0.8-0.3-1.5-0.8-1.8-1.5c-0.4-0.8-0.5-1.6-0.2-2.4c0-0.1,0.1-0.2,0.1-0.3c0,0,0-0.1,0.1-0.2
			c2.2-5.1,3.6-9.8,4.3-14.1c0.4-2.8,0.4-5.1-0.1-6.7c-0.3-1-0.8-1.6-1.4-2.1c-0.6-0.4-1.4-0.6-2.5-0.6c-0.1,0-0.3,0-0.4,0
			c-2.1,0.1-4.1,1.1-5.8,2.9c-1.5,1.5-2.8,3.6-4,6.3c-1.8,4.1-3.2,8.9-4,14.2c0.1-2.3,0.4-4.6,0.8-7.1c0.5-2.8,1.1-5.3,1.8-7.6
			c1.1-3.1,2.2-5.3,3.6-7.2c1-1.2,2-2.2,3.1-2.9c1.2-0.8,2.7-1.4,4.2-1.6c0.6-0.1,1.1-0.1,1.6-0.1c1.2,0,2.2,0.2,3.2,0.7
			c1.5,0.7,2.7,2,3.5,3.7c0.7,1.6,0.9,3.1,1.1,4.4C172.3,92.7,172.3,94,172.2,95.6z"/>
		<path class="st25" d="M247.6,236.1c-4.4,0-9.5-1.2-14.7-2.4c-1.7-0.4-3.3-0.8-5-1.1c1.8,1.8,3.1,3.7,3.8,5.7
			c4,11.3-3.8,16.4-7.3,18.1c-1.2,0.6-4.5,1.9-9.1,1.9c-6.6,0-15.9-2.8-25.7-14.4c-0.4,5.3-1.8,11.8-5.7,16.3c-3,3.4-7,5.1-12,5.1
			c-4.6,0-8.2-1.6-10.8-4.8c-6.8-8.4-4.1-24.9-3.4-28.3c-0.3-0.4-0.4-1-0.1-1.5c0-0.1,0.1-0.2,0.2-0.2c0.1-0.1,0.1-0.1,0.2-0.2h0
			c0.1-0.1,0.1-0.1,0.2-0.1c0.1,0,0.1-0.1,0.2-0.1c0.1,0,0.1,0,0.2-0.1c0,0,0,0,0,0c0.1,0,0.1,0,0.2,0c0.2,0,0.5,0.1,0.7,0.2
			c8.1,4.6,18.8,4.9,28.3,3.6c3.6-2.3,10-7.2,10-12c0-6.5-5.5-9.7-5.5-9.7s13.1-1.2,13.1-10.1c0-0.4,0-0.7,0-1.1c0-0.3,0-0.7-0.1-1
			c0-0.4-0.1-0.8-0.2-1.2c0-0.1,0-0.2-0.1-0.3c0-0.1,0-0.2-0.1-0.3c0-0.2-0.1-0.4-0.1-0.6c0-0.1-0.1-0.3-0.1-0.4c0,0,0,0,0,0
			c-0.1-0.2-0.1-0.4-0.2-0.5c-0.1-0.2-0.1-0.4-0.2-0.6c-0.1-0.3-0.3-0.6-0.4-0.9c-0.1-0.3-0.3-0.5-0.4-0.7c-0.1-0.1-0.1-0.2-0.2-0.3
			c-0.1-0.1-0.1-0.2-0.2-0.3c0,0,0,0,0,0c-0.1-0.1-0.1-0.1-0.2-0.2c-0.1-0.1-0.3-0.3-0.4-0.4c0,0,0,0-0.1-0.1
			c-0.2-0.1-0.3-0.3-0.5-0.4c0,0,0,0-0.1,0c-0.2-0.2-0.4-0.3-0.7-0.4c0,0,0,0,0,0c-0.2-0.1-0.5-0.3-0.8-0.4c0,0,0,0,0,0
			c-0.1-0.1-0.3-0.1-0.4-0.2c-0.1-0.1-0.3-0.1-0.4-0.1c-0.1,0-0.3-0.1-0.4-0.1c0,0-0.1,0-0.1,0c-0.1,0-0.2-0.1-0.3-0.1
			c-0.2,0-0.3-0.1-0.5-0.1c-0.1,0-0.2,0-0.4-0.1c0,0-0.1,0-0.1,0c-0.1,0-0.3,0-0.4,0c-0.1,0-0.2,0-0.3,0c-0.2,0-0.4,0-0.6,0
			c-0.1,0-0.3,0-0.4,0h0c-0.1,0-0.3,0-0.5,0c-0.1,0-0.3,0-0.5,0c-0.3,0-0.6,0.1-1,0.1c3.7-2.4,9.4-7.8,10-14.3
			c0.4-4.4-2.5-7.3-4.4-8.7c-3.8,0.3-7.4,0.8-10.8,1.5c-4.7,0.9-23.4,4.9-32.6,12.6c-0.1,0.1-0.2,0.2-0.4,0.3
			c-2.8,2.5-4.7,5.4-4.8,8.6c-0.3,10.1,6.7,10.6,7,10.6c0.8,0,1.4,0.7,1.3,1.5c0,0.8-0.7,1.4-1.4,1.3c0,0-1.2-0.1-2.6-0.6
			c-3,6.3-9.4,10.4-16.5,10.4c-0.7,0-1.3,0-2-0.1v0.1c0,0.3,0,0.6,0,0.9c0,0.2,0,0.5-0.1,0.7c0,0.2,0,0.4-0.1,0.5c0,0,0,0.1,0,0.1
			c0,0.2-0.1,0.4-0.1,0.7c0,0.2-0.1,0.3-0.1,0.5c0,0.2-0.1,0.3-0.1,0.5c0,0.1,0,0.2-0.1,0.3c0,0.2-0.1,0.4-0.1,0.5c0,0,0,0,0,0.1
			c-0.1,0.2-0.1,0.4-0.2,0.7c-0.1,0.3-0.2,0.6-0.3,0.8c-0.1,0.3-0.2,0.6-0.3,0.8c-0.1,0.2-0.2,0.5-0.3,0.7c-0.1,0.1-0.1,0.3-0.2,0.4
			c0,0,0,0,0,0c0,0.1-0.1,0.1-0.1,0.2c-0.1,0.2-0.3,0.5-0.4,0.7c0,0,0,0,0,0c-0.1,0.1-0.2,0.3-0.3,0.4c-0.1,0.2-0.3,0.4-0.4,0.6
			c-0.3,0.4-0.5,0.8-0.8,1.1c-0.2,0.2-0.3,0.4-0.5,0.6c0,0.1-0.1,0.1-0.2,0.2c-0.2,0.2-0.4,0.5-0.6,0.7c0,0,0,0.1-0.1,0.1
			c0,0,0,0-0.1,0.1c-0.3,0.3-0.5,0.5-0.8,0.8l0,0c-0.1,0.1-0.3,0.2-0.4,0.4c0,0,0,0,0,0c-0.2,0.2-0.5,0.4-0.7,0.5
			c-0.2,0.2-0.5,0.4-0.7,0.5c-0.2,0.1-0.4,0.3-0.6,0.4c-0.2,0.1-0.4,0.3-0.7,0.4c-0.1,0.1-0.2,0.1-0.4,0.2c-0.1,0.1-0.2,0.1-0.4,0.2
			c0,0,0,0,0,0c0,0,0,0,0,0c-0.3,0.1-0.5,0.3-0.8,0.4c-0.3,0.1-0.5,0.2-0.8,0.3c-0.3,0.1-0.5,0.2-0.8,0.3c-0.3,0.1-0.6,0.2-0.8,0.3
			c-0.3,0.1-0.6,0.2-0.9,0.2c-0.3,0.1-0.6,0.1-0.9,0.2c-0.3,0.1-0.7,0.1-1,0.1c-0.3,0-0.7,0.1-1,0.1c-0.1,0-0.2,0-0.3,0
			c-0.1,0-0.2,0-0.4,0c-0.2,0-0.3,0-0.5,0c-0.7,0-1.5,0-2.2-0.1c0,9.3-6.9,16.9-15.9,18.1c3.7,10.1,10.1,17.2,19,21.2
			c0.3-0.8,0.6-1.5,0.9-2.1c2.7-6.8,10.3-10.1,17.1-7.5c3.3,1.3,5.9,3.8,7.3,7c1.3,2.9,1.5,6.1,0.6,9.1c11.9,0.9,31.7,0.5,53.5-7
			c0.1-0.1,0.3-0.1,0.4-0.1c0.7-0.2,1.4-0.5,2-0.7c0.7-0.3,1.4-0.5,2-0.8h0c0.2-0.1,0.4-0.2,0.7-0.3c0.7-0.3,1.4-0.6,2.1-0.9
			c0.1,0,0.2-0.1,0.3-0.1c0.7-0.3,1.5-0.6,2.2-0.9c0.7-0.3,1.4-0.6,2.1-0.9c0.2-0.1,0.5-0.2,0.7-0.3c0.6-0.3,1.3-0.6,1.9-0.9
			c0.1,0,0.1-0.1,0.2-0.1c0.6-0.3,1.1-0.5,1.7-0.8c0,0,0,0,0.1,0c0.4-0.2,0.7-0.4,1.1-0.5c0.6-0.3,1.2-0.6,1.8-1
			c12.7-6.8,23.4-15.9,32-26.9C249.4,236,248.5,236.1,247.6,236.1z"/>
		<path d="M125.3,102.5c-0.1,0.2-0.4,0.4-0.6,0.3c-0.9-0.4-1.9-0.6-2.7-0.6c-0.6,0-1.1,0.2-1.2,0.5c-0.1,0.3,0.1,0.7,0.5,1.2
			c0.5,0.6,1.3,1.1,2.3,1.5c0.2,0.1,0.3,0.4,0.3,0.6c-0.1,0.2-0.3,0.3-0.4,0.3c-0.1,0-0.1,0-0.2,0c-1.1-0.4-2-1.1-2.6-1.7
			c-0.7-0.8-0.9-1.5-0.7-2.2c0.3-0.6,1-1,2-1c0.9,0,2,0.2,3,0.6C125.3,102,125.4,102.3,125.3,102.5z"/>
		<path class="st22" d="M135.1,293c-0.1,0-0.2,0-0.4,0c-0.7-0.1-1.3-0.7-1.5-1.4c-1.5-7.2-13.8,3.3-18.6-5c-0.3-0.5-0.3-1.2-0.1-1.8
			c1.8-3.5,3.6-7.4,5.3-11.3c0,0,0-0.1,0-0.1c0.6-1.3,1-2.5,1.4-3.4c1.8-4.7,6.4-7.8,11.5-7.8c1.5,0,3,0.3,4.5,0.8
			c3,1.2,5.5,3.5,6.8,6.5c1.3,3,1.4,6.3,0.2,9.4l-0.3,0.7c-1.2,3.1,1.1,0.1-7.3,12.6C136.3,292.7,135.7,293,135.1,293z"/>
		<path class="st25" d="M261.6,219.9c-0.1,0-0.1,0-0.2,0c-0.8-0.1-1.4-0.6-1.6-1.4c-1.2-4.8-5.1-8.7-8.2-11.1
			c-0.7-0.6-0.9-1.6-0.5-2.3c0.3-0.6,1-1,1.6-1c0.2,0,0.4,0,0.6,0.1c3.1,1.1,6.1,2,8.8,2.8c1.1,0.3,2.3,0.6,3.5,0.8
			c0.5,0.1,1,0.4,1.3,0.9c0.3,0.5,0.3,1.1,0.1,1.6c-1.2,2.9-2.5,5.8-3.8,8.6C262.9,219.5,262.3,219.9,261.6,219.9z"/>
		<path class="st3" d="M273.8,186.1c-0.4,0-0.8-0.1-1.2-0.4c-2.1-1.7-4.5-3.4-7.2-5.1c-0.7-0.4-1-1.3-0.8-2.1
			c1.1-3.7,2-7.5,2.4-11.4c0.1-0.4,0.2-0.8,0.5-1.1c2.1-2.1,4-3.5,5.2-4.4c0.3-0.2,0.7-0.3,1.1-0.3c0.2,0,0.4,0,0.7,0.1
			c0.6,0.2,1,0.7,1.2,1.3c1,4.1,2.3,12.3-0.1,22c-0.1,0.6-0.6,1.1-1.2,1.3C274.2,186.1,274,186.1,273.8,186.1z"/>
		<path class="st3" d="M245.3,171.9c-0.2,0-0.3,0-0.5-0.1c-3.1-0.8-6.3-1.4-9.5-1.9c-0.6-0.1-1.1-0.5-1.4-1
			c-0.3-0.6-0.2-1.2,0.1-1.7c4.5-7.8,10.2-12.6,13.3-14.8c0.3-0.2,0.7-0.3,1.1-0.3c0.2,0,0.4,0,0.6,0.1c0.6,0.2,1,0.7,1.2,1.3
			c0.5,1.9,1.1,4.9,1.2,8.7c0,0.4-0.1,0.8-0.3,1.1c-1.5,2.4-2.9,4.9-4.1,7.5C246.7,171.5,246,171.9,245.3,171.9z"/>
		<path class="st26" d="M263.9,179.4c-0.3,0-0.6-0.1-0.9-0.2c-0.1-0.1-0.8-0.5-0.8-0.5c-4.2-2.4-9.2-4.5-14.7-6.1
			c-0.5-0.2-1-0.5-1.2-1c-0.2-0.5-0.2-1.1,0-1.6c1.2-2.6,2.6-5.2,4.2-7.6l0.2-0.3c5.1-7.9,10.8-12.9,13.7-15.2
			c0.3-0.3,0.7-0.4,1.2-0.4c0.2,0,0.4,0,0.6,0.1c0.6,0.2,1.1,0.7,1.2,1.4c0.7,3.3,1.6,10.1,0.6,18.7c-0.4,3.8-1.2,7.6-2.3,11.4
			c-0.2,0.5-0.6,1-1.1,1.2C264.4,179.4,264.1,179.4,263.9,179.4z"/>
		<path class="st25" d="M245.9,178.5c-3.9-4.6-9.7-8-17.1-10.1c0,0-0.1,0-0.1,0c-2.9-0.8-6.1-1.5-9.5-1.9c-0.1,0-0.1,0-0.2,0
			c-0.5,0-1,0.2-1.3,0.6c-0.4,0.4-0.6,1-0.5,1.6c0.5,3.2,0.8,11.3-8.5,17.3c-0.7,0.4-1,1.3-0.8,2.1c0.1,0.2,0.1,0.4,0.3,0.5
			c0.3,0.5,0.9,0.8,1.5,0.8c2.4,0,4.6,1,6.2,2.8c2.2,2.4,3.2,5.9,2.8,9.9c-0.5,5.7-8.4,8.9-9.8,8.9c-0.9,0-1.6,0.6-1.8,1.4
			c-0.2,0.8,0.2,1.7,0.9,2.1c2.8,1.4,5.6,6,5.6,10.6c0,0.7,0.4,1.3,0.9,1.6c0.3,0.2,0.6,0.2,0.9,0.2c0.3,0,0.7-0.1,1-0.3
			c12.7-7.8,28-22.8,31.5-35.2c0.2-0.6,0.3-1.2,0.4-1.7C249.3,185.3,248.4,181.5,245.9,178.5z"/>
		<path class="st6" d="M135.9,116.2c-0.1,0.7-0.5,1.1-0.5,1.1"/>
		<path class="st6" d="M98,97c0,0-0.9,0.5-1.7,1.3"/>
		<path class="st27" d="M136,116.5c-2.2,4.2-9.1,7.2-15.2,9.1c-10.5,3.3-16,1.9-17.2,1.1l-0.1-0.1c-0.4-0.3-1.1-0.7-1.1-2.1
			c-0.1-1.6,0.6-4.6,4.3-10.2c2.3,0.5,4.6,1,7,1.4c0,0,0,0-0.1,0.1c-0.4,0.5-3.7,5.3-3.5,7.2c0,0.4,0.1,0.9,0.7,1.2
			c0.3,0.2,0.6,0.3,1.2,0.3c2,0,6.4-1.4,17.6-6c1.3,0.2,2.1,0.3,2.2,0.4c0.8,0.1,1.5-0.4,1.6-1.2c0.1-0.8-0.4-1.5-1.2-1.6
			c-0.3,0-30.1-4.7-37.3-7.9c-4.7-2.1-5.5-3.3-5.6-3.7c0-0.1-0.1-0.3,0.4-1c1-1.4,2.9-3.3,6.8-4.9c-1.3,1.2-2.6,3.2-0.2,4.6
			c3.9,2.4,24.9,8.4,33.7,9.7C135.4,113.8,136.2,115.4,136,116.5z"/>
		<path class="st26" d="M155.8,171.5C155.8,171.5,155.8,171.4,155.8,171.5c-0.4-0.4-0.9-0.6-1.4-0.6h-0.1c-1.4,0.1-2.9,0.1-4.4,0.1
			c-4.3,0-8.2-0.3-11.7-0.7c-14.1-1.7-22.7-6-26.2-8.1c-0.3-0.2-0.6-0.3-1-0.3c-0.1,0-0.3,0-0.4,0.1c-0.1,0-0.2,0-0.2,0.1
			c0,0,0,0,0,0c-0.5,0.2-0.9,0.6-1.1,1.2c-0.8,2.6-1.7,5.2-2.6,7.7c-0.3,0.8-0.6,1.6-0.9,2.3c-0.7,1.7-1.3,3.5-2.1,5.5
			c-0.2,0.5-0.1,1.1,0.2,1.6c0,0.1,0.1,0.1,0.2,0.2c0.1,0.1,0.2,0.2,0.4,0.3c1.9,1.2,10.4,6.4,25.5,8.6c4.2,0.6,8.9,1,14,1
			c0,0,0,0,0,0c1.6,0,3.3,0,4.9-0.1c0.3,0,0.6-0.1,0.9-0.3c0.4-0.3,0.7-0.6,0.8-1.1c0.6-2.4,2.2-4.6,4.5-6.8
			c0.4-0.3,0.6-0.8,0.6-1.4c0-2.6,0.2-5.2,0.5-7.9C156.3,172.4,156.2,171.9,155.8,171.5z"/>
		<path class="st28" d="M154.1,201.2c-2.7-1.9-4-5.2-3.8-9.8c0-0.5-0.1-0.9-0.5-1.3c0,0,0-0.1-0.1-0.1c-0.3-0.3-0.8-0.5-1.3-0.5
			h-0.1c-1.5,0.1-3,0.1-4.5,0.1c-5,0-9.5-0.3-13.6-0.9c-14-1.9-22.2-6.5-24.8-8.1c-0.3-0.2-0.7-0.3-1-0.3c-0.1,0-0.3,0-0.4,0
			c-0.1,0-0.2,0-0.3,0.1l0,0c-0.5,0.2-0.9,0.6-1.1,1.2c-1.7,5.1-3.1,10.4-4.3,15.7c-0.9,4.1-1.6,8.1-2.2,12.1h0
			c-0.8,5.5-1.2,10.7-1.2,15.7v0.1c0,0.2,0,0.4,0,0.6c0,3.4,0.1,6.7,0.5,9.9c0.5,4.6,1.3,8.9,2.5,12.8c0.2,0.8,1,1.3,1.8,1.3
			c0.1,0,0.1,0,0.2,0c9-0.8,15.7-8.3,15.7-17.3c0-0.4,0-0.7,0-1c1,0.2,2.1,0.3,3.1,0.3c0.1,0,0.2,0,0.4,0c9.4-0.2,17-7.9,17-17.4
			c0-0.4,0-0.8,0-1.2c1,0.2,2,0.3,2.9,0.3c6.8,0,12.8-3.8,15.7-10C155.1,202.6,154.8,201.7,154.1,201.2z"/>
		<path class="st29" d="M203.4,269.5c-0.7,0.3-1.4,0.5-2,0.8c-0.7,0.3-1.4,0.5-2,0.7c-0.1,0-0.3,0.1-0.4,0.1
			c-21.9,7.5-41.6,7.9-53.5,7c0.9-3,0.7-6.2-0.6-9.1c-1.4-3.2-4-5.7-7.3-7c-6.8-2.7-14.5,0.7-17.1,7.5c-0.2,0.6-0.5,1.3-0.9,2.1
			c-8.9-4-15.3-11.1-19-21.2c9-1.2,15.9-8.7,15.9-18.1c0.7,0.1,1.4,0.1,2.2,0.1c0.2,0,0.3,0,0.5,0
			C122.7,257.8,151.1,276.3,203.4,269.5z"/>
		<path class="st30" d="M119.5,219.7c-0.6,3.4-0.8,6.8-0.6,10.1h-0.2c-1.1,0-2.2-0.1-3.3-0.4l-1.9-0.4l0.2,1.9
			c0.1,0.5,0.1,0.9,0.1,1.4c0,8.1-6.1,14.7-14,15.4c-1.9-6.4-2.9-13.8-2.9-22.1c0.1-13.4,2.9-29.2,7.6-43.6c2.8,1.8,11.1,6.3,25,8.3
			C125,201,121,211.1,119.5,219.7z"/>
		<path class="st31" d="M149,128.8c0.2,12.3-4.6,26.4-10.4,40.5c-15.3-1.8-24.2-6.8-26.7-8.3c0.5-1.8,1-3.5,1.4-5.3
			c3.7-14.7,3.2-24.2,3-26.4c1.6-0.3,3.3-0.8,5.2-1.4c10.8-3.4,16.8-7.8,17.8-13C141.8,115.6,148.8,118,149,128.8z"/>
		<path class="st32" d="M137.5,172c-2.2,5.3-4.6,10.5-6.8,15.7c-15.1-2.1-23.5-7.2-25.2-8.4c0.7-1.9,1.3-3.7,2-5.5
			c1.3-3.4,2.5-6.8,3.6-10.1C114.4,165.8,123.1,170.3,137.5,172z"/>
		<path d="M174.1,95.7c-0.1,2.5-0.5,5.2-1.1,8.3c-0.6,2.9-1.3,5.5-2.1,8c-0.7,2.1-2.6,3.5-4.8,3.5c-0.5,0-1-0.1-1.5-0.2
			c-1.3-0.4-2.3-1.3-2.9-2.5c-0.6-1.2-0.7-2.5-0.3-3.8c0-0.1,0.1-0.3,0.2-0.4c0,0,0-0.1,0-0.1c2.1-5,3.5-9.6,4.2-13.7
			c0.4-2.5,0.4-4.5-0.1-5.8c-0.2-0.7-0.5-0.9-0.7-1.1c-0.2-0.1-0.7-0.3-1.4-0.3c-0.1,0-0.2,0-0.3,0c-1.6,0-3.2,0.9-4.6,2.4
			c-1.3,1.4-2.5,3.3-3.7,5.8c-1.8,4.1-3.2,8.9-4,14.3c-0.1,0.9-0.9,1.5-1.8,1.5c-0.1,0-0.1,0-0.2,0c-1-0.1-1.7-0.9-1.6-1.9
			c0.1-2.6,0.4-5.2,0.8-8c0.5-2.9,1.1-5.5,1.9-7.9c1.1-3.3,2.3-5.7,3.9-7.7c1.1-1.4,2.2-2.5,3.5-3.4c1.5-1,3.2-1.6,4.9-1.9
			c0.7-0.1,1.3-0.1,1.9-0.1c1.4,0,2.8,0.3,4,0.9c1.9,0.9,3.5,2.5,4.4,4.6c0.8,1.8,1.1,3.6,1.2,4.9C174.1,92.6,174.2,94,174.1,95.7z"
			/>
		<path class="st6" d="M138.6,169.3c-0.1,0.3-0.3,0.6-0.4,0.9c-0.1,0.3-0.2,0.6-0.4,0.9c-0.1,0.3-0.3,0.6-0.4,0.9"/>
		<path class="st6" d="M118.9,229.8c0,0.6,0.1,1.2,0.2,1.9c0,0.3,0.1,0.6,0.1,0.9"/>
		<path class="st6" d="M203.4,269.5L203.4,269.5c1.7-0.2,3.3-0.5,5-0.7"/>
		<path class="st6" d="M129.5,190.4c0.1-0.3,0.3-0.6,0.4-0.9c0.1-0.3,0.2-0.6,0.4-0.9c0.1-0.3,0.3-0.6,0.4-0.9"/>
		<path class="st6" d="M139.3,115c-0.5-0.1-0.9-0.1-0.9-0.1"/>
		<path class="st33" d="M111,154.5c-2.5-1.1-9.1-4.3-16.4-11.6c-0.4-0.4-0.8-0.5-1.3-0.5h0c-0.5,0-1,0.2-1.3,0.6
			c-1.5,1.6-3.8,5-2.5,9.8c1,3.7,3.4,7,5.2,9.1c0,0-0.1,0-0.1,0c-3.8,1.3-8.2,4.2-8.4,9.7c-0.1,2.9,0.6,5.2,2.2,6.9
			c0.9,1,2,1.6,3,2.1c-1.5,2.3-3.1,5.9-1.5,9.9c1.6,4,5,6.1,7.6,6.7c0.1,0,0.3,0,0.4,0c0.8,0,1.6-0.6,1.8-1.4
			c1.8-7.8,4.1-15.3,6.9-22.3c0.3-0.7,0.6-1.4,0.8-2.1c1.9-4.9,3.4-9.8,4.7-14.7C112.3,155.8,111.9,154.9,111,154.5z"/>
		<path class="st33" d="M97,211c-0.5,4.4-0.9,8.6-1,12.6c0,0.6-0.3,1.2-0.9,1.5c0,0,0,0-0.1,0c0,0,0,0-0.1,0
			c-0.3,0.2-0.6,0.2-0.9,0.2c-0.3,0-0.6-0.1-0.8-0.2c-0.6-0.3-1.3-0.7-2-1.1c-4.2-2.4-11.1-6.9-17.6-14c-0.1-0.1-0.2-0.2-0.3-0.3
			c-2.5-2.7-4.9-5.9-7.1-9.4c-3.4-5.5-6.2-12-7.8-19.5c0,0,0-0.1,0-0.1c0-0.2-0.1-0.3-0.1-0.5c-1.7-8.4-2-16-1.5-22.5
			c0.5-7.2,2-13.3,3.6-18c0-0.2,0.1-0.3,0.2-0.5c2.5-7.1,5.3-11.1,5.5-11.4h0c0-0.1,0.1-0.1,0.2-0.3c1-1.2,4.4-5,8.7-5h0.3
			c1.5,0.1,3,0.6,4.4,1.6c1.4,1,2.7,2.5,3.9,4.5c1.2,2.1,2.6,4,3.9,5.9c0.3,0.4,0.4,1,0.3,1.5c-0.1,0.5-0.5,1-1,1.2
			c-2,1-6.7,4-6.7,9.6c0,0.7,0.1,1.4,0.2,2.1c0.9,5.6,5.4,8.2,5.6,8.3c0.7,0.4,1.1,1.1,0.9,1.9c-0.1,0.8-0.7,1.4-1.5,1.5
			c-0.4,0.1-9.2,2.1-9.2,11.1c0,8.9,8.6,10.3,9,10.3c0.8,0.1,1.5,0.8,1.6,1.6c0.1,0.8-0.4,1.6-1.2,1.9c-0.6,0.3-6.1,2.8-3.3,10.2
			c1.9,4.9,9.4,12.3,13.2,12.9c0.3,0.1,0.6,0.2,0.8,0.4C96.8,209.7,97.1,210.3,97,211z"/>
		<path class="st25" d="M112.1,156.7c-1.3,4.9-2.8,9.8-4.7,14.7c-4.1-2.7-8.4-5.9-12.9-9.5c0,0,0.1,0,0.1,0
			c-1.8-2.1-4.1-5.4-5.2-9.1c-1.4-4.8,1-8.2,2.5-9.8c0.3-0.4,0.8-0.6,1.3-0.6h0c0.5,0,1,0.2,1.3,0.5c7.3,7.3,13.9,10.5,16.4,11.6
			C111.9,154.9,112.3,155.8,112.1,156.7z"/>
		<path class="st25" d="M87.9,136.2c-0.1,0.5-0.5,1-1,1.2c-2,1-6.7,4-6.7,9.6c0,0.7,0.1,1.4,0.2,2.1c-0.4-0.4-0.9-0.9-1.3-1.4
			c-4.9-5.1-8.9-11.7-12.2-19.1c0.1-0.1,0.1-0.1,0.1-0.2c0.1-0.2,3.7-4.9,8.1-4.9c0.1,0,0.2,0,0.3,0c0.9,0,1.8,0.3,2.7,0.7
			c0.3,0.1,0.6,0.2,0.8,0.2c0.3,0,0.6-0.1,0.9-0.2c1.4,1,2.7,2.5,3.9,4.5c1.2,2.1,2.6,4,3.9,5.9C87.9,135.1,88,135.6,87.9,136.2z"/>
		<path class="st6" d="M68.3,165.8c-3.8-1.8-7.3-4.3-10.5-7.2"/>
		<path class="st18" d="M143.6,279.1c13.4,1.2,43.9,1.4,75.1-15.4c14.8-8,26.2-18.5,34.8-30.4"/>
		<path class="st18" d="M115.1,129.4c0,0,1.2,9.8-2.9,26.3c-1.3,5.3-3.2,11.3-5.8,17.9c-5.5,13.7-10.5,33.5-10.6,52.1
			c-0.1,8.3,0.9,16.3,3.2,23.5c3.5,10.8,10.2,19.6,21.5,24.1"/>
		<path class="st18" d="M266.7,208.5c-1.9,4.9-4.1,9.7-6.7,14.3"/>
		<path d="M166.1,116.1c-0.5,0-1-0.1-1.5-0.2c-1.3-0.4-2.3-1.3-2.9-2.5c-0.6-1.2-0.7-2.5-0.3-3.8c0-0.1,0.1-0.3,0.2-0.4
			c0,0,0-0.1,0-0.1c2.1-5,3.5-9.6,4.1-13.6c0.4-2.5,0.4-4.5-0.1-5.8c-0.2-0.7-0.5-0.9-0.7-1.1c-0.2-0.1-0.6-0.3-1.4-0.3
			c-0.1,0-0.2,0-0.3,0c-1.6,0.1-3.2,0.9-4.5,2.4c-1.3,1.4-2.5,3.3-3.6,5.7c-1.8,4.1-3.1,8.9-3.9,14.2c-0.1,0.9-0.9,1.5-1.8,1.5
			c-0.1,0-0.1,0-0.2,0c-1-0.1-1.7-0.9-1.6-1.9c0.1-2.6,0.4-5.2,0.8-7.9c0.5-2.9,1.1-5.4,1.9-7.9c1.1-3.3,2.3-5.6,3.9-7.7
			c1.1-1.4,2.2-2.5,3.5-3.4c1.5-1,3.2-1.6,4.9-1.9c0.7-0.1,1.3-0.1,1.8-0.1c1.4,0,2.7,0.3,3.9,0.9c1.9,0.9,3.4,2.5,4.3,4.6
			c0.8,1.8,1.1,3.6,1.2,4.9c0.1,1.4,0.2,2.7,0.1,4.5c-0.1,2.5-0.5,5.1-1.1,8.3c-0.6,2.9-1.3,5.5-2.1,8
			C170.2,114.7,168.3,116.1,166.1,116.1z"/>
		<path class="st19" d="M110.6,161.9c0,0,14.7,10.9,44.5,9.6"/>
		<path class="st19" d="M104.5,180.4c0,0,14.7,10.9,44.5,9.6"/>
		<path class="st19" d="M99,249.1c9.1-0.2,16.4-7.7,16.4-16.8c0-0.5,0-1.1-0.1-1.6c1.2,0.3,2.4,0.4,3.6,0.4
			c9.3,0,16.8-7.5,16.8-16.8c0-0.6,0-1.1-0.1-1.7c1.1,0.2,2.3,0.4,3.4,0.4c7.1,0,13.2-4.5,15.7-10.7"/>
		<path class="st20" d="M264.2,179.8c1.5-4.6,2.3-8.9,2.8-12.9c1.3-12.1-1.1-20.6-1.1-20.6s-8.3,5.4-15.4,16.7v0
			c-1.7,2.7-3.4,5.7-4.8,9"/>
		<path class="st20" d="M267,166.9c3.9-3.9,7.1-5.7,7.1-5.7s4.1,11.6-0.1,25.7"/>
		<path class="st20" d="M250.4,162.9L250.4,162.9c-0.2-6.6-1.8-10.9-1.8-10.9s-9.5,5.5-15.7,17.5"/>
		<path class="st21" d="M114,116.2c0,0-3.6,5.1-3.4,6.9s2,2,18.8-4.9"/>
		<path class="st21" d="M123.6,106.3c-2.1-0.9-3.4-2.3-3-3.3c0.4-0.9,2.4-1,4.4-0.2"/>
		<g>
			<path class="st19" d="M134.5,294.1c9-12.4,7.4-10.9,9.1-15.1c0.1-0.3,0.2-0.5,0.3-0.7c2.4-6-0.6-12.9-6.7-15.2
				c-6.1-2.4-12.9,0.6-15.2,6.7c-0.4,0.9-0.8,2.1-1.4,3.4c-1.4,3.2-3.3,7.6-5.6,12"/>
		</g>
		<path class="st20" d="M131.9,117.6c0,0-30-4.7-37.5-8c-7.4-3.3-6.9-5.1-5.8-6.7c1.6-2.4,6.9-7.9,24.6-8.3
			c13.6-0.4,24.1,13.1,24.8,18.1c0.9,6.3-6.5,11-16.8,14.3c-10.3,3.3-16.5,2.2-18.3,0.9c-0.8-0.6-5.1-2.7,2.9-14.7"/>
		<path class="st0" d="M150,0C67.2,0,0,67.2,0,150c0,82.8,67.2,150,150,150s150-67.2,150-150C300,67.2,232.8,0,150,0z M150,266
			c-64.1,0-116-52-116-116s52-116,116-116s116,52,116,116S214.1,266,150,266z"/>
		<g>
			<path class="st3" d="M60.9,141.6c0.2-0.5,0.1-1.1-0.2-1.5c-0.3-0.5-1-1.7-2-3.6c-0.1-0.1-0.2-0.3-0.3-0.4c0-0.1-0.1-0.2-0.1-0.3
				c-1.3-1.7-2.6-3.7-4.1-6c-4.6-7-9.7-14.9-15.2-14.9c-2.9,0-5.2,1.2-6.9,3c-2.7,2.8-4.2,7.2-4.6,11.2c-0.3,3-0.6,14.1,8,29.8
				c5.8,10.6,14.5,17.6,20.7,21.6c0.3,0.2,0.7,0.3,1,0.3c0.4,0,0.7-0.1,1-0.3c0.6-0.4,0.9-1.2,0.8-1.9c-1.4-7.4-1.6-14.2-1.3-20
				C58.2,151.6,59.5,145.9,60.9,141.6z"/>
			<path class="st3" d="M96,226.6c0-0.6-0.3-1.2-0.8-1.5c0,0-0.1,0-0.1-0.1c0,0-0.1-0.1-0.1-0.1c-0.6-0.3-1.6-0.8-2.8-1.5
				c-3.9-2.2-10.6-6.5-16.9-13.1c-0.4-0.4-0.9-0.6-1.3-0.6c0,0-0.1,0-0.1,0c-0.1,0-0.2,0-0.3,0c-0.2,0-0.3,0.1-0.5,0.2
				c0,0-0.1,0.1-0.2,0.1c-0.1,0.1-0.3,0.2-0.4,0.3c-0.1,0.1-0.3,0.1-0.6,0.3c-0.1,0-0.2,0.1-0.2,0.1c-1.1,0.6-2.2,1.2-3.2,1.7h0
				c-2.7,1.4-4.8,2.4-5.7,2.7c0,0-2.4,0.9-4.9,2.5c-0.5,0.3-1,0.6-1.4,1c-2.5,1.9-4.8,4.5-4.8,7.7c0,2.5,3,7,8.5,10.3
				c3.2,1.9,8.5,4.2,15.7,4.2c6.3,0,12.9-1.8,19.6-5.2c0.1,0,0.1-0.1,0.2-0.1c0.5-0.4,0.8-1,0.8-1.7C96.1,231.6,96,229.1,96,226.6z"
				/>
			<path class="st3" d="M73.7,209.8C73.7,209.8,73.7,209.8,73.7,209.8c0,0.1,0,0.2-0.1,0.3c-0.1,0.4-0.4,0.8-0.8,1l-0.7,0.4
				c-0.1,0.1-0.2,0.1-0.3,0.1c-0.8,0.3-2,0.6-3.5,0.8h0c-1.4,0.2-3.1,0.4-5.1,0.4c-3.1,0-6.5-0.3-10.1-1
				c-14.4-2.6-20.2-12.8-20.8-20.6c-0.1-1.7,0-3.2,0.4-4.6c0.4-1.3,1-2.5,1.9-3.5c3.1-3.3,8.2-3.3,9.9-3.3c1.9,0,7.5,0.4,11.8,0.8h0
				c0,0,0,0,0.1,0l1.1,0.1c0.1,0,0.1,0,0.2,0h0c0.2,0,0.5,0.1,0.7,0.2c0.1,0,0.2,0.1,0.3,0.2l0.1,0.1c0.4,0.3,0.7,0.7,0.8,1.2
				c1.5,6.4,4,12.5,7.5,18c1.7,2.8,3.7,5.5,6,8C73.6,208.7,73.8,209.2,73.7,209.8z"/>
			<path class="st3" d="M80.6,121.9c-3.9-9.5-9-23.7-11.1-37.7c-0.9-6.5-3.3-10.9-7.1-13.1c-1.7-1-3.7-1.5-5.9-1.5
				c-1.4,0-2.5,0.2-3.4,0.4c-0.7,0.2-1.2,0.3-1.4,0.4c0,0-0.1,0-0.1,0c-1.1,0.5-11.1,5.2-8.2,26.4c1.7,12.2,6.7,24.6,10.9,33.3
				c0,0,0,0,0,0c1.2,2.4,2.3,4.5,3.2,6.3c0,0.1,0.1,0.2,0.2,0.3c0,0.1,0.1,0.2,0.1,0.3l0.3,0.6c0.1,0.3,0.3,0.5,0.4,0.8
				c0.3,0.6,0.9,0.9,1.6,0.9c0,0,0,0,0,0c0,0,0.1,0,0.1,0c0.1,0,0.2,0,0.2,0c0.6-0.1,1.1-0.5,1.4-1.2c2.1-5.5,4.2-8.7,4.8-9.5
				c0.1-0.1,0.1-0.1,0.1-0.2c0.1-0.2,3.7-4.9,8.1-4.9c0.1,0,0.2,0,0.3,0c0.9,0,1.8,0.3,2.7,0.7c0.3,0.1,0.6,0.2,0.8,0.2
				c0.3,0,0.6-0.1,0.9-0.2c0.1-0.1,0.3-0.1,0.4-0.3C80.7,123.5,80.9,122.6,80.6,121.9z"/>
			<path class="st34" d="M67.4,126.1c-3.4-3.1-4.1-7.5-5.5-11.5c-4-12.3-5.2-25.2-6.6-38c-0.2-1.7-0.4-3.3-0.7-5
				c7.5-0.4,10.4,1.6,12.7,9.6c2,7.1,3.7,14.3,5.4,21.4c1.4,5.7,3.5,11.1,5.5,16.6c0.4,1,1.7,2.1,0.2,3.3
				C73.8,120.8,70.5,123.1,67.4,126.1z"/>
			<path class="st34" d="M35.9,122c4.1-3.9,7.3-3.9,11.1-0.2c3.3,3.3,5.6,7.3,8.2,11.2c1.6,2.4,3,5,5.6,6.7
				c-0.4,6.5-3.7,12.6-2.8,19.3c-1,1.1,0.7,3.4-1.5,3.9c-1.3,0.3-2.2-0.9-3-1.8c-7.4-8.4-14-17.2-17-28.3
				C35.6,129.2,34.1,125.7,35.9,122z"/>
			<path class="st34" d="M36.3,185.9c1.1-4.2,4.5-5.1,8.2-5.4c4.8-0.5,9.4,1.4,14.1,1.9c2.5,5.5,5,11,7.5,16.5
				c0.1,2-1.4,1.7-2.5,1.6c-9.2-0.3-17.3-3.6-24.5-9.1C37.3,190.1,36.1,188.3,36.3,185.9z"/>
			<path class="st34" d="M85.6,221.3c-4.8,4.8-11.1,5.6-17.4,6.1c-3.6,0.2-7.3-0.3-10.9-0.8c-2.2-0.3-4.7-0.6-5-3.7
				c1.6-2.7,4.2-4,6.9-5.2c4.9-2.3,9.7-4.6,14.6-6.9C77.8,214.2,81.2,218.4,85.6,221.3z"/>
		</g>
		<g>
			<path class="st19" d="M112.4,155.7c0,0-16-5.2-28.8-26.3c-7.9-12.8-16.6-0.8-16.6-0.8s-14.4,19.8-7.6,52.4s36.6,44.8,36.6,44.8"
				/>
			<path class="st19" d="M83.3,129C83.3,128.9,83.3,128.9,83.3,129c-3-6.6-11.2-25.6-13.8-44.1c-2.7-19-17.1-13.3-17.1-13.3
				s-10.9,4.1-7.9,25.8c2.2,15.6,9.9,31.7,14.1,39.5c0,0,0,0,0,0c0,0,0,0,0,0c1.2,2.2,2.1,3.7,2.4,4.3"/>
			<path class="st19" d="M58.7,136.9C58.7,136.9,58.7,136.9,58.7,136.9C58.7,136.8,58.6,136.8,58.7,136.9c-5.6-7.4-12.2-21-19.1-21
				c-8.7,0-10.7,10.8-11,13.7c-0.3,2.9-0.6,13.9,7.9,29.4c6.7,12.3,17.1,19.5,23.2,23"/>
			<path class="st18" d="M73,210.8c0,0-5.7,3-19.3,0.5c-13.3-2.4-19.7-11.7-20.4-20.1c-0.8-10.6,8.7-10.9,11.7-10.9
				c2,0,8,0.5,11.8,0.8c0.5,0,0.9,0.1,1.3,0.1"/>
			<path class="st19" d="M74.2,210c0,0-8.6,4.7-11,5.6c-2.4,0.9-10.7,4.9-10.7,10.8c0,5.8,17.1,22.4,43.3,8.6l0-9.3"/>
			<path d="M99.4,195.6c-2.2,0-5.9-1.6-7.4-5.6c-2.2-5.6,3.1-10.3,3.1-10.3s-7.1-0.2-6.7-7.8c0.4-7.6,10.1-8.7,10.1-8.7
				s-5.2-4.9-6.9-10.7s3.3-9,3.3-9l-7.6-7.8c0,0-8.5,3.3-8.5,11.6c0,8.3,6.7,11.9,6.7,11.9s-10.7,2.2-10.7,12.9
				c0,10.7,10.5,12.1,10.5,12.1s-7.8,3.1-4.3,12.5c2.2,5.8,10.9,14.1,15.2,14.1L99.4,195.6z"/>
		</g>
		<g>
			<g>
				<g>
					<path class="st3" d="M270.7,209.2c-2.6,0-5.6-0.5-8.8-1.4c-7.3-2.1-14.1-4.6-17.6-6c-0.5-0.2-0.9-0.6-1.1-1.1
						c-0.2-0.5-0.1-1.1,0.2-1.6c1.7-2.9,3-5.5,3.6-8c1.4-5,0.8-8.9-1.9-12.1c-1.9-2.3-4.4-4.3-7.3-6c-0.8-0.5-1.1-1.4-0.8-2.3
						c0.3-0.7,1-1.2,1.7-1.2c0.1,0,0.2,0,0.3,0c6.3,1.2,15.5,3.5,23.5,8.2c14.5,8.4,21.9,17,20,23.6c-0.7,2.6-2.3,4.7-4.7,6
						C276,208.7,273.6,209.2,270.7,209.2z"/>
					<path class="st3" d="M172,264.2c-4.3,0-7.7-1.5-10.1-4.5c-5.8-7.2-4.3-21-3.4-26.5c0.1-0.6,0.5-1.1,1-1.3
						c0.3-0.1,0.6-0.2,0.9-0.2c0.3,0,0.5,0.1,0.8,0.2c4.8,2.3,10.6,3.4,17.4,3.4c2.6,0,5.3-0.2,8.1-0.5c0.1,0,0.1,0,0.2,0
						c0.4,0,0.9,0.2,1.2,0.4c0.4,0.3,0.6,0.8,0.7,1.3c0.3,4.7,0.4,16.4-5.5,23C180.5,262.6,176.7,264.2,172,264.2z"/>
					<path class="st3" d="M215.4,257.3c-6.6,0-16.6-2.9-27.1-16.6c-0.2-0.3-0.4-0.7-0.4-1.1c0-1.6-0.1-2.7-0.1-3.2
						c-0.1-1,0.6-1.9,1.6-2c7.2-1.1,13.8-3,18.1-4.3c2-0.7,4.4-1.8,7-3.3c0.3-0.2,0.6-0.3,0.9-0.3c0.2,0,0.4,0,0.7,0.1
						c2.4,0.9,4.5,1.9,6.4,3l0.3,0.2c4.2,2.5,6.8,5.4,8,8.7c3.7,10.6-3.5,15.4-6.8,16.9C222.9,256,219.8,257.3,215.4,257.3z"/>
					<path class="st3" d="M247.7,235.1c-4.1,0-9-1.1-14.5-2.4c-3.8-0.9-7.2-1.7-10.6-2.2c-0.2,0-0.5-0.1-0.7-0.2l-0.1-0.1
						c-1.2-0.7-2.5-1.4-4.1-2c-0.6-0.3-1.1-0.9-1.1-1.6c-0.1-0.7,0.3-1.3,0.8-1.7c9.2-6,18.5-14.8,24.2-23c0.4-0.5,0.9-0.8,1.5-0.8
						c0.3,0,0.6,0.1,0.8,0.2c10.7,5.3,20.5,14.8,16,25.8C257.7,232.6,253.8,235.1,247.7,235.1z"/>
					<path class="st34" d="M244.6,189c-0.5-6,1.2-12.6-5.7-16.7c8.8-1.9,29.2,10.3,35.2,20.5c1.1,3.5-0.7,5.1-3.9,5.7
						c-2.5,0.4-4.9-0.2-7.2-1c-5.1-1.7-10.1-3.6-15-5.7C246.5,191.3,245,190.8,244.6,189z"/>
					<path class="st34" d="M223,221.8c6.4-5.1,12.6-10.4,17.7-16.9c1-1.2,2-1.6,3.6-1.3c7.8,1.5,15.1,11.5,14,19.4
						c-0.3,2.2-1.5,3.7-3,5c-3,2-6.1,1.6-9.3,0.7c-6.7-2.1-13.4-4.5-20.5-5C224.4,223.8,223,223.6,223,221.8z"/>
					<path class="st34" d="M196.9,234.7c5.5-1.5,10.9-3.3,16-5.9c1.7-0.9,3.2-0.8,4.9-0.4c3.7,0.9,6.7,3.1,9.3,5.8
						c6.5,7,5.2,13.9-3.4,18.2c-3.7,1.5-6.6,0-9.3-2.3c-5.5-4.6-10.4-10-16.9-13.5C196.9,236.3,196.6,235.5,196.9,234.7z"/>
					<path class="st34" d="M159.4,239c0.5-7.2,0.5-7.3,7.5-5.3c4.6,1.3,9.3,1.9,14,2.2c6.2,0.4,7.6-2.4,6.4,6.8
						c-4.3,7-13.1,10.3-20.8,7.7C160.6,248.6,158.7,245.4,159.4,239z"/>
				</g>
				<path class="st25" d="M158.2,203.2c0,0-8.7-0.4-8.3-11.9c0.4-13.4,26.3-20.4,38.7-22.8c15.2-2.9,43.8-4.3,56.5,10.5
					s-22.1,46.3-37.6,51.4c-11.6,3.8-34,9-48.5,0.7"/>
				<path class="st33" d="M248.4,189.7c-0.1,0.6-0.2,1.1-0.4,1.7c-3.5,12.4-18.8,27.4-31.5,35.2c-0.3,0.2-0.6,0.3-1,0.3
					c-0.3,0-0.6-0.1-0.9-0.2c-0.6-0.3-0.9-1-0.9-1.6c0.1-4.5-2.8-9.1-5.6-10.6c-0.8-0.4-1.1-1.3-0.9-2.1c0.2-0.8,0.9-1.4,1.8-1.4
					c1.4,0,9.3-3.2,9.8-8.9c0.4-4.1-0.7-7.6-2.8-9.9c-1.6-1.8-3.8-2.8-6.2-2.8c-0.6,0-1.2-0.3-1.5-0.8
					C223.5,185.5,237.9,186.1,248.4,189.7z"/>
				<path class="st33" d="M196.6,212.3c1.6,1.9,3.2,4.7,3.2,8.6c0,5.3-5.9,10.3-10.9,13.5c-0.2,0.2-0.5,0.3-0.8,0.3
					c-3.4,0.4-6.7,0.7-9.7,0.7c-7.5,0-13.8-1.3-18.8-4c0,0.1,0,0.1,0,0.2c-0.1,0.3-0.1,0.8-0.2,1.4c-0.7-1.3-1.3-2.6-1.6-4
					c-3.5-14.7,15.9-32,43.8-39.5h0c3.8,1.8,5.9,5.8,5.9,11.6C207.5,208.2,201,211.1,196.6,212.3z"/>
			</g>
			<g>
				<path class="st18" d="M158.2,203.2c0,0-8.7-0.4-8.3-11.9c0.4-13.4,26.3-20.4,38.7-22.8c15.2-2.9,43.8-4.3,56.5,10.5
					s-22.1,46.3-37.6,51.4c-11.6,3.8-34,9-48.5,0.7"/>
				<path class="st19" d="M227.9,169c0,0,19,0.7,34,9.4c15,8.7,21.4,17,19.7,23c-1.6,6-8.1,9.4-20.1,6c-10.2-2.9-19.4-6.7-19.4-6.7"
					/>
				<path class="st19" d="M242.3,201.4c0,0,23.1,9.9,16.7,25.5c-5.5,13.5-21,5.4-37,3"/>
				<path class="st19" d="M159.2,231.6c0,0-6.8,31.9,12.7,31.9s16.1-28.4,16.1-28.4"/>
				<path class="st19" d="M215.1,226.7c2,0.7,4.5,1.8,6.9,3.2c0,0,0,0,0,0c3.5,2.1,6.7,4.9,8,8.6c3.3,9.2-2,14.1-6.5,16.3
					c-2.8,1.4-18.6,7.3-35.2-15"/>
				<path d="M215.1,226.7c1-5.7-2.6-11.9-6.4-13.9c2.2,0,11-3.6,11.6-10.5c0.8-8.7-4.2-14.6-10.9-14.7c13-8.5,8.9-20.8,8.9-20.8
					l-20.4,0.4c0,0,6.7,3.3,6.1,9.8c-0.5,6.5-6.2,11.9-9.9,14.3c6.4-0.9,11.3,1.8,11.3,10.6c0,8.8-13,10-13,10s5.4,3.1,5.4,9.6
					s-12.2,13.3-12.2,13.3l16.8-2.6L215.1,226.7z"/>
			</g>
		</g>
		<path class="st35" d="M200.6,76.2C200.6,76.2,200.6,76.2,200.6,76.2C200.6,76.1,200.6,76.1,200.6,76.2c-0.5-0.9-1-1.7-1.6-2.6
			c-0.1-0.1-0.1-0.2-0.1-0.2c-0.2-0.3-0.4-0.7-0.7-1c-0.2-0.3-0.4-0.6-0.6-0.9c-0.1-0.1-0.1-0.2-0.2-0.3c-0.1-0.1-0.1-0.2-0.2-0.3
			c-0.3-0.5-0.7-0.9-1.1-1.4c-0.3-0.3-0.5-0.7-0.8-1c-0.1-0.2-0.3-0.4-0.5-0.5c-0.2-0.3-0.5-0.6-0.7-0.8c-0.3-0.3-0.5-0.6-0.8-0.9
			c0,0-0.1-0.1-0.1-0.1c0,0-0.1-0.1-0.1-0.1c0,0,0,0-0.1-0.1c0,0,0,0-0.1,0c0,0-0.1-0.1-0.1-0.1c-0.3-0.4-0.7-0.7-1-1.1
			c-0.3-0.4-0.7-0.7-1-1.1c-0.6-0.6-1.1-1.1-1.7-1.6c-0.3-0.3-0.6-0.5-0.9-0.8c-0.3-0.2-0.5-0.5-0.8-0.7c-0.8-0.7-1.7-1.4-2.5-2.1
			c-0.6-0.4-1.2-0.9-1.7-1.3c-0.1,0-0.1-0.1-0.2-0.1c-0.3-0.2-0.6-0.5-1-0.7c-0.5-0.3-1-0.7-1.5-1c-0.6-0.4-1.2-0.7-1.7-1.1
			c-0.3-0.2-0.6-0.3-0.9-0.5c-0.6-0.3-1.2-0.6-1.7-0.9c-0.3-0.1-0.6-0.3-0.9-0.4c-0.3-0.1-0.6-0.3-0.9-0.4c-0.3-0.1-0.6-0.3-0.9-0.4
			c-0.3-0.1-0.6-0.2-0.8-0.3c-0.5-0.2-1.1-0.4-1.6-0.6c-0.1,0-0.2-0.1-0.3-0.1c-0.1,0-0.2-0.1-0.3-0.1c-0.4-0.1-0.8-0.2-1.3-0.4
			c-0.3-0.1-0.5-0.1-0.8-0.2c-0.3-0.1-0.5-0.1-0.8-0.2c-0.3-0.1-0.5-0.1-0.8-0.1c-0.3,0-0.5-0.1-0.8-0.1c0,0,0,0,0,0
			c-0.2,0-0.5,0-0.7-0.1c-0.2,0-0.5,0-0.7,0c-0.3,0-0.5,0-0.8,0c-0.3,0-0.5,0-0.7,0c-0.2,0-0.3,0-0.5,0c-0.1,0-0.1,0-0.2,0h0
			c0,0-0.1,0-0.1,0c-0.1,0-0.2,0-0.3,0c-0.2,0-0.4,0-0.6,0.1c-0.4,0.1-0.8,0.1-1.1,0.2c-0.6,0.2-1.2,0.4-1.7,0.6l-0.4,0.2
			c-0.3,0.2-0.6,0.3-0.9,0.5c0,0,0,0,0,0c-0.6,0.4-1.2,0.8-1.6,1.3c-1,1-1.7,2.2-2.2,3.6c-0.1,0.2-0.1,0.4-0.2,0.5
			c-0.1,0.4-0.2,0.7-0.3,1.1c-0.1,0.6-0.2,1.2-0.3,1.8c0,0.4,0,0.9,0,1.4v0.1c0,0.2,0,0.4,0,0.6c0,0.3,0,0.6,0.1,0.9
			c0,0.2,0.1,0.3,0.1,0.5c0.1,0.3,0.3,0.6,0.5,0.8c0.2,0.2,0.5,0.4,0.9,0.4c6.9,1.3,12.5,4.4,16.6,9.5c0.1,0.2,0.3,0.3,0.5,0.4
			c0.1,0.1,0.3,0.1,0.5,0.2c0.3,0.1,0.5,0.1,0.7,0.2c0.4,0.1,0.9,0.2,1.3,0.2c1.1,0.1,2.1,0.2,3.2,0.2c3.3,0,8-0.7,12.5-4
			c-0.5,2.9-2.1,6.3-5.7,7.7c-0.6,0.2-1,0.7-1.1,1.4c-0.1,0.6,0.1,1.3,0.5,1.7c2.1,2,4.6,2.5,6.3,2.7c-1.2,2.2-3.9,5.9-9.3,6.5
			c0,0-0.1,0-0.1,0c-0.3,0-0.6,0.2-0.9,0.4c-0.1,0.1-0.2,0.2-0.3,0.3c-0.2,0.3-0.3,0.6-0.4,0.9c0,0.1,0,0.3,0,0.5
			c0.2,1.2,0.3,2.4,0.4,3.3c0,0.4,0.2,0.7,0.4,1c0.1,0.2,0.3,0.3,0.5,0.4c0,0,0,0,0.1,0c0.6,0.3,1.2,0.6,1.7,0.9c0,0,0,0,0.1,0
			c0.6,0.3,1.1,0.5,1.7,0.8c0.5,0.2,1.1,0.4,1.6,0.6c0.1,0,0.1,0,0.2,0.1c0.2,0.1,0.4,0.1,0.6,0.2c0.2,0.1,0.3,0.1,0.5,0.2
			c0,0,0.1,0,0.1,0c0.2,0.1,0.3,0.1,0.5,0.1c0.2,0,0.3,0.1,0.5,0.1c0.1,0,0.2,0.1,0.4,0.1c0.1,0,0.3,0.1,0.4,0.1
			c0.3,0.1,0.5,0.1,0.8,0.2c1.5,0.3,3,0.5,4.4,0.5c1.5,0,2.9-0.2,4.1-0.6c0,0,0,0,0,0c0.3-0.1,0.6-0.2,0.9-0.3
			c0.2-0.1,0.4-0.1,0.5-0.2c0.2-0.1,0.3-0.2,0.5-0.3c0.1-0.1,0.3-0.1,0.4-0.2c0.2-0.1,0.4-0.2,0.5-0.4c0.3-0.2,0.5-0.4,0.8-0.7
			c0.1-0.1,0.3-0.2,0.4-0.4c0.3-0.3,0.5-0.5,0.7-0.8c0.2-0.2,0.4-0.5,0.5-0.7c0,0,0.1-0.1,0.1-0.1h0c0,0,0,0,0,0
			c0.2-0.3,0.4-0.6,0.5-0.9c0-0.1,0.1-0.2,0.1-0.3c0.1-0.1,0.1-0.2,0.2-0.4c0.1-0.2,0.2-0.4,0.2-0.6c0.1-0.1,0.1-0.3,0.1-0.5
			c0-0.1,0.1-0.2,0.1-0.3c0,0,0,0,0,0C205.9,89.3,204.4,82.9,200.6,76.2z"/>
		<path class="st36" d="M180.2,93.1c-0.4,0-0.8-0.3-0.9-0.8c0-0.2-0.1-0.4-0.1-0.6l0-0.2c-0.1-0.4-0.1-0.8-0.2-1.2
			c-0.1-0.3-0.1-0.6-0.2-0.9l0-0.2c-0.1-0.4-0.2-0.7-0.3-1.1c-0.1-0.4-0.2-0.7-0.3-1.1c-0.1-0.2-0.1-0.4-0.2-0.6l-0.1-0.3
			c-0.5-1.5-1-3-1.6-4.3c-0.1-0.3-0.2-0.5-0.3-0.8l-0.4-1l-0.1-0.1c0-0.1-0.1-0.2-0.1-0.3c-0.1-0.2-0.2-0.5-0.4-0.7
			c-0.2-0.3-0.3-0.6-0.5-0.9l-0.1-0.2c-0.1-0.3-0.3-0.5-0.4-0.7l-0.1-0.1c-0.2-0.3-0.4-0.6-0.6-0.9c-0.2-0.3-0.5-0.7-0.7-1
			c-0.2-0.3-0.2-0.7,0-1c0.2-0.3,0.5-0.4,0.8-0.4c0.1,0,0.1,0,0.2,0c1.2,0.2,2.4,0.3,3.6,0.3c0.9,0,1.8-0.1,2.7-0.2
			c0.2,0,0.5-0.1,0.7-0.1c0.2,0,0.5-0.1,0.7-0.1l0.1,0c0.2,0,0.4-0.1,0.5-0.1l0.3,0.8l-0.2-0.9l0.6-0.2c0,0,0,0,0,0c0,0,0,0,0.1,0
			c0,0,0.1,0,0.1,0c0.2-0.1,0.4-0.1,0.6-0.2c0.3-0.1,0.5-0.2,0.7-0.3c0.4-0.1,0.7-0.3,1-0.4l0.2-0.1c0.1,0,0.2-0.1,0.3-0.2
			c1.1-0.6,2.1-1.2,3.1-1.9l0.1-0.1c0.1-0.1,0.2-0.1,0.2-0.2c0.2-0.2,0.4-0.3,0.5-0.4c0.2-0.1,0.4-0.2,0.6-0.2c0.1,0,0.2,0,0.4,0.1
			c0.3,0.1,0.5,0.5,0.5,0.8c0,0,0,0.4,0,0.4c0,0.1,0,0.3,0,0.4c0,0.1,0,0.3,0,0.5c0,0.2,0,0.4-0.1,0.5l-0.1,0.3
			c-0.1,0.4-0.1,0.7-0.2,1.2c0,0.2-0.1,0.3-0.1,0.5c-0.1,0.2-0.1,0.5-0.2,0.7c-0.1,0.2-0.1,0.3-0.2,0.5c0,0.1-0.1,0.2-0.1,0.2
			c-0.4,1-1,2-1.6,2.8c-0.1,0.1-0.2,0.2-0.3,0.3c-0.3,0.3-0.6,0.7-1,0.9c-0.2,0.2-0.5,0.4-0.7,0.6c-0.1,0.1-0.2,0.1-0.3,0.2
			l-0.1,0.1c-0.1,0.1-0.3,0.2-0.4,0.2c-0.2,0.1-0.3,0.2-0.5,0.2c-0.3,0.1-0.5,0.2-0.8,0.4c1.7,1.7,3.9,2.1,5.5,2.1c0,0,0,0,0,0
			c0.2,0,0.5,0,0.6,0c0,0,0,0,0.1,0c0.3,0,0.5,0.1,0.7,0.4c0.2,0.2,0.2,0.6,0.1,0.9c-0.7,1.8-3.5,7.7-11,8.6
			C180.2,93.1,180.2,93.1,180.2,93.1z"/>
		<path class="st22" d="M233.3,77.3c-0.3-0.7-1-1.1-1.7-1.1h-21.1V45.4c0-1-0.8-1.9-1.9-1.9h-30.8V23.2c0-0.8-0.5-1.4-1.1-1.7
			c-0.2-0.1-0.5-0.1-0.7-0.1c-0.5,0-1,0.2-1.3,0.5l-22.6,22.6c-0.2,0.2-0.5,0.5-0.7,0.8c0,0,0,0,0,0c-0.2,0.3-0.4,0.5-0.7,0.8
			c-0.2,0.2-0.3,0.4-0.5,0.6c0,0,0,0,0,0c-0.1,0.1-0.2,0.3-0.3,0.4c-0.2,0.2-0.3,0.5-0.5,0.8c-0.2,0.3-0.3,0.5-0.5,0.8
			c-0.2,0.3-0.3,0.6-0.5,0.9c-0.2,0.3-0.3,0.6-0.5,1c-0.1,0.2-0.2,0.5-0.3,0.7c-0.2,0.4-0.3,0.9-0.5,1.3c-0.1,0.3-0.2,0.7-0.3,1.1
			c-0.1,0.4-0.2,0.7-0.3,1.1c-0.1,0.4-0.2,0.7-0.2,1.1c-0.3,1.9-0.5,3.9-0.4,6v0.1c0,0.3,0.1,0.6,0.3,0.8c0.3,0.6,0.9,0.9,1.6,0.9
			c1.8,0,3.3,0.1,4.7,0.3c0.1,0,0.2,0,0.2,0c0.2,0,0.5,0,0.7-0.1c0.2-0.1,0.4-0.2,0.6-0.4c0.1-0.1,0.1-0.1,0.2-0.2
			c0.3-0.4,0.4-0.8,0.4-1.3c-0.2-3.4,0.6-6.1,2.4-8h0c0.1-0.1,0.2-0.2,0.3-0.3c0.2-0.1,0.3-0.3,0.5-0.4c0.1-0.1,0.2-0.1,0.3-0.2
			c0.1-0.1,0.2-0.1,0.2-0.2c0.2-0.1,0.3-0.2,0.5-0.3c0.1,0,0.1-0.1,0.2-0.1c0,0,0.1,0,0.1-0.1c0.2-0.1,0.3-0.1,0.5-0.2
			c0.3-0.1,0.6-0.2,0.9-0.3c0.2,0,0.3-0.1,0.5-0.1c0.1,0,0.3-0.1,0.4-0.1c0.1,0,0.1,0,0.2,0c0.1,0,0.1,0,0.2,0c0,0,0,0,0,0
			c0,0,0,0,0,0c0.2,0,0.3,0,0.5-0.1c0.1,0,0.2,0,0.4,0c0.1,0,0.1,0,0.2,0c0.2,0,0.3,0,0.5,0c0.1,0,0.3,0,0.4,0h0.2
			c0.4,0,0.8,0,1.1,0c0.1,0,0.1,0,0.2,0c0.7,0.1,1.4,0.1,2.1,0.3c4,0.8,8.5,2.7,12.9,5.7c0.1,0,0.1,0.1,0.2,0.1
			c0.4,0.3,0.8,0.5,1.1,0.8c0.1,0.1,0.2,0.1,0.3,0.2c0.1,0.1,0.1,0.1,0.2,0.2c0.3,0.2,0.5,0.4,0.8,0.6c0.2,0.2,0.5,0.4,0.7,0.5
			c0.3,0.2,0.6,0.4,0.8,0.7c0,0,0.1,0.1,0.1,0.1c0.5,0.4,1.1,0.9,1.6,1.4c0.5,0.5,1.1,0.9,1.6,1.4c0.3,0.2,0.5,0.5,0.8,0.7
			c0.3,0.3,0.5,0.5,0.8,0.8c0.2,0.2,0.3,0.3,0.5,0.5c0.1,0.1,0.2,0.2,0.3,0.3c0.1,0.1,0.1,0.1,0.2,0.2h0c0.1,0.1,0.1,0.1,0.2,0.2
			c0,0,0.1,0.1,0.1,0.1c0.1,0.1,0.1,0.1,0.1,0.2c0.1,0.1,0.1,0.1,0.2,0.2c0.1,0.1,0.2,0.3,0.3,0.4c0,0,0.1,0.1,0.1,0.1
			c0.1,0.1,0.1,0.1,0.2,0.2c0.3,0.3,0.6,0.7,0.9,1c0,0,0,0,0,0v0c0,0,0,0,0.1,0.1v0c0.2,0.2,0.4,0.4,0.5,0.6
			c0.1,0.2,0.3,0.4,0.4,0.5c0.1,0.2,0.3,0.4,0.4,0.5c0.2,0.2,0.3,0.4,0.5,0.6c0.2,0.3,0.4,0.6,0.6,0.8c0.5,0.6,0.9,1.2,1.3,1.8
			c0.2,0.2,0.3,0.5,0.5,0.7c0,0,0,0,0.1,0.1c0.2,0.3,0.3,0.5,0.5,0.8c0.3,0.5,0.6,1,0.9,1.5c0.1,0.1,0.1,0.3,0.2,0.4
			c0.1,0.2,0.2,0.4,0.3,0.6c0,0,0,0,0,0c0.2,0.3,0.3,0.5,0.4,0.8c0,0,0.1,0.1,0.1,0.2c0,0.1,0.1,0.2,0.1,0.3
			c0.1,0.1,0.1,0.3,0.2,0.4c0.1,0.1,0.1,0.3,0.2,0.4c0.1,0.3,0.2,0.5,0.4,0.7c0.1,0.1,0.1,0.3,0.2,0.4c0.3,0.6,0.5,1.2,0.7,1.8
			c0,0,0,0,0,0.1c0.2,0.6,0.4,1.2,0.6,1.7c0,0,0,0.1,0,0.1c0,0.1,0.1,0.3,0.1,0.4c0.1,0.3,0.2,0.6,0.2,0.9c0,0.1,0,0.2,0.1,0.3
			c0,0.1,0,0.2,0.1,0.2c0,0.1,0.1,0.2,0.1,0.3c0,0.2,0.1,0.4,0.1,0.5c0.1,0.3,0.1,0.5,0.1,0.7c0,0.2,0.1,0.3,0.1,0.5
			c0,0,0,0.1,0,0.1c0,0,0,0.1,0,0.1c0,0.1,0,0.1,0,0.2c0,0.2,0,0.4,0.1,0.6c0,0.4,0,0.8,0,1.2c0,0.7-0.1,1.4-0.1,2.1
			c-0.1,0.5-0.2,1-0.3,1.4c-0.1,0.3-0.2,0.6-0.3,0.9c-0.1,0.1-0.1,0.3-0.2,0.4c-0.1,0.3-0.3,0.5-0.4,0.8c-0.3,0.5-0.7,1-1.1,1.4h0
			c-0.5,0.5-1.1,0.9-1.7,1.3h0c0,0,0,0,0,0c-0.1,0-0.1,0.1-0.2,0.1c-0.2,0.1-0.4,0.2-0.6,0.3c-0.1,0.1-0.3,0.1-0.4,0.2
			c-0.3,0.1-0.6,0.2-0.9,0.3c0,0,0,0,0,0c-0.1,0-0.3,0.1-0.5,0.1c-0.8,0.2-1.7,0.2-2.6,0.2c-0.8,0-1.7-0.1-2.7-0.2c0,0,0,0,0,0
			c-0.9-0.1-1.9-0.3-2.8-0.6c-0.2-0.1-0.5-0.1-0.7-0.2c-0.2-0.1-0.5-0.2-0.7-0.2c-0.3-0.1-0.5-0.2-0.8-0.3c-0.1,0-0.3-0.1-0.4-0.1
			c-0.1,0-0.3-0.1-0.4-0.1c-0.3-0.1-0.5-0.2-0.8-0.3c-0.5-0.2-1-0.4-1.6-0.7c-0.3-0.1-0.5-0.3-0.8-0.4c0,0,0,0,0,0
			c-0.3-0.1-0.5-0.2-0.8-0.2c-0.4,0-0.7,0.1-1,0.3h0c-0.2,0.2-0.4,0.3-0.5,0.6c-0.2,0.3-0.3,0.7-0.3,1.1c0.1,1,0.1,1.9,0.1,2.9
			c0,0.7,0,1.4-0.1,2.1c0,0.7,0.3,1.3,0.9,1.6c0.1,0.1,0.2,0.1,0.3,0.1c0.2,0.1,0.4,0.2,0.6,0.3c0.7,0.3,1.5,0.6,2.2,0.8
			c0.2,0.1,0.4,0.1,0.6,0.2c0.2,0.1,0.4,0.1,0.6,0.2c0.3,0.1,0.6,0.2,0.8,0.2c0.2,0.1,0.5,0.1,0.7,0.2c0.1,0,0.3,0.1,0.4,0.1
			c0.3,0.1,0.5,0.1,0.8,0.2c0.7,0.2,1.4,0.3,2.1,0.4c0.2,0,0.5,0.1,0.7,0.1c0.2,0,0.3,0,0.5,0.1c0.2,0,0.5,0,0.7,0.1
			c0.5,0,1,0.1,1.4,0.1c0.4,0,0.8,0,1.2,0h0c0.4,0,0.7,0,1.1,0c0.1,0,0.2,0,0.3,0c0.4,0,0.7,0,1.1-0.1c0,0,0,0,0,0
			c0.4,0,0.8-0.1,1.2-0.1c0,0,0,0,0.1,0c0.2,0,0.5-0.1,0.7-0.1c0,0,0.1,0,0.1,0c0.2,0,0.4-0.1,0.5-0.1c0,0,0.1,0,0.1,0
			c0.1,0,0.3-0.1,0.4-0.1c0,0,0,0,0.1,0c0.3-0.1,0.6-0.1,0.9-0.2c0,0,0.1,0,0.1,0c0.2,0,0.4-0.1,0.5-0.1c0.2,0,0.4-0.1,0.5-0.2
			c0.1,0,0.1,0,0.2,0c0.4-0.1,0.7-0.2,1.1-0.4c0.4-0.1,0.7-0.3,1.1-0.4c0.4-0.1,0.7-0.3,1.1-0.5c0,0,0.1,0,0.1-0.1h0
			c0.3-0.1,0.6-0.3,0.8-0.4c0.3-0.2,0.7-0.3,1-0.5c0.2-0.1,0.3-0.2,0.5-0.3c0.1-0.1,0.3-0.2,0.4-0.3c0.3-0.2,0.5-0.4,0.8-0.6
			c0.3-0.2,0.5-0.4,0.8-0.6c0.3-0.2,0.5-0.4,0.7-0.6c0.3-0.2,0.5-0.5,0.8-0.7L233,79.4C233.5,78.8,233.6,78,233.3,77.3z M200.6,76.2
			L200.6,76.2c0.2,0.4,0.5,0.8,0.7,1.3C201.1,77,200.8,76.6,200.6,76.2z M202.5,79.9c0.6,1.3,1,2.5,1.4,3.7
			C203.5,82.3,203,81.1,202.5,79.9z M204.6,94.1C204.6,94.1,204.6,94.1,204.6,94.1c0.5-1.8,0.6-3.8,0.3-6
			C205.2,90.3,205.1,92.3,204.6,94.1z"/>
		<path class="st27" d="M207.9,102c-5.5,4.1-15,6.5-26.5,1.5c0-0.7,0.1-1.4,0.1-2.2c0-0.8,0-1.8-0.1-3c0.3,0.1,0.5,0.3,0.8,0.4
			c0,0,0,0,0.1,0c0.6,0.3,1.1,0.5,1.7,0.8c0.5,0.2,1.1,0.4,1.6,0.6c0.1,0,0.1,0,0.2,0.1c0.2,0.1,0.4,0.1,0.6,0.2
			c0.2,0.1,0.3,0.1,0.5,0.2c0,0,0.1,0,0.1,0c0.2,0.1,0.3,0.1,0.5,0.1c0.2,0,0.3,0.1,0.5,0.1c0.1,0,0.2,0.1,0.4,0.1
			c0.1,0,0.3,0.1,0.4,0.1c0.3,0.1,0.5,0.1,0.8,0.2c1.5,0.3,3,0.5,4.4,0.5c1.5,0,2.9-0.2,4.1-0.6c0,0,0,0,0,0
			c0.3-0.1,0.6-0.2,0.9-0.3c0.2-0.1,0.4-0.1,0.5-0.2c0.2-0.1,0.3-0.2,0.5-0.3c0.1-0.1,0.3-0.1,0.4-0.2c0.2-0.1,0.4-0.2,0.5-0.4
			c0.3-0.2,0.5-0.4,0.8-0.7c0.1-0.1,0.3-0.2,0.4-0.4h0c0.3-0.3,0.5-0.5,0.7-0.8c0.2-0.2,0.4-0.5,0.5-0.7c0,0,0.1-0.1,0.1-0.1
			c0,0,0,0,0,0c0.2-0.3,0.4-0.6,0.5-0.9c0-0.1,0.1-0.2,0.1-0.3c2.5-5.5,0.6-13.8-5-22.3c-0.1-0.1-0.1-0.2-0.1-0.2
			c-0.2-0.3-0.4-0.7-0.7-1c-0.2-0.3-0.4-0.6-0.6-0.9c-0.1-0.1-0.1-0.2-0.2-0.3c-0.1-0.1-0.1-0.2-0.2-0.3c-0.3-0.5-0.7-0.9-1.1-1.4
			c-0.3-0.3-0.5-0.7-0.8-1c-0.1-0.2-0.3-0.4-0.5-0.5c-0.2-0.3-0.5-0.6-0.7-0.8c-0.2-0.3-0.5-0.6-0.8-0.9c0,0-0.1-0.1-0.1-0.1
			c0,0-0.1-0.1-0.1-0.1c0,0,0,0-0.1-0.1c-0.2-0.2-0.3-0.4-0.5-0.6c-0.2-0.2-0.4-0.4-0.6-0.6c-0.3-0.4-0.7-0.7-1-1.1
			c-0.6-0.6-1.1-1.1-1.7-1.6c-0.3-0.3-0.6-0.5-0.9-0.8c-0.3-0.3-0.5-0.5-0.8-0.7c-0.8-0.7-1.7-1.4-2.5-2.1c-0.6-0.4-1.2-0.9-1.7-1.3
			c-0.1,0-0.1-0.1-0.2-0.1c-0.3-0.2-0.6-0.4-1-0.7c-0.5-0.3-1-0.7-1.5-1c-0.6-0.4-1.2-0.7-1.7-1.1c-0.3-0.2-0.6-0.3-0.9-0.5
			c-0.6-0.3-1.2-0.6-1.7-0.9c-0.4-0.2-0.7-0.4-1.1-0.5c-0.1-0.1-0.3-0.1-0.5-0.2c-0.4-0.2-0.7-0.3-1.1-0.5c-0.3-0.1-0.6-0.2-0.8-0.3
			c-0.5-0.2-1.1-0.4-1.6-0.6c-0.1,0-0.2-0.1-0.3-0.1c-0.1,0-0.2-0.1-0.3-0.1c-0.4-0.1-0.8-0.3-1.3-0.4c-0.3-0.1-0.5-0.1-0.8-0.2
			c-0.3-0.1-0.5-0.1-0.8-0.2c-0.3-0.1-0.5-0.1-0.8-0.1c-0.3,0-0.5-0.1-0.8-0.1c0,0,0,0,0,0c-0.4,0-0.8-0.1-1.2-0.1
			c-0.1,0-0.1,0-0.2,0c-0.3,0-0.5,0-0.8,0c-0.2,0-0.5,0-0.7,0c-0.2,0-0.3,0-0.5,0c-0.1,0-0.1,0-0.2,0h0c0,0-0.1,0-0.1,0
			c-0.1,0-0.2,0-0.3,0c-0.2,0-0.4,0-0.6,0.1c-0.4,0.1-0.8,0.1-1.1,0.2c-0.6,0.1-1.2,0.3-1.7,0.6c-0.1,0-0.2,0.1-0.4,0.2
			c-0.3,0.1-0.6,0.3-0.9,0.5c0,0,0,0,0,0c-0.6,0.4-1.2,0.8-1.7,1.3c-0.6,0.6-1.1,1.3-1.6,2.1c-1.1,2-1.6,4.5-1.4,7.3
			c-1.6-0.2-3.2-0.3-5-0.3c-0.3-5.4,1.1-10.4,3.9-14.2c10-5.8,27.6-0.3,41.7,13.8C207.2,74.9,212.8,91.9,207.9,102z"/>
		<path class="st21" d="M170.5,73.1c0,0,11.2,4.5,20.8-4.5c0.2,2.9-0.7,10.1-7.4,12.3c3.1,3.6,8,2.7,8,2.7s-2.4,8.7-11.9,9.4"/>
		<g>
			<path class="st20" d="M154.1,64.4c-0.6-4.3,0.1-7.9,2.5-10.3c6.2-6.2,21.3-1.3,33.6,11c12.3,12.3,17.2,27.3,11,33.6
				c-4.3,4.3-12.6,3.3-21.4-1.6"/>
		</g>
		<path class="st20" d="M147.2,62.9c-0.8-8,1.9-14.3,5.6-18l24-24v23.4h23.4h9v9v23.4h24.1l-23.2,23.8c-5.4,5.4-16.6,9.3-30.4,2.9"
			/>
		<path class="st18" d="M107.9,95c0,0,8-31.1,39.5-31.1s32.6,31.5,32.6,38c0,29.8-24.7,45-24.6,79.7"/>
	</g>
</g>
</svg>
