<?xml version="1.0" encoding="utf-8"?>
<!-- Generator: Adobe Illustrator 25.2.3, SVG Export Plug-In . SVG Version: 6.00 Build 0)  -->
<!DOCTYPE svg PUBLIC "-//W3C//DTD SVG 1.1//EN" "http://www.w3.org/Graphics/SVG/1.1/DTD/svg11.dtd" [
	<!ENTITY ns_extend "http://ns.adobe.com/Extensibility/1.0/">
	<!ENTITY ns_ai "http://ns.adobe.com/AdobeIllustrator/10.0/">
	<!ENTITY ns_graphs "http://ns.adobe.com/Graphs/1.0/">
	<!ENTITY ns_vars "http://ns.adobe.com/Variables/1.0/">
	<!ENTITY ns_imrep "http://ns.adobe.com/ImageReplacement/1.0/">
	<!ENTITY ns_sfw "http://ns.adobe.com/SaveForWeb/1.0/">
	<!ENTITY ns_custom "http://ns.adobe.com/GenericCustomNamespace/1.0/">
	<!ENTITY ns_adobe_xpath "http://ns.adobe.com/XPath/1.0/">
]>
<svg version="1.1" xmlns:x="&ns_extend;" xmlns:i="&ns_ai;" xmlns:graph="&ns_graphs;"
	 xmlns="http://www.w3.org/2000/svg" xmlns:xlink="http://www.w3.org/1999/xlink" x="0px" y="0px" viewBox="0 0 263.7 326.2"
	 style="enable-background:new 0 0 263.7 326.2;" xml:space="preserve">
<style type="text/css">
	.st0{fill:#0D8036;}
	.st1{fill:#D2CFB5;}
	.st2{fill:#FED200;}
	.st3{fill:#2E2E2E;}
	.st4{fill:#D1E7D5;}
	.st5{fill:#9D8300;}
	.st6{fill:none;}
	.st7{fill:#E63F37;}
	.st8{fill:#F5A900;}
	.st9{fill:#00950A;}
	.st10{fill:#15C534;}
	.st11{fill:#7D4A26;}
	.st12{fill:#ADA77F;}
	.st13{fill:#3E1604;}
	.st14{fill:#00970A;}
	.st15{fill:#ABD2B1;}
	.st16{fill:#ACA77F;}
	.st17{fill:#6D6D6D;}
	.st18{fill:none;stroke:#000000;stroke-width:3;stroke-linecap:round;stroke-linejoin:round;stroke-miterlimit:10;}
	.st19{fill:none;stroke:#000000;stroke-width:3;stroke-miterlimit:10;}
	.st20{fill:none;stroke:#000000;stroke-width:3;stroke-linecap:round;stroke-miterlimit:10;}
	.st21{fill:none;stroke:#000000;stroke-linecap:round;stroke-miterlimit:10;}
	.st22{fill:#FFD103;}
	.st23{fill:#E53F37;}
	.st24{fill:#48AC38;}
	.st25{fill:#D0CEB4;}
	.st26{fill:#D0E6D4;}
	.st27{fill:#F4A806;}
	.st28{fill:#7D4A25;}
	.st29{fill:#ACA67F;}
	.st30{fill:#3B190F;}
	.st31{fill:#0D9739;}
	.st32{fill:#AAD1B1;}
	.st33{fill:#ABA67F;}
	.st34{fill:#6E6E6E;}
	.st35{fill:#9B8316;}
	.st36{fill:#0B9539;}
</style>
<metadata>
	<sfw  xmlns="&ns_sfw;">
		<slices></slices>
		<sliceSourceBounds  bottomLeftOrigin="true" height="341.2" width="917.2" x="-336.1" y="982.9"></sliceSourceBounds>
	</sfw>
</metadata>
<g id="duckfill">
</g>
<g id="rightwingfill">
</g>
<g id="rightwingline">
</g>
<g id="leftwingfill">
</g>
<g id="leftwingline">
</g>
<g id="duckline">
	<g>
		<path class="st1" d="M226.9,224.9c-4.6,0-9.8-1.2-15.1-2.5c-1.7-0.4-3.4-0.8-5.2-1.2c1.9,1.8,3.2,3.8,3.9,5.9
			c4.1,11.6-3.9,16.9-7.5,18.6c-1.3,0.6-4.6,2-9.4,2c-6.8,0-16.4-2.8-26.4-14.8c-0.4,5.4-1.8,12.2-5.9,16.8
			c-3.1,3.5-7.2,5.2-12.3,5.2c-4.7,0-8.4-1.7-11.1-5c-7-8.6-4.2-25.7-3.5-29.1c-0.3-0.4-0.4-1-0.1-1.5c0-0.1,0.1-0.2,0.2-0.2
			c0.1-0.1,0.1-0.1,0.2-0.2h0c0.1-0.1,0.1-0.1,0.2-0.1c0.1,0,0.1-0.1,0.2-0.1c0.1,0,0.1,0,0.2-0.1c0,0,0,0,0,0c0.1,0,0.2,0,0.2,0
			c0.2,0,0.5,0.1,0.7,0.2c8.3,4.8,19.3,5,29.2,3.7c3.7-2.4,10.3-7.4,10.3-12.3c0-6.7-5.6-10-5.6-10s13.5-1.3,13.5-10.4
			c0-0.4,0-0.7,0-1.1c0-0.4,0-0.7-0.1-1c0-0.4-0.1-0.8-0.2-1.2c0-0.1,0-0.2-0.1-0.3c0-0.1,0-0.2-0.1-0.4c0-0.2-0.1-0.4-0.1-0.6
			c0-0.1-0.1-0.3-0.1-0.4c0,0,0,0,0,0c-0.1-0.2-0.1-0.4-0.2-0.6c-0.1-0.2-0.1-0.4-0.2-0.6c-0.1-0.3-0.3-0.6-0.4-0.9
			c-0.1-0.3-0.3-0.5-0.5-0.7c-0.1-0.1-0.2-0.2-0.2-0.3c-0.1-0.1-0.1-0.2-0.2-0.3c0,0,0,0,0,0c-0.1-0.1-0.1-0.1-0.2-0.2
			c-0.1-0.1-0.3-0.3-0.4-0.4c0,0,0,0-0.1-0.1c-0.2-0.2-0.3-0.3-0.5-0.4c0,0,0,0-0.1,0c-0.2-0.2-0.4-0.3-0.7-0.4c0,0,0,0,0,0
			c-0.2-0.2-0.5-0.3-0.8-0.4c0,0,0,0,0,0c-0.1-0.1-0.3-0.1-0.4-0.2c-0.1-0.1-0.3-0.1-0.4-0.1c-0.1,0-0.3-0.1-0.4-0.1
			c0,0-0.1,0-0.1,0c-0.1,0-0.2-0.1-0.3-0.1c-0.2,0-0.3-0.1-0.5-0.1c-0.1,0-0.2,0-0.4-0.1c0,0-0.1,0-0.1,0c-0.1,0-0.3,0-0.4,0
			c-0.1,0-0.2,0-0.3,0c-0.2,0-0.4,0-0.7,0c-0.2,0-0.3,0-0.5,0h0c-0.2,0-0.3,0-0.5,0c-0.2,0-0.3,0-0.5,0c-0.3,0-0.7,0.1-1,0.1
			c3.8-2.4,9.7-8,10.2-14.7c0.4-4.5-2.5-7.5-4.5-9c-3.9,0.3-7.6,0.9-11.2,1.5c-4.8,0.9-24.1,5-33.6,13c-0.1,0.1-0.2,0.2-0.4,0.3
			c-2.9,2.6-4.8,5.5-4.9,8.9c-0.3,10.3,6.9,10.9,7.2,10.9c0.8,0,1.4,0.7,1.4,1.5c0,0.8-0.7,1.4-1.5,1.4c0,0-1.2-0.1-2.7-0.6
			c-3.1,6.5-9.6,10.7-17,10.7c-0.7,0-1.4,0-2-0.1v0.1c0,0.3,0,0.7,0,1c0,0.2,0,0.5-0.1,0.8c0,0.2,0,0.4-0.1,0.6c0,0,0,0.1,0,0.1
			c0,0.2-0.1,0.4-0.1,0.7c0,0.2-0.1,0.3-0.1,0.5c0,0.2-0.1,0.3-0.1,0.5c0,0.1,0,0.2-0.1,0.3c0,0.2-0.1,0.4-0.1,0.5c0,0,0,0,0,0.1
			c-0.1,0.2-0.1,0.4-0.2,0.7c-0.1,0.3-0.2,0.6-0.3,0.9c-0.1,0.3-0.2,0.6-0.3,0.9c-0.1,0.2-0.2,0.5-0.3,0.7c-0.1,0.1-0.1,0.3-0.2,0.4
			c0,0,0,0,0,0c0,0.1-0.1,0.1-0.1,0.2c-0.1,0.2-0.3,0.5-0.4,0.7c0,0,0,0,0,0c-0.1,0.1-0.2,0.3-0.3,0.4c-0.1,0.2-0.3,0.4-0.4,0.6
			c-0.3,0.4-0.6,0.8-0.9,1.2c-0.2,0.2-0.3,0.4-0.5,0.6c0,0.1-0.1,0.1-0.2,0.2c-0.2,0.2-0.4,0.5-0.6,0.7c0,0,0,0.1-0.1,0.1
			c0,0,0,0-0.1,0.1c-0.3,0.3-0.6,0.5-0.9,0.8l0,0c-0.1,0.1-0.3,0.2-0.4,0.4c0,0,0,0,0,0c-0.2,0.2-0.5,0.4-0.7,0.6
			c-0.2,0.2-0.5,0.4-0.7,0.5c-0.2,0.1-0.4,0.3-0.6,0.4c-0.2,0.1-0.4,0.3-0.7,0.4c-0.1,0.1-0.2,0.1-0.4,0.2c-0.1,0.1-0.2,0.1-0.4,0.2
			c0,0,0,0,0,0c0,0,0,0,0,0c-0.3,0.1-0.5,0.3-0.8,0.4c-0.3,0.1-0.5,0.2-0.8,0.3c-0.3,0.1-0.6,0.2-0.9,0.3c-0.3,0.1-0.6,0.2-0.9,0.3
			c-0.3,0.1-0.6,0.2-0.9,0.2c-0.3,0.1-0.6,0.1-0.9,0.2c-0.3,0.1-0.7,0.1-1,0.2c-0.3,0-0.7,0.1-1.1,0.1c-0.1,0-0.2,0-0.4,0
			c-0.1,0-0.2,0-0.4,0c-0.2,0-0.3,0-0.5,0c-0.7,0-1.5,0-2.2-0.1c0,9.6-7.1,17.4-16.4,18.6c3.8,10.4,10.4,17.7,19.5,21.8
			c0.3-0.8,0.6-1.6,0.9-2.2c2.7-7,10.6-10.4,17.6-7.7c3.4,1.3,6,3.9,7.5,7.2c1.3,3,1.5,6.2,0.6,9.3c12.3,0.9,32.6,0.6,55.1-7.2
			c0.1-0.1,0.3-0.1,0.4-0.1c0.7-0.2,1.4-0.5,2.1-0.8c0.7-0.3,1.4-0.5,2.1-0.8h0c0.2-0.1,0.4-0.2,0.7-0.3c0.7-0.3,1.5-0.6,2.2-0.9
			c0.1,0,0.2-0.1,0.3-0.1c0.8-0.3,1.5-0.6,2.3-1c0.7-0.3,1.4-0.6,2.1-1c0.2-0.1,0.5-0.2,0.7-0.3c0.7-0.3,1.3-0.6,2-0.9
			c0.1,0,0.1-0.1,0.2-0.1c0.6-0.3,1.1-0.6,1.7-0.9c0,0,0,0,0.1,0c0.4-0.2,0.7-0.4,1.1-0.6c0.6-0.3,1.3-0.7,1.9-1
			c13-7,24.1-16.3,32.9-27.6C228.8,224.9,227.9,224.9,226.9,224.9z"/>
		<path class="st2" d="M114.6,97.5c-0.8-5.5-11.8-19.1-25.6-19.1c-0.2,0-0.4,0-0.6,0c-1.8,0-3.5,0.1-5.1,0.3c-0.1,0-0.2,0-0.2,0
			c-0.1,0-0.2,0-0.3,0h-0.1c-0.1,0-0.1,0-0.2,0c-12.5,1.3-17.7,5.3-19.9,8.4c-0.5,0.7-1,1.6-0.7,2.6c0.3,1.1,1.4,2.6,6.8,5
			c2.3,1,6.6,2.1,11.5,3.2c-0.1,0.1-0.1,0.2-0.2,0.2c-3.2,4.9-4.8,8.9-4.7,11.6c0.1,2.5,1.5,3.4,2,3.7l0.1,0
			c1.2,0.9,3.7,1.4,6.7,1.4c1.8,0,3.7-0.2,5.8-0.5c2.2-0.4,4.4-0.9,6.8-1.7C109.5,108.8,115.5,103.7,114.6,97.5z M90.4,102.1
			c0.2-0.3,0.4-0.6,0.5-0.9c0.1-0.3,0-0.6,0-0.9c0,0,0,0,0-0.1c4.8,0.9,9.4,1.7,12.6,2.2c-0.6,0.2-1.1,0.5-1.7,0.7
			c-8.4,3.4-12.8,4.8-14.5,4.8C87.3,106.9,88.7,104.4,90.4,102.1z"/>
		<path d="M101.1,87.6c-0.1,0.2-0.4,0.4-0.6,0.3c-1-0.4-1.9-0.6-2.7-0.6c-0.7,0-1.1,0.2-1.2,0.5C96.4,88,96.6,88.5,97,89
			c0.5,0.6,1.4,1.1,2.3,1.5c0.2,0.1,0.4,0.4,0.3,0.6c-0.1,0.2-0.3,0.3-0.4,0.3c-0.1,0-0.1,0-0.2,0c-1.1-0.4-2-1.1-2.7-1.8
			c-0.7-0.8-1-1.6-0.7-2.2c0.3-0.7,1-1,2.1-1.1c0.9,0,2,0.2,3.1,0.7C101.1,87.1,101.2,87.3,101.1,87.6z"/>
		<path class="st2" d="M86.2,325.9c-10,0-21.3-6.4-29.6-16.7l-0.2-0.2c-4.4-5.4-8.7-11.1-7.9-15.5c0.3-1.6,1.1-2.8,2.6-3.7
			c1.4-0.9,2.7-1.3,4.2-1.3c0.5,0,1,0,1.5,0.1c0.3,0,0.7,0.1,1.1,0.1c1,0,1.6-0.2,2.3-0.8c0.8-0.6,1.1-1.7,1.4-3.1
			c0.4-1.7,0.9-3.5,2.6-4.8c0.7-0.5,1.5-0.8,2.4-0.8c0.7,0,1.5,0.2,2.3,0.4c0.8,0.2,1.5,0.4,2.3,0.4c0.9,0,1.6-0.2,2.4-0.8
			c0.5-0.4,0.8-1.6,1.1-2.7c0.5-2.2,1.2-4.9,3.4-6.4c1.1-0.7,2.3-1.1,3.5-1.1c0.5,0,1,0.1,1.4,0.2c2.4,0.5,4.9,2.4,6.4,4.8
			c11.4,18.8,17.9,41.2,6.9,49C93.6,324.9,90.2,325.9,86.2,325.9z"/>
		<path class="st2" d="M102.1,303.1c-0.1,0-0.2,0-0.4,0c-0.8-0.1-1.3-0.7-1.5-1.5c-1.6-7.4-5.1-16.2-10-24.7
			c-0.3-0.6-0.3-1.2-0.1-1.8c1.8-3.7,3.7-7.6,5.4-11.7c0,0,0-0.1,0-0.1c0.6-1.4,1.1-2.6,1.4-3.5c1.9-4.8,6.6-8,11.8-8
			c1.6,0,3.1,0.3,4.6,0.9c3.1,1.2,5.6,3.6,7,6.7c1.4,3.1,1.4,6.5,0.2,9.6l-0.3,0.8c-1.3,3.2-8,19.6-16.6,32.5
			C103.3,302.8,102.7,303.1,102.1,303.1z"/>
		<path class="st2" d="M188,325.7c-2.4,0-4.4-1.5-6.9-3.5c-1.8-1.5-3.4-2.8-5.2-3.2c-0.6-0.1-1.3-0.2-2-0.2c-1.7,0-3.3,0.4-4.8,0.7
			c-1.5,0.3-2.8,0.6-3.9,0.6c-1.5,0-2.7-0.5-3.7-1.5c-1.6-1.8-1.6-4.3-1.6-6.5c0-3.2-0.3-4.1-1.5-4.3c-4-0.9-11.3-5.6-11.3-10.6
			c0-5,6-8.6,11.7-8.9c3-0.2,5.6-0.8,7.3-1.4c0.2,0,0.3-0.1,0.5-0.1c-0.1-0.1-0.3-0.2-0.4-0.4c-3.2-4.6-6.9-10-11-16.2
			c-0.4-0.5-0.4-1.2-0.2-1.8c0.3-0.6,0.8-1,1.4-1.1c6.7-1.2,13.4-2.9,19.8-5.1c0.2-0.1,0.4-0.1,0.6-0.1c0.6,0,1.2,0.3,1.6,0.8
			c4.1,6.1,7.8,11.4,10.6,15.2c0-0.1,0.1-0.2,0.1-0.2c0.3-0.6,1-0.9,1.6-0.9c0.1,0,0.2,0,0.3,0c7.2,1.1,11.6,5.7,12.2,12.6
			c1.2,13.6-3.3,28.3-10.6,34.1C191.2,325.1,189.6,325.7,188,325.7z"/>
		<path class="st1" d="M241.3,208.3c-0.1,0-0.1,0-0.2,0c-0.8-0.1-1.5-0.7-1.6-1.4c-1.3-4.9-5.3-8.9-8.4-11.4
			c-0.7-0.6-0.9-1.6-0.5-2.4c0.3-0.6,1-1,1.7-1c0.2,0,0.4,0,0.6,0.1c3.2,1.1,6.2,2,9.1,2.9c1.2,0.3,2.3,0.6,3.6,0.8
			c0.6,0.1,1,0.5,1.3,1c0.3,0.5,0.3,1.1,0.1,1.6c-1.2,3-2.5,6-3.9,8.8C242.6,207.9,242,208.3,241.3,208.3z"/>
		<path class="st3" d="M253.8,173.6c-0.4,0-0.9-0.1-1.2-0.4c-2.2-1.8-4.7-3.5-7.4-5.3c-0.7-0.5-1.1-1.4-0.8-2.2
			c1.2-3.8,2-7.7,2.5-11.7c0.1-0.4,0.3-0.8,0.6-1.1c2.2-2.2,4.1-3.6,5.4-4.5c0.3-0.2,0.7-0.3,1.1-0.3c0.2,0,0.5,0,0.7,0.1
			c0.6,0.2,1,0.7,1.2,1.3c1,4.2,2.4,12.7-0.1,22.7c-0.2,0.6-0.6,1.2-1.2,1.4C254.2,173.6,254,173.6,253.8,173.6z"/>
		<path class="st3" d="M224.5,159c-0.2,0-0.3,0-0.5-0.1c-3.2-0.8-6.5-1.5-9.8-1.9c-0.6-0.1-1.2-0.5-1.4-1.1
			c-0.3-0.6-0.3-1.2,0.1-1.8c4.6-8,10.5-13,13.7-15.2c0.3-0.2,0.7-0.4,1.1-0.4c0.2,0,0.4,0,0.7,0.1c0.6,0.2,1,0.7,1.2,1.3
			c0.5,1.9,1.1,5.1,1.3,9c0,0.4-0.1,0.8-0.3,1.1c-1.5,2.4-2.9,5-4.2,7.8C225.9,158.6,225.3,159,224.5,159z"/>
		<path class="st4" d="M243.7,166.6c-0.3,0-0.7-0.1-0.9-0.3c-0.1-0.1-0.8-0.5-0.8-0.5c-4.3-2.5-9.4-4.6-15.1-6.3
			c-0.5-0.2-1-0.5-1.2-1c-0.2-0.5-0.2-1.1,0-1.6c1.3-2.7,2.7-5.3,4.3-7.8l0.2-0.3c5.3-8.1,11.1-13.3,14.1-15.7
			c0.3-0.3,0.8-0.4,1.2-0.4c0.2,0,0.4,0,0.7,0.1c0.6,0.2,1.1,0.8,1.2,1.4c0.7,3.4,1.6,10.4,0.7,19.3c-0.4,3.9-1.2,7.8-2.4,11.7
			c-0.2,0.6-0.6,1-1.1,1.2C244.1,166.6,243.9,166.6,243.7,166.6z"/>
		<path class="st5" d="M178.5,60.4C178.5,60.4,178.5,60.4,178.5,60.4C178.5,60.4,178.5,60.4,178.5,60.4c-0.5-0.9-1-1.8-1.6-2.7
			c-0.1-0.1-0.1-0.2-0.2-0.2c-0.2-0.3-0.4-0.7-0.7-1c-0.2-0.3-0.4-0.6-0.6-0.9c-0.1-0.1-0.1-0.2-0.2-0.3c-0.1-0.1-0.2-0.2-0.2-0.3
			c-0.3-0.5-0.7-1-1.1-1.5c-0.3-0.3-0.5-0.7-0.8-1c-0.2-0.2-0.3-0.4-0.5-0.6c-0.2-0.3-0.5-0.6-0.7-0.9c-0.3-0.3-0.5-0.6-0.8-0.9
			c0,0-0.1-0.1-0.1-0.1c0,0-0.1-0.1-0.1-0.1c0,0,0,0-0.1-0.1c0,0,0,0-0.1,0c0,0-0.1-0.1-0.1-0.1c-0.3-0.4-0.7-0.7-1-1.1
			c-0.3-0.4-0.7-0.7-1.1-1.1c-0.6-0.6-1.2-1.1-1.8-1.7c-0.3-0.3-0.6-0.5-0.9-0.8c-0.3-0.2-0.6-0.5-0.9-0.7c-0.9-0.7-1.7-1.4-2.6-2.1
			c-0.6-0.5-1.2-0.9-1.8-1.3c-0.1,0-0.1-0.1-0.2-0.1c-0.3-0.2-0.7-0.5-1-0.7c-0.5-0.4-1-0.7-1.5-1c-0.6-0.4-1.2-0.7-1.8-1.1
			c-0.3-0.2-0.6-0.3-0.9-0.5c-0.6-0.3-1.2-0.6-1.8-0.9c-0.3-0.2-0.6-0.3-0.9-0.4c-0.3-0.1-0.6-0.3-0.9-0.4c-0.3-0.1-0.6-0.3-0.9-0.4
			c-0.3-0.1-0.6-0.2-0.9-0.3c-0.5-0.2-1.1-0.4-1.6-0.6c-0.1,0-0.2-0.1-0.3-0.1c-0.1,0-0.2-0.1-0.3-0.1c-0.4-0.1-0.9-0.2-1.3-0.4
			c-0.3-0.1-0.6-0.1-0.8-0.2c-0.3-0.1-0.5-0.1-0.8-0.2c-0.3-0.1-0.5-0.1-0.8-0.1c-0.3,0-0.5-0.1-0.8-0.1c0,0,0,0,0,0
			c-0.2,0-0.5,0-0.7-0.1c-0.2,0-0.5,0-0.7,0c-0.3,0-0.5,0-0.8,0c-0.3,0-0.5,0-0.7,0c-0.2,0-0.3,0-0.5,0c-0.1,0-0.1,0-0.2,0h0
			c0,0-0.1,0-0.1,0c-0.1,0-0.2,0-0.3,0c-0.2,0-0.4,0-0.6,0.1c-0.4,0.1-0.8,0.1-1.2,0.2c-0.6,0.2-1.2,0.4-1.8,0.6l-0.4,0.2
			c-0.3,0.2-0.6,0.3-0.9,0.5c0,0,0,0,0,0c-0.6,0.4-1.2,0.8-1.7,1.4c-1,1-1.8,2.2-2.3,3.7c-0.1,0.2-0.1,0.4-0.2,0.5
			c-0.1,0.4-0.2,0.7-0.3,1.1c-0.1,0.6-0.2,1.2-0.3,1.8c0,0.5,0,0.9,0,1.4V45c0,0.2,0,0.4,0,0.6c0,0.3,0,0.6,0.1,0.9
			c0,0.2,0.1,0.3,0.1,0.5c0.1,0.3,0.3,0.6,0.5,0.8c0.2,0.2,0.6,0.4,0.9,0.4c7.1,1.3,12.8,4.6,17.1,9.7c0.2,0.2,0.3,0.3,0.6,0.5
			c0.2,0.1,0.3,0.2,0.5,0.2c0.3,0.1,0.5,0.1,0.8,0.2c0.5,0.1,0.9,0.2,1.4,0.2c1.1,0.1,2.2,0.2,3.3,0.2c3.4,0,8.2-0.8,12.9-4.1
			c-0.5,3-2.1,6.5-5.9,8c-0.6,0.2-1.1,0.8-1.2,1.4c-0.1,0.6,0.1,1.3,0.5,1.7c2.1,2.1,4.8,2.6,6.5,2.7c-1.2,2.3-4,6-9.6,6.7
			c0,0-0.1,0-0.1,0c-0.3,0-0.6,0.2-0.9,0.4c-0.1,0.1-0.2,0.2-0.3,0.3c-0.2,0.3-0.3,0.6-0.4,1c0,0.2,0,0.3,0,0.5
			c0.2,1.3,0.3,2.5,0.4,3.4c0,0.4,0.2,0.8,0.4,1c0.2,0.2,0.3,0.3,0.6,0.5c0,0,0,0,0.1,0c0.6,0.3,1.2,0.6,1.8,0.9c0,0,0,0,0.1,0
			c0.6,0.3,1.2,0.5,1.7,0.8c0.6,0.2,1.1,0.4,1.7,0.7c0.1,0,0.1,0,0.2,0.1c0.2,0.1,0.4,0.2,0.6,0.2c0.2,0.1,0.3,0.1,0.5,0.2
			c0,0,0.1,0,0.1,0c0.2,0.1,0.3,0.1,0.5,0.2c0.2,0,0.3,0.1,0.5,0.1c0.1,0,0.2,0.1,0.4,0.1c0.1,0,0.3,0.1,0.4,0.1
			c0.3,0.1,0.5,0.1,0.8,0.2c1.6,0.3,3.1,0.5,4.5,0.5c1.5,0,2.9-0.2,4.2-0.6c0,0,0,0,0,0c0.3-0.1,0.6-0.2,0.9-0.3
			c0.2-0.1,0.4-0.1,0.5-0.2c0.2-0.1,0.3-0.2,0.5-0.3c0.1-0.1,0.3-0.2,0.4-0.2c0.2-0.1,0.4-0.2,0.6-0.4c0.3-0.2,0.6-0.4,0.8-0.7
			c0.1-0.1,0.3-0.2,0.4-0.4c0.3-0.3,0.5-0.5,0.7-0.8c0.2-0.2,0.4-0.5,0.5-0.8c0,0,0.1-0.1,0.1-0.2h0c0,0,0,0,0,0
			c0.2-0.3,0.4-0.6,0.5-1c0-0.1,0.1-0.2,0.1-0.3c0.1-0.1,0.1-0.2,0.2-0.4c0.1-0.2,0.2-0.4,0.2-0.6c0.1-0.2,0.1-0.3,0.1-0.5
			c0-0.1,0.1-0.2,0.1-0.3c0,0,0,0,0,0C184,74,182.5,67.4,178.5,60.4z"/>
		<path class="st1" d="M225.1,165.8c-4-4.7-9.9-8.2-17.6-10.4c0,0-0.1,0-0.1,0c-3-0.9-6.3-1.5-9.7-1.9c-0.1,0-0.2,0-0.2,0
			c-0.5,0-1,0.2-1.4,0.6c-0.4,0.4-0.6,1-0.5,1.6c0.5,3.3,0.8,11.6-8.7,17.8c-0.7,0.5-1,1.3-0.8,2.1c0.1,0.2,0.2,0.4,0.3,0.6
			c0.4,0.5,0.9,0.8,1.6,0.8c2.5,0,4.7,1,6.4,2.8c2.2,2.4,3.3,6.1,2.9,10.2c-0.5,5.8-8.6,9.1-10.1,9.1c-0.9,0-1.6,0.6-1.9,1.5
			c-0.2,0.9,0.2,1.7,1,2.2c2.8,1.5,5.8,6.2,5.7,10.9c0,0.7,0.4,1.3,1,1.7c0.3,0.2,0.6,0.2,0.9,0.2c0.4,0,0.7-0.1,1-0.3
			c13-8.1,28.8-23.5,32.4-36.2c0.2-0.6,0.3-1.2,0.4-1.8C228.6,172.7,227.7,168.8,225.1,165.8z"/>
		<path class="st6" d="M112,101.6c-0.1,0.7-0.5,1.2-0.5,1.2"/>
		<path class="st6" d="M73,81.9c0,0-0.9,0.5-1.7,1.4"/>
		<path class="st7" d="M88.8,109.5c-0.6,0-1.6,0.3-1.9,0.1c-0.6-0.3-0.3-1.3-0.4-2c-0.2-1.7,1.8-4.7,2.9-6.3c0-0.3,0.1-0.6,0.3-0.8
			c0.3-0.4,0.8-0.6,1.2-0.6c0.1,0,0.2,0,0.3,0c4.8,0.9,9.1,1.6,11.3,2c0.7,0.1,1.2,0.7,1.3,1.4s-0.3,1.4-1,1.6
			C93.3,108.7,90.3,109.5,88.8,109.5z"/>
		<path class="st8" d="M112.1,102c-2.3,4.3-9.4,7.4-15.7,9.4c-10.8,3.4-16.5,1.9-17.6,1.1l-0.1-0.1c-0.4-0.3-1.1-0.7-1.2-2.2
			c-0.1-1.6,0.7-4.8,4.4-10.5c2.3,0.5,4.8,1,7.2,1.5c0,0,0,0-0.1,0.1c-0.4,0.5-3.8,5.4-3.6,7.4c0,0.4,0.2,0.9,0.7,1.3
			c0.3,0.2,0.7,0.3,1.2,0.3c2,0,6.6-1.4,18.1-6.1c1.3,0.2,2.1,0.3,2.3,0.4c0.8,0.1,1.5-0.4,1.6-1.2c0.1-0.8-0.4-1.5-1.2-1.6
			c-0.3,0-31-4.9-38.4-8.1c-4.8-2.1-5.6-3.4-5.8-3.8c0-0.1-0.1-0.4,0.4-1c1-1.4,3-3.4,7-5c-1.4,1.3-2.6,3.2-0.2,4.8
			c4,2.5,25.6,8.6,34.6,9.9C111.4,99.2,112.3,100.9,112.1,102z"/>
		<path class="st2" d="M212.2,61.7c-0.3-0.7-1-1.2-1.8-1.2h-21.7V28.8c0-1.1-0.9-1.9-1.9-1.9h-31.7v-21c0-0.8-0.5-1.5-1.2-1.8
			c-0.2-0.1-0.5-0.1-0.7-0.1c-0.5,0-1,0.2-1.3,0.6l-23.2,23.2c-0.2,0.2-0.5,0.5-0.7,0.8c0,0,0,0,0,0c-0.2,0.3-0.5,0.5-0.7,0.8
			c-0.2,0.2-0.3,0.4-0.5,0.6c0,0,0,0,0,0c-0.1,0.1-0.2,0.3-0.3,0.4c-0.2,0.2-0.4,0.5-0.5,0.8c-0.2,0.3-0.3,0.6-0.5,0.9
			c-0.2,0.3-0.4,0.6-0.5,1c-0.2,0.3-0.3,0.7-0.5,1c-0.1,0.2-0.2,0.5-0.3,0.7c-0.2,0.4-0.4,0.9-0.5,1.4c-0.1,0.4-0.2,0.7-0.3,1.1
			c-0.1,0.4-0.2,0.7-0.3,1.1c-0.1,0.4-0.2,0.8-0.2,1.1c-0.4,2-0.5,4.1-0.4,6.2v0.1c0,0.3,0.1,0.6,0.3,0.8c0.3,0.6,0.9,1,1.6,1
			c1.8,0,3.4,0.1,4.9,0.3c0.1,0,0.2,0,0.2,0c0.2,0,0.5,0,0.7-0.1c0.2-0.1,0.4-0.2,0.6-0.4c0.1-0.1,0.1-0.1,0.2-0.2
			c0.3-0.4,0.5-0.9,0.4-1.3c-0.2-3.5,0.6-6.3,2.5-8.2h0c0.1-0.1,0.2-0.2,0.3-0.3c0.2-0.2,0.3-0.3,0.5-0.4c0.1-0.1,0.2-0.2,0.3-0.2
			c0.1-0.1,0.2-0.1,0.2-0.2c0.2-0.1,0.3-0.2,0.5-0.3c0.1,0,0.1-0.1,0.2-0.1c0,0,0.1,0,0.1-0.1c0.2-0.1,0.3-0.2,0.5-0.2
			c0.3-0.1,0.6-0.2,0.9-0.3c0.2,0,0.3-0.1,0.5-0.1c0.2,0,0.3-0.1,0.4-0.1c0.1,0,0.2,0,0.2,0c0.1,0,0.2,0,0.2,0c0,0,0,0,0,0
			c0,0,0,0,0,0c0.2,0,0.3,0,0.5-0.1c0.1,0,0.2,0,0.4,0c0.1,0,0.1,0,0.2,0c0.2,0,0.4,0,0.5,0c0.1,0,0.3,0,0.4,0h0.2
			c0.4,0,0.8,0,1.2,0c0.1,0,0.1,0,0.2,0c0.7,0.1,1.5,0.2,2.2,0.3c4.1,0.8,8.7,2.8,13.2,5.8c0.1,0,0.1,0.1,0.2,0.1
			c0.4,0.3,0.8,0.5,1.2,0.8c0.1,0.1,0.2,0.1,0.3,0.2c0.1,0.1,0.1,0.1,0.2,0.2c0.3,0.2,0.6,0.4,0.9,0.6c0.2,0.2,0.5,0.4,0.7,0.6
			c0.3,0.2,0.6,0.4,0.9,0.7c0,0,0.1,0.1,0.1,0.1c0.6,0.4,1.1,0.9,1.7,1.4c0.6,0.5,1.1,1,1.6,1.5c0.3,0.2,0.5,0.5,0.8,0.8
			c0.3,0.3,0.6,0.5,0.8,0.8c0.2,0.2,0.3,0.3,0.5,0.5c0.1,0.1,0.2,0.2,0.3,0.3c0.1,0.1,0.1,0.1,0.2,0.2h0c0.1,0.1,0.1,0.1,0.2,0.2
			c0,0,0.1,0.1,0.1,0.1c0.1,0.1,0.1,0.1,0.2,0.2c0.1,0.1,0.1,0.2,0.2,0.2c0.1,0.1,0.2,0.3,0.4,0.4c0,0,0.1,0.1,0.1,0.1
			c0.1,0.1,0.1,0.1,0.2,0.2c0.3,0.3,0.6,0.7,0.9,1c0,0,0,0,0,0v0c0,0,0,0,0.1,0.1v0c0.2,0.2,0.4,0.4,0.6,0.7
			c0.2,0.2,0.3,0.4,0.4,0.5c0.2,0.2,0.3,0.4,0.4,0.5c0.2,0.2,0.3,0.4,0.5,0.6c0.2,0.3,0.4,0.6,0.7,0.9c0.5,0.6,0.9,1.3,1.3,1.9
			c0.2,0.2,0.3,0.5,0.5,0.7c0,0,0,0,0.1,0.1c0.2,0.3,0.3,0.5,0.5,0.8c0.3,0.5,0.6,1,0.9,1.6c0.1,0.1,0.1,0.3,0.2,0.4
			c0.1,0.2,0.2,0.4,0.4,0.6c0,0,0,0,0,0c0.2,0.3,0.3,0.6,0.5,0.9c0,0,0.1,0.1,0.1,0.2c0,0.1,0.1,0.2,0.2,0.3
			c0.1,0.1,0.1,0.3,0.2,0.4c0.1,0.1,0.1,0.3,0.2,0.4c0.1,0.3,0.2,0.5,0.4,0.8c0.1,0.1,0.1,0.3,0.2,0.4c0.3,0.6,0.5,1.2,0.7,1.8
			c0,0,0,0,0,0.1c0.2,0.6,0.4,1.2,0.6,1.8c0,0,0,0.1,0,0.1c0,0.2,0.1,0.3,0.1,0.4c0.1,0.3,0.2,0.6,0.2,0.9c0,0.1,0,0.2,0.1,0.3
			c0,0.1,0,0.2,0.1,0.2c0,0.1,0.1,0.2,0.1,0.4c0,0.2,0.1,0.4,0.1,0.6c0.1,0.3,0.1,0.5,0.1,0.8c0,0.2,0.1,0.4,0.1,0.5
			c0,0,0,0.1,0,0.1c0,0,0,0.1,0,0.1c0,0.1,0,0.1,0,0.2c0,0.2,0,0.4,0.1,0.7c0,0.4,0,0.9,0,1.3c0,0.7-0.1,1.4-0.2,2.1
			c-0.1,0.5-0.2,1-0.3,1.5c-0.1,0.3-0.2,0.6-0.3,0.9c-0.1,0.1-0.1,0.3-0.2,0.4c-0.1,0.3-0.3,0.5-0.4,0.8c-0.3,0.5-0.7,1-1.1,1.4h0
			c-0.5,0.5-1.1,1-1.8,1.3h0c0,0,0,0,0,0c-0.1,0-0.1,0.1-0.2,0.1c-0.2,0.1-0.4,0.2-0.6,0.3c-0.1,0.1-0.3,0.1-0.4,0.2
			c-0.3,0.1-0.6,0.2-0.9,0.3c0,0,0,0,0,0c-0.2,0-0.3,0.1-0.5,0.1c-0.8,0.2-1.7,0.2-2.7,0.2c-0.9,0-1.8-0.1-2.7-0.2c0,0,0,0,0,0
			c-0.9-0.1-1.9-0.4-2.9-0.6c-0.2-0.1-0.5-0.1-0.8-0.2c-0.2-0.1-0.5-0.2-0.8-0.2c-0.3-0.1-0.5-0.2-0.8-0.3c-0.1,0-0.3-0.1-0.4-0.1
			c-0.1,0-0.3-0.1-0.4-0.2c-0.3-0.1-0.5-0.2-0.8-0.3c-0.5-0.2-1.1-0.5-1.6-0.7c-0.3-0.1-0.5-0.3-0.8-0.4c0,0,0,0,0,0
			c-0.3-0.1-0.5-0.2-0.8-0.2c-0.4,0-0.7,0.1-1.1,0.3h0c-0.2,0.2-0.4,0.4-0.6,0.6c-0.2,0.3-0.3,0.7-0.3,1.1c0.1,1,0.1,2,0.1,3
			c0,0.7,0,1.5-0.1,2.2c0,0.7,0.3,1.3,0.9,1.7c0.1,0.1,0.2,0.1,0.3,0.2c0.2,0.1,0.4,0.2,0.6,0.3c0.8,0.3,1.5,0.6,2.3,0.9
			c0.2,0.1,0.4,0.1,0.6,0.2c0.2,0.1,0.4,0.1,0.6,0.2c0.3,0.1,0.6,0.2,0.9,0.2c0.2,0.1,0.5,0.1,0.7,0.2c0.1,0,0.3,0.1,0.4,0.1
			c0.3,0.1,0.5,0.1,0.8,0.2c0.7,0.2,1.5,0.3,2.2,0.4c0.2,0,0.5,0.1,0.8,0.1c0.2,0,0.3,0,0.5,0.1c0.2,0,0.5,0,0.7,0.1
			c0.5,0,1,0.1,1.5,0.1c0.4,0,0.8,0,1.2,0h0c0.4,0,0.7,0,1.1,0c0.1,0,0.2,0,0.4,0c0.4,0,0.8,0,1.1-0.1c0,0,0,0,0,0
			c0.4,0,0.8-0.1,1.2-0.1c0,0,0,0,0.1,0c0.2,0,0.5-0.1,0.7-0.1c0,0,0.1,0,0.1,0c0.2,0,0.4-0.1,0.5-0.1c0,0,0.1,0,0.1,0
			c0.1,0,0.3-0.1,0.4-0.1c0,0,0,0,0.1,0c0.3-0.1,0.6-0.1,0.9-0.2c0,0,0.1,0,0.1,0c0.2,0,0.4-0.1,0.5-0.1c0.2,0,0.4-0.1,0.5-0.2
			c0.1,0,0.1,0,0.2,0c0.4-0.1,0.7-0.2,1.1-0.4c0.4-0.1,0.8-0.3,1.1-0.4c0.4-0.2,0.7-0.3,1.1-0.5c0,0,0.1,0,0.2-0.1h0
			c0.3-0.1,0.6-0.3,0.9-0.4c0.3-0.2,0.7-0.4,1-0.6c0.2-0.1,0.3-0.2,0.5-0.3c0.2-0.1,0.3-0.2,0.5-0.3c0.3-0.2,0.6-0.4,0.8-0.6
			c0.3-0.2,0.5-0.4,0.8-0.6c0.3-0.2,0.5-0.4,0.7-0.6c0.3-0.2,0.5-0.5,0.8-0.8l22.4-22.9C212.4,63.2,212.5,62.4,212.2,61.7z
			 M178.5,60.4L178.5,60.4c0.2,0.4,0.5,0.9,0.7,1.3C179,61.3,178.8,60.9,178.5,60.4z M180.5,64.2c0.6,1.3,1.1,2.6,1.5,3.8
			C181.5,66.8,181,65.5,180.5,64.2z M182.7,78.9C182.7,78.9,182.7,78.9,182.7,78.9c0.5-1.9,0.6-3.9,0.3-6.2
			C183.3,75,183.2,77.1,182.7,78.9z"/>
		<path class="st9" d="M158.1,77c-0.4,0-0.8-0.3-0.9-0.8c0-0.2-0.1-0.4-0.1-0.6l0-0.2c-0.1-0.4-0.2-0.8-0.2-1.2
			c-0.1-0.3-0.1-0.6-0.2-0.9l0-0.2c-0.1-0.4-0.2-0.7-0.3-1.1c-0.1-0.4-0.2-0.8-0.3-1.1c-0.1-0.2-0.1-0.4-0.2-0.6l-0.1-0.3
			c-0.5-1.5-1-3-1.6-4.4c-0.1-0.3-0.2-0.6-0.4-0.8l-0.5-1l-0.1-0.1c-0.1-0.1-0.1-0.2-0.2-0.3c-0.1-0.2-0.3-0.5-0.4-0.7
			c-0.2-0.3-0.3-0.6-0.5-0.9l-0.1-0.2c-0.2-0.3-0.3-0.5-0.4-0.7l-0.1-0.1c-0.2-0.3-0.4-0.6-0.6-0.9c-0.2-0.3-0.5-0.7-0.7-1
			c-0.2-0.3-0.2-0.7,0-1c0.2-0.3,0.5-0.4,0.8-0.4c0.1,0,0.1,0,0.2,0c1.2,0.2,2.5,0.3,3.7,0.3c0.9,0,1.8-0.1,2.7-0.2
			c0.2,0,0.5-0.1,0.7-0.1c0.2,0,0.5-0.1,0.7-0.1l0.1,0c0.2,0,0.4-0.1,0.5-0.1l0.4,0.9l-0.2-0.9l0.6-0.2c0,0,0,0,0,0c0,0,0,0,0.1,0
			c0,0,0.1,0,0.1,0c0.2-0.1,0.4-0.1,0.6-0.2c0.3-0.1,0.5-0.2,0.8-0.3c0.4-0.1,0.7-0.3,1-0.4l0.2-0.1c0.1-0.1,0.2-0.1,0.3-0.2
			c1.1-0.6,2.2-1.2,3.1-2l0.1-0.1c0.1-0.1,0.2-0.1,0.2-0.2c0.2-0.2,0.4-0.3,0.5-0.4c0.2-0.2,0.4-0.2,0.6-0.2c0.1,0,0.3,0,0.4,0.1
			c0.3,0.1,0.5,0.5,0.5,0.8c0,0,0,0.4,0,0.4c0,0.1,0,0.3,0,0.5c0,0.1,0,0.3,0,0.5c0,0.2,0,0.4-0.1,0.5l-0.1,0.3
			c-0.1,0.4-0.1,0.8-0.3,1.2c0,0.2-0.1,0.4-0.1,0.6c-0.1,0.2-0.1,0.5-0.2,0.7c-0.1,0.2-0.1,0.3-0.2,0.5c0,0.1-0.1,0.2-0.1,0.3
			c-0.4,1.1-1,2-1.7,2.9c-0.1,0.1-0.2,0.2-0.3,0.3c-0.3,0.4-0.6,0.7-1,1c-0.2,0.2-0.5,0.4-0.7,0.6c-0.1,0.1-0.2,0.1-0.3,0.2L164,64
			c-0.1,0.1-0.3,0.2-0.4,0.3c-0.2,0.1-0.3,0.2-0.5,0.2c-0.3,0.1-0.5,0.3-0.8,0.4c1.8,1.8,4,2.1,5.7,2.1c0,0,0,0,0,0
			c0.3,0,0.5,0,0.7,0c0,0,0,0,0.1,0c0.3,0,0.6,0.1,0.7,0.4c0.2,0.3,0.2,0.6,0.1,0.9c-0.7,1.8-3.6,7.9-11.3,8.8
			C158.2,77,158.1,77,158.1,77z"/>
		<path class="st8" d="M186.1,87c-5.7,4.2-15.4,6.6-27.3,1.6c0-0.7,0.1-1.5,0.1-2.2c0-0.9,0-1.9-0.1-3.1c0.3,0.1,0.5,0.3,0.8,0.4
			c0,0,0,0,0.1,0c0.6,0.3,1.1,0.5,1.7,0.8c0.6,0.2,1.1,0.4,1.7,0.7c0.1,0,0.1,0,0.2,0.1c0.2,0.1,0.4,0.2,0.6,0.2
			c0.2,0.1,0.3,0.1,0.5,0.2c0,0,0.1,0,0.1,0c0.2,0.1,0.3,0.1,0.5,0.2c0.2,0,0.3,0.1,0.5,0.1c0.1,0,0.2,0.1,0.4,0.1
			c0.1,0,0.3,0.1,0.4,0.1c0.3,0.1,0.5,0.1,0.8,0.2c1.6,0.3,3.1,0.5,4.5,0.5c1.5,0,2.9-0.2,4.2-0.6c0,0,0,0,0,0
			c0.3-0.1,0.6-0.2,0.9-0.3c0.2-0.1,0.4-0.1,0.5-0.2c0.2-0.1,0.3-0.2,0.5-0.3c0.1-0.1,0.3-0.2,0.4-0.2c0.2-0.1,0.4-0.2,0.6-0.4
			c0.3-0.2,0.6-0.4,0.8-0.7c0.1-0.1,0.3-0.2,0.4-0.4h0c0.3-0.3,0.5-0.5,0.7-0.8c0.2-0.2,0.4-0.5,0.5-0.8c0,0,0.1-0.1,0.1-0.2
			c0,0,0,0,0,0c0.2-0.3,0.4-0.6,0.5-1c0-0.1,0.1-0.2,0.1-0.3c2.6-5.6,0.6-14.2-5.1-22.9c-0.1-0.1-0.1-0.2-0.2-0.2
			c-0.2-0.3-0.4-0.7-0.7-1c-0.2-0.3-0.4-0.6-0.6-0.9c-0.1-0.1-0.1-0.2-0.2-0.3c-0.1-0.1-0.1-0.2-0.2-0.3c-0.3-0.5-0.7-1-1.1-1.5
			c-0.3-0.3-0.5-0.7-0.8-1c-0.2-0.2-0.3-0.4-0.5-0.6c-0.2-0.3-0.5-0.6-0.7-0.9c-0.2-0.3-0.5-0.6-0.8-0.9c0,0-0.1-0.1-0.1-0.1
			c0,0-0.1-0.1-0.1-0.1c0,0,0,0-0.1-0.1c-0.2-0.2-0.4-0.4-0.5-0.6c-0.2-0.2-0.4-0.4-0.6-0.7c-0.3-0.4-0.7-0.7-1.1-1.1
			c-0.6-0.6-1.2-1.1-1.8-1.7c-0.3-0.3-0.6-0.5-0.9-0.8c-0.3-0.3-0.6-0.5-0.9-0.7c-0.9-0.7-1.7-1.4-2.6-2.1c-0.6-0.5-1.2-0.9-1.8-1.3
			c-0.1,0-0.1-0.1-0.2-0.1c-0.3-0.2-0.7-0.5-1-0.7c-0.5-0.4-1-0.7-1.5-1c-0.6-0.4-1.2-0.8-1.8-1.1c-0.3-0.2-0.6-0.4-0.9-0.5
			c-0.6-0.3-1.2-0.7-1.8-0.9c-0.4-0.2-0.7-0.4-1.1-0.5c-0.2-0.1-0.3-0.1-0.5-0.2c-0.4-0.2-0.7-0.3-1.1-0.5c-0.3-0.1-0.6-0.2-0.9-0.3
			c-0.5-0.2-1.1-0.4-1.6-0.6c-0.1,0-0.2-0.1-0.3-0.1c-0.1,0-0.2-0.1-0.3-0.1c-0.4-0.1-0.9-0.3-1.3-0.4c-0.3-0.1-0.6-0.1-0.8-0.2
			c-0.3-0.1-0.5-0.1-0.8-0.2c-0.3-0.1-0.5-0.1-0.8-0.1c-0.3,0-0.5-0.1-0.8-0.1c0,0,0,0,0,0c-0.4,0-0.9-0.1-1.3-0.1
			c-0.1,0-0.1,0-0.2,0c-0.3,0-0.5,0-0.8,0c-0.2,0-0.5,0-0.7,0c-0.2,0-0.3,0-0.5,0c-0.1,0-0.1,0-0.2,0h0c0,0-0.1,0-0.1,0
			c-0.1,0-0.2,0-0.3,0c-0.2,0-0.4,0-0.6,0.1c-0.4,0.1-0.8,0.1-1.2,0.2c-0.6,0.2-1.2,0.4-1.8,0.6c-0.1,0-0.2,0.1-0.4,0.2
			c-0.3,0.1-0.6,0.3-0.9,0.5c0,0,0,0,0,0c-0.6,0.4-1.2,0.8-1.7,1.3c-0.6,0.6-1.2,1.4-1.6,2.2c-1.1,2-1.6,4.6-1.4,7.5
			c-1.6-0.2-3.3-0.3-5.1-0.3c-0.3-5.6,1.1-10.7,4-14.6c10.3-6,28.4-0.3,42.9,14.2C185.3,59.1,191.1,76.6,186.1,87z"/>
		<path class="st10" d="M157.7,82.8c0-0.3,0-0.7-0.1-1.1c-0.1-1.7-0.4-3.6-0.7-5.6c-1-5.5-3-11.9-6.9-17.4c-4-5.5-10-10-19-11.5
			c-0.4-0.1-0.9-0.2-1.3-0.2v0c-1.9-0.3-3.9-0.4-6-0.4c-0.3,0-0.6,0-0.9,0c-27,0.5-37.2,23.3-39.7,30.4c-0.2,0.6-0.1,1.2,0.2,1.7
			c0,0,0,0,0,0.1c0.4,0.5,0.9,0.8,1.5,0.8h0.1c1.2-0.1,2.3-0.1,3.5-0.2c0.2,0,0.4,0,0.5,0c13.4,0,23.9,13.6,24.6,18.3
			c0.8,5.6-4.9,10.4-17.1,14.3c-1.8,0.6-3.5,1-5.1,1.4c-0.7,0.1-1.2,0.6-1.4,1.3c-0.1,0.2-0.1,0.5-0.1,0.8
			c0.1,1.8,0.7,11.3-2.9,26.2c0,0.1-0.1,0.2-0.1,0.4c-0.4,1.7-0.9,3.4-1.5,5.3c-0.2,0.6-0.1,1.2,0.3,1.6c0,0.1,0.1,0.2,0.2,0.2
			c0.1,0.1,0.2,0.2,0.4,0.3c2.8,1.8,12.1,6.9,27.7,8.8c3.8,0.5,8,0.8,12.6,0.8c1.6,0,3.3,0,4.9-0.1c0.3,0,0.7-0.1,0.9-0.3
			c0.4-0.3,0.8-0.8,0.9-1.3c2.1-12.7,7.4-22.9,12.4-32.7c5.7-10.9,11.1-21.2,11.9-34.3c0.1-1.3,0.1-2.5,0.1-3.8
			C157.9,85.4,157.8,84.2,157.7,82.8z M149.4,80.5c-0.1,2.5-0.5,5.1-1.1,8.3c-0.6,2.9-1.3,5.5-2.1,8.1c-0.4,1.4-1.7,2.3-3.1,2.3
			c-0.3,0-0.7,0-1-0.2c-0.8-0.3-1.5-0.8-1.9-1.6c-0.4-0.8-0.5-1.6-0.2-2.4c0-0.1,0.1-0.2,0.1-0.3c0,0,0-0.1,0.1-0.2
			c2.2-5.3,3.7-10.1,4.4-14.5c0.4-2.9,0.4-5.2-0.1-6.9c-0.3-1-0.8-1.7-1.5-2.1c-0.6-0.4-1.5-0.6-2.5-0.6c-0.1,0-0.3,0-0.4,0
			c-2.1,0.1-4.3,1.2-6,3c-1.5,1.6-2.9,3.7-4.1,6.5c-1.9,4.2-3.3,9.1-4.1,14.6c0.1-2.3,0.4-4.8,0.8-7.3c0.5-2.9,1.1-5.5,1.9-7.8
			c1.1-3.2,2.2-5.5,3.7-7.4c1-1.3,2-2.3,3.2-3c1.3-0.9,2.8-1.4,4.3-1.7c0.6-0.1,1.1-0.1,1.6-0.1c1.2,0,2.3,0.2,3.3,0.7
			c1.5,0.7,2.8,2.1,3.6,3.8c0.7,1.6,1,3.2,1.1,4.5C149.4,77.4,149.4,78.8,149.4,80.5z"/>
		<path class="st4" d="M132.5,158.5C132.5,158.5,132.5,158.5,132.5,158.5c-0.4-0.4-0.9-0.7-1.4-0.7H131c-1.5,0.1-3,0.1-4.5,0.1
			c-4.4,0-8.4-0.3-12.1-0.7c-14.5-1.7-23.4-6.2-26.9-8.3c-0.3-0.2-0.7-0.3-1-0.3c-0.1,0-0.3,0-0.4,0.1c-0.1,0-0.2,0-0.2,0.1
			c0,0,0,0,0,0c-0.5,0.2-0.9,0.7-1.1,1.2c-0.8,2.7-1.8,5.3-2.7,7.9c-0.3,0.8-0.6,1.6-0.9,2.4c-0.7,1.7-1.4,3.6-2.1,5.7
			c-0.2,0.6-0.1,1.2,0.2,1.7c0,0.1,0.1,0.2,0.2,0.2c0.1,0.1,0.2,0.2,0.4,0.3c1.9,1.3,10.7,6.6,26.2,8.8c4.3,0.6,9.1,1,14.4,1
			c0,0,0,0,0,0c1.7,0,3.4,0,5.1-0.1c0.3,0,0.7-0.1,0.9-0.3c0.4-0.3,0.7-0.7,0.8-1.1c0.7-2.4,2.2-4.8,4.7-7c0.4-0.4,0.6-0.9,0.6-1.4
			c0-2.7,0.2-5.4,0.5-8.1C133,159.4,132.8,158.9,132.5,158.5z"/>
		<path class="st11" d="M130.7,189c-2.7-2-4.1-5.4-3.9-10.1c0-0.5-0.2-0.9-0.5-1.3c0,0,0-0.1-0.1-0.1c-0.4-0.3-0.8-0.5-1.3-0.5h-0.1
			c-1.5,0.1-3.1,0.1-4.6,0.1c-5.1,0-9.8-0.4-13.9-0.9c-14.4-2-22.8-6.6-25.5-8.3c-0.3-0.2-0.7-0.3-1-0.3c-0.1,0-0.3,0-0.4,0
			c-0.1,0-0.2,0-0.3,0.1l0,0c-0.6,0.2-1,0.6-1.2,1.2c-1.7,5.3-3.2,10.7-4.4,16.1c-0.9,4.2-1.7,8.4-2.2,12.5h0
			c-0.8,5.6-1.2,11.1-1.3,16.1v0.1c0,0.2,0,0.4,0,0.6c0,3.5,0.1,6.9,0.5,10.1c0.5,4.7,1.3,9.1,2.6,13.2c0.2,0.8,1,1.4,1.8,1.4
			c0.1,0,0.1,0,0.2,0c9.2-0.9,16.2-8.5,16.2-17.8c0-0.4,0-0.7,0-1c1,0.2,2.1,0.3,3.2,0.3c0.1,0,0.2,0,0.4,0
			c9.7-0.2,17.5-8.1,17.5-17.9c0-0.4,0-0.8,0-1.2c1,0.2,2,0.3,3,0.3c7,0,13.2-3.9,16.2-10.2C131.7,190.6,131.5,189.6,130.7,189z"/>
		<path class="st12" d="M181.5,259.4c-0.7,0.3-1.4,0.5-2.1,0.8c-0.7,0.3-1.4,0.5-2.1,0.8c-0.1,0-0.3,0.1-0.4,0.1
			c-22.5,7.7-42.8,8.1-55.1,7.2c0.9-3.1,0.7-6.3-0.6-9.3c-1.5-3.3-4.1-5.9-7.5-7.2c-7-2.7-14.9,0.7-17.6,7.7
			c-0.2,0.6-0.5,1.3-0.9,2.2c-9.2-4.1-15.7-11.4-19.5-21.8c9.3-1.2,16.3-9,16.4-18.6c0.7,0.1,1.5,0.1,2.2,0.1c0.2,0,0.3,0,0.5,0
			C98.4,247.3,127.6,266.4,181.5,259.4z"/>
		<path class="st13" d="M95.1,208.2c-0.6,3.5-0.8,7-0.6,10.4h-0.2c-1.2,0-2.3-0.1-3.4-0.4l-2-0.4l0.2,2c0.1,0.5,0.1,1,0.1,1.5
			c0,8.3-6.3,15.1-14.4,15.9c-2-6.6-3-14.2-2.9-22.7c0.1-13.8,3-30,7.9-44.9c2.9,1.8,11.4,6.5,25.7,8.5
			C100.7,188.9,96.6,199.2,95.1,208.2z"/>
		<path class="st14" d="M125.5,114.6c0.2,12.6-4.7,27.1-10.7,41.7c-15.8-1.8-24.9-7-27.5-8.6c0.5-1.8,1-3.6,1.5-5.4
			c3.8-15.2,3.3-24.9,3.1-27.2c1.6-0.3,3.4-0.8,5.3-1.4c11.1-3.5,17.3-8,18.3-13.3C118.1,101,125.3,103.5,125.5,114.6z"/>
		<path class="st15" d="M113.6,159.1c-2.3,5.4-4.7,10.8-7,16.1c-15.5-2.1-24.2-7.4-26-8.6c0.7-1.9,1.4-3.8,2.1-5.6
			c1.4-3.5,2.6-7,3.7-10.4C89.9,152.7,98.8,157.3,113.6,159.1z"/>
		<path d="M151.3,80.6c-0.1,2.6-0.5,5.3-1.1,8.6c-0.6,3-1.3,5.7-2.1,8.3c-0.7,2.2-2.6,3.6-4.9,3.6c-0.5,0-1-0.1-1.5-0.2
			c-1.3-0.4-2.4-1.3-3-2.5c-0.6-1.2-0.8-2.6-0.3-3.9c0-0.1,0.1-0.3,0.2-0.4c0,0,0-0.1,0-0.1c2.2-5.2,3.6-9.9,4.3-14.1
			c0.4-2.6,0.4-4.6-0.1-6c-0.2-0.7-0.5-1-0.7-1.1c-0.2-0.1-0.7-0.3-1.5-0.3c-0.1,0-0.2,0-0.3,0c-1.6,0-3.3,0.9-4.7,2.4
			c-1.4,1.4-2.6,3.4-3.8,5.9c-1.9,4.2-3.2,9.2-4.1,14.7c-0.1,0.9-0.9,1.6-1.8,1.6c-0.1,0-0.1,0-0.2,0c-1-0.1-1.7-0.9-1.7-1.9
			c0.1-2.6,0.4-5.4,0.8-8.2c0.5-3,1.1-5.6,2-8.1c1.2-3.4,2.4-5.8,4-8c1.1-1.5,2.3-2.6,3.6-3.5c1.5-1,3.3-1.7,5.1-2
			c0.7-0.1,1.3-0.1,1.9-0.1c1.5,0,2.8,0.3,4.1,0.9c1.9,0.9,3.6,2.6,4.5,4.8c0.9,1.9,1.1,3.7,1.3,5.1
			C151.3,77.3,151.4,78.8,151.3,80.6z"/>
		<path class="st6" d="M114.8,156.3c-0.1,0.3-0.3,0.6-0.4,1c-0.1,0.3-0.2,0.6-0.4,0.9c-0.1,0.3-0.3,0.6-0.4,0.9"/>
		<path class="st6" d="M94.5,218.5c0,0.6,0.1,1.3,0.2,1.9c0,0.3,0.1,0.6,0.1,0.9"/>
		<path class="st6" d="M181.5,259.4L181.5,259.4c1.7-0.2,3.4-0.5,5.2-0.7"/>
		<path class="st6" d="M105.4,178c0.1-0.3,0.3-0.6,0.4-0.9c0.1-0.3,0.2-0.6,0.4-0.9c0.1-0.3,0.3-0.6,0.4-0.9"/>
		<path class="st6" d="M115.5,100.4c-0.6-0.1-0.9-0.1-0.9-0.1"/>
		<path class="st16" d="M86.4,141.1c-2.6-1.1-9.4-4.4-16.9-11.9c-0.4-0.4-0.9-0.6-1.4-0.6h0c-0.5,0-1,0.2-1.4,0.6
			c-1.6,1.6-4,5.1-2.6,10.1c1.1,3.8,3.5,7.2,5.3,9.4c0,0-0.1,0-0.1,0c-3.9,1.3-8.4,4.3-8.7,10c-0.1,2.9,0.6,5.4,2.3,7.1
			c1,1,2.1,1.7,3.1,2.1c-1.6,2.3-3.2,6-1.5,10.2c1.6,4.2,5.1,6.3,7.8,6.8c0.1,0,0.3,0,0.4,0c0.9,0,1.7-0.6,1.9-1.5
			c1.9-8.1,4.2-15.8,7.1-22.9c0.3-0.7,0.6-1.5,0.8-2.2c1.9-5,3.5-10.1,4.8-15.1C87.8,142.4,87.3,141.4,86.4,141.1z"/>
		<path class="st16" d="M72,199.2c-0.6,4.5-0.9,8.8-1,12.9c0,0.6-0.3,1.2-0.9,1.6c0,0,0,0-0.1,0c0,0,0,0-0.1,0
			c-0.3,0.2-0.6,0.2-0.9,0.2c-0.3,0-0.6-0.1-0.9-0.2c-0.6-0.3-1.3-0.7-2.1-1.1c-4.3-2.4-11.4-7.1-18.1-14.4
			c-0.1-0.1-0.2-0.2-0.3-0.3c-2.6-2.8-5-6-7.3-9.6c-3.5-5.7-6.4-12.3-8-20.1c0,0,0-0.1,0-0.1c0-0.2-0.1-0.4-0.1-0.5
			c-1.7-8.6-2-16.4-1.5-23.2c0.5-7.4,2.1-13.6,3.7-18.5c0-0.2,0.1-0.3,0.2-0.5c2.6-7.3,5.4-11.4,5.7-11.7h0c0-0.1,0.1-0.2,0.2-0.3
			c1-1.3,4.5-5.2,8.9-5.2h0.3c1.6,0.1,3.1,0.6,4.5,1.7c1.4,1.1,2.8,2.6,4,4.6c1.3,2.1,2.6,4.2,4,6.1c0.3,0.4,0.4,1,0.3,1.6
			c-0.1,0.5-0.5,1-1,1.3c-2.1,1-6.9,4.1-6.9,9.9c0,0.8,0.1,1.5,0.2,2.2c0.9,5.8,5.5,8.4,5.7,8.5c0.7,0.4,1.1,1.2,1,2
			c-0.1,0.8-0.7,1.4-1.5,1.6c-0.4,0.1-9.5,2.1-9.5,11.4c0,9.2,8.8,10.6,9.2,10.6c0.9,0.1,1.5,0.8,1.6,1.7c0.1,0.9-0.4,1.7-1.2,2
			c-0.6,0.3-6.3,2.9-3.4,10.5c1.9,5.1,9.6,12.7,13.6,13.3c0.3,0.1,0.6,0.2,0.9,0.4C71.8,197.8,72.1,198.5,72,199.2z"/>
		<path class="st1" d="M87.5,143.3c-1.3,5-2.9,10.1-4.8,15.1c-4.2-2.8-8.7-6-13.2-9.7c0,0,0.1,0,0.1,0c-1.8-2.2-4.2-5.6-5.3-9.4
			c-1.4-4.9,1-8.4,2.6-10.1c0.4-0.4,0.8-0.6,1.4-0.6h0c0.5,0,1,0.2,1.4,0.6c7.5,7.5,14.3,10.8,16.9,11.9
			C87.3,141.4,87.8,142.4,87.5,143.3z"/>
		<path class="st1" d="M62.6,122.2c-0.1,0.5-0.5,1-1,1.3c-2.1,1-6.9,4.1-6.9,9.9c0,0.8,0.1,1.5,0.2,2.2c-0.4-0.5-0.9-0.9-1.4-1.4
			c-5-5.2-9.2-12.1-12.5-19.7c0.1-0.1,0.1-0.1,0.1-0.2c0.2-0.2,3.8-5.1,8.3-5.1c0.1,0,0.2,0,0.3,0c0.9,0,1.9,0.3,2.8,0.7
			c0.3,0.1,0.6,0.2,0.9,0.2c0.3,0,0.6-0.1,0.9-0.2c1.4,1.1,2.8,2.6,4,4.6c1.3,2.1,2.6,4.2,4,6.1C62.6,121.1,62.7,121.6,62.6,122.2z"
			/>
		<g>
			<g>
				<path class="st3" d="M250.7,197.3c-2.7,0-5.7-0.5-9-1.4c-7.5-2.2-14.5-4.8-18.1-6.1c-0.5-0.2-0.9-0.6-1.1-1.2
					c-0.2-0.5-0.1-1.1,0.2-1.6c1.8-2.9,3-5.7,3.7-8.2c1.4-5.1,0.8-9.2-2-12.4c-2-2.3-4.5-4.4-7.5-6.1c-0.8-0.5-1.1-1.4-0.8-2.3
					c0.3-0.8,1-1.2,1.8-1.2c0.1,0,0.2,0,0.3,0c6.5,1.2,15.9,3.6,24.2,8.4c15,8.6,22.5,17.5,20.6,24.3c-0.7,2.7-2.4,4.9-4.8,6.2
					C256.2,196.8,253.6,197.3,250.7,197.3z"/>
				<path class="st3" d="M149.1,253.9c-4.4,0-7.9-1.5-10.4-4.6c-6-7.4-4.4-21.6-3.5-27.3c0.1-0.6,0.5-1.1,1-1.4
					c0.3-0.1,0.6-0.2,0.9-0.2c0.3,0,0.6,0.1,0.8,0.2c4.9,2.3,10.9,3.5,17.9,3.5c2.7,0,5.5-0.2,8.4-0.5c0.1,0,0.1,0,0.2,0
					c0.4,0,0.9,0.2,1.2,0.4c0.4,0.3,0.7,0.8,0.7,1.3c0.3,4.8,0.4,16.9-5.7,23.7C157.8,252.3,153.9,253.9,149.1,253.9z"/>
				<path class="st3" d="M193.8,246.8c-6.8,0-17.1-3-27.8-17.1c-0.2-0.3-0.4-0.7-0.4-1.1c0-1.7-0.1-2.8-0.1-3.3
					c-0.1-1,0.6-1.9,1.6-2.1c7.4-1.1,14.2-3,18.6-4.5c2.1-0.7,4.5-1.8,7.2-3.4c0.3-0.2,0.6-0.3,1-0.3c0.2,0,0.5,0,0.7,0.1
					c2.5,0.9,4.7,2,6.6,3.1l0.3,0.2c4.3,2.6,7,5.6,8.2,8.9c3.8,10.9-3.6,15.8-7,17.4C201.5,245.5,198.3,246.8,193.8,246.8z"/>
				<path class="st3" d="M227,224c-4.2,0-9.2-1.1-14.9-2.4c-3.9-0.9-7.4-1.7-10.9-2.3c-0.2,0-0.5-0.1-0.7-0.2l-0.1-0.1
					c-1.2-0.7-2.6-1.4-4.2-2.1c-0.6-0.3-1.1-0.9-1.2-1.6c-0.1-0.7,0.3-1.4,0.9-1.8c9.5-6.2,19-15.2,24.9-23.6c0.4-0.5,1-0.8,1.6-0.8
					c0.3,0,0.6,0.1,0.8,0.2c11,5.4,21.1,15.2,16.5,26.5C237.3,221.4,233.3,224,227,224z"/>
				<path class="st17" d="M223.8,176.5c-0.5-6.2,1.2-13-5.9-17.2c9.1-1.9,30.1,10.6,36.2,21.1c1.1,3.6-0.7,5.3-4,5.8
					c-2.5,0.4-5-0.2-7.4-1c-5.2-1.7-10.4-3.7-15.5-5.9C225.8,178.9,224.3,178.3,223.8,176.5z"/>
				<path class="st17" d="M201.6,210.3c6.5-5.3,12.9-10.7,18.2-17.4c1-1.3,2-1.6,3.7-1.3c8.1,1.6,15.5,11.9,14.4,20
					c-0.3,2.2-1.5,3.8-3.1,5.2c-3,2.1-6.3,1.7-9.5,0.7c-6.9-2.2-13.7-4.6-21.1-5.1C203.1,212.3,201.6,212.2,201.6,210.3z"/>
				<path class="st17" d="M174.8,223.5c5.7-1.6,11.3-3.4,16.5-6.1c1.7-0.9,3.3-0.9,5-0.4c3.8,1,6.9,3.2,9.5,6
					c6.7,7.2,5.4,14.2-3.5,18.7c-3.8,1.6-6.8,0-9.6-2.3c-5.7-4.8-10.7-10.3-17.3-13.8C174.7,225.2,174.4,224.4,174.8,223.5z"/>
				<path class="st17" d="M136.2,228c0.5-7.4,0.5-7.5,7.7-5.4c4.7,1.4,9.5,1.9,14.4,2.3c6.4,0.4,7.9-2.4,6.6,7
					c-4.4,7.2-13.5,10.6-21.4,8C137.4,237.8,135.4,234.6,136.2,228z"/>
			</g>
			<path class="st1" d="M134.9,191.2c0,0-8.9-0.4-8.6-12.3c0.4-13.8,27-21,39.8-23.5c15.6-3,45.1-4.5,58.1,10.8
				c13,15.3-22.7,47.7-38.7,52.9c-12,3.9-35,9.3-49.9,0.7"/>
			<path class="st16" d="M227.7,177.3c-0.1,0.6-0.2,1.2-0.4,1.8c-3.6,12.7-19.3,28.1-32.4,36.2c-0.3,0.2-0.7,0.3-1,0.3
				c-0.3,0-0.7-0.1-0.9-0.2c-0.6-0.3-1-1-1-1.7c0.1-4.6-2.9-9.4-5.7-10.9c-0.8-0.4-1.2-1.3-1-2.2c0.2-0.9,1-1.5,1.9-1.5
				c1.5,0,9.6-3.3,10.1-9.1c0.4-4.2-0.7-7.8-2.9-10.2c-1.7-1.9-3.9-2.8-6.4-2.8c-0.6,0-1.2-0.3-1.6-0.8
				C202.1,172.9,216.9,173.6,227.7,177.3z"/>
			<path class="st16" d="M174.4,200.5c1.7,1.9,3.3,4.8,3.3,8.8c0,5.5-6.1,10.6-11.2,13.9c-0.2,0.2-0.5,0.3-0.8,0.3
				c-3.5,0.5-6.9,0.7-10,0.7c-7.7,0-14.2-1.4-19.4-4.1c0,0.1,0,0.2,0,0.2c-0.1,0.3-0.2,0.8-0.2,1.4c-0.7-1.3-1.3-2.7-1.7-4.2
				c-3.6-15.1,16.4-33,45.1-40.7h0c3.9,1.8,6.1,6,6.1,12C185.6,196.2,179,199.3,174.4,200.5z"/>
		</g>
		<g>
			<path class="st18" d="M134.9,191.2c0,0-8.9-0.4-8.6-12.3c0.4-13.8,27-21,39.8-23.5c15.6-3,45.1-4.5,58.1,10.8
				c13,15.3-22.7,47.7-38.7,52.9c-12,3.9-35,9.3-49.9,0.7"/>
			<path class="st19" d="M206.6,156c0,0,19.6,0.7,35,9.7c15.5,8.9,22,17.5,20.3,23.6c-1.7,6.1-8.4,9.7-20.7,6.1
				c-10.5-3-19.9-6.9-19.9-6.9"/>
			<path class="st19" d="M221.5,189.3c0,0,23.7,10.2,17.1,26.3c-5.7,13.9-21.7,5.5-38.1,3.1"/>
			<path class="st19" d="M136,220.3c0,0-7,32.8,13,32.8s16.6-29.2,16.6-29.2"/>
			<path class="st19" d="M193.4,215.3c2,0.7,4.6,1.8,7.1,3.3c0,0,0,0,0,0c3.6,2.1,6.9,5,8.3,8.8c3.4,9.5-2,14.5-6.7,16.8
				c-2.9,1.4-19.1,7.5-36.3-15.4"/>
			<path d="M193.4,215.3c1-5.8-2.7-12.2-6.6-14.3c2.2,0,11.3-3.8,11.9-10.8c0.8-8.9-4.4-15.1-11.2-15.1c13.4-8.8,9.1-21.4,9.1-21.4
				l-20.9,0.4c0,0,6.8,3.4,6.3,10.1c-0.6,6.7-6.4,12.2-10.2,14.7c6.6-0.9,11.6,1.8,11.6,10.9s-13.4,10.3-13.4,10.3s5.6,3.2,5.6,9.9
				c0,6.7-12.6,13.7-12.6,13.7l17.2-2.7L193.4,215.3z"/>
		</g>
		<path class="st3" d="M34.8,127.7c0.2-0.5,0.1-1.1-0.2-1.5c-0.3-0.6-1-1.8-2.1-3.7c-0.1-0.1-0.2-0.3-0.3-0.4c0-0.1-0.1-0.2-0.2-0.3
			c-1.3-1.8-2.7-3.9-4.2-6.2c-4.7-7.2-10-15.3-15.6-15.3c-3,0-5.3,1.2-7.1,3.1c-2.8,2.9-4.3,7.4-4.7,11.5
			c-0.3,3.1-0.6,14.5,8.2,30.7c6,10.9,14.9,18.1,21.3,22.2c0.3,0.2,0.7,0.3,1,0.3c0.4,0,0.7-0.1,1.1-0.3c0.6-0.4,0.9-1.2,0.8-1.9
			c-1.4-7.7-1.7-14.6-1.3-20.6C32.1,138.1,33.4,132.1,34.8,127.7z"/>
		<path class="st3" d="M70.9,215.2c0-0.6-0.3-1.2-0.8-1.6c0,0-0.1,0-0.1-0.1c0,0-0.1-0.1-0.1-0.1c-0.6-0.3-1.6-0.8-2.9-1.5
			c-4.1-2.3-10.9-6.7-17.4-13.5c-0.4-0.4-0.9-0.6-1.4-0.6c0,0-0.1,0-0.1,0c-0.1,0-0.2,0-0.3,0c-0.2,0-0.3,0.1-0.5,0.2
			c0,0-0.1,0.1-0.2,0.1c-0.1,0.1-0.3,0.2-0.4,0.3c-0.1,0.1-0.3,0.1-0.6,0.3c-0.1,0-0.2,0.1-0.2,0.1c-1.2,0.6-2.2,1.2-3.2,1.7h0
			c-2.8,1.5-4.9,2.5-5.8,2.8c0,0-2.4,0.9-5,2.6c-0.5,0.3-1,0.7-1.5,1c-2.6,1.9-4.9,4.6-4.9,7.9c0,2.6,3,7.2,8.7,10.6
			c3.3,2,8.8,4.3,16.1,4.3c6.5,0,13.2-1.8,20.2-5.4c0.1,0,0.2-0.1,0.2-0.1c0.6-0.4,0.9-1,0.8-1.7C71,220.3,70.9,217.8,70.9,215.2z"
			/>
		<path class="st3" d="M48,197.9C48,197.9,48,197.9,48,197.9c0,0.1,0,0.2-0.1,0.3c-0.1,0.4-0.4,0.8-0.9,1.1l-0.7,0.4
			c-0.1,0.1-0.2,0.1-0.3,0.1c-0.8,0.3-2,0.6-3.6,0.8h0c-1.4,0.2-3.1,0.4-5.2,0.4c-3.2,0-6.6-0.4-10.4-1C12,197.3,6,186.9,5.4,178.8
			c-0.1-1.8,0-3.3,0.4-4.7c0.4-1.4,1-2.6,2-3.6C11,167,16.2,167,18,167c2,0,7.7,0.4,12.2,0.8h0c0,0,0,0,0.1,0l1.2,0.1
			c0.1,0,0.1,0,0.2,0h0c0.2,0,0.5,0.1,0.7,0.2c0.1,0,0.2,0.1,0.4,0.2l0.1,0.1c0.4,0.3,0.7,0.7,0.9,1.2c1.6,6.6,4.2,12.8,7.8,18.6
			c1.8,2.9,3.8,5.6,6.1,8.2C47.9,196.8,48.1,197.3,48,197.9z"/>
		<path class="st3" d="M55.1,107.5c-4.1-9.7-9.3-24.4-11.4-38.8c-1-6.7-3.4-11.2-7.3-13.5c-1.8-1-3.8-1.5-6-1.5
			c-1.4,0-2.6,0.2-3.5,0.4c-0.7,0.2-1.2,0.3-1.4,0.4c0,0-0.1,0-0.1,0c-1.2,0.5-11.4,5.3-8.4,27.2c1.7,12.5,6.9,25.3,11.2,34.3
			c0,0,0,0,0,0c1.2,2.5,2.3,4.7,3.3,6.5c0,0.1,0.1,0.2,0.2,0.3c0,0.1,0.1,0.2,0.1,0.3l0.4,0.7c0.2,0.3,0.3,0.6,0.4,0.8
			c0.3,0.6,1,1,1.6,1c0,0,0,0,0,0c0,0,0.1,0,0.1,0c0.1,0,0.2,0,0.2,0c0.6-0.1,1.2-0.6,1.4-1.2c2.2-5.6,4.3-9,4.9-9.8
			c0.1-0.1,0.1-0.1,0.1-0.2c0.2-0.2,3.8-5.1,8.3-5.1c0.1,0,0.2,0,0.3,0c0.9,0,1.9,0.3,2.8,0.7c0.3,0.1,0.6,0.2,0.9,0.2
			c0.3,0,0.6-0.1,0.9-0.2c0.1-0.1,0.3-0.2,0.4-0.3C55.2,109.1,55.4,108.2,55.1,107.5z"/>
		<path class="st17" d="M41.5,111.8c-3.5-3.2-4.3-7.7-5.6-11.8c-4.1-12.7-5.3-25.9-6.8-39.1c-0.2-1.7-0.5-3.4-0.7-5.1
			c7.7-0.5,10.7,1.7,13,9.9c2,7.3,3.8,14.7,5.6,22c1.4,5.9,3.6,11.5,5.7,17.1c0.4,1,1.8,2.1,0.2,3.4
			C48.1,106.3,44.7,108.7,41.5,111.8z"/>
		<path class="st17" d="M9.1,107.6c4.2-4,7.5-4.1,11.5-0.2c3.4,3.4,5.8,7.5,8.4,11.5c1.7,2.5,3.1,5.2,5.8,6.9
			c-0.4,6.7-3.8,12.9-2.9,19.8c-1,1.2,0.7,3.5-1.5,4c-1.3,0.3-2.3-0.9-3.1-1.9c-7.6-8.6-14.4-17.7-17.5-29.1
			C8.8,115,7.2,111.4,9.1,107.6z"/>
		<path class="st17" d="M9.6,173.3c1.1-4.3,4.6-5.2,8.4-5.6c5-0.5,9.7,1.4,14.5,2c2.6,5.7,5.2,11.3,7.8,17c0.1,2-1.5,1.7-2.6,1.7
			c-9.5-0.3-17.8-3.7-25.2-9.4C10.5,177.6,9.3,175.8,9.6,173.3z"/>
		<path class="st17" d="M60.3,209.7c-5,4.9-11.4,5.8-17.9,6.2c-3.7,0.3-7.5-0.3-11.2-0.8c-2.3-0.3-4.8-0.6-5.1-3.8
			c1.6-2.7,4.3-4.1,7.1-5.4c5-2.4,10-4.7,15-7.1C52.2,202.5,55.7,206.7,60.3,209.7z"/>
		<path class="st6" d="M42.4,152.6c-3.9-1.8-7.5-4.4-10.8-7.4"/>
		<g>
			<path class="st19" d="M87.8,142.3c0,0-16.5-5.3-29.6-27.1c-8.1-13.1-17-0.8-17-0.8s-14.8,20.4-7.8,53.9S71,214.3,71,214.3"/>
			<path class="st19" d="M57.9,114.8C57.9,114.7,57.9,114.7,57.9,114.8c-3.1-6.7-11.5-26.3-14.2-45.4c-2.8-19.6-17.6-13.7-17.6-13.7
				S14.9,59.9,18,82.2c2.2,16.1,10.2,32.6,14.5,40.6c0,0,0,0,0,0c0,0,0,0,0,0c1.2,2.2,2.1,3.8,2.5,4.5"/>
			<path class="st19" d="M32.6,122.9C32.5,122.9,32.5,122.9,32.6,122.9C32.5,122.9,32.5,122.9,32.6,122.9
				c-5.7-7.6-12.5-21.7-19.7-21.7c-9,0-11,11.1-11.3,14.1c-0.3,3-0.6,14.3,8.1,30.2c6.9,12.6,17.6,20.1,23.8,23.6"/>
			<path class="st18" d="M47.3,198.9c0,0-5.9,3.1-19.8,0.6c-13.7-2.5-20.3-12-20.9-20.7c-0.8-10.9,8.9-11.2,12-11.2
				c2,0,8.2,0.5,12.1,0.8c0.5,0,0.9,0.1,1.3,0.1"/>
			<path class="st19" d="M48.6,198.1c0,0-8.8,4.8-11.3,5.7c-2.5,0.9-11,5.1-11,11.1c0,6,17.6,23.1,44.5,8.8"/>
			<path d="M74.4,183.3c-2.2,0-6-1.7-7.6-5.8c-2.2-5.8,3.2-10.6,3.2-10.6s-7.3-0.2-6.9-8c0.4-7.8,10.4-8.9,10.4-8.9s-5.4-5-7.1-11
				c-1.7-6,3.4-9.3,3.4-9.3l-7.8-8c0,0-8.8,3.4-8.8,11.9c0,8.6,6.9,12.3,6.9,12.3s-11,2.2-11,13.2c0,11,10.8,12.5,10.8,12.5
				s-8.1,3.2-4.5,12.8c2.2,6,11.2,14.5,15.6,14.5L74.4,183.3z"/>
		</g>
		<path class="st18" d="M119.9,269.2c13.8,1.2,45.2,1.4,77.2-15.8c15.2-8.2,27-19,35.8-31.3"/>
		<path class="st18" d="M90.6,115.2c0,0,1.2,10.1-3,27c-1.3,5.5-3.3,11.6-5.9,18.4c-5.6,14.1-10.8,34.5-10.9,53.6
			c-0.1,8.5,0.9,16.8,3.3,24.1c3.6,11.1,10.5,20.1,22.1,24.8"/>
		<path class="st18" d="M246.6,196.6c-1.9,5-4.2,9.9-6.8,14.7"/>
		<path class="st18" d="M83.1,79.8c0,0,8.2-32,40.6-32s33.5,32.4,33.5,39.1c0,30.7-25.4,46.3-25.3,82"/>
		<path d="M143,101.5c-0.5,0-1-0.1-1.5-0.2c-1.3-0.4-2.4-1.3-3-2.5c-0.6-1.2-0.8-2.6-0.3-3.9c0-0.1,0.1-0.3,0.2-0.4c0,0,0-0.1,0-0.1
			c2.2-5.1,3.6-9.8,4.3-14c0.4-2.5,0.4-4.6-0.1-6c-0.2-0.7-0.5-1-0.7-1.1c-0.2-0.1-0.7-0.3-1.5-0.3c-0.1,0-0.2,0-0.3,0
			c-1.6,0.1-3.3,0.9-4.7,2.4c-1.4,1.4-2.6,3.4-3.7,5.9c-1.9,4.2-3.2,9.1-4.1,14.7c-0.1,0.9-0.9,1.6-1.8,1.6c-0.1,0-0.1,0-0.2,0
			c-1-0.1-1.7-0.9-1.7-1.9c0.1-2.6,0.4-5.4,0.8-8.2c0.5-2.9,1.1-5.6,1.9-8.1c1.2-3.4,2.4-5.8,4-7.9c1.1-1.5,2.3-2.6,3.6-3.5
			c1.5-1,3.2-1.7,5-1.9c0.7-0.1,1.3-0.1,1.9-0.1c1.5,0,2.8,0.3,4.1,0.9c1.9,0.9,3.5,2.6,4.5,4.7c0.8,1.9,1.1,3.7,1.3,5.1
			c0.2,1.4,0.2,2.8,0.1,4.6c-0.1,2.6-0.5,5.3-1.1,8.6c-0.6,3-1.3,5.6-2.1,8.2C147.2,100.1,145.3,101.5,143,101.5z"/>
		<path class="st19" d="M85.9,148.6c0,0,15.1,11.3,45.8,9.9"/>
		<path class="st19" d="M79.7,167.6c0,0,15.1,11.3,45.8,9.9"/>
		<path class="st19" d="M74,238.4c9.3-0.3,16.8-7.9,16.8-17.3c0-0.5,0-1.1-0.1-1.6c1.2,0.3,2.4,0.4,3.7,0.4
			c9.6,0,17.3-7.8,17.3-17.3c0-0.6,0-1.2-0.1-1.8c1.1,0.2,2.3,0.4,3.5,0.4c7.4,0,13.6-4.6,16.1-11.1"/>
		<path class="st20" d="M244,167c1.5-4.7,2.4-9.2,2.9-13.3c1.4-12.4-1.1-21.2-1.1-21.2s-8.5,5.6-15.9,17.1v0
			c-1.8,2.7-3.5,5.8-4.9,9.3"/>
		<path class="st20" d="M246.8,153.7c4-4,7.3-5.9,7.3-5.9s4.2,11.9-0.1,26.4"/>
		<path class="st20" d="M229.8,149.7L229.8,149.7c-0.2-6.8-1.8-11.2-1.8-11.2s-9.8,5.6-16.1,18"/>
		<path class="st20" d="M107.9,103.1c0,0-30.9-4.8-38.5-8.2c-7.6-3.4-7.1-5.3-6-6.9c1.7-2.4,7.1-8.1,25.3-8.6
			c14-0.4,24.8,13.5,25.5,18.6c0.9,6.5-6.7,11.4-17.3,14.7c-10.6,3.4-16.9,2.2-18.8,0.9c-0.8-0.6-5.2-2.8,3-15.1"/>
		<path class="st21" d="M89.5,101.6c0,0-3.7,5.2-3.5,7.1s2,2,19.4-5"/>
		<path class="st21" d="M147.6,57.3c0,0,11.5,4.7,21.4-4.7c0.2,3-0.7,10.4-7.6,12.7c3.2,3.7,8.2,2.8,8.2,2.8s-2.4,8.9-12.3,9.7"/>
		<path class="st21" d="M99.3,91.5c-2.1-0.9-3.5-2.4-3.1-3.4c0.4-1,2.4-1,4.6-0.2"/>
		<g>
			<path class="st20" d="M130.7,48.4c-0.7-4.4,0.1-8.1,2.6-10.6c6.4-6.4,21.9-1.4,34.5,11.3c12.7,12.7,17.7,28.1,11.3,34.6
				c-4.4,4.4-13,3.4-22-1.7"/>
		</g>
		<path class="st20" d="M123.6,46.8c-0.8-8.2,2-14.7,5.8-18.5l24.7-24.7v24.1h24.1h9.3V37v24.1h24.8l-23.9,24.4
			c-5.6,5.6-17,9.5-31.3,3"/>
		<g>
			<path class="st19" d="M101.5,304.2c9.3-12.8,16.7-30.7,18.4-35.1c0.1-0.3,0.2-0.6,0.3-0.7c2.4-6.2-0.6-13.2-6.9-15.7
				c-6.2-2.4-13.2,0.6-15.7,6.9c-0.4,0.9-0.9,2.1-1.4,3.5c-1.4,3.3-3.4,7.8-5.8,12.4"/>
		</g>
		<path class="st19" d="M57.4,308.4c-4.3-5.4-12-14.7-5.7-18.7c4.1-2.6,6.4,0.3,9.1-1.9c2.2-1.7,1-5.7,4-7.8c3-2.1,5.9,1.7,9.4-0.8
			c1.6-1.1,0.9-6.7,4.4-9.1c3.5-2.5,8.3-0.2,10.7,3.7c10.1,16.6,18.3,40.1,7,48.1C86.4,328.8,69,322.7,57.4,308.4z"/>
		<path class="st19" d="M187.8,276.9c0,0,13.7-0.6,14.8,12.3s-3.1,27.6-10.3,33.5c-7.3,5.9-10.9-3.6-16.5-4.7
			c-5.6-1.1-10.9,3.1-14-0.3s0.3-10.1-3.4-10.9s-10.9-5.3-10.9-10.1s5.9-8.1,11.2-8.4c5.3-0.3,9.8-2.2,9.8-2.2"/>
		<g>
			<path class="st18" d="M177.3,262c6.6,9.8,13.6,19.7,15.7,21.6"/>
			<path class="st18" d="M178.1,300.3c-5.5-4.9-18.4-24.3-23.7-32.4"/>
		</g>
	</g>
</g>
</svg>
