<?xml version="1.0" encoding="utf-8"?>
<!-- Generator: Adobe Illustrator 25.2.3, SVG Export Plug-In . SVG Version: 6.00 Build 0)  -->
<!DOCTYPE svg PUBLIC "-//W3C//DTD SVG 1.1//EN" "http://www.w3.org/Graphics/SVG/1.1/DTD/svg11.dtd" [
	<!ENTITY ns_extend "http://ns.adobe.com/Extensibility/1.0/">
	<!ENTITY ns_ai "http://ns.adobe.com/AdobeIllustrator/10.0/">
	<!ENTITY ns_graphs "http://ns.adobe.com/Graphs/1.0/">
	<!ENTITY ns_vars "http://ns.adobe.com/Variables/1.0/">
	<!ENTITY ns_imrep "http://ns.adobe.com/ImageReplacement/1.0/">
	<!ENTITY ns_sfw "http://ns.adobe.com/SaveForWeb/1.0/">
	<!ENTITY ns_custom "http://ns.adobe.com/GenericCustomNamespace/1.0/">
	<!ENTITY ns_adobe_xpath "http://ns.adobe.com/XPath/1.0/">
]>
<svg version="1.1" xmlns:x="&ns_extend;" xmlns:i="&ns_ai;" xmlns:graph="&ns_graphs;"
	 xmlns="http://www.w3.org/2000/svg" xmlns:xlink="http://www.w3.org/1999/xlink" x="0px" y="0px" viewBox="0 0 81.2 373.8"
	 style="enable-background:new 0 0 81.2 373.8;" xml:space="preserve">
<style type="text/css">
	.st0{fill:#FCF6EC;}
	.st1{fill:none;}
	.st2{fill:#010202;}
	.st3{fill:#EA5665;}
	.st4{fill:#F191AD;}
	.st5{fill:#303F89;}
</style>
<metadata>
	<sfw  xmlns="&ns_sfw;">
		<slices></slices>
		<sliceSourceBounds  bottomLeftOrigin="true" height="877.8" width="16383" x="-7871" y="-60"></sliceSourceBounds>
	</sfw>
</metadata>
<g id="Layer_1">
	<g>
		<g>
			<path class="st0" d="M-460.2,144.7c0-32-26-58-58-58h-520c-32,0-58,26-58,58v40h636V144.7z M-518.2,170.7H-556
				c-14.1,0-26-11.9-26-26s11.9-26,26-26h37.8c14.1,0,26,11.9,26,26S-504.1,170.7-518.2,170.7z"/>
		</g>
		<g>
			<path d="M-518.2,115.7H-556c-15.7,0-29,13.3-29,29c0,15.7,13.3,29,29,29h37.8c15.7,0,29-13.3,29-29
				C-489.2,128.9-502.4,115.7-518.2,115.7z M-518.2,168.7H-556c-13,0-24-11-24-24c0-13,11-24,24-24h37.8c13,0,24,11,24,24
				C-494.2,157.7-505.2,168.7-518.2,168.7z"/>
			<path d="M-1093.2,144.7c0-30.3,24.7-55,55-55h520c30.3,0,55,24.7,55,55v40h5v-40c0-33-27-60-60-60h-520c-33,0-60,27-60,60v40h5
				V144.7z"/>
		</g>
	</g>
	<path class="st1" d="M-518.2,118.7H-556c-14.1,0-26,11.9-26,26s11.9,26,26,26h37.8c14.1,0,26-11.9,26-26S-504.1,118.7-518.2,118.7z
		"/>
	<g>
		<g>
			<path class="st0" d="M-1096.2,484.1c0,32,26,58,58,58h520c32,0,58-26,58-58v-40h-636V484.1z"/>
		</g>
		<path d="M-463.2,484.1c0,30.3-24.7,55-55,55h-520c-30.3,0-55-24.7-55-55v-40h-5v40c0,33,27,60,60,60h520c33,0,60-27,60-60v-40h-5
			V484.1z"/>
	</g>
	<g>
		<g>
			<rect x="-1096.2" y="268.3" class="st0" width="636" height="100"/>
		</g>
		<g>
			<rect x="-1098.2" y="268.3" width="5" height="100"/>
			<rect x="-463.2" y="268.3" width="5" height="100"/>
		</g>
	</g>
	<g>
		<path d="M-850.7,110.7c-4.9,0.7-6.1,1-9.4,7.6c-3.6,7.1-10.9,21.9-21.3,43.4h-2.9l-5.9-39.8l-19.8,39.8h-2.9l-4.1-43.3
			c-0.6-6.7-1-7.1-6.7-7.6l0.5-2.4h19.4l-0.7,2.4l-1.7,0.3c-3.4,0.6-4.1,1-3.7,5.4l2.7,32.8l19.7-39.9h2.7l5.7,40.1
			c5.2-10.2,12.3-25.2,15.4-32.6c1.8-4.4,1-5.1-3.3-5.6l-1.8-0.3l0.5-2.4h18.1L-850.7,110.7z M-848.4,161.7c-4.1,0-9.3-2.3-9.3-12.1
			c0-7.5,3.2-16.3,9.5-21c3.6-2.6,7.6-4.3,11.2-4.3c4.8,0,7.4,3,7.4,6.6c0,8.1-11.9,11.8-20.8,13.4c-0.1,0.9-0.2,2.6-0.2,3.3
			c0,4.6,1.3,9,6.2,9c3.7,0,8-2.3,11.9-6.4l1.2,2.1C-837.5,159.8-844,161.7-848.4,161.7z M-849.9,141.5c11.1-2.1,13.8-5.7,13.9-9.5
			c0-2.7-1.6-4.2-4-4.2C-842.4,127.8-847.7,129.7-849.9,141.5z M-810.3,153.3c-4.2,5.5-9.6,8.4-12.1,8.4c-2.1,0-3.4-1.6-1.8-9.3
			c2.8-13.3,5.9-28,8.5-40.3c0.7-3.3,0.4-3.6-2.5-3.9c-0.9-0.1-2.3-0.2-2.9-0.2l0.5-2.2c3.8-0.4,7.9-1.3,10.2-2.1
			c1.4-0.5,2-0.6,2.5-0.6c0.8,0,0.8,0.8,0.4,2.6c-3.5,15.3-7.5,34-10.1,46.7c-0.5,2.2-0.4,3,0.2,3c0.7,0,2.9-1.1,5.7-4.1
			L-810.3,153.3z M-779,152.7c-5,5.8-10.9,9-16.5,9c-5.6,0-9.3-4.3-9.3-12c0-6.7,2.8-14.4,8.3-19.4c3.7-3.5,9.1-6,13-6
			c3.6,0,6.3,1.8,6.4,3.8c0.1,1.6-1.2,3.8-2.9,4.4c-0.8,0.3-1.3,0.2-2-0.5c-2-2.4-3.7-3.7-6.2-3.7c-5.7,0-9.3,10-9.3,19.5
			c0,5.9,2.2,8.8,5.9,8.8c4.1,0,8.7-3.4,11.2-6L-779,152.7z M-740.8,136.9c0,8.4-4.1,17-11.4,21.5c-2.9,1.8-6.4,3.2-10.1,3.2
			c-8,0-11.1-6.3-11.1-12.7c0-11.2,6.1-19.2,13.3-22.6c2.6-1.2,5.8-2.1,8.3-2.1C-744.7,124.3-740.8,128.8-740.8,136.9z
			 M-765.8,148.3c0,6.1,2.2,9.9,6.4,9.9c7.3,0,11.2-12.2,11.2-21.1c0-6.6-2.7-9.4-6.4-9.4C-762.5,127.7-765.8,140.5-765.8,148.3z
			 M-682.3,124.2c2.7,0,5.3,1.3,2.8,11.7c-1.1,4.9-2.7,11.6-3.9,16.5c-0.5,2.1-0.5,3,0.1,3c0.7,0,3-1.2,5.9-4.2l1.2,2.1
			c-4.3,5.6-9.8,8.4-12.3,8.4c-2.1,0-3.4-1.9-1.6-9c1.4-5.6,2.9-11.9,4.1-17.2c1-4.3,0.4-5.6-0.9-5.6c-2.5,0-9,4.5-14.1,12.8
			c-1.5,2.4-2.2,4.2-2.8,6.9c-0.7,3.2-1.7,7.1-2.3,10.5c-2.3,0.3-4.7,1-6.5,1.6l-0.6-0.6c2-8.2,4-15.9,5.7-24.3
			c1-4.5,0.9-6.8-0.9-6.8c-2.6,0-8.8,4.8-13.8,12.9c-1.4,2.3-2.1,4.4-2.8,6.9c-0.7,3.2-1.7,7.1-2.3,10.4c-2.3,0.3-4.7,1-6.4,1.6
			l-0.5-0.6c2.1-8.2,4.6-18.4,6.5-27.3c0.6-2.6,0.3-3.3-0.3-3.3c-0.9,0-3.2,1.7-5.1,3.6l-1.1-2.2c4-4.6,8.1-7.6,11-7.6
			c2.4,0,3.1,3.2,1.7,9.7l-1.1,5c7-9.6,14.4-14.7,18.8-14.7c2.8,0,4.9,2.1,2.7,12.3l-0.5,2.6C-694.8,129.6-686.7,124.2-682.3,124.2z
			 M-660.2,161.7c-4.1,0-9.3-2.3-9.3-12.1c0-7.5,3.2-16.3,9.5-21c3.6-2.6,7.6-4.3,11.2-4.3c4.8,0,7.4,3,7.4,6.6
			c0,8.1-11.9,11.8-20.8,13.4c-0.1,0.9-0.2,2.6-0.2,3.3c0,4.6,1.3,9,6.2,9c3.7,0,8-2.3,11.9-6.4l1.2,2.1
			C-649.3,159.8-655.8,161.7-660.2,161.7z M-661.7,141.5c11.1-2.1,13.8-5.7,13.9-9.5c0-2.7-1.6-4.2-4-4.2
			C-654.2,127.8-659.6,129.7-661.7,141.5z"/>
	</g>
	<g>
		<rect x="-923.8" y="166.7" class="st2" width="291.2" height="5"/>
	</g>
	<g>
		<g>
			<path class="st3" d="M-471.8,102.9l-0.2-0.2l-2.1-2.4l-4.3-3.6l-3.2-2.7l-4-2.7c-0.9-0.7-1.9-0.3-2.8,0.3
				c-7.7,5-19.7,9.7-30.2,30.4c-0.7,1.3-0.9,2.8,0.1,3.8c0.2,0.1,0.3,0.2,0.5,0.2c3.3,0,6.2,0.6,8.8,1.8c0.7,0.3,1.3,0.7,2,1.1
				c1,0.7,2,1.4,2.9,2.3c2,2,3.5,4.6,4.5,7.6c0.1,0.3,0.2,0.6,0.3,0.9c0.5,1.9,0.8,4,0.8,6.1c0,0.1,0,0.1,0,0.2
				c0.5,1.3,1.9,1.9,3.7,0.2c19.1-17.6,24.2-40.6,24.2-40.6C-470.8,104.9-470.9,103.6-471.8,102.9z"/>
			<path class="st4" d="M-502.5,133.9c4.1-2.5,9.7-6.3,14-10.8c8.3-8.7,12.6-17.7,12.6-17.7s-7.1,11.1-16,16.9
				c3.9-5.2,10.7-13.2,13.5-25.6l4,3.3l2.1,2.4l0.2,0.2c0.9,0.7,1,2,0.7,2.7c0,0,0,0.1,0,0.2c-4.3,6.8-15.4,22.7-30.3,29.6
				L-502.5,133.9z"/>
			<path class="st4" d="M-478.4,96.8c-3.1,4.9-17.9,26.1-26.1,34.5c-0.9-0.9-1.8-1.6-2.9-2.3c6.8-15.7,20.7-30,25.7-34.9
				L-478.4,96.8z"/>
		</g>
		<path class="st5" d="M-481.1,97.1L-481.1,97.1c-0.1,0.9-0.3,2.1-0.6,3.2c-0.2,1.1-0.5,2.2-0.8,3.2c-0.6,2.2-1.4,4.3-2.3,6.4
			c-0.9,2.1-1.9,4.2-3,6.2c-1.1,2-2.3,4-3.6,5.9c1.6-1.7,3.2-3.4,4.7-5.2c1.5-1.8,2.9-3.7,4.2-5.7c1.3-2,2.5-4.1,3.5-6.2
			c0.5-1.1,1-2.2,1.5-3.3c0.2-0.6,0.5-1.1,0.7-1.7l1.1,1l1.9,1.8l1,0.9l0.5,0.4l0.1,0.1c0,0,0.1,0.1,0.1,0.1c0,0,0,0,0,0
			c0,0,0,0.1,0,0.2c0,0.1,0,0.2,0,0.1l-0.1,0.2c-1,2.8-2.3,5.6-3.6,8.4c-1.3,2.8-2.8,5.5-4.3,8.1c-3.1,5.3-6.5,10.4-10.3,15.2
			c-1.9,2.4-4,4.7-6.1,6.9c-0.5,0.5-1.1,1.2-1.4,1.4c-0.1,0.1-0.2,0.2-0.3,0.2l0-0.4c0-0.8-0.2-1.7-0.3-2.5
			c-0.6-3.3-1.8-6.5-3.9-9.1c-0.5-0.6-1-1.2-1.6-1.8c-0.7-0.7-1-1.7-0.7-2.7c0.3-1,0.7-2,1.1-3c0.7-1.9,1.5-3.8,2.4-5.6
			c0.9-1.8,1.8-3.7,2.8-5.5c1-1.8,2.1-3.6,3.2-5.3c-1.4,1.5-2.8,3-4.2,4.6c-1.4,1.6-2.7,3.2-3.9,4.9c-1.3,1.7-2.5,3.4-3.6,5.2
			c-0.5,0.8-1,1.5-1.4,2.3c-0.5,0.9-1.6,1.2-2.6,0.7c-2.2-1.1-4.8-2-6.6-2.4c-0.3-0.1-0.6-0.1-0.9-0.1c-0.1-0.2-0.1-0.3,0-0.6
			c0.1-0.3,0.2-0.7,0.5-1.1l1-1.5c2.7-4.2,5.6-8.2,8.8-11.7c3.3-3.6,6.9-6.8,11-9.7c2-1.5,4.1-2.9,6.2-4.4c1-0.8,2.1-1.5,3.1-2.4
			c0.5-0.4,0.9-0.9,1.4-1.2c0.5-0.3,1.1-0.4,1.7-0.1c-0.4-0.6-1.2-0.8-1.9-0.6c-0.7,0.1-1.4,0.5-1.9,0.7c-1.2,0.5-2.3,1-3.5,1.4
			c-2.4,0.9-4.8,2-7.1,3.2c-4.7,2.4-9,5.7-12.6,9.6c-3.6,3.9-6.5,8.5-8.6,13.3l-0.4,0.9l-0.4,1c-0.3,0.8-0.5,1.6-0.5,2.6
			c0,1,0.5,2.1,1.3,2.8c0.2,0.2,0.6,0.5,1.3,0.6l0.1,0l0,0l0.1,0l0.1,0l0.2,0l0.9-0.1c1.5-0.1,3.6,0.2,5.6,0.6
			c0.9,0.2,1.7,0.9,1.9,1.8l0,0c-0.1,0.1-0.1,0.3-0.2,0.5c-0.4,1.3,0.4,2.7,1.8,3.1c0.5,0.1,1.1,0.1,1.6-0.1c1.1-0.4,2.4-0.1,3,1
			l0.1,0.2c0.7,1.3,1.2,2.7,1.6,4.1c0.4,1.4,0.6,2.9,0.7,4.3c0,0.7,0.1,1.5,0,2.2l0,0.6l0,0.1l0,0.1c0,0.1,0,0.2,0,0.3
			c0.1,0.5,0.2,0.6,0.2,0.7c0.3,0.6,0.7,1.3,1.5,1.7c0.7,0.5,1.7,0.6,2.4,0.4c0.7-0.1,1.3-0.4,1.8-0.7c0.2-0.2,0.5-0.3,0.7-0.5
			l0.3-0.2l0.2-0.2l0.9-0.8c2.4-2.1,4.7-4.4,6.8-6.8c4.3-4.8,8-10.1,11.1-15.7c1.6-2.8,3-5.7,4.3-8.6c1.3-3,2.4-5.9,3.4-9.1
			l-0.1,0.2c0.3-0.9,0.3-1.7,0.2-2.4c-0.1-0.8-0.5-1.5-1-2.2c-0.1-0.2-0.3-0.3-0.5-0.5c-0.1-0.1-0.1-0.1-0.2-0.1l-0.1-0.1l-0.5-0.4
			l-1.1-0.7l-2.2-1.5l-2.2-1.4c-0.1-0.1-0.3-0.2-0.4-0.3c-0.3-0.9-1.1-1.6-2.1-1.7c-0.2,0-0.4,0-0.6,0c-0.5-0.3-0.9-0.5-1.4-0.8
			c-1.5-0.9-3.1-1.8-4.6-2.6c0.8,0.9,1.6,1.8,2.4,2.6C-481.8,94.9-481.3,95.9-481.1,97.1L-481.1,97.1z M-518.9,124.1l-0.1,0l-0.1,0
			l0,0l0.1,0c0.1,0,0.2,0,0.3,0L-518.9,124.1z M-498.2,145.2l0-0.1c0,0,0,0,0,0C-498.2,145.1-498.2,145.2-498.2,145.2
			C-498.2,145.3-498.2,145.2-498.2,145.2z M-498.3,144.9L-498.3,144.9C-498.3,144.9-498.2,144.9-498.3,144.9
			C-498.2,144.9-498.2,145-498.3,144.9z"/>
	</g>
</g>
<g id="Layer_5">
</g>
<g id="Layer_3">
	<path class="st1" d="M98.8,393.1c-2.1-2.5-4-5.2-5.9-7.9c-1.9-2.7-3.7-5.4-5.4-8.2c-0.9-1.4-1.7-2.8-2.6-4.2
		c-1,2.5-2.1,4.9-3.2,7.3c-2,4.3-3.2,9-3.8,13.8c-1.2,8.9,0.1,18.1,3.2,26.6l2.5,4.9l2.3,4.7c0.1-1.2,0.1-2.4,0.3-3.5
		c0.5-3.8,1.6-7.6,3.4-11c1.8-3.4,4.2-6.4,7-9c2.8-2.5,5.9-4.6,9.1-6.6C103.1,398.1,100.9,395.6,98.8,393.1z"/>
	<g>
		<circle class="st2" cx="40.7" cy="190.1" r="7.2"/>
		<g>
			<path class="st4" d="M30.4,295.4c7.3-23,9.9-39.8,9.8-39.8c6-18.1,7.3-41.9,6.6-64.5H35.2c-2.2,10-5.3,19.7-9.7,27.7
				C5.9,254-3.9,273.1,2.8,302.7c5.8,17,12.2,31.1,18.8,42.5l11.3,20.2c-0.1-0.5-2.7-14.6,4-24.3c6.8-9.9,13.9-13.6,13.9-13.6
				C44.2,321.4,36.5,309.1,30.4,295.4z"/>
			<path class="st1" d="M2.8,293.8c0.7,4.2,1.9,8.3,3.3,12.3l1.2,3c0.4,1,0.9,1.9,1.3,2.9c0.9,1.9,1.9,3.8,2.9,5.7
				c2,3.8,4,7.7,6,11.6c2,3.9,4,7.7,5.9,11.6l1.3,2.5c-2.8-7.1-4.1-14.9-3.6-22.7c0.4-5,1.4-10,3.3-14.8l2.7-6.9
				c0.4-1.1,0.8-2.2,1.2-3.3c0-0.1-0.1-0.1-0.1-0.2l0.2-0.1c0.4-1.1,0.8-2.2,1.2-3.3c3.3-9.2,6.3-18.5,8.3-28
				c2.2-9.5,3.4-19.1,4.4-28.9c0.5-4.9,1-9.8,1.4-14.7c0.5-4.9,0.7-9.7,0.9-14.6c0.2-5,0.1-10,0-14.9h-7.2c-0.4,2-0.8,4-1.3,6
				c-0.8,3.2-1.9,6.5-3.3,9.5c-1.4,3-2.8,5.9-4.3,8.8c-3,5.8-5.9,11.6-9,17.4c-3,5.8-6.1,11.5-9,17.3c-2.9,5.8-5.6,11.7-7.5,18
				C1.4,276.7,1.4,285.4,2.8,293.8z"/>
			<path class="st3" d="M35.2,191.1c-2.2,10-5.3,19.7-9.7,27.7C5.9,254-3.9,273.1,2.8,302.7c1.3,3.7,2.6,7.3,3.9,10.7
				c-3.5-26.4,5.4-47.1,26.7-74.7c6.6-8.5,10.8-18.3,13.5-28.5v0c0.2-6.3,0.1-12.7-0.1-19.1H35.2z"/>
			<path class="st5" d="M19.6,232.9c3.1-5.7,6.1-11.5,9-17.4c1.5-2.9,2.9-5.9,4.3-8.8c1.4-3.1,2.5-6.3,3.3-9.5c0.5-2,0.9-4,1.3-6h-4
				c-0.3,1.7-0.7,3.4-1.2,5c-0.8,3.1-1.7,6.1-3,8.9c-1.3,3-2.7,5.9-4.1,8.8l-8.4,17.6c-2.8,5.9-5.5,11.8-8,17.9
				c-2.4,6.1-4.7,12.3-5.7,18.8c1.8-6.3,4.6-12.2,7.5-18C13.5,244.4,16.6,238.7,19.6,232.9z"/>
			<path class="st5" d="M40.3,311.3c-1.6-2.8-3-5.7-4.5-8.6c-1.2-2.4-2.3-4.8-3.3-7.2c0.3-0.6,0.5-1.2,0.8-1.9
				c3.7-9.2,6.9-18.6,9.3-28.3c1.2-4.8,2.1-9.8,2.9-14.7c0.8-4.9,1.4-9.8,1.9-14.8c0.5-4.9,0.9-9.8,1.3-14.8
				c0.4-4.9,0.7-10,0.7-14.9c0-5-0.1-10-0.3-15h-4.4c0.1,5,0.1,10,0,14.9c-0.1,4.9-0.4,9.7-0.9,14.6c-0.4,4.9-0.9,9.8-1.4,14.7
				c-1,9.7-2.3,19.4-4.4,28.9c-2,9.5-5.1,18.8-8.3,28c-0.4,1.1-0.8,2.2-1.2,3.3l-0.2,0.1c0,0.1,0.1,0.1,0.1,0.2
				c-0.4,1.1-0.8,2.2-1.2,3.3l-2.7,6.9c-1.9,4.8-2.9,9.8-3.3,14.8c-0.5,7.8,0.8,15.6,3.6,22.7l-1.3-2.5c-1.9-3.9-3.9-7.7-5.9-11.6
				c-2-3.9-4-7.7-6-11.6c-1-1.9-2.1-3.8-2.9-5.7c-0.4-1-0.9-1.9-1.3-2.9l-1.2-3c-1.4-4-2.6-8.1-3.3-12.3c-1.4-8.4-1.5-17.1,0.3-25.6
				c-1.5,4.1-2.4,8.4-2.8,12.8c-0.5,4.4-0.4,8.8,0,13.2l0.4,3.3l0.6,3.3c0.2,1.1,0.5,2.2,0.8,3.2c0.3,1.1,0.5,2.2,0.9,3.2l1.1,3.2
				c0.4,1.1,0.9,2,1.3,3.1c0.9,2.1,1.8,4,2.8,5.9c1.9,3.9,3.8,7.8,5.8,11.7c2,3.9,3.9,7.8,5.9,11.6l6,11.6l6.1,11.5l4.2,8l-1-9
				c-0.4-3.6-0.7-7.2-0.4-10.8c0.3-3.6,1.1-7.1,2.5-10.4c1.4-3.3,3.4-6.3,5.9-9c2.5-2.7,5.3-5.1,8.2-7.5c-3.1,2-6.3,4.1-9.1,6.6
				c-2.8,2.5-5.3,5.5-7,9c-1.8,3.4-2.9,7.2-3.4,11c-0.2,1.2-0.2,2.4-0.3,3.5l-2.3-4.7l-2.5-4.9c-3.2-8.6-4.4-17.8-3.2-26.6
				c0.6-4.8,1.8-9.5,3.8-13.8c1.1-2.4,2.2-4.9,3.2-7.3c0.8,1.4,1.7,2.8,2.6,4.2c1.7,2.8,3.5,5.5,5.4,8.2c1.9,2.7,3.8,5.3,5.9,7.9
				c2.1,2.5,4.3,5,6.9,7c-2.4-2.2-4.3-4.9-6.1-7.6C43.5,316.9,41.8,314.1,40.3,311.3z"/>
		</g>
	</g>
</g>
<g id="Layer_4">
	<g>
		<g>
			<g>
				<path class="st3" d="M-447.9-8.4c1.7-19.9,22.4-49.3,57.2-59.4c0.1,0,0.3-0.1,0.4-0.1c21-5.9,42.7,6.2,50,26.8
					c1.1,3.2,2.2,6.4,3.1,9.8c1.2,4.1,2.2,8.1,3.1,12.1c-3.9-3.4-8.3-6.3-13.2-8.6c-5.5-2.5-11.5-4.1-17.9-4.7
					c-33.8-3-61.1,15.2-72.1,30.9c-2.6,3.7-4.3,7.2-5,10.3c-2.4-2.8-4.1-5.6-4.8-8.1C-448-2-448.2-5.1-447.9-8.4z"/>
				<path class="st4" d="M-437.4-1.6c17.8,7.3,50.5,8.1,77.5-12.7c5.1-3.9,9.3-8.5,12.6-13.6c4.9,2.2,9.3,5.1,13.2,8.6
					c0,0.1,0,0.2,0,0.2c4.2,19.3-6.5,39.1-25.1,45.9c-1.2,0.4-2.4,0.8-3.6,1.2c-35.1,10.2-67.3-5.1-79.6-19.3
					C-441.7,5.6-440,2-437.4-1.6z"/>
				<path class="st5" d="M-334.1-19.3c1.8,5.9,2.1,12.3,1,18.5c-1.3,6.2-3.9,12.2-8,17.2c-4,5-9.2,9.2-15.2,11.8
					c-0.7,0.3-1.5,0.7-2.2,1l-2.3,0.8c-1.5,0.6-3,0.9-4.6,1.3l-2.3,0.6l-1.1,0.3l-1.2,0.2l-4.7,0.8c-6.3,0.7-12.6,1-18.9,0.3
					c-6.3-0.7-12.4-2-18.4-4c-5.9-2-11.6-4.8-16.8-8.2c-5.2-3.4-10-7.5-13.7-12.4c4.5,4.2,9.6,7.6,14.9,10.4c1.3,0.7,2.7,1.4,4.1,2
					c1.4,0.6,2.7,1.3,4.2,1.7c1.4,0.5,2.8,1.1,4.2,1.5l4.3,1.3c5.8,1.5,11.7,2.6,17.6,3l4.5,0.2c1.5,0,3,0,4.5-0.1
					c0.7,0,1.5,0,2.2-0.1l2.2-0.2l2.2-0.2c0.7-0.1,1.5-0.1,2.2-0.3l4.4-0.7l1.1-0.2l1.1-0.3l2.2-0.5c1.4-0.4,2.9-0.6,4.3-1.1
					l2.1-0.7l2-0.8c1.4-0.5,2.6-1.2,3.9-1.9c0.7-0.3,1.2-0.8,1.9-1.1c0.6-0.4,1.3-0.7,1.8-1.2c1.1-0.9,2.3-1.7,3.4-2.7
					c0.5-0.5,1.1-1,1.6-1.5l1.5-1.6c0.5-0.5,1-1.1,1.4-1.7c0.4-0.6,0.9-1.1,1.3-1.7l1.2-1.8l0.6-0.9l0.5-1l1.1-1.9l0.9-2l0.4-1
					c0.1-0.3,0.2-0.7,0.4-1l0.7-2.1C-333.8-7.1-333.3-13.2-334.1-19.3z"/>
				<path class="st5" d="M-437.4-1.6c4.1,1.1,8.2,1.8,12.3,2.2l3.1,0.3C-421,1-420,1-418.9,1c2,0.1,4.1,0.1,6.1,0.1
					c8.2-0.2,16.3-1.5,24.1-3.7c7.8-2.2,15.3-5.4,22.4-9.6l5.2-3.3c1.7-1.1,3.3-2.4,4.9-3.7c3.2-2.6,6.1-5.6,8.8-8.8
					c-1.8,3.8-4.3,7.3-7.2,10.5c-1.5,1.6-3,3.1-4.6,4.5c-1.7,1.3-3.3,2.7-5.1,4c-7,5-14.9,8.7-23.2,11.1c-8.3,2.3-17,3.3-25.5,2.8
					c-4.3-0.3-8.5-0.9-12.7-2C-429.7,1.8-433.7,0.4-437.4-1.6z"/>
				<path class="st5" d="M-334.1-19.3c-4.3-3.2-8.9-5.8-13.8-7.8c-4.9-1.9-10-3.2-15.1-3.7c-10.4-0.9-20.9,0.2-30.9,3
					c-5,1.5-9.8,3.3-14.5,5.6c-4.6,2.4-9.1,5-13.2,8.1l-3.1,2.4l-2.9,2.5c-0.9,0.9-1.8,1.8-2.8,2.7c-0.9,0.9-1.7,1.9-2.6,2.8
					c-1.6,2-3.3,4-4.6,6.1c-1.3,2.1-2.4,4.4-3,6.7l-1,3.7l-2.4-2.9c-1.2-1.5-2.3-3-3.3-4.8c-0.5-0.9-0.9-1.8-1.2-2.7
					c-0.4-0.9-0.6-1.9-0.8-2.9c-0.7-3.9-0.3-7.7,0.5-11.3c0.8-3.6,2.1-7.1,3.7-10.4c0.8-1.6,1.7-3.3,2.6-4.8c1-1.6,2-3.1,3-4.5
					c-1.7,3.2-3.2,6.5-4.4,9.9c-1.2,3.4-2.1,6.8-2.6,10.3c-0.5,3.5-0.5,7,0.3,10.2c0.7,3.2,2.7,6,5,8.5l-3.3,0.9
					c0.6-2.9,1.7-5.6,3.1-8c1.4-2.5,3.1-4.7,4.8-6.8c3.5-4.3,7.5-8.1,11.9-11.4c4.4-3.3,9.1-6.2,14-8.6c4.9-2.4,10.1-4.2,15.4-5.7
					c2.7-0.6,5.3-1.3,8-1.6c1.4-0.2,2.7-0.5,4.1-0.6l4.1-0.3c1.4-0.1,2.7-0.1,4.1-0.1c1.4,0,2.7,0,4.1,0.1l4.1,0.3
					c1.4,0.1,2.7,0.3,4.1,0.5C-351.8-32.1-341.6-26.9-334.1-19.3z"/>
				<path class="st5" d="M-439.3-31.5c5.7-11,14.5-20.4,24.8-27.6c5.2-3.6,10.8-6.5,16.7-8.8l2.2-0.9l2.3-0.7l2.3-0.7
					c0.8-0.2,1.6-0.4,2.4-0.6c0.8-0.2,1.6-0.4,2.4-0.5l2.4-0.3l1.2-0.2c0.4,0,0.8,0,1.2-0.1l2.4-0.1c0.8-0.1,1.6,0.1,2.4,0.1
					c0.8,0.1,1.6,0.1,2.4,0.2l2.4,0.4c0.8,0.1,1.6,0.3,2.4,0.5c1.6,0.4,3.2,0.8,4.7,1.5c0.8,0.3,1.5,0.6,2.3,0.9l2.2,1.1
					c5.8,3,10.8,7.3,14.6,12.5c0.5,0.7,1,1.3,1.4,1.9l1.2,2.1c0.9,1.3,1.5,2.8,2.2,4.3c0.4,0.7,0.6,1.5,0.9,2.2l0.8,2.2
					c0.5,1.5,0.8,3,1.3,4.5c1.7,6,2.7,12.1,3.8,18.2c-2.1-5.8-3.7-11.7-6.1-17.4c-0.5-1.4-1-2.9-1.6-4.3l-0.9-2
					c-0.3-0.7-0.6-1.4-1-2c-0.8-1.3-1.4-2.6-2.3-3.8l-1.3-1.8c-0.5-0.6-0.9-1.1-1.4-1.7c-0.9-1.2-2-2.2-3-3.2
					c-0.3-0.3-0.5-0.5-0.8-0.8l-0.8-0.7l-1.7-1.4c-0.6-0.5-1.2-0.8-1.8-1.3c-0.6-0.4-1.2-0.9-1.8-1.2l-1.9-1.1
					c-0.3-0.2-0.6-0.4-0.9-0.5l-1-0.5c-5.2-2.5-11-4-16.7-4l-2.2,0c-0.4,0-0.7,0-1.1,0l-1.1,0.1l-2.2,0.3c-0.7,0.1-1.4,0.3-2.1,0.4
					c-0.7,0.2-1.4,0.3-2.1,0.5L-392-65l-2.1,0.7l-2.1,0.8c-5.7,2-11.1,4.6-16.2,7.7C-422.8-49.6-431.9-41.4-439.3-31.5z"/>
				<path class="st4" d="M-443.4-12.9c0.5-1,0.9-1.7,1.4-2.5c0.5-0.8,1-1.5,1.5-2.3c1-1.5,2.1-2.9,3.2-4.3c2.3-2.8,4.7-5.3,7.3-7.7
					c5.2-4.7,11.2-8.6,17.5-11.6c6.3-2.9,13-5,19.8-6.2c6.8-1.2,13.7-1.6,20.5-1.4c-6.8,0.2-13.6,1.2-20.2,2.8
					c-6.6,1.6-12.9,4.1-18.8,7.4c-5.8,3.3-11.2,7.4-15.8,12.1c-2.3,2.4-4.4,4.9-6.3,7.6c-0.9,1.4-1.8,2.7-2.6,4.1
					c-0.4,0.7-0.8,1.4-1.1,2.1c-0.3,0.7-0.7,1.5-1,2.1L-443.4-12.9z"/>
			</g>
			<path class="st3" d="M-435.8-8.8c8.5-18,5.5-53.9-19.4-80.1c-0.1-0.1-0.2-0.2-0.3-0.3c-15.1-15.7-40-16.2-56.7-2.1
				c-2.6,2.2-5.1,4.5-7.6,6.9c-3.1,2.9-6,5.9-8.8,8.9c5.1-1,10.4-1.3,15.7-0.7c6,0.6,12,2.2,17.8,4.9c30.7,14.5,45,43.9,46.7,63.1
				c0.4,4.5,0.1,8.4-0.9,11.5c3.5-1.2,6.3-2.7,8.2-4.6C-438.9-3.3-437.2-5.8-435.8-8.8z"/>
			<path class="st4" d="M-448.2-8.3c-19.1-2.7-47.7-18.5-60.5-50c-2.4-5.9-3.7-12-4-18c-5.3-0.5-10.6-0.3-15.7,0.7
				c-0.1,0.1-0.1,0.1-0.2,0.2c-13.4,14.5-14.1,37.1-1.5,52.3c0.8,1,1.7,1.9,2.5,2.9c25.1,26.5,60.7,29.6,78.5,23.4
				C-448.1,0.2-447.8-3.8-448.2-8.3z"/>
			<g>
				<path class="st5" d="M-530.1-23.1c5.7,4.9,11.5,9.5,17.8,13.2c6.3,3.7,12.9,6.8,19.8,9.1c6.9,2.3,14,3.9,21.3,4.6
					c7.3,0.8,14.6,0.7,22.1-0.6c-6.8,3.3-14.6,4.5-22.3,4.5c-7.7-0.1-15.3-1.4-22.6-3.8c-7.3-2.4-14.2-6-20.4-10.5
					C-520.6-11.2-526-16.8-530.1-23.1z"/>
				<path class="st5" d="M-455.4-89.3c-9-7.8-20.8-11.5-32.1-10.2c-5.6,0.7-11.1,2.4-16,5.1c-0.6,0.3-1.2,0.7-1.8,1.1l-1.8,1.1
					c-1.1,0.8-2.2,1.7-3.3,2.6l-6.5,5.9c-1.1,0.9-2.1,2-3.2,3.1l-3.1,3.1l-3.1,3.1c-0.5,0.5-1,1.1-1.4,1.6l-1.4,1.6
					c-3.4,4.4-5.9,9.6-7.3,15c-0.6,2.8-1,5.6-1.1,8.4c-0.2,2.9,0.2,5.7,0.7,8.6c1.1,5.7,3.4,11.1,6.7,16.1
					c-4.2-4.3-7.3-9.7-9.1-15.5c-1.7-5.9-2.1-12.2-1-18.3c1.1-6.1,3.6-12,7.4-17.1l1.5-1.8c0.5-0.6,1-1.2,1.5-1.8l3.1-3.2l3.2-3.2
					c1.1-1.1,2.1-2.2,3.2-3.2l6.7-6c1.3-0.9,2.5-1.9,3.8-2.8l2-1.2c0.7-0.4,1.3-0.8,2-1.1c5.6-2.9,11.7-4.6,17.9-4.8
					c6.2-0.4,12.4,0.8,18.1,3.2C-464.2-97.6-459.2-93.9-455.4-89.3z"/>
				<path class="st5" d="M-448.2-8.3c-4.2-0.1-8.4-0.9-12.5-2c-4.1-1.2-8.1-2.8-11.9-4.7c-7.7-3.8-14.6-9.1-20.6-15.3
					c-6-6.2-10.9-13.4-14.4-21.2c-0.8-2-1.6-4-2.4-6c-0.7-2-1.3-4.1-1.7-6.2c-0.8-4.2-1.2-8.5-0.9-12.7c0.8,4.1,1.8,8.2,3.2,12
					c0.7,1.9,1.5,3.8,2.4,5.6l2.8,5.5c4,7.1,8.9,13.7,14.5,19.6c5.6,5.8,12,11,19,15.3c1.8,1,3.5,2.1,5.3,3c0.9,0.5,1.8,1,2.7,1.4
					l2.8,1.3C-456.2-10.8-452.3-9.4-448.2-8.3z"/>
				<path class="st5" d="M-528.5-75.6c2.6-0.6,5.2-1.1,7.9-1.3c2.7-0.2,5.4-0.3,8.1-0.1c5.4,0.4,10.8,1.5,15.8,3.5
					c1.3,0.5,2.5,1,3.7,1.6l3.7,1.8c1.2,0.6,2.4,1.3,3.5,2c1.2,0.7,2.4,1.3,3.5,2.1l3.4,2.3c1.1,0.8,2.1,1.7,3.2,2.5
					c2.2,1.6,4.1,3.6,6.1,5.4c3.8,3.9,7.4,8.1,10.5,12.6c3,4.5,5.7,9.3,7.9,14.4c2.2,5,3.8,10.3,4.8,15.8c0.4,2.7,0.8,5.5,0.8,8.3
					c0,2.8-0.3,5.7-1.2,8.6l-3.1-3c1.9-0.7,3.8-1.5,5.5-2.5c0.8-0.5,1.5-1.1,2.2-1.7c0.7-0.7,1.3-1.4,1.9-2.2
					c1.1-1.6,2.2-3.4,2.9-5.3l0.6-1.4c0.2-0.5,0.4-1,0.5-1.5l0.9-3c2-8.2,2.3-16.9,1.1-25.5l-0.4-3.2l-0.7-3.2
					c-0.4-2.1-1-4.2-1.5-6.3c-0.1-0.5-0.3-1.1-0.4-1.6l-0.5-1.5l-1.1-3.1c-0.3-1-0.8-2-1.2-3l-1.2-3c-3.6-8-8.4-15.4-14.1-22.1
					c6.4,6.1,11.9,13.2,16.1,21.1c1,2,2,4,2.9,6l1.3,3.1l0.6,1.6c0.2,0.5,0.4,1.1,0.5,1.6c0.7,2.1,1.5,4.3,2,6.5l0.8,3.3l0.6,3.3
					c0.5,2.2,0.6,4.5,0.9,6.7c0.2,1.1,0.1,2.3,0.2,3.4c0,1.1,0.1,2.3,0.1,3.4c0,4.5-0.6,9.1-1.6,13.6l-0.9,3.3
					c-0.1,0.6-0.3,1.1-0.6,1.6l-0.6,1.6c-0.8,2.2-2,4.3-3.4,6.3c-0.7,1-1.5,1.9-2.4,2.8c-0.9,0.9-1.9,1.7-3,2.4
					c-2.1,1.4-4.3,2.3-6.5,3.1l-4.5,1.6l1.4-4.6c0.7-2.2,0.9-4.7,0.9-7.1c0-2.5-0.3-5-0.7-7.5c-0.9-5-2.3-10-4.3-14.8
					c-2-4.8-4.4-9.4-7.2-13.7c-2.8-4.4-6.1-8.4-9.6-12.2c-7.2-7.5-15.7-13.8-25.2-18.2C-507.1-75.5-517.9-77.1-528.5-75.6z"/>
			</g>
			<path class="st4" d="M-444-13.1c0.2-0.6,0.4-1.4,0.6-2.2c0.2-0.8,0.3-1.6,0.4-2.4c0.3-1.6,0.4-3.2,0.6-4.9
				c0.2-3.3,0.2-6.6-0.1-9.9c-0.6-6.6-2.1-13.1-4.6-19.4c-2.5-6.2-5.8-12.1-9.9-17.5c-4.1-5.4-8.8-10.4-13.9-14.9
				c5.5,4.1,10.6,8.8,15.1,14c4.5,5.2,8.4,11,11.5,17.3c3,6.3,5.2,13,6.3,20c0.5,3.5,0.8,7,0.8,10.6c0,1.8-0.1,3.6-0.2,5.4
				c-0.1,0.9-0.2,1.8-0.3,2.7c-0.1,0.9-0.3,1.8-0.5,2.8L-444-13.1z"/>
			<g>
				<g>
					<path class="st4" d="M-429.7-6.3c-1.4-1.8-3.2-3.4-5.3-4.8c-4.2-2.7-8.9-3.7-13-3.1c-3.6,0.5-6.7,2.1-8.5,5
						c-1.6,2.5-1.9,5.4-1.3,8.4C-450.7-0.1-439.7-0.5-429.7-6.3z"/>
					<path class="st3" d="M-457.8-0.7c0.9,4.4,3.9,8.8,8.6,11.9c6,3.8,12.9,4.3,17.6,1.7c1.6-0.9,2.9-2.1,3.9-3.6
						c2.9-4.5,1.9-10.6-2-15.5C-439.7-0.5-450.7-0.1-457.8-0.7z"/>
				</g>
				<path class="st5" d="M-435-11.1c-3.6-1.7-7.5-2.5-11.2-2.1c-3.7,0.4-7.1,2.2-8.6,5c-1.6,2.9-1.3,6.4,0.1,9.5
					c1.4,3.1,4,5.8,6.9,7.7c3,1.9,6.5,3.1,9.9,3c3.4,0,6.7-1.3,8.7-3.9c1.9-2.6,2.2-6.4,0.9-9.9C-429.5-5.3-431.9-8.4-435-11.1
					c3.6,1.7,6.8,4.6,8.8,8.4c1,1.9,1.6,4,1.7,6.3c0.1,2.3-0.4,4.6-1.6,6.7c-1.2,2-3,3.7-5.1,4.8c-2.1,1.1-4.4,1.6-6.6,1.7
					c-4.5,0.2-9-1.2-12.7-3.6c-3.7-2.4-6.8-5.8-8.6-10c-0.8-2.1-1.3-4.4-1.2-6.7c0.1-2.3,0.8-4.7,2.2-6.7c1.4-1.9,3.3-3.5,5.4-4.3
					c2.1-0.8,4.3-1.1,6.4-1.1C-442-15.3-438-13.7-435-11.1z"/>
			</g>
		</g>
		<path class="st5" d="M-429.2-6.3c-1.9,1.4-4.1,2.6-6.3,3.6c-2.2,1-4.5,1.9-6.9,2.5c-2.4,0.7-4.8,1.2-7.3,1.4
			c-2.5,0.3-5,0.3-7.5,0.3l0.4-3.9c2.3,0.4,4.6,0.7,6.9,0.7c2.3,0.1,4.7-0.1,7-0.4c2.3-0.3,4.6-0.8,6.9-1.5
			C-433.6-4.3-431.3-5.2-429.2-6.3z"/>
		<path class="st5" d="M-448.5-60.7c2.4,3.4,4.4,7.1,6,10.9c1.6,3.8,3,7.9,3.8,12c0.9,4.1,1.5,8.3,1.5,12.6c0.1,2.1,0,4.2-0.1,6.4
			c0,1.1-0.2,2.1-0.3,3.2l-0.4,3.2l-3.9-0.8l0.6-3c0.2-1,0.4-2,0.5-3c0.3-2,0.6-4,0.6-6c0.3-4.1,0-8.1-0.5-12.2
			c-0.5-4.1-1.5-8.1-2.8-12C-444.7-53.3-446.3-57.2-448.5-60.7z"/>
		<path class="st5" d="M-388-48.2c-4.1,0.3-8.2,1.1-12.2,2.2c-4,1.2-7.8,2.7-11.4,4.5c-3.6,1.9-7.1,4-10.3,6.5
			c-1.6,1.2-3.1,2.6-4.6,3.9c-0.8,0.7-1.4,1.4-2.1,2.1l-2.1,2.2l-2.9-2.7l2.4-2.2c0.8-0.7,1.6-1.5,2.4-2.1c1.7-1.3,3.3-2.6,5.2-3.8
			c3.5-2.4,7.3-4.3,11.2-5.9c3.9-1.6,7.9-2.9,12-3.7C-396.4-47.8-392.2-48.3-388-48.2z"/>
		<path class="st5" d="M-457.6-0.8c-2.8-0.3-5.5-0.7-8.2-1.3c-1.4-0.3-2.7-0.6-4-0.9l-4-1.1c-5.3-1.5-10.5-3.4-15.4-5.7
			c-1.2-0.6-2.5-1.1-3.7-1.8l-3.6-1.9c-1.2-0.7-2.3-1.4-3.5-2.1l-1.7-1.1c-0.6-0.4-1.1-0.8-1.7-1.2l-3.3-2.4l-3.1-2.6
			c-0.5-0.4-1.1-0.9-1.6-1.3l-1.5-1.4l-2.9-2.9l3,2.7l1.5,1.4c0.5,0.4,1.1,0.8,1.6,1.2l3.2,2.5l3.4,2.2c0.6,0.4,1.1,0.7,1.7,1.1
			l1.8,1c1.2,0.6,2.3,1.4,3.6,1.9l3.7,1.8c1.2,0.6,2.5,1.1,3.7,1.6c5,2,10.2,3.7,15.4,4.9c5.2,1.2,10.6,2.1,15.9,2.4L-457.6-0.8z"/>
		<path class="st5" d="M-427.2,8.9c4.8,2.1,10,3.7,15.2,5c5.2,1.3,10.6,2.2,16,2.6c1.3,0.1,2.7,0.3,4,0.3l4.1,0.1
			c1.4,0,2.7-0.1,4.1-0.1l2-0.1c0.7-0.1,1.3-0.1,2-0.2l4-0.4l4-0.7c0.7-0.1,1.3-0.2,2-0.4l2-0.5l3.9-1.1l-3.9,1.2l-2,0.6
			c-0.7,0.2-1.3,0.3-2,0.5l-4,0.9l-4.1,0.6c-0.7,0.1-1.4,0.2-2,0.3l-2,0.2c-1.4,0.1-2.7,0.3-4.1,0.3l-4.1,0.1
			c-1.4,0.1-2.7-0.1-4.1-0.1c-5.5-0.2-10.9-0.9-16.3-1.9l-4-0.9c-1.3-0.3-2.7-0.7-4-1c-2.7-0.7-5.3-1.6-7.9-2.6L-427.2,8.9z"/>
	</g>
	<g>
		<circle class="st2" cx="-158.7" cy="189.8" r="7.6"/>
		<g>
			<path class="st4" d="M-153.6,190.7h-11.2c-1.3,20.7-0.5,44.5,5,68.9c7.9,34.8,15.2,70.6,16.7,99.8c6.4-7.6,11.9-17.2,15.4-29.5
				c8.4-29.3,0.9-68-16.8-104.4C-149.3,215.4-152.1,203.1-153.6,190.7z"/>
			<path class="st3" d="M-153.6,190.7h-4.3c1.5,23.3,6.3,52.3,17.5,86.3c6.7,20.4,10.3,40,11.2,57.8c0.6-1.6,1.1-3.2,1.5-4.9
				c8.4-29.3,0.9-68-16.8-104.4C-149.3,215.4-152.1,203.1-153.6,190.7z"/>
			<path class="st4" d="M-172.5,379.7c0,0,6.5,4.9,11.5,15.8c5,11-0.2,24.7-0.2,24.7c15.4-8.5,19.7-31.3,18.2-60.9
				C-152,369.9-162.8,376.3-172.5,379.7z"/>
			<path class="st1" d="M-129.1,278.1c-1.9-8.5-4.2-16.8-7.1-25c-2.8-8.2-6.2-16.2-9.9-24c-0.9-1.9-1.9-4.1-2.8-6.2l-1.2-3.2
				l-1.1-3.2c-1.4-4.3-2.5-8.7-3.3-13.1c-0.7-4.2-1.3-8.5-1.8-12.7h-6.5c-0.1,2.8-0.2,5.6-0.3,8.4c-0.3,12.6,0.5,25.3,2.1,37.7
				l1.3,9.3l1.9,9.2c0.6,3.1,1.3,6.2,2.1,9.3l2.1,9.3c2.8,12.4,5.4,24.9,7.6,37.5c1.1,6.3,2.2,12.6,3.1,18.9
				c0.9,6.3,1.6,12.7,2.2,19.1c0.1,1.6,0.3,3.3,0.4,4.9c2.1-2.7,4-5.6,5.7-8.6c2.8-5,5.2-10.4,7-15.9
				C-124.2,312.6-125.6,295-129.1,278.1z"/>
			<path class="st1" d="M-156.1,373.2c-4,2.8-8.4,5.2-12.9,7.2c0.7,0.7,1.4,1.4,2,2.1c1.3,1.5,2.5,3,3.6,4.6c1.1,1.6,2.2,3.3,3.1,5
				c0.5,0.8,0.9,1.7,1.3,2.6c0.4,1,0.8,1.9,1.1,2.9c1.3,3.9,1.6,8,1.3,12c-0.1,1.5-0.3,2.9-0.5,4.3c0.4-0.4,0.8-0.8,1.2-1.3
				c0.5-0.5,0.9-1.2,1.3-1.7l0.7-0.9l0.6-0.9l1.1-1.9l1-2c2.5-5.4,3.8-11.5,4.6-17.6c0.9-7.7,1.1-15.4,0.8-23.3
				C-149,367.5-152.4,370.5-156.1,373.2z"/>
			<path class="st5" d="M-140.3,354.5c-0.1-1.6-0.2-3.3-0.4-4.9c-0.6-6.4-1.3-12.8-2.2-19.1c-0.9-6.3-2-12.7-3.1-18.9
				c-2.3-12.6-4.8-25.1-7.6-37.5l-2.1-9.3c-0.7-3.1-1.5-6.2-2.1-9.3l-1.9-9.2l-1.3-9.3c-1.6-12.5-2.4-25.1-2.1-37.7
				c0-2.8,0.1-5.6,0.3-8.4h-3.7c-0.2,2.8-0.4,5.5-0.6,8.3l-0.4,9.6l0.1,9.6c0,3.2,0.3,6.4,0.5,9.6c0.2,3.2,0.3,6.4,0.8,9.6l1.2,9.6
				l1.8,9.5c0.6,3.2,1.2,6.3,1.9,9.4l2,9.3c5.2,24.8,10.1,49.8,12.5,74.9c0.3,3.6,0.6,7.3,0.8,11c-7.6,7.7-17,13.6-27.1,17l-3.1,1.1
				l2.6,2.2c0.6,0.5,1.3,1.1,1.8,1.8c0.6,0.6,1.2,1.3,1.8,2c1.1,1.4,2.2,2.8,3.2,4.4c1,1.5,1.9,3.1,2.7,4.7c0.4,0.8,0.8,1.6,1.2,2.4
				c0.3,0.8,0.6,1.6,0.8,2.4c0.9,3.3,1.2,6.8,0.8,10.3c-0.2,1.8-0.4,3.5-0.8,5.2c-0.4,1.7-0.9,3.5-1.5,5l-2.5,6.6l6.1-3.4
				c3-1.7,5.8-3.9,8.1-6.5c0.6-0.6,1.1-1.4,1.6-2l0.8-1l0.7-1.1l1.3-2.2l1.1-2.3c2.9-6.1,4.4-12.6,5.4-19.1c0.9-6.5,1.2-13,1.2-19.5
				c0-3.8-0.2-7.6-0.4-11.4c2.5-3.5,4.7-7.2,6.6-11c2.6-5.3,4.5-10.8,5.9-16.4c-1.8,5.5-4.2,10.9-7,15.9
				C-136.3,348.9-138.2,351.7-140.3,354.5z M-146.7,387.5c-0.8,6.1-2.1,12.2-4.6,17.6l-1,2l-1.1,1.9l-0.6,0.9l-0.7,0.9
				c-0.4,0.6-0.8,1.2-1.3,1.7c-0.4,0.4-0.8,0.8-1.2,1.3c0.2-1.4,0.4-2.9,0.5-4.3c0.3-4-0.1-8-1.3-12c-0.3-1-0.7-1.9-1.1-2.9
				c-0.4-0.9-0.8-1.8-1.3-2.6c-0.9-1.7-2-3.4-3.1-5c-1.1-1.6-2.3-3.1-3.6-4.6c-0.6-0.7-1.3-1.4-2-2.1c4.5-2,8.9-4.3,12.9-7.2
				c3.7-2.6,7.2-5.6,10.3-8.9C-145.6,372.1-145.8,379.9-146.7,387.5z"/>
			<path class="st5" d="M-130.7,251.2c-2.7-8.5-6.1-16.7-9.9-24.8c-1-2.1-1.8-3.9-2.7-5.9l-1.2-2.9l-1-3c-1.3-4-2.4-8.2-3.3-12.4
				c-0.8-3.8-1.5-7.7-2-11.6h-5.5c0.4,4.2,1,8.5,1.8,12.7c0.8,4.4,1.9,8.8,3.3,13.1l1.1,3.2l1.2,3.2c0.9,2.1,1.9,4.2,2.8,6.2
				c3.8,7.8,7.1,15.8,9.9,24c2.9,8.2,5.2,16.5,7.1,25c3.6,16.9,5,34.5,1.5,51.9c3-8.3,4.5-17.2,4.9-26.1c0.4-8.9-0.2-17.9-1.7-26.7
				C-125.7,268.4-128,259.7-130.7,251.2z"/>
		</g>
	</g>
</g>
</svg>
