<?xml version="1.0" encoding="utf-8"?>
<!-- Generator: Adobe Illustrator 25.2.3, SVG Export Plug-In . SVG Version: 6.00 Build 0)  -->
<!DOCTYPE svg PUBLIC "-//W3C//DTD SVG 1.1//EN" "http://www.w3.org/Graphics/SVG/1.1/DTD/svg11.dtd" [
	<!ENTITY ns_extend "http://ns.adobe.com/Extensibility/1.0/">
	<!ENTITY ns_ai "http://ns.adobe.com/AdobeIllustrator/10.0/">
	<!ENTITY ns_graphs "http://ns.adobe.com/Graphs/1.0/">
	<!ENTITY ns_vars "http://ns.adobe.com/Variables/1.0/">
	<!ENTITY ns_imrep "http://ns.adobe.com/ImageReplacement/1.0/">
	<!ENTITY ns_sfw "http://ns.adobe.com/SaveForWeb/1.0/">
	<!ENTITY ns_custom "http://ns.adobe.com/GenericCustomNamespace/1.0/">
	<!ENTITY ns_adobe_xpath "http://ns.adobe.com/XPath/1.0/">
]>
<svg version="1.1" xmlns:x="&ns_extend;" xmlns:i="&ns_ai;" xmlns:graph="&ns_graphs;"
	 xmlns="http://www.w3.org/2000/svg" xmlns:xlink="http://www.w3.org/1999/xlink" x="0px" y="0px" viewBox="0 0 640 100"
	 style="enable-background:new 0 0 640 100;" xml:space="preserve">
<style type="text/css">
	.st0{fill:#FCF6EC;}
	.st1{fill:none;}
	.st2{fill:#010202;}
	.st3{fill:#EA5665;}
	.st4{fill:#F191AD;}
	.st5{fill:#303F89;}
</style>
<metadata>
	<sfw  xmlns="&ns_sfw;">
		<slices></slices>
		<sliceSourceBounds  bottomLeftOrigin="true" height="877.8" width="16383" x="-7871" y="-60"></sliceSourceBounds>
	</sfw>
</metadata>
<g id="Layer_1">
	<g>
		<g>
			<path class="st0" d="M638,60c0-32-26-58-58-58H60C28,2,2,28,2,60v40h636V60z M580,86h-37.8c-14.1,0-26-11.9-26-26s11.9-26,26-26
				H580c14.1,0,26,11.9,26,26S594.1,86,580,86z"/>
		</g>
		<g>
			<path d="M580,31h-37.8c-15.7,0-29,13.3-29,29c0,15.7,13.3,29,29,29H580c15.7,0,29-13.3,29-29C609,44.3,595.7,31,580,31z M580,84
				h-37.8c-13,0-24-11-24-24c0-13,11-24,24-24H580c13,0,24,11,24,24C604,73,593,84,580,84z"/>
			<path d="M5,60C5,29.7,29.7,5,60,5h520c30.3,0,55,24.7,55,55v40h5V60c0-33-27-60-60-60H60C27,0,0,27,0,60v40h5V60z"/>
		</g>
	</g>
	<path class="st1" d="M580,34h-37.8c-14.1,0-26,11.9-26,26s11.9,26,26,26H580c14.1,0,26-11.9,26-26S594.1,34,580,34z"/>
	<g>
		<path d="M247.4,26c-4.9,0.7-6.1,1-9.4,7.6c-3.6,7.1-10.9,21.9-21.3,43.4h-2.9l-5.9-39.8l-19.8,39.8h-2.9l-4.1-43.3
			c-0.6-6.7-1-7.1-6.7-7.6l0.5-2.4h19.4l-0.7,2.4l-1.7,0.3c-3.4,0.6-4.1,1-3.7,5.4l2.7,32.8l19.7-39.9h2.7l5.7,40.1
			c5.2-10.2,12.3-25.2,15.4-32.6c1.8-4.4,1-5.1-3.3-5.6l-1.8-0.3l0.5-2.4H248L247.4,26z M249.8,77c-4.1,0-9.3-2.3-9.3-12.1
			c0-7.5,3.2-16.3,9.5-21c3.6-2.6,7.6-4.3,11.2-4.3c4.8,0,7.4,3,7.4,6.6c0,8.1-11.9,11.8-20.8,13.4c-0.1,0.9-0.2,2.6-0.2,3.3
			c0,4.6,1.3,9,6.2,9c3.7,0,8-2.3,11.9-6.4l1.2,2.1C260.7,75.1,254.2,77,249.8,77z M248.3,56.9c11.1-2.1,13.8-5.7,13.9-9.5
			c0-2.7-1.6-4.2-4-4.2C255.8,43.1,250.5,45,248.3,56.9z M287.9,68.6c-4.2,5.5-9.6,8.4-12.1,8.4c-2.1,0-3.4-1.6-1.8-9.3
			c2.8-13.3,5.9-28,8.5-40.3c0.7-3.3,0.4-3.6-2.5-3.9c-0.9-0.1-2.3-0.2-2.9-0.2l0.5-2.2c3.8-0.4,7.9-1.3,10.2-2.1
			c1.4-0.5,2-0.6,2.5-0.6c0.8,0,0.8,0.8,0.4,2.6c-3.5,15.3-7.5,34-10.1,46.7c-0.5,2.2-0.4,3,0.2,3c0.7,0,2.9-1.1,5.7-4.1L287.9,68.6
			z M319.2,68c-5,5.8-10.9,9-16.5,9c-5.6,0-9.3-4.3-9.3-12c0-6.7,2.8-14.4,8.3-19.4c3.7-3.5,9.1-6,13-6c3.6,0,6.3,1.8,6.4,3.8
			c0.1,1.6-1.2,3.8-2.9,4.4c-0.8,0.3-1.3,0.2-2-0.5c-2-2.4-3.7-3.7-6.2-3.7c-5.7,0-9.3,10-9.3,19.5c0,5.9,2.2,8.8,5.9,8.8
			c4.1,0,8.7-3.4,11.2-6L319.2,68z M357.4,52.3c0,8.4-4.1,17-11.4,21.5c-2.9,1.8-6.4,3.2-10.1,3.2c-8,0-11.1-6.3-11.1-12.7
			c0-11.2,6.1-19.2,13.3-22.6c2.6-1.2,5.8-2.1,8.3-2.1C353.5,39.6,357.4,44.2,357.4,52.3z M332.4,63.7c0,6.1,2.2,9.9,6.4,9.9
			c7.3,0,11.2-12.2,11.2-21.1c0-6.6-2.7-9.4-6.4-9.4C335.7,43,332.4,55.8,332.4,63.7z M415.9,39.6c2.7,0,5.3,1.3,2.8,11.7
			c-1.1,4.9-2.7,11.6-3.9,16.5c-0.5,2.1-0.5,3,0.1,3c0.7,0,3-1.2,5.9-4.2l1.2,2.1c-4.3,5.6-9.8,8.4-12.3,8.4c-2.1,0-3.4-1.9-1.6-9
			c1.4-5.6,2.9-11.9,4.1-17.2c1-4.3,0.4-5.6-0.9-5.6c-2.5,0-9,4.5-14.1,12.8c-1.5,2.4-2.2,4.2-2.8,6.9c-0.7,3.2-1.7,7.1-2.3,10.5
			c-2.3,0.3-4.7,1-6.5,1.6l-0.6-0.6c2-8.2,4-15.9,5.7-24.3c1-4.5,0.9-6.8-0.9-6.8c-2.6,0-8.8,4.8-13.8,12.9
			c-1.4,2.3-2.1,4.4-2.8,6.9c-0.7,3.2-1.7,7.1-2.3,10.4c-2.3,0.3-4.7,1-6.4,1.6l-0.5-0.6c2.1-8.2,4.6-18.4,6.5-27.3
			c0.6-2.6,0.3-3.3-0.3-3.3c-0.9,0-3.2,1.7-5.1,3.6l-1.1-2.2c4-4.6,8.1-7.6,11-7.6c2.4,0,3.1,3.2,1.7,9.7l-1.1,5
			c7-9.6,14.4-14.7,18.8-14.7c2.8,0,4.9,2.1,2.7,12.3l-0.5,2.6C403.4,44.9,411.4,39.6,415.9,39.6z M438,77c-4.1,0-9.3-2.3-9.3-12.1
			c0-7.5,3.2-16.3,9.5-21c3.6-2.6,7.6-4.3,11.2-4.3c4.8,0,7.4,3,7.4,6.6c0,8.1-11.9,11.8-20.8,13.4c-0.1,0.9-0.2,2.6-0.2,3.3
			c0,4.6,1.3,9,6.2,9c3.7,0,8-2.3,11.9-6.4l1.2,2.1C448.8,75.1,442.4,77,438,77z M436.4,56.9c11.1-2.1,13.8-5.7,13.9-9.5
			c0-2.7-1.6-4.2-4-4.2C443.9,43.1,438.6,45,436.4,56.9z"/>
	</g>
	<g>
		<rect x="174.4" y="82.1" class="st2" width="291.2" height="5"/>
	</g>
	<g>
		<g>
			<path class="st3" d="M626.4,18.3l-0.2-0.2l-2.1-2.4l-4.3-3.6l-3.2-2.7l-4-2.7c-0.9-0.7-1.9-0.3-2.8,0.3
				c-7.7,5-19.7,9.7-30.2,30.4c-0.7,1.3-0.9,2.8,0.1,3.8c0.2,0.1,0.3,0.2,0.5,0.2c3.3,0,6.2,0.6,8.8,1.8c0.7,0.3,1.3,0.7,2,1.1
				c1,0.7,2,1.4,2.9,2.3c2,2,3.5,4.6,4.5,7.6c0.1,0.3,0.2,0.6,0.3,0.9c0.5,1.9,0.8,4,0.8,6.1c0,0.1,0,0.1,0,0.2
				c0.5,1.3,1.9,1.9,3.7,0.2C621.9,44,627,21,627,21C627.4,20.2,627.2,19,626.4,18.3z"/>
			<path class="st4" d="M595.7,49.3c4.1-2.5,9.7-6.3,14-10.8c8.3-8.7,12.6-17.7,12.6-17.7s-7.1,11.1-16,16.9
				c3.9-5.2,10.7-13.2,13.5-25.6l4,3.3l2.1,2.4l0.2,0.2c0.9,0.7,1,2,0.7,2.7c0,0,0,0.1,0,0.2c-4.3,6.8-15.4,22.7-30.3,29.6
				L595.7,49.3z"/>
			<path class="st4" d="M619.7,12.1c-3.1,4.9-17.9,26.1-26.1,34.5c-0.9-0.9-1.8-1.6-2.9-2.3c6.8-15.7,20.7-30,25.7-34.9L619.7,12.1z
				"/>
		</g>
		<path class="st5" d="M617.1,12.4L617.1,12.4c-0.1,0.9-0.3,2.1-0.6,3.2c-0.2,1.1-0.5,2.2-0.8,3.2c-0.6,2.2-1.4,4.3-2.3,6.4
			c-0.9,2.1-1.9,4.2-3,6.2c-1.1,2-2.3,4-3.6,5.9c1.6-1.7,3.2-3.4,4.7-5.2c1.5-1.8,2.9-3.7,4.2-5.7c1.3-2,2.5-4.1,3.5-6.2
			c0.5-1.1,1-2.2,1.5-3.3c0.2-0.6,0.5-1.1,0.7-1.7l1.1,1l1.9,1.8l1,0.9l0.5,0.4l0.1,0.1c0,0,0.1,0.1,0.1,0.1c0,0,0,0,0,0
			c0,0,0,0.1,0,0.2c0,0.1,0,0.2,0,0.1l-0.1,0.2c-1,2.8-2.3,5.6-3.6,8.4c-1.3,2.8-2.8,5.5-4.3,8.1c-3.1,5.3-6.5,10.4-10.3,15.2
			c-1.9,2.4-4,4.7-6.1,6.9c-0.5,0.5-1.1,1.2-1.4,1.4c-0.1,0.1-0.2,0.2-0.3,0.2l0-0.4c0-0.8-0.2-1.7-0.3-2.5
			c-0.6-3.3-1.8-6.5-3.9-9.1c-0.5-0.6-1-1.2-1.6-1.8c-0.7-0.7-1-1.7-0.7-2.7c0.3-1,0.7-2,1.1-3c0.7-1.9,1.5-3.8,2.4-5.6
			c0.9-1.8,1.8-3.7,2.8-5.5c1-1.8,2.1-3.6,3.2-5.3c-1.4,1.5-2.8,3-4.2,4.6c-1.4,1.6-2.7,3.2-3.9,4.9c-1.3,1.7-2.5,3.4-3.6,5.2
			c-0.5,0.8-1,1.5-1.4,2.3c-0.5,0.9-1.6,1.2-2.6,0.7c-2.2-1.1-4.8-2-6.6-2.4c-0.3-0.1-0.6-0.1-0.9-0.1c-0.1-0.2-0.1-0.3,0-0.6
			c0.1-0.3,0.2-0.7,0.5-1.1l1-1.5c2.7-4.2,5.6-8.2,8.8-11.7c3.3-3.6,6.9-6.8,11-9.7c2-1.5,4.1-2.9,6.2-4.4c1-0.8,2.1-1.5,3.1-2.4
			c0.5-0.4,0.9-0.9,1.4-1.2c0.5-0.3,1.1-0.4,1.7-0.1c-0.4-0.6-1.2-0.8-1.9-0.6c-0.7,0.1-1.4,0.5-1.9,0.7c-1.2,0.5-2.3,1-3.5,1.4
			c-2.4,0.9-4.8,2-7.1,3.2c-4.7,2.4-9,5.7-12.6,9.6c-3.6,3.9-6.5,8.5-8.6,13.3l-0.4,0.9l-0.4,1c-0.3,0.8-0.5,1.6-0.5,2.6
			c0,1,0.5,2.1,1.3,2.8c0.2,0.2,0.6,0.5,1.3,0.6l0.1,0l0,0l0.1,0l0.1,0l0.2,0l0.9-0.1c1.5-0.1,3.6,0.2,5.6,0.6
			c0.9,0.2,1.7,0.9,1.9,1.8l0,0c-0.1,0.1-0.1,0.3-0.2,0.5c-0.4,1.3,0.4,2.7,1.8,3.1c0.5,0.1,1.1,0.1,1.6-0.1c1.1-0.4,2.4-0.1,3,1
			l0.1,0.2c0.7,1.3,1.2,2.7,1.6,4.1c0.4,1.4,0.6,2.9,0.7,4.3c0,0.7,0.1,1.5,0,2.2l0,0.6l0,0.1l0,0.1c0,0.1,0,0.2,0,0.3
			c0.1,0.5,0.2,0.6,0.2,0.7c0.3,0.6,0.7,1.3,1.5,1.7c0.7,0.5,1.7,0.6,2.4,0.4c0.7-0.1,1.3-0.4,1.8-0.7c0.2-0.2,0.5-0.3,0.7-0.5
			l0.3-0.2l0.2-0.2l0.9-0.8c2.4-2.1,4.7-4.4,6.8-6.8c4.3-4.8,8-10.1,11.1-15.7c1.6-2.8,3-5.7,4.3-8.6c1.3-3,2.4-5.9,3.4-9.1
			l-0.1,0.2c0.3-0.9,0.3-1.7,0.2-2.4c-0.1-0.8-0.5-1.5-1-2.2c-0.1-0.2-0.3-0.3-0.5-0.5c-0.1-0.1-0.1-0.1-0.2-0.1l-0.1-0.1l-0.5-0.4
			l-1.1-0.7l-2.2-1.5l-2.2-1.4c-0.1-0.1-0.3-0.2-0.4-0.3c-0.3-0.9-1.1-1.6-2.1-1.7c-0.2,0-0.4,0-0.6,0c-0.5-0.3-0.9-0.5-1.4-0.8
			c-1.5-0.9-3.1-1.8-4.6-2.6c0.8,0.9,1.6,1.8,2.4,2.6C616.4,10.3,616.9,11.3,617.1,12.4L617.1,12.4z M579.3,39.4l-0.1,0l-0.1,0l0,0
			l0.1,0c0.1,0,0.2,0,0.3,0L579.3,39.4z M599.9,60.5l0-0.1c0,0,0,0,0,0C599.9,60.5,599.9,60.5,599.9,60.5
			C599.9,60.6,599.9,60.5,599.9,60.5z M599.9,60.2L599.9,60.2C599.9,60.2,599.9,60.2,599.9,60.2C600,60.3,600,60.3,599.9,60.2z"/>
	</g>
</g>
<g id="Layer_5">
</g>
<g id="Layer_3">
</g>
<g id="Layer_4">
</g>
</svg>
