<?xml version="1.0" encoding="utf-8"?>
<!-- Generator: Adobe Illustrator 25.2.3, SVG Export Plug-In . SVG Version: 6.00 Build 0)  -->
<!DOCTYPE svg PUBLIC "-//W3C//DTD SVG 1.1//EN" "http://www.w3.org/Graphics/SVG/1.1/DTD/svg11.dtd" [
	<!ENTITY ns_extend "http://ns.adobe.com/Extensibility/1.0/">
	<!ENTITY ns_ai "http://ns.adobe.com/AdobeIllustrator/10.0/">
	<!ENTITY ns_graphs "http://ns.adobe.com/Graphs/1.0/">
	<!ENTITY ns_vars "http://ns.adobe.com/Variables/1.0/">
	<!ENTITY ns_imrep "http://ns.adobe.com/ImageReplacement/1.0/">
	<!ENTITY ns_sfw "http://ns.adobe.com/SaveForWeb/1.0/">
	<!ENTITY ns_custom "http://ns.adobe.com/GenericCustomNamespace/1.0/">
	<!ENTITY ns_adobe_xpath "http://ns.adobe.com/XPath/1.0/">
]>
<svg version="1.1" xmlns:x="&ns_extend;" xmlns:i="&ns_ai;" xmlns:graph="&ns_graphs;"
	 xmlns="http://www.w3.org/2000/svg" xmlns:xlink="http://www.w3.org/1999/xlink" x="0px" y="0px" viewBox="0 0 72.3 481.1"
	 style="enable-background:new 0 0 72.3 481.1;" xml:space="preserve">
<style type="text/css">
	.st0{fill:#FCF6EC;}
	.st1{fill:none;}
	.st2{fill:#010202;}
	.st3{fill:#EA5665;}
	.st4{fill:#F191AD;}
	.st5{fill:#303F89;}
</style>
<metadata>
	<sfw  xmlns="&ns_sfw;">
		<slices></slices>
		<sliceSourceBounds  bottomLeftOrigin="true" height="877.8" width="16383" x="-7871" y="-60"></sliceSourceBounds>
	</sfw>
</metadata>
<g id="Layer_1">
</g>
<g id="Layer_5">
</g>
<g id="Layer_3">
</g>
<g id="Layer_4">
	<g>
		<circle class="st2" cx="36.2" cy="244.9" r="7.6"/>
		<g>
			<path class="st4" d="M41.3,245.8H30.2c-1.3,20.7-0.5,44.5,5,68.9c7.9,34.8,15.2,70.6,16.7,99.8c6.4-7.6,11.9-17.2,15.4-29.5
				c8.4-29.3,0.9-68-16.8-104.4C45.6,270.6,42.8,258.3,41.3,245.8z"/>
			<path class="st3" d="M41.3,245.8H37c1.5,23.3,6.3,52.3,17.5,86.3c6.7,20.4,10.3,40,11.2,57.8c0.6-1.6,1.1-3.2,1.5-4.9
				c8.4-29.3,0.9-68-16.8-104.4C45.6,270.6,42.8,258.3,41.3,245.8z"/>
			<path class="st4" d="M22.4,434.9c0,0,6.5,4.9,11.5,15.8c5,11-0.2,24.7-0.2,24.7c15.4-8.5,19.7-31.3,18.2-60.9
				C42.9,425.1,32.1,431.5,22.4,434.9z"/>
			<path class="st1" d="M65.7,333.3c-1.9-8.5-4.2-16.8-7.1-25c-2.8-8.2-6.2-16.2-9.9-24c-0.9-1.9-1.9-4.1-2.8-6.2l-1.2-3.2l-1.1-3.2
				c-1.4-4.3-2.5-8.7-3.3-13.1c-0.7-4.2-1.3-8.5-1.8-12.7h-6.5c-0.1,2.8-0.2,5.6-0.3,8.4c-0.3,12.6,0.5,25.3,2.1,37.7l1.3,9.3
				l1.9,9.2c0.6,3.1,1.3,6.2,2.1,9.3l2.1,9.3c2.8,12.4,5.4,24.9,7.6,37.5c1.1,6.3,2.2,12.6,3.1,18.9c0.9,6.3,1.6,12.7,2.2,19.1
				c0.1,1.6,0.3,3.3,0.4,4.9c2.1-2.7,4-5.6,5.7-8.6c2.8-5,5.2-10.4,7-15.9C70.7,367.8,69.3,350.2,65.7,333.3z"/>
			<path class="st1" d="M38.7,428.4c-4,2.8-8.4,5.2-12.9,7.2c0.7,0.7,1.4,1.4,2,2.1c1.3,1.5,2.5,3,3.6,4.6c1.1,1.6,2.2,3.3,3.1,5
				c0.5,0.8,0.9,1.7,1.3,2.6c0.4,1,0.8,1.9,1.1,2.9c1.3,3.9,1.6,8,1.3,12c-0.1,1.5-0.3,2.9-0.5,4.3c0.4-0.4,0.8-0.8,1.2-1.3
				c0.5-0.5,0.9-1.2,1.3-1.7l0.7-0.9l0.6-0.9l1.1-1.9l1-2c2.5-5.4,3.8-11.5,4.6-17.6c0.9-7.7,1.1-15.4,0.8-23.3
				C45.9,422.7,42.5,425.7,38.7,428.4z"/>
			<path class="st5" d="M54.6,409.7c-0.1-1.6-0.2-3.3-0.4-4.9c-0.6-6.4-1.3-12.8-2.2-19.1c-0.9-6.3-2-12.7-3.1-18.9
				c-2.3-12.6-4.8-25.1-7.6-37.5l-2.1-9.3c-0.7-3.1-1.5-6.2-2.1-9.3l-1.9-9.2l-1.3-9.3c-1.6-12.5-2.4-25.1-2.1-37.7
				c0-2.8,0.1-5.6,0.3-8.4h-3.7c-0.2,2.8-0.4,5.5-0.6,8.3l-0.4,9.6l0.1,9.6c0,3.2,0.3,6.4,0.5,9.6c0.2,3.2,0.3,6.4,0.8,9.6l1.2,9.6
				l1.8,9.5c0.6,3.2,1.2,6.3,1.9,9.4l2,9.3c5.2,24.8,10.1,49.8,12.5,74.9c0.3,3.6,0.6,7.3,0.8,11c-7.6,7.7-17,13.6-27.1,17l-3.1,1.1
				l2.6,2.2c0.6,0.5,1.3,1.1,1.8,1.8c0.6,0.6,1.2,1.3,1.8,2c1.1,1.4,2.2,2.8,3.2,4.4c1,1.5,1.9,3.1,2.7,4.7c0.4,0.8,0.8,1.6,1.2,2.4
				c0.3,0.8,0.6,1.6,0.8,2.4c0.9,3.3,1.2,6.8,0.8,10.3c-0.2,1.8-0.4,3.5-0.8,5.2c-0.4,1.7-0.9,3.5-1.5,5l-2.5,6.6l6.1-3.4
				c3-1.7,5.8-3.9,8.1-6.5c0.6-0.6,1.1-1.4,1.6-2l0.8-1l0.7-1.1l1.3-2.2l1.1-2.3c2.9-6.1,4.4-12.6,5.4-19.1c0.9-6.5,1.2-13,1.2-19.5
				c0-3.8-0.2-7.6-0.4-11.4c2.5-3.5,4.7-7.2,6.6-11c2.6-5.3,4.5-10.8,5.9-16.4c-1.8,5.5-4.2,10.9-7,15.9
				C58.6,404,56.7,406.9,54.6,409.7z M48.2,442.7c-0.8,6.1-2.1,12.2-4.6,17.6l-1,2l-1.1,1.9l-0.6,0.9l-0.7,0.9
				c-0.4,0.6-0.8,1.2-1.3,1.7c-0.4,0.4-0.8,0.8-1.2,1.3c0.2-1.4,0.4-2.9,0.5-4.3c0.3-4-0.1-8-1.3-12c-0.3-1-0.7-1.9-1.1-2.9
				c-0.4-0.9-0.8-1.8-1.3-2.6c-0.9-1.7-2-3.4-3.1-5c-1.1-1.6-2.3-3.1-3.6-4.6c-0.6-0.7-1.3-1.4-2-2.1c4.5-2,8.9-4.3,12.9-7.2
				c3.7-2.6,7.2-5.6,10.3-8.9C49.3,427.2,49.1,435,48.2,442.7z"/>
			<path class="st5" d="M64.2,306.4c-2.7-8.5-6.1-16.7-9.9-24.8c-1-2.1-1.8-3.9-2.7-5.9l-1.2-2.9l-1-3c-1.3-4-2.4-8.2-3.3-12.4
				c-0.8-3.8-1.5-7.7-2-11.6h-5.5c0.4,4.2,1,8.5,1.8,12.7c0.8,4.4,1.9,8.8,3.3,13.1l1.1,3.2l1.2,3.2c0.9,2.1,1.9,4.2,2.8,6.2
				c3.8,7.8,7.1,15.8,9.9,24c2.9,8.2,5.2,16.5,7.1,25c3.6,16.9,5,34.5,1.5,51.9c3-8.3,4.5-17.2,4.9-26.1c0.4-8.9-0.2-17.9-1.7-26.7
				C69.1,323.6,66.9,314.9,64.2,306.4z"/>
		</g>
	</g>
</g>
</svg>
