<?xml version="1.0" encoding="utf-8"?>
<!-- Generator: Adobe Illustrator 25.2.3, SVG Export Plug-In . SVG Version: 6.00 Build 0)  -->
<!DOCTYPE svg PUBLIC "-//W3C//DTD SVG 1.1//EN" "http://www.w3.org/Graphics/SVG/1.1/DTD/svg11.dtd" [
	<!ENTITY ns_extend "http://ns.adobe.com/Extensibility/1.0/">
	<!ENTITY ns_ai "http://ns.adobe.com/AdobeIllustrator/10.0/">
	<!ENTITY ns_graphs "http://ns.adobe.com/Graphs/1.0/">
	<!ENTITY ns_vars "http://ns.adobe.com/Variables/1.0/">
	<!ENTITY ns_imrep "http://ns.adobe.com/ImageReplacement/1.0/">
	<!ENTITY ns_sfw "http://ns.adobe.com/SaveForWeb/1.0/">
	<!ENTITY ns_custom "http://ns.adobe.com/GenericCustomNamespace/1.0/">
	<!ENTITY ns_adobe_xpath "http://ns.adobe.com/XPath/1.0/">
]>
<svg version="1.1" xmlns:x="&ns_extend;" xmlns:i="&ns_ai;" xmlns:graph="&ns_graphs;"
	 xmlns="http://www.w3.org/2000/svg" xmlns:xlink="http://www.w3.org/1999/xlink" x="0px" y="0px" viewBox="0 0 81.2 373.8"
	 style="enable-background:new 0 0 81.2 373.8;" xml:space="preserve">
<style type="text/css">
	.st0{fill:#FCF6EC;}
	.st1{fill:none;}
	.st2{fill:#010202;}
	.st3{fill:#EA5665;}
	.st4{fill:#F191AD;}
	.st5{fill:#303F89;}
</style>
<metadata>
	<sfw  xmlns="&ns_sfw;">
		<slices></slices>
		<sliceSourceBounds  bottomLeftOrigin="true" height="877.8" width="16383" x="-7871" y="-60"></sliceSourceBounds>
	</sfw>
</metadata>
<g id="Layer_1">
</g>
<g id="Layer_5">
</g>
<g id="Layer_3">
	<path class="st1" d="M98.8,393.1c-2.1-2.5-4-5.2-5.9-7.9c-1.9-2.7-3.7-5.4-5.4-8.2c-0.9-1.4-1.7-2.8-2.6-4.2
		c-1,2.5-2.1,4.9-3.2,7.3c-2,4.3-3.2,9-3.8,13.8c-1.2,8.9,0.1,18.1,3.2,26.6l2.5,4.9l2.3,4.7c0.1-1.2,0.1-2.4,0.3-3.5
		c0.5-3.8,1.6-7.6,3.4-11c1.8-3.4,4.2-6.4,7-9c2.8-2.5,5.9-4.6,9.1-6.6C103.1,398.1,100.9,395.6,98.8,393.1z"/>
	<g>
		<circle class="st2" cx="40.7" cy="190.1" r="7.2"/>
		<g>
			<path class="st4" d="M30.4,295.4c7.3-23,9.9-39.8,9.8-39.8c6-18.1,7.3-41.9,6.6-64.5H35.2c-2.2,10-5.3,19.7-9.7,27.7
				C5.9,254-3.9,273.1,2.8,302.7c5.8,17,12.2,31.1,18.8,42.5l11.3,20.2c-0.1-0.5-2.7-14.6,4-24.3c6.8-9.9,13.9-13.6,13.9-13.6
				C44.2,321.4,36.5,309.1,30.4,295.4z"/>
			<path class="st1" d="M2.8,293.8c0.7,4.2,1.9,8.3,3.3,12.3l1.2,3c0.4,1,0.9,1.9,1.3,2.9c0.9,1.9,1.9,3.8,2.9,5.7
				c2,3.8,4,7.7,6,11.6c2,3.9,4,7.7,5.9,11.6l1.3,2.5c-2.8-7.1-4.1-14.9-3.6-22.7c0.4-5,1.4-10,3.3-14.8l2.7-6.9
				c0.4-1.1,0.8-2.2,1.2-3.3c0-0.1-0.1-0.1-0.1-0.2l0.2-0.1c0.4-1.1,0.8-2.2,1.2-3.3c3.3-9.2,6.3-18.5,8.3-28
				c2.2-9.5,3.4-19.1,4.4-28.9c0.5-4.9,1-9.8,1.4-14.7c0.5-4.9,0.7-9.7,0.9-14.6c0.2-5,0.1-10,0-14.9h-7.2c-0.4,2-0.8,4-1.3,6
				c-0.8,3.2-1.9,6.5-3.3,9.5c-1.4,3-2.8,5.9-4.3,8.8c-3,5.8-5.9,11.6-9,17.4c-3,5.8-6.1,11.5-9,17.3c-2.9,5.8-5.6,11.7-7.5,18
				C1.4,276.7,1.4,285.4,2.8,293.8z"/>
			<path class="st3" d="M35.2,191.1c-2.2,10-5.3,19.7-9.7,27.7C5.9,254-3.9,273.1,2.8,302.7c1.3,3.7,2.6,7.3,3.9,10.7
				c-3.5-26.4,5.4-47.1,26.7-74.7c6.6-8.5,10.8-18.3,13.5-28.5v0c0.2-6.3,0.1-12.7-0.1-19.1H35.2z"/>
			<path class="st5" d="M19.6,232.9c3.1-5.7,6.1-11.5,9-17.4c1.5-2.9,2.9-5.9,4.3-8.8c1.4-3.1,2.5-6.3,3.3-9.5c0.5-2,0.9-4,1.3-6h-4
				c-0.3,1.7-0.7,3.4-1.2,5c-0.8,3.1-1.7,6.1-3,8.9c-1.3,3-2.7,5.9-4.1,8.8l-8.4,17.6c-2.8,5.9-5.5,11.8-8,17.9
				c-2.4,6.1-4.7,12.3-5.7,18.8c1.8-6.3,4.6-12.2,7.5-18C13.5,244.4,16.6,238.7,19.6,232.9z"/>
			<path class="st5" d="M40.3,311.3c-1.6-2.8-3-5.7-4.5-8.6c-1.2-2.4-2.3-4.8-3.3-7.2c0.3-0.6,0.5-1.2,0.8-1.9
				c3.7-9.2,6.9-18.6,9.3-28.3c1.2-4.8,2.1-9.8,2.9-14.7c0.8-4.9,1.4-9.8,1.9-14.8c0.5-4.9,0.9-9.8,1.3-14.8
				c0.4-4.9,0.7-10,0.7-14.9c0-5-0.1-10-0.3-15h-4.4c0.1,5,0.1,10,0,14.9c-0.1,4.9-0.4,9.7-0.9,14.6c-0.4,4.9-0.9,9.8-1.4,14.7
				c-1,9.7-2.3,19.4-4.4,28.9c-2,9.5-5.1,18.8-8.3,28c-0.4,1.1-0.8,2.2-1.2,3.3l-0.2,0.1c0,0.1,0.1,0.1,0.1,0.2
				c-0.4,1.1-0.8,2.2-1.2,3.3l-2.7,6.9c-1.9,4.8-2.9,9.8-3.3,14.8c-0.5,7.8,0.8,15.6,3.6,22.7l-1.3-2.5c-1.9-3.9-3.9-7.7-5.9-11.6
				c-2-3.9-4-7.7-6-11.6c-1-1.9-2.1-3.8-2.9-5.7c-0.4-1-0.9-1.9-1.3-2.9l-1.2-3c-1.4-4-2.6-8.1-3.3-12.3c-1.4-8.4-1.5-17.1,0.3-25.6
				c-1.5,4.1-2.4,8.4-2.8,12.8c-0.5,4.4-0.4,8.8,0,13.2l0.4,3.3l0.6,3.3c0.2,1.1,0.5,2.2,0.8,3.2c0.3,1.1,0.5,2.2,0.9,3.2l1.1,3.2
				c0.4,1.1,0.9,2,1.3,3.1c0.9,2.1,1.8,4,2.8,5.9c1.9,3.9,3.8,7.8,5.8,11.7c2,3.9,3.9,7.8,5.9,11.6l6,11.6l6.1,11.5l4.2,8l-1-9
				c-0.4-3.6-0.7-7.2-0.4-10.8c0.3-3.6,1.1-7.1,2.5-10.4c1.4-3.3,3.4-6.3,5.9-9c2.5-2.7,5.3-5.1,8.2-7.5c-3.1,2-6.3,4.1-9.1,6.6
				c-2.8,2.5-5.3,5.5-7,9c-1.8,3.4-2.9,7.2-3.4,11c-0.2,1.2-0.2,2.4-0.3,3.5l-2.3-4.7l-2.5-4.9c-3.2-8.6-4.4-17.8-3.2-26.6
				c0.6-4.8,1.8-9.5,3.8-13.8c1.1-2.4,2.2-4.9,3.2-7.3c0.8,1.4,1.7,2.8,2.6,4.2c1.7,2.8,3.5,5.5,5.4,8.2c1.9,2.7,3.8,5.3,5.9,7.9
				c2.1,2.5,4.3,5,6.9,7c-2.4-2.2-4.3-4.9-6.1-7.6C43.5,316.9,41.8,314.1,40.3,311.3z"/>
		</g>
	</g>
</g>
<g id="Layer_4">
</g>
</svg>
