<?xml version="1.0" encoding="utf-8"?>
<!-- Generator: Adobe Illustrator 25.2.3, SVG Export Plug-In . SVG Version: 6.00 Build 0)  -->
<!DOCTYPE svg PUBLIC "-//W3C//DTD SVG 1.1//EN" "http://www.w3.org/Graphics/SVG/1.1/DTD/svg11.dtd" [
	<!ENTITY ns_extend "http://ns.adobe.com/Extensibility/1.0/">
	<!ENTITY ns_ai "http://ns.adobe.com/AdobeIllustrator/10.0/">
	<!ENTITY ns_graphs "http://ns.adobe.com/Graphs/1.0/">
	<!ENTITY ns_vars "http://ns.adobe.com/Variables/1.0/">
	<!ENTITY ns_imrep "http://ns.adobe.com/ImageReplacement/1.0/">
	<!ENTITY ns_sfw "http://ns.adobe.com/SaveForWeb/1.0/">
	<!ENTITY ns_custom "http://ns.adobe.com/GenericCustomNamespace/1.0/">
	<!ENTITY ns_adobe_xpath "http://ns.adobe.com/XPath/1.0/">
]>
<svg version="1.1" xmlns:x="&ns_extend;" xmlns:i="&ns_ai;" xmlns:graph="&ns_graphs;"
	 xmlns="http://www.w3.org/2000/svg" xmlns:xlink="http://www.w3.org/1999/xlink" x="0px" y="0px" viewBox="0 0 300 300"
	 style="enable-background:new 0 0 300 300;" xml:space="preserve">
<style type="text/css">
	.st0{display:none;}
	.st1{display:inline;fill:#FFD307;}
	.st2{display:inline;fill:#E64037;}
	.st3{display:inline;fill:#49AD39;}
	.st4{display:inline;fill:#D1CFB5;}
	.st5{display:inline;fill:#020203;}
	.st6{display:inline;fill:#2E2F2F;}
	.st7{display:inline;fill:#D1E7D5;}
	.st8{display:inline;fill:none;}
	.st9{display:inline;fill:#F5AA09;}
	.st10{display:inline;fill:#7E4B26;}
	.st11{display:inline;fill:#ADA77F;}
	.st12{display:inline;fill:#3B1A0F;}
	.st13{display:inline;fill:#129839;}
	.st14{display:inline;fill:#ABD3B2;}
	.st15{display:inline;fill:#ACA780;}
	.st16{display:inline;fill:none;stroke:#020203;stroke-width:3;stroke-linecap:round;stroke-linejoin:round;stroke-miterlimit:10;}
	.st17{display:inline;fill:none;stroke:#020203;stroke-width:3;stroke-miterlimit:10;}
	.st18{display:inline;fill:none;stroke:#020203;stroke-width:3;stroke-linecap:round;stroke-miterlimit:10;}
	.st19{display:inline;fill:none;stroke:#020203;stroke-linecap:round;stroke-miterlimit:10;}
	.st20{display:inline;}
	.st21{fill:none;stroke:#020203;stroke-width:3;stroke-miterlimit:10;}
	.st22{display:inline;fill:#108036;}
	.st23{fill:#108036;}
	.st24{fill:#DECA7D;}
	.st25{fill:none;}
	.st26{fill:#A37134;}
	.st27{fill:#533E2D;}
	.st28{fill:#B88B49;}
	.st29{fill:#2E2F2F;}
	.st30{fill:#6E6E6E;}
	.st31{display:inline;fill:#67247C;}
	.st32{fill:none;stroke:#020203;stroke-width:3;stroke-linecap:round;stroke-linejoin:round;stroke-miterlimit:10;}
	.st33{fill:#020203;}
	.st34{fill:#D1CFB5;}
	.st35{fill:#ACA780;}
	.st36{display:inline;fill:#9D8416;}
	.st37{display:inline;fill:#109639;}
	.st38{fill:none;stroke:#020203;stroke-width:3;stroke-linecap:round;stroke-miterlimit:10;}
</style>
<metadata>
	<sfw  xmlns="&ns_sfw;">
		<slices></slices>
		<sliceSourceBounds  bottomLeftOrigin="true" height="474.9" width="1500" x="-120" y="-644.9"></sliceSourceBounds>
	</sfw>
</metadata>
<g id="z-index1_x2F_duck" class="st0">
	<path class="st1" d="M139.6,116.1c-0.7-4.8-10.3-16.7-22.3-16.7c-0.2,0-0.4,0-0.5,0c-1.5,0-3.1,0.1-4.5,0.3c-0.1,0-0.1,0-0.2,0
		c-0.1,0-0.2,0-0.2,0h-0.1c-0.1,0-0.1,0-0.2,0c-10.9,1.1-15.5,4.6-17.4,7.4c-0.4,0.6-0.9,1.4-0.6,2.3c0.3,0.9,1.2,2.3,6,4.4
		c2,0.9,5.7,1.9,10,2.8c-0.1,0.1-0.1,0.1-0.2,0.2c-2.8,4.3-4.2,7.7-4.1,10.1c0.1,2.1,1.3,3,1.8,3.3l0.1,0c1.1,0.8,3.2,1.2,5.8,1.2
		c1.6,0,3.3-0.2,5.1-0.5c1.9-0.3,3.9-0.8,6-1.5C135.2,125.9,140.4,121.4,139.6,116.1z M118.5,120c0.2-0.2,0.4-0.5,0.4-0.8
		c0.1-0.3,0-0.5,0-0.8c0,0,0,0,0-0.1c4.2,0.8,8.2,1.5,11,1.9c-0.5,0.2-1,0.4-1.5,0.6c-7.3,2.9-11.2,4.2-12.6,4.2
		C115.8,124.3,117,122,118.5,120z"/>
	<path class="st2" d="M117.1,126.5c-0.5,0-1.4,0.3-1.7,0.1c-0.5-0.3-0.3-1.1-0.4-1.8c-0.1-1.5,1.6-4.1,2.5-5.5
		c0-0.3,0.1-0.5,0.3-0.7c0.3-0.3,0.7-0.5,1.1-0.5c0.1,0,0.2,0,0.3,0c4.2,0.8,8,1.4,9.8,1.7c0.6,0.1,1.1,0.6,1.1,1.2
		c0.1,0.6-0.3,1.2-0.8,1.4C121,125.8,118.4,126.5,117.1,126.5z"/>
	<path class="st3" d="M177.3,103.2c0-0.3,0-0.6-0.1-0.9c-0.1-1.5-0.3-3.1-0.6-4.9c-0.9-4.8-2.6-10.4-6-15.2
		c-3.5-4.8-8.7-8.7-16.6-10.1c-0.4-0.1-0.8-0.1-1.1-0.2v0c-1.6-0.2-3.4-0.4-5.3-0.4c-0.3,0-0.5,0-0.8,0
		C123.2,72,114.3,92,112.1,98.1c-0.2,0.5-0.1,1.1,0.2,1.5c0,0,0,0,0,0.1c0.3,0.4,0.8,0.7,1.3,0.7h0.1c1.1-0.1,2-0.1,3-0.1
		c0.2,0,0.3,0,0.5,0c11.7,0,20.9,11.9,21.5,16c0.7,4.9-4.3,9.1-14.9,12.4c-1.6,0.5-3,0.9-4.5,1.2c-0.6,0.1-1.1,0.6-1.2,1.1
		c-0.1,0.2-0.1,0.4-0.1,0.7c0.1,1.5,0.6,9.8-2.6,22.9c0,0.1-0.1,0.2-0.1,0.3c-0.4,1.5-0.8,3-1.3,4.7c-0.1,0.5-0.1,1,0.2,1.4
		c0,0.1,0.1,0.1,0.2,0.2c0.1,0.1,0.2,0.2,0.3,0.3c2.5,1.6,10.5,6,24.2,7.7c3.3,0.4,7,0.7,11,0.7c1.4,0,2.9,0,4.3-0.1
		c0.3,0,0.6-0.1,0.8-0.3c0.4-0.3,0.7-0.7,0.8-1.1c1.8-11.1,6.4-20,10.9-28.5c5-9.5,9.7-18.5,10.4-30c0.1-1.1,0.1-2.2,0.1-3.4
		C177.4,105.5,177.4,104.4,177.3,103.2z M170,101.2c-0.1,2.2-0.4,4.5-1,7.2c-0.5,2.6-1.1,4.8-1.8,7.1c-0.4,1.2-1.5,2-2.7,2
		c-0.3,0-0.6,0-0.9-0.1c-0.7-0.2-1.3-0.7-1.7-1.4c-0.4-0.7-0.4-1.4-0.2-2.1c0-0.1,0.1-0.2,0.1-0.2c0,0,0-0.1,0.1-0.2
		c1.9-4.6,3.2-8.8,3.8-12.6c0.4-2.5,0.3-4.5-0.1-6c-0.3-0.9-0.7-1.5-1.3-1.8c-0.5-0.3-1.3-0.5-2.2-0.5c-0.1,0-0.2,0-0.4,0
		c-1.9,0.1-3.7,1-5.2,2.6c-1.3,1.4-2.5,3.2-3.6,5.7c-1.6,3.7-2.8,8-3.6,12.7c0.1-2,0.3-4.2,0.7-6.4c0.4-2.5,1-4.8,1.6-6.8
		c1-2.8,2-4.8,3.3-6.5c0.9-1.1,1.8-2,2.8-2.6c1.1-0.8,2.4-1.2,3.7-1.4c0.5-0.1,1-0.1,1.4-0.1c1,0,2,0.2,2.9,0.6
		c1.3,0.6,2.4,1.8,3.1,3.3c0.6,1.4,0.9,2.8,1,3.9C170,98.5,170,99.7,170,101.2z"/>
	<path class="st4" d="M237.7,227.3c-4,0-8.5-1.1-13.2-2.2c-1.5-0.4-3-0.7-4.5-1c1.6,1.6,2.8,3.3,3.4,5.1c3.6,10.1-3.4,14.7-6.5,16.2
		c-1.1,0.5-4,1.7-8.2,1.7c-5.9,0-14.3-2.5-23.1-12.9c-0.4,4.7-1.6,10.6-5.2,14.6c-2.7,3-6.3,4.5-10.7,4.5c-4.1,0-7.4-1.5-9.7-4.3
		c-6.1-7.5-3.6-22.4-3.1-25.4c-0.3-0.4-0.3-0.9-0.1-1.3c0-0.1,0.1-0.2,0.2-0.2c0.1-0.1,0.1-0.1,0.2-0.2h0c0.1-0.1,0.1-0.1,0.2-0.1
		c0.1,0,0.1-0.1,0.2-0.1c0.1,0,0.1,0,0.2-0.1c0,0,0,0,0,0c0.1,0,0.1,0,0.2,0c0.2,0,0.4,0.1,0.6,0.2c7.2,4.2,16.8,4.4,25.4,3.2
		c3.2-2.1,9-6.5,9-10.8c0-5.9-4.9-8.7-4.9-8.7s11.8-1.1,11.8-9.1c0-0.3,0-0.6,0-1c0-0.3,0-0.6-0.1-0.9c0-0.4-0.1-0.7-0.2-1
		c0-0.1,0-0.2-0.1-0.3c0-0.1,0-0.2-0.1-0.3c0-0.2-0.1-0.3-0.1-0.5c0-0.1-0.1-0.2-0.1-0.3c0,0,0,0,0,0c-0.1-0.2-0.1-0.3-0.2-0.5
		c-0.1-0.2-0.1-0.3-0.2-0.5c-0.1-0.3-0.3-0.6-0.4-0.8c-0.1-0.2-0.3-0.4-0.4-0.6c-0.1-0.1-0.1-0.2-0.2-0.3c-0.1-0.1-0.1-0.2-0.2-0.2
		c0,0,0,0,0,0c-0.1-0.1-0.1-0.1-0.2-0.2c-0.1-0.1-0.2-0.2-0.4-0.4c0,0,0,0-0.1-0.1c-0.1-0.1-0.3-0.3-0.5-0.4c0,0,0,0-0.1,0
		c-0.2-0.1-0.4-0.3-0.6-0.4c0,0,0,0,0,0c-0.2-0.1-0.4-0.2-0.7-0.4c0,0,0,0,0,0c-0.1-0.1-0.2-0.1-0.4-0.1c-0.1-0.1-0.3-0.1-0.4-0.1
		c-0.1,0-0.3-0.1-0.4-0.1c0,0-0.1,0-0.1,0c-0.1,0-0.2-0.1-0.3-0.1c-0.1,0-0.3-0.1-0.4-0.1c-0.1,0-0.2,0-0.3-0.1c0,0-0.1,0-0.1,0
		c-0.1,0-0.3,0-0.4,0c-0.1,0-0.2,0-0.2,0c-0.2,0-0.4,0-0.6,0c-0.1,0-0.3,0-0.4,0h0c-0.1,0-0.3,0-0.4,0c-0.1,0-0.3,0-0.4,0
		c-0.3,0-0.6,0.1-0.9,0.1c3.3-2.1,8.4-7,8.9-12.9c0.3-3.9-2.2-6.5-4-7.8c-3.4,0.3-6.7,0.8-9.7,1.3c-4.2,0.8-21,4.4-29.3,11.3
		c-0.1,0.1-0.2,0.2-0.3,0.3c-2.5,2.2-4.2,4.8-4.3,7.8c-0.3,9,6.1,9.5,6.3,9.5c0.7,0,1.2,0.6,1.2,1.3c0,0.7-0.6,1.2-1.3,1.2
		c0,0-1-0.1-2.4-0.6c-2.7,5.7-8.4,9.3-14.8,9.3c-0.6,0-1.2,0-1.8-0.1v0.1c0,0.3,0,0.6,0,0.8c0,0.2,0,0.4-0.1,0.7
		c0,0.2,0,0.3-0.1,0.5c0,0,0,0.1,0,0.1c0,0.2-0.1,0.4-0.1,0.6c0,0.2-0.1,0.3-0.1,0.5c0,0.1-0.1,0.3-0.1,0.4c0,0.1,0,0.2-0.1,0.2
		c0,0.2-0.1,0.3-0.1,0.5c0,0,0,0,0,0.1c-0.1,0.2-0.1,0.4-0.2,0.6c-0.1,0.3-0.2,0.5-0.3,0.8c-0.1,0.3-0.2,0.5-0.3,0.8
		c-0.1,0.2-0.2,0.4-0.3,0.6c-0.1,0.1-0.1,0.3-0.2,0.4c0,0,0,0,0,0c0,0.1-0.1,0.1-0.1,0.2c-0.1,0.2-0.2,0.4-0.4,0.6c0,0,0,0,0,0
		c-0.1,0.1-0.1,0.3-0.2,0.4c-0.1,0.2-0.2,0.4-0.4,0.6c-0.2,0.4-0.5,0.7-0.7,1c-0.1,0.2-0.3,0.4-0.4,0.5c0,0.1-0.1,0.1-0.1,0.2
		c-0.2,0.2-0.4,0.4-0.6,0.6c0,0,0,0.1-0.1,0.1c0,0,0,0-0.1,0.1c-0.2,0.2-0.5,0.5-0.7,0.7l0,0c-0.1,0.1-0.3,0.2-0.4,0.3c0,0,0,0,0,0
		c-0.2,0.2-0.4,0.3-0.6,0.5c-0.2,0.2-0.4,0.3-0.7,0.5c-0.2,0.1-0.3,0.2-0.5,0.3c-0.2,0.1-0.4,0.2-0.6,0.4c-0.1,0.1-0.2,0.1-0.3,0.2
		c-0.1,0.1-0.2,0.1-0.3,0.2c0,0,0,0,0,0c0,0,0,0,0,0c-0.2,0.1-0.5,0.2-0.7,0.3c-0.2,0.1-0.5,0.2-0.7,0.3c-0.2,0.1-0.5,0.2-0.7,0.3
		c-0.3,0.1-0.5,0.2-0.8,0.2c-0.3,0.1-0.5,0.1-0.8,0.2c-0.3,0.1-0.5,0.1-0.8,0.2c-0.3,0.1-0.6,0.1-0.9,0.1c-0.3,0-0.6,0.1-0.9,0.1
		c-0.1,0-0.2,0-0.3,0c-0.1,0-0.2,0-0.3,0c-0.1,0-0.3,0-0.4,0c-0.7,0-1.3,0-1.9-0.1c0,8.4-6.2,15.2-14.3,16.2c3.3,9.1,9,15.4,17,19
		c0.3-0.7,0.6-1.4,0.8-1.9c2.4-6.1,9.3-9.1,15.4-6.7c3,1.2,5.3,3.4,6.5,6.3c1.1,2.6,1.3,5.4,0.5,8.1c10.7,0.8,28.4,0.5,48.1-6.3
		c0.1-0.1,0.2-0.1,0.3-0.1c0.6-0.2,1.2-0.4,1.8-0.7c0.6-0.2,1.2-0.5,1.8-0.7h0c0.2-0.1,0.4-0.2,0.6-0.2c0.6-0.2,1.3-0.5,1.9-0.8
		c0.1,0,0.2-0.1,0.3-0.1c0.7-0.3,1.3-0.5,2-0.8c0.6-0.3,1.2-0.6,1.9-0.8c0.2-0.1,0.4-0.2,0.6-0.3c0.6-0.3,1.1-0.5,1.7-0.8
		c0.1,0,0.1-0.1,0.2-0.1c0.5-0.2,1-0.5,1.5-0.8c0,0,0,0,0.1,0c0.3-0.2,0.6-0.3,1-0.5c0.5-0.3,1.1-0.6,1.6-0.9
		c11.4-6.1,21-14.2,28.8-24.1C239.3,227.2,238.5,227.3,237.7,227.3z"/>
	<path class="st5" d="M127.8,107.4c-0.1,0.2-0.3,0.3-0.5,0.2c-0.8-0.4-1.7-0.5-2.4-0.5c-0.6,0-1,0.2-1.1,0.4
		c-0.1,0.2,0.1,0.6,0.5,1.1c0.5,0.5,1.2,1,2,1.3c0.2,0.1,0.3,0.3,0.2,0.5c-0.1,0.2-0.2,0.3-0.4,0.3c-0.1,0-0.1,0-0.2,0
		c-1-0.4-1.8-0.9-2.3-1.5c-0.6-0.7-0.8-1.4-0.6-1.9c0.2-0.6,0.9-0.9,1.8-0.9c0.8,0,1.8,0.2,2.7,0.6
		C127.8,106.9,127.9,107.2,127.8,107.4z"/>
	<path class="st1" d="M136.6,278.4c-0.1,0-0.2,0-0.3,0c-0.7-0.1-1.2-0.6-1.3-1.3c-1.4-6.4-12.4,3-16.7-4.5c-0.3-0.5-0.3-1.1,0-1.6
		c1.6-3.2,3.2-6.6,4.7-10.2c0,0,0,0,0-0.1c0.5-1.2,0.9-2.2,1.2-3.1c1.6-4.2,5.8-7,10.3-7c1.4,0,2.7,0.3,4,0.8
		c2.7,1.1,4.9,3.1,6.1,5.8c1.2,2.7,1.2,5.7,0.2,8.4l-0.3,0.7c-1.1,2.8,0.9,0.1-6.6,11.3C137.7,278.1,137.2,278.4,136.6,278.4z"/>
	<path class="st4" d="M250.2,212.7c-0.1,0-0.1,0-0.2,0c-0.7-0.1-1.3-0.6-1.4-1.2c-1.1-4.3-4.6-7.8-7.3-10c-0.6-0.5-0.8-1.4-0.4-2.1
		c0.3-0.5,0.9-0.9,1.5-0.9c0.2,0,0.4,0,0.5,0.1c2.8,0.9,5.4,1.8,7.9,2.5c1,0.3,2,0.5,3.1,0.7c0.5,0.1,0.9,0.4,1.2,0.8
		c0.2,0.4,0.3,1,0.1,1.4c-1,2.6-2.2,5.2-3.4,7.7C251.4,212.4,250.8,212.7,250.2,212.7z"/>
	<path class="st6" d="M261.1,182.5c-0.4,0-0.8-0.1-1.1-0.4c-1.9-1.5-4.1-3.1-6.5-4.6c-0.6-0.4-0.9-1.2-0.7-1.9
		c1-3.3,1.8-6.8,2.2-10.2c0-0.4,0.2-0.7,0.5-1c1.9-1.9,3.6-3.2,4.7-3.9c0.3-0.2,0.6-0.3,1-0.3c0.2,0,0.4,0,0.6,0.1
		c0.5,0.2,0.9,0.6,1,1.2c0.9,3.7,2.1,11.1,0,19.8c-0.1,0.6-0.5,1-1.1,1.2C261.5,182.4,261.3,182.5,261.1,182.5z"/>
	<path class="st6" d="M235.6,169.7c-0.1,0-0.3,0-0.4-0.1c-2.8-0.7-5.6-1.3-8.6-1.7c-0.5-0.1-1-0.4-1.3-0.9c-0.2-0.5-0.2-1.1,0.1-1.6
		c4-7,9.2-11.3,11.9-13.3c0.3-0.2,0.6-0.3,1-0.3c0.2,0,0.4,0,0.6,0.1c0.5,0.2,0.9,0.6,1,1.2c0.4,1.7,1,4.4,1.1,7.8
		c0,0.3-0.1,0.7-0.3,1c-1.3,2.1-2.6,4.4-3.7,6.8C236.8,169.3,236.2,169.7,235.6,169.7z"/>
	<path class="st7" d="M252.3,176.4c-0.3,0-0.6-0.1-0.8-0.2c-0.1-0.1-0.7-0.4-0.7-0.4c-3.8-2.2-8.2-4-13.2-5.5
		c-0.5-0.1-0.9-0.5-1.1-0.9c-0.2-0.4-0.2-1,0-1.4c1.1-2.3,2.3-4.6,3.7-6.8l0.2-0.3c4.6-7.1,9.7-11.6,12.3-13.7
		c0.3-0.2,0.7-0.4,1-0.4c0.2,0,0.4,0,0.6,0.1c0.5,0.2,0.9,0.7,1.1,1.2c0.6,3,1.4,9.1,0.6,16.8c-0.4,3.4-1.1,6.8-2.1,10.2
		c-0.1,0.5-0.5,0.9-1,1.1C252.7,176.4,252.5,176.4,252.3,176.4z"/>
	<path class="st4" d="M236.1,175.6c-3.5-4.1-8.7-7.2-15.4-9.1c0,0-0.1,0-0.1,0c-2.6-0.7-5.5-1.3-8.5-1.7c-0.1,0-0.1,0-0.2,0
		c-0.5,0-0.9,0.2-1.2,0.5c-0.4,0.4-0.5,0.9-0.4,1.4c0.5,2.9,0.7,10.1-7.6,15.5c-0.6,0.4-0.9,1.2-0.7,1.9c0.1,0.2,0.1,0.3,0.2,0.5
		c0.3,0.4,0.8,0.7,1.4,0.7c2.2,0,4.1,0.9,5.6,2.5c1.9,2.1,2.8,5.3,2.5,8.9c-0.5,5.1-7.5,7.9-8.8,7.9c-0.8,0-1.4,0.5-1.6,1.3
		c-0.2,0.7,0.2,1.5,0.8,1.9c2.5,1.3,5.1,5.4,5,9.5c0,0.6,0.3,1.2,0.8,1.5c0.3,0.1,0.5,0.2,0.8,0.2c0.3,0,0.6-0.1,0.9-0.3
		c11.4-7,25.1-20.5,28.3-31.6c0.2-0.5,0.3-1.1,0.4-1.6C239.1,181.7,238.4,178.3,236.1,175.6z"/>
	<path class="st8" d="M137.3,119.6c-0.1,0.6-0.5,1-0.5,1"/>
	<path class="st8" d="M103.3,102.4c0,0-0.8,0.5-1.5,1.2"/>
	<path class="st9" d="M137.4,119.9c-2,3.8-8.2,6.5-13.7,8.2c-9.5,3-14.4,1.7-15.4,1l-0.1-0.1c-0.4-0.3-1-0.7-1-1.9
		c-0.1-1.4,0.6-4.2,3.8-9.2c2,0.4,4.2,0.9,6.3,1.3c0,0,0,0-0.1,0.1c-0.3,0.5-3.4,4.8-3.2,6.5c0,0.3,0.1,0.8,0.6,1.1
		c0.2,0.1,0.6,0.2,1,0.2c1.8,0,5.7-1.3,15.8-5.4c1.1,0.2,1.9,0.3,2,0.3c0.7,0.1,1.3-0.4,1.4-1c0.1-0.7-0.4-1.3-1-1.4
		c-0.3,0-27-4.3-33.5-7.1c-4.2-1.9-4.9-2.9-5-3.3c0-0.1-0.1-0.3,0.3-0.9c0.9-1.3,2.6-3,6.1-4.4c-1.2,1.1-2.3,2.8-0.2,4.2
		c3.5,2.2,22.4,7.5,30.2,8.7C136.8,117.5,137.6,119,137.4,119.9z"/>
	<path class="st7" d="M155.2,169.3C155.2,169.3,155.2,169.3,155.2,169.3c-0.3-0.4-0.8-0.6-1.3-0.6h-0.1c-1.3,0.1-2.6,0.1-3.9,0.1
		c-3.8,0-7.3-0.2-10.5-0.6c-12.7-1.5-20.4-5.4-23.5-7.3c-0.3-0.2-0.6-0.2-0.9-0.2c-0.1,0-0.3,0-0.4,0.1c-0.1,0-0.1,0-0.2,0.1
		c0,0,0,0,0,0c-0.5,0.2-0.8,0.6-1,1.1c-0.7,2.3-1.5,4.7-2.4,6.9c-0.3,0.7-0.5,1.4-0.8,2.1c-0.6,1.5-1.2,3.1-1.8,5
		c-0.2,0.5-0.1,1,0.2,1.4c0,0.1,0.1,0.1,0.2,0.2c0.1,0.1,0.2,0.2,0.3,0.3c1.7,1.1,9.4,5.7,22.9,7.7c3.7,0.5,8,0.9,12.6,0.9
		c0,0,0,0,0,0c1.5,0,3,0,4.4-0.1c0.3,0,0.6-0.1,0.8-0.3c0.4-0.2,0.6-0.6,0.7-1c0.6-2.1,1.9-4.2,4.1-6.1c0.4-0.3,0.6-0.8,0.6-1.2
		c0-2.3,0.2-4.7,0.5-7.1C155.7,170.1,155.5,169.6,155.2,169.3z"/>
	<path class="st10" d="M153.7,195.9c-2.4-1.7-3.5-4.7-3.4-8.8c0-0.4-0.1-0.8-0.4-1.1c0,0,0-0.1-0.1-0.1c-0.3-0.3-0.7-0.5-1.2-0.5
		h-0.1c-1.3,0.1-2.7,0.1-4,0.1c-4.5,0-8.5-0.3-12.2-0.8c-12.6-1.7-19.9-5.8-22.3-7.3c-0.3-0.2-0.6-0.3-0.9-0.3c-0.1,0-0.2,0-0.3,0
		c-0.1,0-0.2,0-0.2,0.1l0,0c-0.5,0.2-0.9,0.6-1,1c-1.5,4.6-2.8,9.4-3.8,14.1c-0.8,3.7-1.5,7.3-2,10.9h0c-0.7,4.9-1.1,9.7-1.1,14.1
		v0.1c0,0.2,0,0.3,0,0.5c0,3.1,0.1,6,0.4,8.8c0.4,4.1,1.2,8,2.2,11.5c0.2,0.7,0.9,1.2,1.6,1.2c0.1,0,0.1,0,0.2,0
		c8.1-0.7,14.1-7.4,14.1-15.5c0-0.3,0-0.6,0-0.9c0.9,0.2,1.8,0.3,2.8,0.3c0.1,0,0.2,0,0.3,0c8.5-0.2,15.3-7.1,15.3-15.6
		c0-0.4,0-0.7,0-1c0.9,0.2,1.8,0.2,2.6,0.2c6.1,0,11.5-3.4,14.1-8.9C154.6,197.3,154.4,196.4,153.7,195.9z"/>
	<path class="st11" d="M198,257.4c-0.6,0.2-1.2,0.5-1.8,0.7c-0.6,0.2-1.2,0.5-1.8,0.7c-0.1,0-0.2,0.1-0.3,0.1
		c-19.6,6.8-37.4,7.1-48.1,6.3c0.8-2.7,0.6-5.5-0.5-8.1c-1.3-2.9-3.6-5.1-6.5-6.3c-6.1-2.4-13,0.6-15.4,6.7
		c-0.2,0.5-0.5,1.2-0.8,1.9c-8-3.6-13.7-9.9-17-19c8.1-1,14.3-7.9,14.3-16.2c0.6,0.1,1.3,0.1,1.9,0.1c0.1,0,0.3,0,0.4,0
		C125.5,246.8,151,263.5,198,257.4z"/>
	<path class="st12" d="M122.6,212.6c-0.5,3.1-0.7,6.1-0.5,9.1h-0.2c-1,0-2-0.1-3-0.3l-1.7-0.4l0.2,1.7c0.1,0.4,0.1,0.9,0.1,1.3
		c0,7.3-5.5,13.2-12.6,13.9c-1.7-5.7-2.6-12.4-2.6-19.9c0.1-12,2.6-26.2,6.9-39.2c2.5,1.6,9.9,5.7,22.5,7.5
		C127.5,195.8,123.9,204.8,122.6,212.6z"/>
	<path class="st13" d="M149.1,131c0.2,11-4.1,23.7-9.4,36.4c-13.8-1.6-21.8-6.1-24-7.5c0.5-1.6,0.9-3.2,1.3-4.7
		c3.3-13.2,2.9-21.7,2.7-23.7c1.4-0.3,3-0.7,4.6-1.2c9.7-3.1,15.1-7,16-11.6C142.7,119.1,149,121.3,149.1,131z"/>
	<path class="st14" d="M138.7,169.8c-2,4.7-4.1,9.4-6.1,14.1c-13.6-1.9-21.1-6.5-22.7-7.5c0.6-1.7,1.2-3.3,1.8-4.9
		c1.2-3,2.3-6.1,3.2-9.1C118,164.2,125.9,168.2,138.7,169.8z"/>
	<path class="st5" d="M171.6,101.3c-0.1,2.2-0.4,4.6-1,7.5c-0.5,2.6-1.1,4.9-1.9,7.2c-0.6,1.9-2.3,3.1-4.3,3.1
		c-0.5,0-0.9-0.1-1.4-0.2c-1.1-0.4-2.1-1.1-2.6-2.2c-0.6-1.1-0.7-2.3-0.3-3.4c0-0.1,0.1-0.3,0.1-0.4c0,0,0-0.1,0-0.1
		c1.9-4.5,3.2-8.6,3.7-12.3c0.3-2.2,0.3-4-0.1-5.2c-0.2-0.6-0.5-0.9-0.6-1c-0.2-0.1-0.6-0.3-1.3-0.3c-0.1,0-0.2,0-0.3,0
		c-1.4,0-2.9,0.8-4.1,2.1c-1.2,1.3-2.3,2.9-3.3,5.2c-1.6,3.7-2.8,8-3.6,12.9c-0.1,0.8-0.8,1.4-1.6,1.4c-0.1,0-0.1,0-0.2,0
		c-0.9-0.1-1.5-0.8-1.5-1.7c0.1-2.3,0.3-4.7,0.7-7.2c0.4-2.6,1-4.9,1.7-7.1c1-3,2.1-5.1,3.5-7c1-1.3,2-2.3,3.2-3
		c1.3-0.9,2.9-1.5,4.4-1.7c0.6-0.1,1.1-0.1,1.7-0.1c1.3,0,2.5,0.3,3.6,0.8c1.7,0.8,3.1,2.3,3.9,4.2c0.7,1.7,1,3.2,1.1,4.4
		C171.7,98.4,171.7,99.7,171.6,101.3z"/>
	<path class="st8" d="M139.8,167.4c-0.1,0.3-0.2,0.6-0.4,0.8c-0.1,0.3-0.2,0.5-0.3,0.8c-0.1,0.3-0.2,0.6-0.3,0.8"/>
	<path class="st8" d="M122.1,221.7c0,0.6,0.1,1.1,0.2,1.7c0,0.3,0.1,0.6,0.1,0.8"/>
	<path class="st8" d="M198,257.4L198,257.4c1.5-0.2,3-0.4,4.5-0.6"/>
	<path class="st8" d="M131.6,186.3c0.1-0.3,0.2-0.5,0.4-0.8c0.1-0.3,0.2-0.5,0.3-0.8c0.1-0.3,0.2-0.5,0.4-0.8"/>
	<path class="st8" d="M140.4,118.6c-0.5-0.1-0.8-0.1-0.8-0.1"/>
	<path class="st15" d="M115,154.1c-2.3-1-8.2-3.9-14.7-10.4c-0.3-0.3-0.7-0.5-1.2-0.5h0c-0.5,0-0.9,0.2-1.2,0.5
		c-1.4,1.4-3.5,4.5-2.2,8.8c0.9,3.3,3,6.3,4.6,8.2c0,0-0.1,0-0.1,0c-3.4,1.2-7.3,3.8-7.6,8.7c-0.1,2.6,0.6,4.7,2,6.2
		c0.8,0.9,1.8,1.5,2.7,1.9c-1.4,2-2.8,5.3-1.3,8.9c1.4,3.6,4.5,5.5,6.8,6c0.1,0,0.2,0,0.4,0c0.8,0,1.5-0.5,1.6-1.3
		c1.6-7,3.7-13.8,6.2-20c0.3-0.6,0.5-1.3,0.7-1.9c1.7-4.4,3.1-8.8,4.2-13.2C116.2,155.2,115.8,154.4,115,154.1z"/>
	<path class="st15" d="M102.4,204.8c-0.5,3.9-0.8,7.7-0.9,11.3c0,0.6-0.3,1.1-0.8,1.4c0,0,0,0-0.1,0s0,0-0.1,0
		c-0.2,0.1-0.5,0.2-0.8,0.2c-0.3,0-0.5-0.1-0.8-0.2c-0.5-0.3-1.1-0.6-1.8-1c-3.8-2.1-10-6.2-15.8-12.6c-0.1-0.1-0.2-0.2-0.2-0.3
		c-2.2-2.5-4.4-5.3-6.4-8.4c-3.1-4.9-5.6-10.7-7-17.5c0,0,0-0.1,0-0.1c0-0.2-0.1-0.3-0.1-0.5c-1.5-7.5-1.8-14.3-1.3-20.2
		c0.5-6.5,1.8-11.9,3.3-16.2c0-0.1,0.1-0.3,0.1-0.4c2.2-6.3,4.7-9.9,5-10.3h0c0-0.1,0.1-0.1,0.2-0.2c0.9-1.1,3.9-4.5,7.8-4.5H83
		c1.4,0.1,2.7,0.5,3.9,1.5c1.2,0.9,2.4,2.3,3.5,4c1.1,1.9,2.3,3.6,3.5,5.3c0.3,0.4,0.4,0.9,0.3,1.4c-0.1,0.5-0.4,0.9-0.9,1.1
		c-1.8,0.9-6,3.6-6,8.6c0,0.7,0.1,1.3,0.2,1.9c0.8,5.1,4.8,7.3,5,7.4c0.6,0.3,1,1,0.8,1.7c-0.1,0.7-0.6,1.2-1.3,1.4
		c-0.3,0.1-8.3,1.8-8.3,10c0,8,7.7,9.2,8,9.3c0.8,0.1,1.3,0.7,1.4,1.5c0.1,0.7-0.3,1.5-1,1.7c-0.6,0.2-5.5,2.5-3,9.1
		c1.7,4.4,8.4,11.1,11.8,11.6c0.3,0.1,0.5,0.2,0.8,0.3C102.2,203.6,102.5,204.2,102.4,204.8z"/>
	<path class="st4" d="M116,156c-1.1,4.4-2.5,8.8-4.2,13.2c-3.7-2.4-7.6-5.3-11.6-8.5c0,0,0.1,0,0.1,0c-1.6-1.9-3.7-4.9-4.6-8.2
		c-1.2-4.3,0.9-7.4,2.2-8.8c0.3-0.3,0.7-0.5,1.2-0.5h0c0.4,0,0.9,0.2,1.2,0.5c6.5,6.5,12.5,9.4,14.7,10.4
		C115.8,154.4,116.2,155.2,116,156z"/>
	<path class="st4" d="M94.2,137.6c-0.1,0.5-0.4,0.9-0.9,1.1c-1.8,0.9-6,3.6-6,8.6c0,0.7,0.1,1.3,0.2,1.9c-0.4-0.4-0.8-0.8-1.2-1.2
		c-4.4-4.6-8-10.5-11-17.2c0.1-0.1,0.1-0.1,0.1-0.2c0.1-0.2,3.3-4.4,7.3-4.4c0.1,0,0.2,0,0.2,0c0.8,0,1.6,0.2,2.4,0.7
		c0.2,0.1,0.5,0.2,0.8,0.2c0.3,0,0.6-0.1,0.8-0.2c1.2,0.9,2.4,2.3,3.5,4c1.1,1.9,2.3,3.6,3.5,5.3C94.2,136.6,94.3,137.1,94.2,137.6z
		"/>
	<path class="st8" d="M76.6,164.2c-3.4-1.6-6.5-3.8-9.5-6.5"/>
	<path class="st16" d="M144.2,265.9c12,1.1,39.5,1.3,67.4-13.8c13.3-7.2,23.6-16.6,31.2-27.3"/>
	<path class="st16" d="M118.7,131.5c0,0,1,8.8-2.6,23.6c-1.2,4.8-2.8,10.1-5.2,16.1c-4.9,12.3-9.5,30.1-9.5,46.8
		c0,7.4,0.8,14.7,2.9,21.1c3.2,9.7,9.2,17.6,19.3,21.7"/>
	<path class="st16" d="M254.8,202.5c-1.7,4.4-3.7,8.7-6,12.8"/>
	<path class="st5" d="M164.4,119.5c-0.5,0-0.9-0.1-1.3-0.2c-1.1-0.4-2.1-1.1-2.6-2.2c-0.6-1.1-0.7-2.3-0.3-3.4
		c0-0.1,0.1-0.3,0.1-0.4c0,0,0-0.1,0-0.1c1.9-4.5,3.1-8.6,3.7-12.2c0.3-2.2,0.3-4-0.1-5.2c-0.2-0.6-0.5-0.8-0.6-0.9
		c-0.2-0.1-0.6-0.3-1.3-0.3c-0.1,0-0.2,0-0.2,0c-1.4,0-2.9,0.8-4.1,2.1c-1.2,1.2-2.2,2.9-3.3,5.2c-1.6,3.7-2.8,8-3.5,12.8
		c-0.1,0.8-0.8,1.4-1.6,1.4c-0.1,0-0.1,0-0.2,0c-0.9-0.1-1.5-0.8-1.5-1.7c0.1-2.3,0.3-4.7,0.7-7.1c0.4-2.6,1-4.9,1.7-7.1
		c1-2.9,2.1-5.1,3.5-6.9c1-1.3,2-2.3,3.2-3c1.3-0.9,2.8-1.5,4.4-1.7c0.6-0.1,1.1-0.1,1.7-0.1c1.3,0,2.5,0.3,3.5,0.8
		c1.7,0.8,3.1,2.3,3.9,4.1c0.7,1.6,1,3.2,1.1,4.4c0.1,1.2,0.2,2.5,0.1,4c-0.1,2.2-0.4,4.6-1,7.5c-0.5,2.6-1.1,4.9-1.8,7.2
		C168.1,118.3,166.4,119.5,164.4,119.5z"/>
	<path class="st17" d="M114.6,160.7c0,0,13.2,9.8,40,8.6"/>
	<path class="st17" d="M109.2,177.3c0,0,13.2,9.8,40,8.6"/>
	<path class="st17" d="M104.2,239c8.2-0.2,14.7-6.9,14.7-15.1c0-0.5,0-1-0.1-1.4c1,0.2,2.1,0.4,3.2,0.4c8.3,0,15.1-6.8,15.1-15.1
		c0-0.5,0-1-0.1-1.5c1,0.2,2,0.3,3.1,0.3c6.4,0,11.9-4,14.1-9.6"/>
	<path class="st18" d="M252.5,176.7c1.3-4.1,2.1-8,2.5-11.6c1.2-10.9-1-18.5-1-18.5s-7.4,4.9-13.9,15v0c-1.5,2.4-3,5.1-4.3,8.1"/>
	<path class="st18" d="M255,165.1c3.5-3.5,6.4-5.1,6.4-5.1s3.7,10.4-0.1,23.1"/>
	<path class="st18" d="M240.2,161.6L240.2,161.6c-0.2-5.9-1.6-9.8-1.6-9.8s-8.6,4.9-14.1,15.7"/>
	<path class="st19" d="M117.7,119.6c0,0-3.3,4.6-3.1,6.2s1.8,1.8,16.9-4.4"/>
	<path class="st19" d="M126.3,110.8c-1.8-0.8-3.1-2.1-2.7-2.9c0.4-0.8,2.1-0.9,4-0.1"/>
	<g class="st20">
		<path class="st21" d="M136.1,279.4c8.1-11.1,6.7-9.7,8.2-13.5c0.1-0.3,0.2-0.5,0.3-0.6c2.1-5.4-0.6-11.6-6-13.7
			c-5.4-2.1-11.6,0.6-13.7,6c-0.3,0.8-0.7,1.9-1.3,3.1c-1.2,2.9-3,6.8-5,10.8"/>
	</g>
	<path class="st18" d="M133.8,120.9c0,0-27-4.2-33.6-7.2c-6.7-2.9-6.2-4.6-5.2-6c1.5-2.1,6.2-7.1,22.1-7.5
		c12.2-0.3,21.6,11.8,22.3,16.3c0.8,5.7-5.9,9.9-15.1,12.8c-9.3,2.9-14.8,2-16.4,0.8c-0.7-0.5-4.6-2.4,2.6-13.2"/>
</g>
<g id="z-index2_x2F_cirkel" class="st0">
	<path class="st22" d="M280.6,150c7.6-5.5,11.8-15,10.1-24.8c-1.2-6.6-4.8-12.4-10.4-16.3c-2.3-1.6-4.9-2.8-7.6-3.6
		c1.6-2.3,2.7-4.9,3.5-7.6c1.7-6.5,0.8-13.3-2.5-19.1c-3.4-5.8-8.8-10-15.3-11.7c-2.8-0.7-5.6-1-8.3-0.8c0.7-2.7,0.9-5.5,0.7-8.4
		c-0.6-6.7-3.7-12.8-8.9-17.1c-7.6-6.4-18-7.5-26.5-3.7c-1-9.3-7.1-17.7-16.4-21.1c-9.4-3.4-19.5-0.9-26.2,5.6
		C168.6,13,160,7.2,150,7.2c-10,0-18.6,5.8-22.7,14.2c-6.7-6.5-16.8-9-26.2-5.6c-6.3,2.3-11.4,6.9-14.2,13c-1.2,2.6-2,5.3-2.2,8.1
		c-8.5-3.8-18.9-2.7-26.5,3.7c-5.2,4.3-8.3,10.4-8.9,17.1c-0.2,2.8,0,5.7,0.7,8.4c-2.8-0.2-5.6,0.1-8.3,0.8
		c-6.5,1.7-11.9,5.9-15.3,11.7c-3.4,5.8-4.3,12.6-2.5,19.1c0.7,2.8,1.9,5.3,3.5,7.6c-2.7,0.8-5.2,2-7.6,3.6
		c-5.5,3.9-9.2,9.6-10.4,16.3c-1.7,9.8,2.5,19.3,10.1,24.8c-2.3,1.6-4.2,3.6-5.9,6c-3.9,5.5-5.3,12.2-4.2,18.8
		c1.7,9.8,8.9,17.3,17.9,19.8c-1.6,2.3-2.7,4.9-3.5,7.6c-1.7,6.5-0.8,13.3,2.5,19.1C31,229.5,39.5,234,48.2,234c0.6,0,1.2,0,1.8-0.1
		c-2.3,9.1,0.6,19.1,8.2,25.5c4.7,4,10.5,5.9,16.2,5.9c3.5,0,7.1-0.7,10.3-2.2c1,9.3,7.1,17.7,16.4,21.1c2.8,1,5.7,1.5,8.6,1.5
		c3.6,0,7.2-0.8,10.6-2.4c2.6-1.2,4.9-2.8,6.9-4.8c4.1,8.4,12.7,14.2,22.7,14.2c10,0,18.6-5.8,22.7-14.2c2,1.9,4.3,3.5,6.9,4.8
		c3.4,1.6,7,2.4,10.6,2.4c2.9,0,5.8-0.5,8.6-1.5c9.4-3.4,15.5-11.8,16.4-21.1c3.3,1.5,6.8,2.2,10.3,2.2c5.7,0,11.5-1.9,16.2-5.9
		c7.6-6.4,10.5-16.4,8.2-25.5c0.6,0,1.2,0.1,1.8,0.1c8.7,0,17.2-4.5,21.9-12.6c5-8.6,4.3-19-1-26.8c9-2.6,16.2-10,17.9-19.8
		C292.4,165,288.1,155.5,280.6,150z M150,254.2c-57.5,0-104.2-46.7-104.2-104.2S92.5,45.8,150,45.8S254.2,92.5,254.2,150
		S207.5,254.2,150,254.2z"/>
</g>
<g id="z-index3_x2F_banner">
	<rect x="119.8" class="st23" width="60.5" height="30.4"/>
	<rect y="119.6" class="st23" width="30.2" height="30.4"/>
	<rect x="273" y="119.6" class="st23" width="27" height="30.4"/>
	<path class="st24" d="M0,120.8V10h108.7l-30,18.5C59.3,40.4,42.9,57,31.2,76.6c-0.5,0.9-1.1,1.8-1.6,2.6c-0.5,0.8-1,1.7-1.4,2.5
		l-0.1,0.2c-0.3,0.5-0.6,1-0.8,1.5l0,0l-0.6,1.1c-0.4,0.8-0.9,1.7-1.3,2.5L24.9,88c-0.2,0.5-0.5,1-0.7,1.5c-0.4,0.7-0.7,1.5-1,2.3
		c-0.4,0.8-0.7,1.5-1,2.3c0,0-0.4,0.8-0.5,1.2l-0.3,0.8l0,0.1l-0.3,0.7c-0.1,0.4-0.3,0.7-0.4,1.1l-0.4,0.9c-0.5,1.3-1.1,2.8-1.7,4.5
		c-0.6,1.6-1.1,3.3-1.7,5.1l-0.6,2.2l-0.1,0.5c-0.2,0.7-0.4,1.5-0.6,2.2l-2,7.4H0z"/>
	<path class="st26" d="M126.3,0c-9.1,1.6-18,4-26.5,7.1c-9.3,3.4-18.1,7.8-26.4,12.9H0V0H126.3z"/>
	<polygon class="st26" points="22.5,130.8 0,130.8 0,110.8 5.9,110.8 8.5,113.9 	"/>
	<path class="st28" d="M126.3,0v21.1c-0.2,0-0.3,0.1-0.5,0.1C80.9,30.3,44.4,62.4,29,104.6c-1.1,3.1-2.1,6.2-3,9.4
		c-1.4,5-2.6,10.2-3.3,15.5c0,0,0,0,0,0c-0.1,0.3-0.1,0.5-0.2,0.8L8.5,113.9l-2.7-3.2c0.2-0.8,0.4-1.6,0.7-2.3c0-0.1,0-0.1,0-0.2
		l0.2-0.7c0.2-0.7,0.4-1.3,0.6-2c0.6-1.8,1.2-3.6,1.8-5.4c0.6-1.6,1.2-3.3,1.8-4.9c0.3-0.7,0.6-1.5,0.9-2.2c0,0,0-0.1,0-0.1l0.1-0.4
		c0.2-0.4,0.3-0.8,0.5-1.2c0.2-0.4,0.3-0.8,0.5-1.2c0.4-0.8,0.7-1.7,1.1-2.5c0.4-0.8,0.8-1.6,1.1-2.5c0.4-0.9,0.8-1.7,1.2-2.5
		c0.5-1,0.9-1.9,1.4-2.8c0,0,0-0.1,0.1-0.1c0.5-0.9,1-1.9,1.5-2.8c0.5-1,1-1.9,1.6-2.8c0.5-0.9,1.1-1.8,1.6-2.8
		c12.6-20.9,30-38.6,50.8-51.4c8.3-5.1,17.2-9.5,26.4-12.9C108.3,4,117.2,1.6,126.3,0z"/>
	<path class="st24" d="M286.4,120.8l-2-7.4c-0.2-0.7-0.4-1.5-0.6-2.2l-0.2-0.8l-0.6-1.9c-0.5-1.7-1.1-3.4-1.6-5
		c-0.6-1.7-1.1-3.2-1.7-4.5l-0.4-0.9c-0.1-0.4-0.3-0.7-0.4-1.1l-0.6-1.6c-0.2-0.4-0.5-1.2-0.5-1.2c-0.3-0.8-0.6-1.5-1-2.2
		c-0.4-0.8-0.7-1.6-1.1-2.3c-0.2-0.5-1.1-2.4-1.1-2.4c-0.4-0.9-0.9-1.7-1.3-2.5l-0.5-1l0,0c-0.3-0.6-0.6-1.1-0.9-1.6l-0.1-0.2
		c-0.5-0.9-0.9-1.7-1.4-2.5c-0.5-0.9-1-1.8-1.6-2.7c-11.7-19.5-28.1-36.2-47.5-48.1L191.3,10H300v110.8H286.4z"/>
	<path class="st28" d="M173.7,0c9.1,1.6,18,4,26.5,7.1c9.3,3.4,18.1,7.8,26.4,12.9H300V0L173.7,0z"/>
	<polygon class="st27" points="277.5,130.8 300,130.8 300,110.8 294.1,110.8 291.5,113.9 	"/>
	<path class="st26" d="M173.7,0v21.1c0.2,0,0.3,0.1,0.5,0.1c44.9,9.1,81.4,41.1,96.7,83.4c1.1,3.1,2.1,6.2,3,9.4
		c1.4,5,2.6,10.2,3.3,15.5c0,0,0,0,0,0c0.1,0.3,0.1,0.5,0.2,0.8l13.9-16.4l2.7-3.2c-0.2-0.8-0.4-1.6-0.7-2.3c0-0.1,0-0.1,0-0.2
		l-0.2-0.7c-0.2-0.7-0.4-1.3-0.6-2c-0.6-1.8-1.2-3.6-1.8-5.4c-0.6-1.6-1.2-3.3-1.8-4.9c-0.3-0.7-0.6-1.5-0.9-2.2c0,0,0-0.1,0-0.1
		l-0.1-0.4c-0.2-0.4-0.3-0.8-0.5-1.2c-0.2-0.4-0.3-0.8-0.5-1.2c-0.4-0.8-0.7-1.7-1.1-2.5c-0.4-0.8-0.8-1.6-1.1-2.5
		c-0.4-0.9-0.8-1.7-1.2-2.5c-0.5-1-0.9-1.9-1.4-2.8c0,0,0-0.1-0.1-0.1c-0.5-0.9-1-1.9-1.5-2.8c-0.5-1-1-1.9-1.6-2.8
		c-0.5-0.9-1.1-1.8-1.6-2.8c-12.6-20.9-30-38.6-50.8-51.4c-8.3-5.1-17.2-9.5-26.4-12.9C191.7,4,182.8,1.6,173.7,0z"/>
	<g>
		<rect x="300" y="5.9" transform="matrix(-1 -4.489266e-11 4.489266e-11 -1 900 130.78)" class="st24" width="300" height="119"/>
		<rect x="300" y="110.8" class="st27" width="300" height="20"/>
	</g>
</g>
<g id="z-index4_x2F_wings_x2B_crown" class="st0">
	<g class="st20">
		<path class="st29" d="M70,142.4c0.1-0.5,0.1-0.9-0.2-1.4c-0.3-0.5-0.9-1.6-1.8-3.2c-0.1-0.1-0.2-0.2-0.2-0.3
			c0-0.1-0.1-0.2-0.1-0.2c-1.2-1.6-2.3-3.4-3.7-5.4c-4.1-6.3-8.7-13.4-13.7-13.4c-2.6,0-4.7,1-6.2,2.7c-2.5,2.5-3.7,6.5-4.1,10
			c-0.3,2.7-0.5,12.7,7.2,26.8c5.2,9.6,13,15.8,18.6,19.4c0.3,0.2,0.6,0.3,0.9,0.3c0.3,0,0.7-0.1,0.9-0.3c0.6-0.4,0.8-1,0.7-1.7
			c-1.2-6.7-1.5-12.7-1.1-18C67.6,151.4,68.8,146.3,70,142.4z"/>
		<path class="st29" d="M101.5,218.8c0-0.6-0.3-1.1-0.7-1.4c0,0-0.1,0-0.1-0.1c0,0-0.1-0.1-0.1-0.1c-0.5-0.3-1.4-0.7-2.5-1.3
			c-3.5-2-9.5-5.8-15.2-11.8c-0.3-0.3-0.8-0.5-1.2-0.5c0,0-0.1,0-0.1,0c-0.1,0-0.2,0-0.3,0c-0.2,0-0.3,0.1-0.4,0.2
			c0,0-0.1,0.1-0.2,0.1c-0.1,0.1-0.2,0.2-0.4,0.3c-0.1,0.1-0.3,0.1-0.6,0.2c-0.1,0-0.2,0.1-0.2,0.1c-1,0.5-2,1-2.8,1.5h0
			c-2.5,1.3-4.3,2.2-5.1,2.5c0,0-2.1,0.8-4.4,2.3c-0.4,0.3-0.9,0.6-1.3,0.9c-2.2,1.7-4.3,4-4.3,6.9c0,2.3,2.7,6.3,7.6,9.2
			c2.9,1.7,7.6,3.8,14.1,3.8c5.6,0,11.6-1.6,17.6-4.7c0.1,0,0.1-0.1,0.2-0.1c0.5-0.3,0.8-0.9,0.7-1.5
			C101.6,223.2,101.5,221,101.5,218.8z"/>
		<path class="st29" d="M81.5,203.7C81.5,203.7,81.5,203.7,81.5,203.7c0,0.1,0,0.2-0.1,0.3c-0.1,0.4-0.4,0.7-0.8,0.9l-0.6,0.4
			c-0.1,0.1-0.2,0.1-0.3,0.1c-0.7,0.3-1.8,0.5-3.1,0.7h0c-1.2,0.2-2.7,0.3-4.6,0.3c-2.8,0-5.8-0.3-9-0.9
			c-13-2.4-18.2-11.5-18.7-18.5c-0.1-1.5,0-2.9,0.3-4.1c0.3-1.2,0.9-2.3,1.7-3.1c2.8-3,7.4-3,8.9-3c1.7,0,6.7,0.4,10.6,0.7h0
			c0,0,0,0,0.1,0l1,0.1c0.1,0,0.1,0,0.2,0h0c0.2,0,0.4,0.1,0.6,0.2c0.1,0,0.2,0.1,0.3,0.2l0.1,0.1c0.4,0.2,0.6,0.6,0.7,1
			c1.4,5.8,3.6,11.2,6.8,16.2c1.6,2.5,3.3,4.9,5.3,7.2C81.4,202.7,81.6,203.2,81.5,203.7z"/>
		<path class="st29" d="M87.7,124.8c-3.5-8.5-8.1-21.3-9.9-33.9c-0.8-5.9-3-9.8-6.3-11.8c-1.5-0.9-3.3-1.3-5.3-1.3
			c-1.2,0-2.3,0.2-3.1,0.4c-0.6,0.2-1.1,0.3-1.2,0.4c0,0-0.1,0-0.1,0c-1,0.4-10,4.7-7.3,23.7c1.5,11,6,22.1,9.8,29.9c0,0,0,0,0,0
			c1,2.2,2,4.1,2.9,5.7c0,0.1,0.1,0.2,0.2,0.2c0,0.1,0.1,0.2,0.1,0.2l0.3,0.6c0.1,0.3,0.3,0.5,0.4,0.7c0.3,0.5,0.8,0.8,1.4,0.9
			c0,0,0,0,0,0c0,0,0.1,0,0.1,0c0.1,0,0.1,0,0.2,0c0.6-0.1,1-0.5,1.2-1c1.9-4.9,3.8-7.8,4.3-8.6c0.1-0.1,0.1-0.1,0.1-0.2
			c0.1-0.2,3.3-4.4,7.3-4.4c0.1,0,0.2,0,0.2,0c0.8,0,1.6,0.2,2.4,0.7c0.2,0.1,0.5,0.2,0.8,0.2c0.3,0,0.6-0.1,0.8-0.2
			c0.1-0.1,0.2-0.1,0.3-0.2C87.8,126.2,87.9,125.4,87.7,124.8z"/>
		<path class="st30" d="M75.8,128.5c-3-2.8-3.7-6.7-4.9-10.3c-3.6-11.1-4.7-22.6-5.9-34.1c-0.2-1.5-0.4-3-0.6-4.5
			c6.7-0.4,9.4,1.5,11.4,8.6c1.8,6.4,3.3,12.8,4.8,19.2c1.2,5.1,3.1,10,5,14.9c0.3,0.9,1.5,1.9,0.2,2.9
			C81.6,123.7,78.6,125.8,75.8,128.5z"/>
		<path class="st30" d="M47.6,124.8c3.7-3.5,6.6-3.5,10-0.1c3,3,5.1,6.6,7.3,10.1c1.4,2.2,2.7,4.5,5,6c-0.4,5.8-3.3,11.3-2.5,17.3
			c-0.9,1,0.6,3-1.3,3.5c-1.1,0.3-2-0.8-2.7-1.7c-6.6-7.5-12.6-15.5-15.3-25.4C47.3,131.3,45.9,128.1,47.6,124.8z"/>
		<path class="st30" d="M47.9,182.2c1-3.8,4.1-4.6,7.3-4.9c4.3-0.4,8.4,1.2,12.7,1.7c2.3,4.9,4.5,9.9,6.8,14.8
			c0.1,1.8-1.3,1.5-2.3,1.5c-8.3-0.2-15.5-3.3-22-8.2C48.8,186,47.7,184.4,47.9,182.2z"/>
		<path class="st30" d="M92.2,214c-4.3,4.3-10,5.1-15.6,5.5c-3.2,0.2-6.6-0.3-9.8-0.7c-2-0.3-4.2-0.5-4.5-3.3
			c1.4-2.4,3.8-3.6,6.2-4.7c4.4-2.1,8.7-4.1,13.1-6.2C85.1,207.7,88.2,211.4,92.2,214z"/>
	</g>
	<g class="st20">
		<path class="st21" d="M116.2,155.1c0,0-14.4-4.6-25.8-23.6c-7.1-11.5-14.9-0.7-14.9-0.7s-12.9,17.8-6.8,47.1
			c6.1,29.3,32.9,40.2,32.9,40.2"/>
		<path class="st21" d="M90.1,131.1C90.1,131.1,90.1,131.1,90.1,131.1c-2.7-5.9-10.1-23-12.4-39.6c-2.4-17.1-15.4-11.9-15.4-11.9
			s-9.8,3.7-7.1,23.2c1.9,14.1,8.9,28.5,12.7,35.5c0,0,0,0,0,0c0,0,0,0,0,0c1.1,2,1.8,3.3,2.2,3.9"/>
		<path class="st21" d="M68,138.2C68,138.2,68,138.2,68,138.2C68,138.2,68,138.2,68,138.2c-5-6.6-10.9-18.9-17.2-18.9
			c-7.8,0-9.6,9.7-9.9,12.3c-0.3,2.6-0.5,12.4,7.1,26.4c6,11,15.4,17.6,20.8,20.6"/>
		<path class="st32" d="M80.9,204.6c0,0-5.1,2.7-17.3,0.5c-11.9-2.2-17.7-10.5-18.3-18c-0.7-9.5,7.8-9.8,10.5-9.8
			c1.8,0,7.2,0.4,10.6,0.7c0.4,0,0.8,0.1,1.1,0.1"/>
		<path class="st21" d="M82,203.9c0,0-7.7,4.2-9.9,5c-2.2,0.8-9.6,4.4-9.6,9.7c0,5.2,15.4,20.1,38.9,7.7l0-8.3"/>
		<path class="st33" d="M104.5,191c-2,0-5.3-1.4-6.7-5c-2-5,2.8-9.3,2.8-9.3s-6.3-0.2-6-7c0.3-6.8,9.1-7.8,9.1-7.8s-4.7-4.4-6.2-9.6
			c-1.5-5.2,2.9-8.1,2.9-8.1l-6.8-7c0,0-7.6,2.9-7.6,10.4c0,7.5,6,10.7,6,10.7s-9.6,2-9.6,11.5s9.4,10.9,9.4,10.9s-7,2.8-3.9,11.2
			c2,5.2,9.8,12.7,13.7,12.7L104.5,191z"/>
	</g>
	<g class="st20">
		<g>
			<g>
				<path class="st29" d="M258.4,203.2c-2.3,0-5-0.4-7.9-1.3c-6.5-1.9-12.7-4.2-15.8-5.4c-0.5-0.2-0.8-0.6-1-1
					c-0.2-0.5-0.1-1,0.2-1.4c1.6-2.6,2.7-5,3.3-7.1c1.3-4.5,0.7-8-1.7-10.8c-1.7-2-3.9-3.8-6.5-5.4c-0.7-0.4-1-1.3-0.7-2
					c0.2-0.7,0.9-1.1,1.6-1.1c0.1,0,0.2,0,0.3,0c5.6,1,13.9,3.2,21.1,7.3c13.1,7.5,19.6,15.3,18,21.2c-0.6,2.4-2.1,4.2-4.2,5.4
					C263.2,202.7,261,203.2,258.4,203.2z"/>
				<path class="st29" d="M169.7,252.6c-3.8,0-6.9-1.4-9-4c-5.2-6.5-3.9-18.8-3-23.8c0.1-0.5,0.4-1,0.9-1.2c0.2-0.1,0.5-0.2,0.8-0.2
					c0.2,0,0.5,0.1,0.7,0.2c4.3,2,9.5,3,15.6,3c2.3,0,4.8-0.2,7.3-0.4c0.1,0,0.1,0,0.2,0c0.4,0,0.8,0.1,1.1,0.4
					c0.4,0.3,0.6,0.7,0.6,1.2c0.3,4.2,0.3,14.7-5,20.7C177.4,251.2,174,252.6,169.7,252.6z"/>
				<path class="st29" d="M208.7,246.3c-5.9,0-14.9-2.6-24.3-14.9c-0.2-0.3-0.3-0.6-0.3-1c0-1.5-0.1-2.4-0.1-2.8
					c-0.1-0.9,0.5-1.7,1.4-1.8c6.5-1,12.4-2.7,16.2-3.9c1.8-0.6,3.9-1.6,6.3-3c0.3-0.2,0.5-0.2,0.8-0.2c0.2,0,0.4,0,0.6,0.1
					c2.1,0.8,4.1,1.7,5.7,2.7l0.3,0.2c3.7,2.3,6.1,4.9,7.2,7.8c3.3,9.5-3.1,13.8-6.1,15.2C215.5,245.2,212.7,246.3,208.7,246.3z"/>
				<path class="st29" d="M237.7,226.4c-3.7,0-8.1-1-13-2.1c-3.4-0.8-6.4-1.5-9.5-2c-0.2,0-0.4-0.1-0.6-0.2l-0.1-0.1
					c-1-0.6-2.3-1.2-3.7-1.8c-0.6-0.2-1-0.8-1-1.4c-0.1-0.6,0.2-1.2,0.8-1.5c8.3-5.4,16.6-13.3,21.7-20.6c0.3-0.5,0.8-0.7,1.4-0.7
					c0.2,0,0.5,0.1,0.7,0.2c9.6,4.7,18.4,13.3,14.4,23.2C246.7,224.2,243.2,226.4,237.7,226.4z"/>
				<path class="st30" d="M235,185c-0.4-5.4,1.1-11.3-5.1-15c7.9-1.7,26.2,9.2,31.6,18.4c1,3.2-0.6,4.6-3.5,5.1
					c-2.2,0.4-4.4-0.2-6.5-0.9c-4.6-1.5-9.1-3.2-13.5-5.1C236.7,187.1,235.3,186.6,235,185z"/>
				<path class="st30" d="M215.6,214.5c5.7-4.6,11.3-9.4,15.9-15.2c0.9-1.1,1.8-1.4,3.2-1.1c7,1.4,13.5,10.4,12.6,17.5
					c-0.3,1.9-1.3,3.3-2.7,4.5c-2.7,1.8-5.5,1.5-8.3,0.6c-6-1.9-12-4-18.4-4.5C216.8,216.2,215.5,216.1,215.6,214.5z"/>
				<path class="st30" d="M192.1,226c4.9-1.4,9.8-2.9,14.4-5.3c1.5-0.8,2.9-0.8,4.4-0.4c3.4,0.8,6,2.8,8.3,5.2
					c5.9,6.2,4.7,12.4-3,16.4c-3.3,1.4-6,0-8.3-2c-4.9-4.2-9.4-9-15.1-12.1C192.1,227.5,191.8,226.8,192.1,226z"/>
				<path class="st30" d="M158.5,229.9c0.4-6.5,0.5-6.6,6.8-4.7c4.1,1.2,8.3,1.7,12.6,2c5.6,0.4,6.9-2.1,5.8,6.1
					c-3.9,6.3-11.7,9.2-18.7,7C159.5,238.5,157.8,235.7,158.5,229.9z"/>
			</g>
			<path class="st34" d="M157.3,197.8c0,0-7.8-0.3-7.5-10.7c0.4-12,23.6-18.3,34.8-20.5c13.7-2.6,39.3-3.9,50.7,9.4
				c11.4,13.3-19.8,41.6-33.8,46.2c-10.5,3.4-30.6,8.1-43.6,0.7"/>
			<path class="st35" d="M238.3,185.7c-0.1,0.5-0.2,1-0.4,1.6c-3.1,11.1-16.9,24.6-28.3,31.6c-0.3,0.2-0.6,0.3-0.9,0.3
				c-0.3,0-0.6-0.1-0.8-0.2c-0.5-0.3-0.9-0.9-0.8-1.5c0.1-4.1-2.5-8.2-5-9.5c-0.7-0.4-1-1.1-0.8-1.9c0.2-0.7,0.9-1.3,1.6-1.3
				c1.3,0,8.3-2.9,8.8-7.9c0.3-3.6-0.6-6.8-2.5-8.9c-1.5-1.6-3.4-2.5-5.6-2.5c-0.6,0-1.1-0.3-1.4-0.7
				C216,181.9,228.9,182.4,238.3,185.7z"/>
			<path class="st35" d="M191.9,205.9c1.4,1.7,2.9,4.2,2.9,7.7c0,4.8-5.3,9.2-9.8,12.2c-0.2,0.1-0.5,0.2-0.7,0.3
				c-3,0.4-6,0.6-8.7,0.6c-6.7,0-12.4-1.2-16.9-3.6c0,0.1,0,0.1,0,0.2c-0.1,0.3-0.1,0.7-0.2,1.3c-0.7-1.1-1.1-2.3-1.4-3.6
				c-3.2-13.2,14.3-28.8,39.3-35.5h0c3.4,1.6,5.3,5.2,5.3,10.5C201.6,202.2,195.8,204.9,191.9,205.9z"/>
		</g>
		<g>
			<path class="st32" d="M157.3,197.8c0,0-7.8-0.3-7.5-10.7c0.4-12,23.6-18.3,34.8-20.5c13.7-2.6,39.3-3.9,50.7,9.4
				c11.4,13.3-19.8,41.6-33.8,46.2c-10.5,3.4-30.6,8.1-43.6,0.7"/>
			<path class="st21" d="M219.9,167.1c0,0,17.1,0.7,30.6,8.5c13.5,7.8,19.2,15.3,17.7,20.6c-1.5,5.4-7.3,8.5-18,5.4
				c-9.2-2.6-17.4-6-17.4-6"/>
			<path class="st21" d="M232.9,196.2c0,0,20.7,8.9,15,22.9c-5,12.1-18.9,4.8-33.2,2.7"/>
			<path class="st21" d="M158.3,223.3c0,0-6.1,28.6,11.4,28.6s14.5-25.5,14.5-25.5"/>
			<path class="st21" d="M208.4,218.9c1.8,0.7,4,1.6,6.2,2.9c0,0,0,0,0,0c3.1,1.8,6.1,4.4,7.2,7.7c2.9,8.3-1.8,12.7-5.9,14.6
				c-2.6,1.2-16.7,6.5-31.7-13.5"/>
			<path class="st33" d="M208.4,218.9c0.9-5.1-2.3-10.7-5.7-12.5c2,0,9.9-3.3,10.4-9.4c0.7-7.8-3.8-13.2-9.8-13.2
				c11.7-7.6,8-18.7,8-18.7l-18.3,0.4c0,0,6,2.9,5.5,8.8c-0.5,5.9-5.6,10.7-8.9,12.8c5.8-0.8,10.1,1.6,10.1,9.5c0,7.9-11.7,9-11.7,9
				s4.9,2.8,4.9,8.7s-11,11.9-11,11.9l15.1-2.4L208.4,218.9z"/>
		</g>
	</g>
	<path class="st36" d="M195.4,83.7C195.4,83.7,195.4,83.7,195.4,83.7C195.4,83.7,195.4,83.7,195.4,83.7c-0.4-0.8-0.9-1.5-1.4-2.3
		c-0.1-0.1-0.1-0.1-0.1-0.2c-0.2-0.3-0.4-0.6-0.6-0.9c-0.2-0.3-0.4-0.5-0.6-0.8c-0.1-0.1-0.1-0.2-0.2-0.2c-0.1-0.1-0.1-0.2-0.2-0.3
		c-0.3-0.4-0.6-0.8-1-1.3c-0.2-0.3-0.5-0.6-0.7-0.9c-0.1-0.2-0.3-0.3-0.4-0.5c-0.2-0.3-0.4-0.5-0.6-0.8c-0.2-0.3-0.5-0.5-0.7-0.8
		c0,0-0.1-0.1-0.1-0.1c0,0-0.1-0.1-0.1-0.1c0,0,0,0-0.1-0.1c0,0,0,0-0.1,0c0,0-0.1-0.1-0.1-0.1c-0.3-0.3-0.6-0.6-0.9-1
		c-0.3-0.3-0.6-0.6-0.9-1c-0.5-0.5-1-1-1.5-1.5c-0.3-0.2-0.5-0.5-0.8-0.7c-0.2-0.2-0.5-0.4-0.7-0.7c-0.7-0.7-1.5-1.3-2.2-1.8
		c-0.5-0.4-1-0.8-1.6-1.2c-0.1,0-0.1-0.1-0.2-0.1c-0.3-0.2-0.6-0.4-0.9-0.6c-0.4-0.3-0.9-0.6-1.3-0.9c-0.5-0.3-1-0.6-1.6-1
		c-0.3-0.2-0.5-0.3-0.8-0.4c-0.5-0.3-1-0.6-1.6-0.8c-0.3-0.1-0.5-0.3-0.8-0.4c-0.3-0.1-0.5-0.2-0.8-0.4c-0.3-0.1-0.5-0.2-0.8-0.3
		c-0.3-0.1-0.5-0.2-0.8-0.3c-0.5-0.2-1-0.4-1.4-0.5c-0.1,0-0.2-0.1-0.2-0.1c-0.1,0-0.2-0.1-0.2-0.1c-0.4-0.1-0.8-0.2-1.1-0.3
		c-0.2-0.1-0.5-0.1-0.7-0.2c-0.2-0.1-0.5-0.1-0.7-0.2c-0.2-0.1-0.5-0.1-0.7-0.1c-0.2,0-0.5-0.1-0.7-0.1c0,0,0,0,0,0
		c-0.2,0-0.4,0-0.6-0.1c-0.2,0-0.4,0-0.6,0c-0.2,0-0.5,0-0.7,0c-0.2,0-0.4,0-0.7,0c-0.2,0-0.3,0-0.5,0c-0.1,0-0.1,0-0.2,0h0
		c0,0-0.1,0-0.1,0c-0.1,0-0.2,0-0.3,0c-0.2,0-0.4,0-0.5,0.1c-0.4,0.1-0.7,0.1-1,0.2c-0.5,0.1-1.1,0.3-1.5,0.5l-0.3,0.2
		c-0.3,0.1-0.6,0.3-0.8,0.4c0,0,0,0,0,0c-0.5,0.3-1,0.7-1.5,1.2c-0.9,0.9-1.6,2-2,3.2c-0.1,0.2-0.1,0.3-0.2,0.5
		c-0.1,0.3-0.2,0.6-0.3,1c-0.1,0.5-0.2,1-0.2,1.6c0,0.4,0,0.8,0,1.2v0.1c0,0.2,0,0.4,0,0.6c0,0.3,0,0.5,0.1,0.8
		c0,0.2,0.1,0.3,0.1,0.4c0.1,0.3,0.3,0.5,0.5,0.7c0.2,0.2,0.5,0.3,0.8,0.4c6.2,1.1,11.2,4,14.9,8.5c0.1,0.2,0.3,0.3,0.5,0.4
		c0.1,0.1,0.3,0.1,0.4,0.2c0.2,0.1,0.4,0.1,0.7,0.1c0.4,0.1,0.8,0.1,1.2,0.2c0.9,0.1,1.9,0.2,2.9,0.2c3,0,7.2-0.7,11.2-3.6
		c-0.5,2.6-1.8,5.7-5.2,7c-0.5,0.2-0.9,0.7-1,1.2c-0.1,0.6,0.1,1.1,0.5,1.5c1.8,1.8,4.1,2.3,5.7,2.4c-1.1,2-3.5,5.3-8.4,5.8
		c0,0-0.1,0-0.1,0c-0.3,0-0.6,0.2-0.8,0.4c-0.1,0.1-0.2,0.2-0.3,0.3c-0.2,0.3-0.3,0.5-0.3,0.8c0,0.1,0,0.3,0,0.4
		c0.2,1.1,0.3,2.2,0.4,3c0,0.3,0.2,0.7,0.4,0.9c0.1,0.2,0.3,0.3,0.5,0.4c0,0,0,0,0.1,0c0.5,0.3,1.1,0.5,1.6,0.8c0,0,0,0,0.1,0
		c0.5,0.2,1,0.5,1.5,0.7c0.5,0.2,1,0.4,1.5,0.6c0.1,0,0.1,0,0.2,0.1c0.2,0.1,0.4,0.1,0.6,0.2c0.1,0.1,0.3,0.1,0.4,0.1
		c0,0,0.1,0,0.1,0c0.1,0.1,0.3,0.1,0.4,0.1c0.2,0,0.3,0.1,0.4,0.1c0.1,0,0.2,0.1,0.3,0.1c0.1,0,0.3,0.1,0.4,0.1
		c0.2,0.1,0.5,0.1,0.7,0.2c1.4,0.3,2.7,0.5,3.9,0.5c1.3,0,2.6-0.2,3.7-0.5c0,0,0,0,0,0c0.3-0.1,0.6-0.2,0.8-0.3
		c0.2-0.1,0.3-0.1,0.5-0.2c0.2-0.1,0.3-0.1,0.5-0.2c0.1-0.1,0.2-0.1,0.4-0.2c0.2-0.1,0.3-0.2,0.5-0.3c0.3-0.2,0.5-0.4,0.7-0.6
		c0.1-0.1,0.2-0.2,0.3-0.3c0.2-0.2,0.4-0.5,0.7-0.7c0.2-0.2,0.3-0.4,0.5-0.7c0,0,0.1-0.1,0.1-0.1h0c0,0,0,0,0,0
		c0.2-0.3,0.3-0.6,0.5-0.9c0-0.1,0.1-0.2,0.1-0.2c0.1-0.1,0.1-0.2,0.1-0.3c0.1-0.2,0.1-0.4,0.2-0.5c0-0.1,0.1-0.3,0.1-0.4
		c0-0.1,0-0.2,0.1-0.2c0,0,0,0,0,0C200.2,95.5,198.9,89.8,195.4,83.7z"/>
	<path class="st37" d="M177.1,98.9c-0.4,0-0.7-0.3-0.8-0.7c0-0.2-0.1-0.4-0.1-0.6l0-0.2c-0.1-0.3-0.1-0.7-0.2-1.1
		c-0.1-0.3-0.1-0.5-0.2-0.8l0-0.2c-0.1-0.3-0.1-0.6-0.2-0.9c-0.1-0.3-0.2-0.7-0.3-1c0-0.2-0.1-0.4-0.1-0.5l-0.1-0.3
		c-0.4-1.3-0.9-2.7-1.4-3.9c-0.1-0.3-0.2-0.5-0.3-0.7l-0.4-0.9l0-0.1c0-0.1-0.1-0.2-0.1-0.3c-0.1-0.2-0.2-0.4-0.3-0.6
		c-0.1-0.3-0.3-0.5-0.4-0.8l-0.1-0.2c-0.1-0.2-0.2-0.4-0.4-0.6l-0.1-0.1c-0.2-0.3-0.3-0.5-0.5-0.8c-0.2-0.3-0.4-0.6-0.6-0.9
		c-0.2-0.3-0.2-0.6,0-0.9c0.1-0.2,0.4-0.4,0.7-0.4c0,0,0.1,0,0.1,0c1.1,0.2,2.2,0.3,3.3,0.3c0.8,0,1.6-0.1,2.4-0.2
		c0.2,0,0.4-0.1,0.6-0.1c0.2,0,0.4-0.1,0.6-0.1l0.1,0c0.2,0,0.3-0.1,0.5-0.1l0.3,0.7l-0.2-0.8l0.5-0.1c0,0,0,0,0,0c0,0,0,0,0.1,0
		c0,0,0.1,0,0.1,0c0.2-0.1,0.4-0.1,0.6-0.2c0.2-0.1,0.5-0.2,0.7-0.3c0.3-0.1,0.6-0.3,0.9-0.4l0.2-0.1c0.1,0,0.2-0.1,0.3-0.1
		c1-0.5,1.9-1.1,2.7-1.7l0.1-0.1c0.1-0.1,0.1-0.1,0.2-0.2c0.2-0.1,0.3-0.3,0.5-0.4c0.1-0.1,0.3-0.2,0.5-0.2c0.1,0,0.2,0,0.3,0.1
		c0.3,0.1,0.5,0.4,0.5,0.7c0,0,0,0.3,0,0.4c0,0.1,0,0.3,0,0.4c0,0.1,0,0.3,0,0.4c0,0.2,0,0.3-0.1,0.5l0,0.3c0,0.3-0.1,0.7-0.2,1.1
		c0,0.1-0.1,0.3-0.1,0.5c-0.1,0.2-0.1,0.4-0.2,0.6c-0.1,0.1-0.1,0.3-0.2,0.4c0,0.1-0.1,0.1-0.1,0.2c-0.4,0.9-0.9,1.8-1.5,2.5
		c-0.1,0.1-0.2,0.2-0.3,0.3c-0.3,0.3-0.6,0.6-0.9,0.8c-0.2,0.2-0.4,0.3-0.6,0.5c-0.1,0.1-0.2,0.1-0.3,0.2l-0.1,0.1
		c-0.1,0.1-0.2,0.2-0.4,0.2c-0.1,0.1-0.3,0.1-0.4,0.2c-0.2,0.1-0.5,0.2-0.7,0.3c1.6,1.5,3.5,1.9,5,1.9c0,0,0,0,0,0
		c0.2,0,0.4,0,0.6,0c0,0,0,0,0.1,0c0.3,0,0.5,0.1,0.6,0.3c0.2,0.2,0.2,0.5,0.1,0.8C186.4,92.8,183.9,98.1,177.1,98.9
		C177.1,98.9,177.1,98.9,177.1,98.9z"/>
	<path class="st1" d="M224.8,84.8c-0.3-0.6-0.9-1-1.5-1h-18.9V56.1c0-0.9-0.8-1.7-1.7-1.7h-27.6V36.1c0-0.7-0.4-1.3-1-1.5
		c-0.2-0.1-0.4-0.1-0.6-0.1c-0.4,0-0.9,0.2-1.2,0.5L152,55.2c-0.2,0.2-0.4,0.4-0.6,0.7c0,0,0,0,0,0c-0.2,0.2-0.4,0.5-0.6,0.7
		c-0.1,0.2-0.3,0.4-0.4,0.5c0,0,0,0,0,0c-0.1,0.1-0.2,0.2-0.3,0.4c-0.2,0.2-0.3,0.4-0.5,0.7c-0.2,0.2-0.3,0.5-0.4,0.8
		c-0.2,0.3-0.3,0.6-0.5,0.8c-0.1,0.3-0.3,0.6-0.4,0.9c-0.1,0.2-0.2,0.4-0.3,0.6c-0.2,0.4-0.3,0.8-0.4,1.2c-0.1,0.3-0.2,0.6-0.3,1
		c-0.1,0.3-0.2,0.6-0.2,1c-0.1,0.3-0.1,0.7-0.2,1c-0.3,1.7-0.4,3.5-0.3,5.4v0.1c0,0.3,0.1,0.5,0.2,0.7c0.3,0.5,0.8,0.8,1.4,0.8
		c1.6,0,3,0.1,4.3,0.3c0.1,0,0.1,0,0.2,0c0.2,0,0.4,0,0.6-0.1c0.2-0.1,0.4-0.2,0.5-0.3c0.1-0.1,0.1-0.1,0.2-0.2
		c0.3-0.3,0.4-0.7,0.4-1.2c-0.2-3.1,0.5-5.5,2.2-7.1h0c0.1-0.1,0.2-0.2,0.3-0.3c0.1-0.1,0.3-0.3,0.5-0.4c0.1-0.1,0.2-0.1,0.3-0.2
		c0.1-0.1,0.1-0.1,0.2-0.2c0.2-0.1,0.3-0.2,0.5-0.3c0.1,0,0.1-0.1,0.2-0.1c0,0,0.1,0,0.1-0.1c0.1-0.1,0.3-0.1,0.4-0.2
		c0.2-0.1,0.5-0.2,0.8-0.3c0.1,0,0.3-0.1,0.4-0.1c0.1,0,0.3-0.1,0.4-0.1c0.1,0,0.1,0,0.2,0c0.1,0,0.1,0,0.2,0c0,0,0,0,0,0
		c0,0,0,0,0,0c0.1,0,0.3,0,0.4-0.1c0.1,0,0.2,0,0.3,0c0.1,0,0.1,0,0.2,0c0.2,0,0.3,0,0.5,0c0.1,0,0.2,0,0.4,0h0.1c0.3,0,0.7,0,1,0
		c0.1,0,0.1,0,0.2,0c0.6,0.1,1.3,0.1,1.9,0.3c3.6,0.7,7.6,2.4,11.6,5.1c0.1,0,0.1,0.1,0.1,0.1c0.3,0.2,0.7,0.5,1,0.7
		c0.1,0.1,0.2,0.1,0.3,0.2c0.1,0.1,0.1,0.1,0.2,0.1c0.2,0.2,0.5,0.4,0.7,0.5c0.2,0.2,0.4,0.3,0.6,0.5c0.3,0.2,0.5,0.4,0.8,0.6
		c0,0,0.1,0.1,0.1,0.1c0.5,0.4,1,0.8,1.5,1.2c0.5,0.4,1,0.9,1.4,1.3c0.2,0.2,0.5,0.4,0.7,0.7c0.2,0.2,0.5,0.5,0.7,0.7
		c0.1,0.2,0.3,0.3,0.4,0.4c0.1,0.1,0.2,0.2,0.3,0.3c0.1,0.1,0.1,0.1,0.2,0.2h0c0.1,0.1,0.1,0.1,0.2,0.2c0,0,0.1,0.1,0.1,0.1
		c0.1,0.1,0.1,0.1,0.1,0.1c0.1,0.1,0.1,0.1,0.2,0.2c0.1,0.1,0.2,0.2,0.3,0.3c0,0,0.1,0.1,0.1,0.1c0.1,0.1,0.1,0.1,0.2,0.2
		c0.3,0.3,0.5,0.6,0.8,0.9c0,0,0,0,0,0v0c0,0,0,0,0.1,0.1v0c0.2,0.2,0.3,0.4,0.5,0.6c0.1,0.2,0.3,0.3,0.4,0.5
		c0.1,0.2,0.3,0.3,0.4,0.5c0.2,0.2,0.3,0.4,0.4,0.6c0.2,0.3,0.4,0.5,0.6,0.8c0.4,0.5,0.8,1.1,1.2,1.6c0.1,0.2,0.3,0.4,0.4,0.6
		c0,0,0,0,0.1,0.1c0.2,0.2,0.3,0.5,0.4,0.7c0.3,0.5,0.6,0.9,0.8,1.4c0.1,0.1,0.1,0.2,0.2,0.3c0.1,0.2,0.2,0.4,0.3,0.6c0,0,0,0,0,0
		c0.1,0.3,0.3,0.5,0.4,0.7c0,0,0.1,0.1,0.1,0.1c0,0.1,0.1,0.2,0.1,0.3c0.1,0.1,0.1,0.2,0.2,0.3c0.1,0.1,0.1,0.2,0.2,0.3
		c0.1,0.2,0.2,0.5,0.3,0.7c0.1,0.1,0.1,0.2,0.2,0.3c0.2,0.5,0.5,1.1,0.7,1.6c0,0,0,0,0,0.1c0.2,0.5,0.4,1.1,0.5,1.6c0,0,0,0.1,0,0.1
		c0,0.1,0.1,0.3,0.1,0.4c0.1,0.3,0.2,0.5,0.2,0.8c0,0.1,0,0.2,0.1,0.3c0,0.1,0,0.1,0.1,0.2c0,0.1,0.1,0.2,0.1,0.3
		c0,0.2,0.1,0.3,0.1,0.5c0.1,0.2,0.1,0.4,0.1,0.7c0,0.2,0.1,0.3,0.1,0.5c0,0,0,0.1,0,0.1c0,0,0,0.1,0,0.1c0,0.1,0,0.1,0,0.2
		c0,0.2,0,0.4,0.1,0.6c0,0.4,0,0.8,0,1.1c0,0.6-0.1,1.3-0.1,1.8c-0.1,0.4-0.2,0.9-0.3,1.3c-0.1,0.3-0.2,0.5-0.3,0.8
		c-0.1,0.1-0.1,0.3-0.2,0.4c-0.1,0.2-0.2,0.5-0.4,0.7c-0.3,0.5-0.6,0.9-1,1.3h0c-0.5,0.5-1,0.8-1.5,1.2h0c0,0,0,0,0,0
		c-0.1,0-0.1,0.1-0.2,0.1c-0.2,0.1-0.4,0.2-0.5,0.3c-0.1,0.1-0.3,0.1-0.4,0.1c-0.3,0.1-0.5,0.2-0.8,0.2c0,0,0,0,0,0
		c-0.1,0-0.3,0.1-0.4,0.1c-0.7,0.1-1.5,0.2-2.3,0.2c-0.8,0-1.6-0.1-2.4-0.2c0,0,0,0,0,0c-0.8-0.1-1.7-0.3-2.6-0.5
		c-0.2-0.1-0.4-0.1-0.7-0.2c-0.2-0.1-0.4-0.1-0.7-0.2c-0.2-0.1-0.5-0.2-0.7-0.2c-0.1,0-0.2-0.1-0.3-0.1c-0.1,0-0.2-0.1-0.3-0.1
		c-0.2-0.1-0.5-0.2-0.7-0.3c-0.5-0.2-0.9-0.4-1.4-0.6c-0.2-0.1-0.5-0.2-0.7-0.3c0,0,0,0,0,0c-0.2-0.1-0.5-0.2-0.7-0.2
		c-0.3,0-0.6,0.1-0.9,0.3h0c-0.2,0.1-0.4,0.3-0.5,0.5c-0.2,0.3-0.3,0.6-0.3,1c0.1,0.9,0.1,1.7,0.1,2.6c0,0.6,0,1.3-0.1,1.9
		c0,0.6,0.3,1.2,0.8,1.5c0.1,0.1,0.2,0.1,0.2,0.1c0.2,0.1,0.4,0.2,0.6,0.2c0.7,0.3,1.3,0.5,2,0.7c0.2,0.1,0.3,0.1,0.5,0.2
		c0.2,0.1,0.4,0.1,0.6,0.2c0.3,0.1,0.5,0.2,0.7,0.2c0.2,0.1,0.4,0.1,0.7,0.2c0.1,0,0.3,0.1,0.4,0.1c0.2,0.1,0.5,0.1,0.7,0.2
		c0.6,0.1,1.3,0.3,1.9,0.4c0.2,0,0.4,0.1,0.7,0.1c0.2,0,0.3,0,0.5,0.1c0.2,0,0.4,0,0.6,0.1c0.4,0,0.9,0.1,1.3,0.1c0.4,0,0.7,0,1,0h0
		c0.3,0,0.6,0,0.9,0c0.1,0,0.2,0,0.3,0c0.3,0,0.7,0,1-0.1c0,0,0,0,0,0c0.4,0,0.7-0.1,1-0.1c0,0,0,0,0.1,0c0.2,0,0.4-0.1,0.6-0.1
		c0,0,0.1,0,0.1,0c0.2,0,0.3-0.1,0.5-0.1c0,0,0.1,0,0.1,0c0.1,0,0.2-0.1,0.4-0.1c0,0,0,0,0.1,0c0.3-0.1,0.5-0.1,0.8-0.2
		c0,0,0.1,0,0.1,0c0.2,0,0.3-0.1,0.5-0.1c0.2,0,0.3-0.1,0.5-0.1c0.1,0,0.1,0,0.2,0c0.3-0.1,0.6-0.2,0.9-0.3c0.3-0.1,0.7-0.2,1-0.4
		c0.3-0.1,0.6-0.3,1-0.4c0,0,0.1,0,0.1-0.1h0c0.3-0.1,0.5-0.2,0.8-0.4c0.3-0.2,0.6-0.3,0.9-0.5c0.1-0.1,0.3-0.2,0.4-0.3
		c0.1-0.1,0.3-0.2,0.4-0.3c0.3-0.2,0.5-0.3,0.7-0.5c0.2-0.2,0.5-0.4,0.7-0.5c0.2-0.2,0.4-0.4,0.7-0.6c0.2-0.2,0.5-0.4,0.7-0.7
		l19.6-20C225,86.1,225.1,85.4,224.8,84.8z M195.4,83.7L195.4,83.7c0.2,0.4,0.4,0.8,0.6,1.1C195.9,84.4,195.6,84.1,195.4,83.7z
		 M197.1,87c0.5,1.1,0.9,2.2,1.3,3.3C198,89.2,197.6,88.1,197.1,87z M199,99.8C199,99.8,199,99.8,199,99.8c0.4-1.6,0.5-3.4,0.3-5.4
		C199.5,96.4,199.5,98.2,199,99.8z"/>
	<path class="st9" d="M202,106.9c-4.9,3.7-13.5,5.8-23.8,1.4c0-0.6,0.1-1.3,0.1-2c0-0.8,0-1.7-0.1-2.7c0.2,0.1,0.5,0.2,0.7,0.3
		c0,0,0,0,0.1,0c0.5,0.2,1,0.5,1.5,0.7c0.5,0.2,1,0.4,1.5,0.6c0.1,0,0.1,0,0.2,0.1c0.2,0.1,0.4,0.1,0.6,0.2c0.1,0.1,0.3,0.1,0.4,0.1
		c0,0,0.1,0,0.1,0c0.1,0.1,0.3,0.1,0.4,0.1c0.2,0,0.3,0.1,0.4,0.1c0.1,0,0.2,0.1,0.3,0.1c0.1,0,0.3,0.1,0.4,0.1
		c0.2,0.1,0.5,0.1,0.7,0.2c1.4,0.3,2.7,0.5,3.9,0.5c1.3,0,2.6-0.2,3.7-0.5c0,0,0,0,0,0c0.3-0.1,0.6-0.2,0.8-0.3
		c0.2-0.1,0.3-0.1,0.5-0.2c0.2-0.1,0.3-0.1,0.5-0.2c0.1-0.1,0.2-0.1,0.4-0.2c0.2-0.1,0.3-0.2,0.5-0.3c0.3-0.2,0.5-0.4,0.7-0.6
		c0.1-0.1,0.2-0.2,0.3-0.3h0c0.2-0.2,0.4-0.5,0.6-0.7c0.2-0.2,0.3-0.4,0.5-0.7c0,0,0.1-0.1,0.1-0.1c0,0,0,0,0,0
		c0.2-0.3,0.3-0.6,0.5-0.9c0-0.1,0.1-0.2,0.1-0.2c2.2-4.9,0.5-12.4-4.4-20c-0.1-0.1-0.1-0.1-0.1-0.2c-0.2-0.3-0.4-0.6-0.6-0.9
		c-0.2-0.3-0.4-0.5-0.6-0.8c-0.1-0.1-0.1-0.2-0.2-0.2c-0.1-0.1-0.1-0.2-0.2-0.3c-0.3-0.4-0.6-0.8-1-1.3c-0.2-0.3-0.5-0.6-0.7-0.9
		c-0.1-0.2-0.3-0.3-0.4-0.5c-0.2-0.3-0.4-0.5-0.6-0.8c-0.2-0.3-0.5-0.5-0.7-0.8c0,0-0.1-0.1-0.1-0.1c0,0-0.1-0.1-0.1-0.1
		c0,0,0,0-0.1-0.1c-0.2-0.2-0.3-0.4-0.5-0.5c-0.2-0.2-0.4-0.4-0.6-0.6c-0.3-0.3-0.6-0.6-0.9-1c-0.5-0.5-1-1-1.5-1.5
		c-0.3-0.2-0.5-0.5-0.8-0.7c-0.3-0.2-0.5-0.4-0.7-0.7c-0.7-0.7-1.5-1.3-2.2-1.8c-0.5-0.4-1-0.8-1.6-1.2c-0.1,0-0.1-0.1-0.2-0.1
		c-0.3-0.2-0.6-0.4-0.9-0.6c-0.4-0.3-0.9-0.6-1.3-0.9c-0.5-0.3-1.1-0.7-1.6-1c-0.3-0.2-0.5-0.3-0.8-0.4c-0.5-0.3-1-0.6-1.6-0.8
		c-0.3-0.2-0.6-0.3-1-0.5c-0.1-0.1-0.3-0.1-0.4-0.2c-0.3-0.2-0.6-0.3-1-0.4c-0.3-0.1-0.5-0.2-0.8-0.3c-0.5-0.2-1-0.4-1.4-0.5
		c-0.1,0-0.2-0.1-0.2-0.1c-0.1,0-0.2-0.1-0.2-0.1c-0.4-0.1-0.8-0.2-1.1-0.3c-0.3-0.1-0.5-0.1-0.7-0.2c-0.2-0.1-0.5-0.1-0.7-0.2
		c-0.2-0.1-0.5-0.1-0.7-0.1c-0.2,0-0.5-0.1-0.7-0.1c0,0,0,0,0,0c-0.4,0-0.8-0.1-1.1-0.1c-0.1,0-0.1,0-0.2,0c-0.2,0-0.5,0-0.7,0
		c-0.2,0-0.4,0-0.7,0c-0.2,0-0.3,0-0.5,0c-0.1,0-0.1,0-0.2,0h0c0,0-0.1,0-0.1,0c-0.1,0-0.2,0-0.3,0c-0.2,0-0.4,0-0.5,0.1
		c-0.4,0.1-0.7,0.1-1,0.2c-0.5,0.1-1.1,0.3-1.5,0.5c-0.1,0-0.2,0.1-0.3,0.2c-0.3,0.1-0.6,0.3-0.8,0.4c0,0,0,0,0,0
		c-0.5,0.3-1,0.7-1.5,1.2c-0.6,0.6-1,1.2-1.4,1.9c-1,1.8-1.4,4-1.2,6.6c-1.4-0.2-2.9-0.3-4.4-0.3c-0.3-4.9,1-9.4,3.5-12.7
		c9-5.2,24.8-0.2,37.4,12.4C201.3,82.6,206.4,97.8,202,106.9z"/>
	<path class="st19" d="M168.4,80.9c0,0,10.1,4.1,18.7-4.1c0.2,2.6-0.7,9.1-6.7,11.1c2.8,3.3,7.2,2.4,7.2,2.4s-2.1,7.8-10.7,8.5"/>
	<g class="st20">
		<path class="st38" d="M153.7,73.1c-0.6-3.8,0.1-7.1,2.2-9.2c5.6-5.6,19.1-1.2,30.2,9.8c11,11.1,15.4,24.5,9.8,30.2
			c-3.8,3.8-11.3,3-19.2-1.5"/>
	</g>
	<path class="st18" d="M147.5,71.8c-0.7-7.2,1.7-12.8,5.1-16.1l21.6-21.6v21.1h21.1h8.1v8.1v21.1h21.6l-20.9,21.3
		c-4.9,4.9-14.9,8.3-27.3,2.6"/>
	<path class="st16" d="M112.2,100.6c0,0,7.2-28,35.4-28s29.3,28.3,29.3,34.1c0,26.8-22.1,40.5-22.1,71.5"/>
</g>
</svg>
