<?xml version="1.0" encoding="utf-8"?>
<!-- Generator: Adobe Illustrator 25.2.3, SVG Export Plug-In . SVG Version: 6.00 Build 0)  -->
<!DOCTYPE svg PUBLIC "-//W3C//DTD SVG 1.1//EN" "http://www.w3.org/Graphics/SVG/1.1/DTD/svg11.dtd" [
	<!ENTITY ns_extend "http://ns.adobe.com/Extensibility/1.0/">
	<!ENTITY ns_ai "http://ns.adobe.com/AdobeIllustrator/10.0/">
	<!ENTITY ns_graphs "http://ns.adobe.com/Graphs/1.0/">
	<!ENTITY ns_vars "http://ns.adobe.com/Variables/1.0/">
	<!ENTITY ns_imrep "http://ns.adobe.com/ImageReplacement/1.0/">
	<!ENTITY ns_sfw "http://ns.adobe.com/SaveForWeb/1.0/">
	<!ENTITY ns_custom "http://ns.adobe.com/GenericCustomNamespace/1.0/">
	<!ENTITY ns_adobe_xpath "http://ns.adobe.com/XPath/1.0/">
]>
<svg version="1.1" xmlns:x="&ns_extend;" xmlns:i="&ns_ai;" xmlns:graph="&ns_graphs;"
	 xmlns="http://www.w3.org/2000/svg" xmlns:xlink="http://www.w3.org/1999/xlink" x="0px" y="0px" viewBox="0 0 300 300"
	 style="enable-background:new 0 0 300 300;" xml:space="preserve">
<style type="text/css">
	.st0{display:none;}
	.st1{display:inline;fill:#FFD307;}
	.st2{display:inline;fill:#E64037;}
	.st3{display:inline;fill:#49AD39;}
	.st4{display:inline;fill:#D1CFB5;}
	.st5{display:inline;fill:#020203;}
	.st6{display:inline;fill:#2E2F2F;}
	.st7{display:inline;fill:#D1E7D5;}
	.st8{display:inline;fill:none;}
	.st9{display:inline;fill:#F5AA09;}
	.st10{display:inline;fill:#7E4B26;}
	.st11{display:inline;fill:#ADA77F;}
	.st12{display:inline;fill:#3B1A0F;}
	.st13{display:inline;fill:#129839;}
	.st14{display:inline;fill:#ABD3B2;}
	.st15{display:inline;fill:#ACA780;}
	.st16{display:inline;fill:none;stroke:#020203;stroke-width:3;stroke-linecap:round;stroke-linejoin:round;stroke-miterlimit:10;}
	.st17{display:inline;fill:none;stroke:#020203;stroke-width:3;stroke-miterlimit:10;}
	.st18{display:inline;fill:none;stroke:#020203;stroke-width:3;stroke-linecap:round;stroke-miterlimit:10;}
	.st19{display:inline;fill:none;stroke:#020203;stroke-linecap:round;stroke-miterlimit:10;}
	.st20{display:inline;}
	.st21{fill:none;stroke:#020203;stroke-width:3;stroke-miterlimit:10;}
	.st22{display:inline;fill:#108036;}
	.st23{fill:#108036;}
	.st24{fill:#DECA7D;}
	.st25{fill:none;}
	.st26{fill:#A37134;}
	.st27{fill:#533E2D;}
	.st28{fill:#B88B49;}
	.st29{fill:#2E2F2F;}
	.st30{fill:#6E6E6E;}
	.st31{display:inline;fill:#67247C;}
	.st32{fill:none;stroke:#020203;stroke-width:3;stroke-linecap:round;stroke-linejoin:round;stroke-miterlimit:10;}
	.st33{fill:#020203;}
	.st34{fill:#D1CFB5;}
	.st35{fill:#ACA780;}
	.st36{display:inline;fill:#9D8416;}
	.st37{display:inline;fill:#109639;}
	.st38{fill:none;stroke:#020203;stroke-width:3;stroke-linecap:round;stroke-miterlimit:10;}
</style>
<metadata>
	<sfw  xmlns="&ns_sfw;">
		<slices></slices>
		<sliceSourceBounds  bottomLeftOrigin="true" height="474.9" width="1500" x="-120" y="-644.9"></sliceSourceBounds>
	</sfw>
</metadata>
<g id="z-index1_x2F_duck" class="st0">
</g>
<g id="z-index2_x2F_cirkel" class="st0">
</g>
<g id="z-index3_x2F_banner">
	<path class="st23" d="M0,0l0,150c82.8,0,150,67.2,150,150h150V0H0z"/>
	<path class="st24" d="M179.1,300l0-20.4l0-0.2c0-0.5,0-1-0.1-1.5c-10-81.6-73.8-146-155.3-156.6l-0.5-0.1l-0.5-0.1
		c-0.8-0.2-1.5-0.3-2.3-0.3H0V10h290.3v290H179.1z"/>
	<g>
		<rect x="-300" class="st23" width="300" height="150"/>
		
			<rect x="-300" y="5.9" transform="matrix(-1 -4.489266e-11 4.489266e-11 -1 -300 130.78)" class="st24" width="300" height="119"/>
		<rect x="-300" y="0" class="st28" width="300" height="20"/>
	</g>
	<path class="st25" d="M0,20v90.8h20.4c1.6,0,3.2,0.2,4.7,0.5c86.1,11.2,153.3,78.8,163.9,165.2c0.1,1.1,0.2,2.2,0.1,3.2l0,20.2
		h91.2V20H0z"/>
	<polygon class="st28" points="280.3,20 0,20 0,0 300,0 280.3,20 	"/>
	<polygon class="st26" points="280.3,20 300,0 300,0 300,300 280.3,300 	"/>
	<path class="st27" d="M25.1,111.3c86.1,11.2,153.3,78.8,163.9,165.2c0.1,1.1,0.2,2.2,0.1,3.2l0,20.2h-20.3l0-21h0
		c-9.5-77.4-71.2-139-148.7-148.1v-0.1H0v-20h20.4C22,110.8,23.6,111,25.1,111.3z"/>
</g>
<g id="z-index4_x2F_wings_x2B_crown" class="st0">
</g>
</svg>
