<?xml version="1.0" encoding="utf-8"?>
<!-- Generator: Adobe Illustrator 25.2.3, SVG Export Plug-In . SVG Version: 6.00 Build 0)  -->
<!DOCTYPE svg PUBLIC "-//W3C//DTD SVG 1.1//EN" "http://www.w3.org/Graphics/SVG/1.1/DTD/svg11.dtd" [
	<!ENTITY ns_extend "http://ns.adobe.com/Extensibility/1.0/">
	<!ENTITY ns_ai "http://ns.adobe.com/AdobeIllustrator/10.0/">
	<!ENTITY ns_graphs "http://ns.adobe.com/Graphs/1.0/">
	<!ENTITY ns_vars "http://ns.adobe.com/Variables/1.0/">
	<!ENTITY ns_imrep "http://ns.adobe.com/ImageReplacement/1.0/">
	<!ENTITY ns_sfw "http://ns.adobe.com/SaveForWeb/1.0/">
	<!ENTITY ns_custom "http://ns.adobe.com/GenericCustomNamespace/1.0/">
	<!ENTITY ns_adobe_xpath "http://ns.adobe.com/XPath/1.0/">
]>
<svg version="1.1" xmlns:x="&ns_extend;" xmlns:i="&ns_ai;" xmlns:graph="&ns_graphs;"
	 xmlns="http://www.w3.org/2000/svg" xmlns:xlink="http://www.w3.org/1999/xlink" x="0px" y="0px" viewBox="0 0 300 300"
	 style="enable-background:new 0 0 300 300;" xml:space="preserve">
<style type="text/css">
	.st0{fill:#FFD307;}
	.st1{fill:#E64037;}
	.st2{fill:#49AD39;}
	.st3{fill:#D1CFB5;}
	.st4{fill:#020203;}
	.st5{fill:#2E2F2F;}
	.st6{fill:#D1E7D5;}
	.st7{fill:none;}
	.st8{fill:#F5AA09;}
	.st9{fill:#7E4B26;}
	.st10{fill:#ADA77F;}
	.st11{fill:#3B1A0F;}
	.st12{fill:#129839;}
	.st13{fill:#ABD3B2;}
	.st14{fill:#ACA780;}
	.st15{fill:none;stroke:#020203;stroke-width:3;stroke-linecap:round;stroke-linejoin:round;stroke-miterlimit:10;}
	.st16{fill:none;stroke:#020203;stroke-width:3;stroke-miterlimit:10;}
	.st17{fill:none;stroke:#020203;stroke-width:3;stroke-linecap:round;stroke-miterlimit:10;}
	.st18{fill:none;stroke:#020203;stroke-linecap:round;stroke-miterlimit:10;}
	.st19{fill:#F1E856;}
	.st20{display:none;}
	.st21{display:inline;fill:#108036;}
	.st22{display:inline;fill:#F1E856;}
	.st23{display:inline;}
	.st24{fill:#020304;}
	.st25{display:inline;fill:#DECA7D;}
	.st26{display:inline;fill:none;}
	.st27{display:inline;fill:#A37134;}
	.st28{display:inline;fill:#533E2D;}
	.st29{fill:#108036;}
	.st30{fill:#DECA7D;}
	.st31{fill:#A37134;}
	.st32{display:inline;fill:#B88B49;}
	.st33{fill:#B88B49;}
	.st34{fill:#533E2D;}
	.st35{fill:#69695E;}
	.st36{fill:#8E8D82;}
	.st37{fill:#010202;}
	.st38{fill:#6E6E6E;}
	.st39{display:inline;fill:#67247C;}
	.st40{display:inline;fill:#9D8416;}
	.st41{display:inline;fill:#109639;}
	.st42{display:inline;fill:#FFD307;}
	.st43{display:inline;fill:#F5AA09;}
	.st44{display:inline;fill:none;stroke:#020203;stroke-linecap:round;stroke-miterlimit:10;}
	.st45{display:inline;fill:none;stroke:#020203;stroke-width:3;stroke-linecap:round;stroke-miterlimit:10;}
	.st46{display:inline;fill:none;stroke:#020203;stroke-width:3;stroke-linecap:round;stroke-linejoin:round;stroke-miterlimit:10;}
</style>
<metadata>
	<sfw  xmlns="&ns_sfw;">
		<slices></slices>
		<sliceSourceBounds  bottomLeftOrigin="true" height="479.9" width="1520" x="-130" y="-647.9"></sliceSourceBounds>
	</sfw>
</metadata>
<g id="z-index1_x2F_duck">
	<path class="st0" d="M139.6,118.1c-0.7-4.8-10.3-16.7-22.3-16.7c-0.2,0-0.4,0-0.5,0c-1.5,0-3.1,0.1-4.5,0.3c-0.1,0-0.1,0-0.2,0
		c-0.1,0-0.2,0-0.2,0h-0.1c-0.1,0-0.1,0-0.2,0c-10.9,1.1-15.5,4.6-17.4,7.4c-0.4,0.6-0.9,1.4-0.6,2.3c0.3,0.9,1.2,2.3,6,4.4
		c2,0.9,5.7,1.9,10,2.8c-0.1,0.1-0.1,0.1-0.2,0.2c-2.8,4.3-4.2,7.7-4.1,10.1c0.1,2.1,1.3,3,1.8,3.3l0.1,0c1.1,0.8,3.2,1.2,5.8,1.2
		c1.6,0,3.3-0.2,5.1-0.5c1.9-0.3,3.9-0.8,6-1.5C135.2,127.9,140.4,123.4,139.6,118.1z M118.5,122c0.2-0.2,0.4-0.5,0.4-0.8
		c0.1-0.3,0-0.5,0-0.8c0,0,0,0,0-0.1c4.2,0.8,8.2,1.5,11,1.9c-0.5,0.2-1,0.4-1.5,0.6c-7.3,2.9-11.2,4.2-12.6,4.2
		C115.8,126.3,117,124,118.5,122z"/>
	<path class="st1" d="M117.1,128.5c-0.5,0-1.4,0.3-1.7,0.1c-0.5-0.3-0.3-1.1-0.4-1.8c-0.1-1.5,1.6-4.1,2.5-5.5
		c0-0.3,0.1-0.5,0.3-0.7c0.3-0.3,0.7-0.5,1.1-0.5c0.1,0,0.2,0,0.3,0c4.2,0.8,8,1.4,9.8,1.7c0.6,0.1,1.1,0.6,1.1,1.2
		c0.1,0.6-0.3,1.2-0.8,1.4C121,127.8,118.4,128.5,117.1,128.5z"/>
	<path class="st2" d="M177.3,105.2c0-0.3,0-0.6-0.1-0.9c-0.1-1.5-0.3-3.1-0.6-4.9c-0.9-4.8-2.6-10.4-6-15.2
		c-3.5-4.8-8.7-8.7-16.6-10.1c-0.4-0.1-0.8-0.1-1.1-0.2v0c-1.6-0.2-3.4-0.4-5.3-0.4c-0.3,0-0.5,0-0.8,0
		c-23.6,0.4-32.5,20.4-34.6,26.5c-0.2,0.5-0.1,1.1,0.2,1.5c0,0,0,0,0,0.1c0.3,0.4,0.8,0.7,1.3,0.7h0.1c1.1-0.1,2-0.1,3-0.1
		c0.2,0,0.3,0,0.5,0c11.7,0,20.9,11.9,21.5,16c0.7,4.9-4.3,9.1-14.9,12.4c-1.6,0.5-3,0.9-4.5,1.2c-0.6,0.1-1.1,0.6-1.2,1.1
		c-0.1,0.2-0.1,0.4-0.1,0.7c0.1,1.5,0.6,9.8-2.6,22.9c0,0.1-0.1,0.2-0.1,0.3c-0.4,1.5-0.8,3-1.3,4.7c-0.1,0.5-0.1,1,0.2,1.4
		c0,0.1,0.1,0.1,0.2,0.2c0.1,0.1,0.2,0.2,0.3,0.3c2.5,1.6,10.5,6,24.2,7.7c3.3,0.4,7,0.7,11,0.7c1.4,0,2.9,0,4.3-0.1
		c0.3,0,0.6-0.1,0.8-0.3c0.4-0.3,0.7-0.7,0.8-1.1c1.8-11.1,6.4-20,10.9-28.5c5-9.5,9.7-18.5,10.4-30c0.1-1.1,0.1-2.2,0.1-3.4
		C177.4,107.5,177.4,106.4,177.3,105.2z M170,103.2c-0.1,2.2-0.4,4.5-1,7.2c-0.5,2.6-1.1,4.8-1.8,7.1c-0.4,1.2-1.5,2-2.7,2
		c-0.3,0-0.6,0-0.9-0.1c-0.7-0.2-1.3-0.7-1.7-1.4c-0.4-0.7-0.4-1.4-0.2-2.1c0-0.1,0.1-0.2,0.1-0.2c0,0,0-0.1,0.1-0.2
		c1.9-4.6,3.2-8.8,3.8-12.6c0.4-2.5,0.3-4.5-0.1-6c-0.3-0.9-0.7-1.5-1.3-1.8c-0.5-0.3-1.3-0.5-2.2-0.5c-0.1,0-0.2,0-0.4,0
		c-1.9,0.1-3.7,1-5.2,2.6c-1.3,1.4-2.5,3.2-3.6,5.7c-1.6,3.7-2.8,8-3.6,12.7c0.1-2,0.3-4.2,0.7-6.4c0.4-2.5,1-4.8,1.6-6.8
		c1-2.8,2-4.8,3.3-6.5c0.9-1.1,1.8-2,2.8-2.6c1.1-0.8,2.4-1.2,3.7-1.4c0.5-0.1,1-0.1,1.4-0.1c1,0,2,0.2,2.9,0.6
		c1.3,0.6,2.4,1.8,3.1,3.3c0.6,1.4,0.9,2.8,1,3.9C170,100.5,170,101.7,170,103.2z"/>
	<path class="st3" d="M237.7,229.3c-4,0-8.5-1.1-13.2-2.2c-1.5-0.4-3-0.7-4.5-1c1.6,1.6,2.8,3.3,3.4,5.1c3.6,10.1-3.4,14.7-6.5,16.2
		c-1.1,0.5-4,1.7-8.2,1.7c-5.9,0-14.3-2.5-23.1-12.9c-0.4,4.7-1.6,10.6-5.2,14.6c-2.7,3-6.3,4.5-10.7,4.5c-4.1,0-7.4-1.5-9.7-4.3
		c-6.1-7.5-3.6-22.4-3.1-25.4c-0.3-0.4-0.3-0.9-0.1-1.3c0-0.1,0.1-0.2,0.2-0.2c0.1-0.1,0.1-0.1,0.2-0.2h0c0.1-0.1,0.1-0.1,0.2-0.1
		c0.1,0,0.1-0.1,0.2-0.1c0.1,0,0.1,0,0.2-0.1c0,0,0,0,0,0c0.1,0,0.1,0,0.2,0c0.2,0,0.4,0.1,0.6,0.2c7.2,4.2,16.8,4.4,25.4,3.2
		c3.2-2.1,9-6.5,9-10.8c0-5.9-4.9-8.7-4.9-8.7s11.8-1.1,11.8-9.1c0-0.3,0-0.6,0-1c0-0.3,0-0.6-0.1-0.9c0-0.4-0.1-0.7-0.2-1
		c0-0.1,0-0.2-0.1-0.3c0-0.1,0-0.2-0.1-0.3c0-0.2-0.1-0.3-0.1-0.5c0-0.1-0.1-0.2-0.1-0.3c0,0,0,0,0,0c-0.1-0.2-0.1-0.3-0.2-0.5
		c-0.1-0.2-0.1-0.3-0.2-0.5c-0.1-0.3-0.3-0.6-0.4-0.8c-0.1-0.2-0.3-0.4-0.4-0.6c-0.1-0.1-0.1-0.2-0.2-0.3c-0.1-0.1-0.1-0.2-0.2-0.2
		c0,0,0,0,0,0c-0.1-0.1-0.1-0.1-0.2-0.2c-0.1-0.1-0.2-0.2-0.4-0.4c0,0,0,0-0.1-0.1c-0.1-0.1-0.3-0.3-0.5-0.4c0,0,0,0-0.1,0
		c-0.2-0.1-0.4-0.3-0.6-0.4c0,0,0,0,0,0c-0.2-0.1-0.4-0.2-0.7-0.4c0,0,0,0,0,0c-0.1-0.1-0.2-0.1-0.4-0.1c-0.1-0.1-0.3-0.1-0.4-0.1
		c-0.1,0-0.3-0.1-0.4-0.1c0,0-0.1,0-0.1,0c-0.1,0-0.2-0.1-0.3-0.1c-0.1,0-0.3-0.1-0.4-0.1c-0.1,0-0.2,0-0.3-0.1c0,0-0.1,0-0.1,0
		c-0.1,0-0.3,0-0.4,0c-0.1,0-0.2,0-0.2,0c-0.2,0-0.4,0-0.6,0c-0.1,0-0.3,0-0.4,0h0c-0.1,0-0.3,0-0.4,0c-0.1,0-0.3,0-0.4,0
		c-0.3,0-0.6,0.1-0.9,0.1c3.3-2.1,8.4-7,8.9-12.9c0.3-3.9-2.2-6.5-4-7.8c-3.4,0.3-6.7,0.8-9.7,1.3c-4.2,0.8-21,4.4-29.3,11.3
		c-0.1,0.1-0.2,0.2-0.3,0.3c-2.5,2.2-4.2,4.8-4.3,7.8c-0.3,9,6.1,9.5,6.3,9.5c0.7,0,1.2,0.6,1.2,1.3c0,0.7-0.6,1.2-1.3,1.2
		c0,0-1-0.1-2.4-0.6c-2.7,5.7-8.4,9.3-14.8,9.3c-0.6,0-1.2,0-1.8-0.1v0.1c0,0.3,0,0.6,0,0.8c0,0.2,0,0.4-0.1,0.7
		c0,0.2,0,0.3-0.1,0.5c0,0,0,0.1,0,0.1c0,0.2-0.1,0.4-0.1,0.6c0,0.2-0.1,0.3-0.1,0.5c0,0.1-0.1,0.3-0.1,0.4c0,0.1,0,0.2-0.1,0.2
		c0,0.2-0.1,0.3-0.1,0.5c0,0,0,0,0,0.1c-0.1,0.2-0.1,0.4-0.2,0.6c-0.1,0.3-0.2,0.5-0.3,0.8c-0.1,0.3-0.2,0.5-0.3,0.8
		c-0.1,0.2-0.2,0.4-0.3,0.6c-0.1,0.1-0.1,0.3-0.2,0.4c0,0,0,0,0,0c0,0.1-0.1,0.1-0.1,0.2c-0.1,0.2-0.2,0.4-0.4,0.6c0,0,0,0,0,0
		c-0.1,0.1-0.1,0.3-0.2,0.4c-0.1,0.2-0.2,0.4-0.4,0.6c-0.2,0.4-0.5,0.7-0.7,1c-0.1,0.2-0.3,0.4-0.4,0.5c0,0.1-0.1,0.1-0.1,0.2
		c-0.2,0.2-0.4,0.4-0.6,0.6c0,0,0,0.1-0.1,0.1c0,0,0,0-0.1,0.1c-0.2,0.2-0.5,0.5-0.7,0.7l0,0c-0.1,0.1-0.3,0.2-0.4,0.3c0,0,0,0,0,0
		c-0.2,0.2-0.4,0.3-0.6,0.5c-0.2,0.2-0.4,0.3-0.7,0.5c-0.2,0.1-0.3,0.2-0.5,0.3c-0.2,0.1-0.4,0.2-0.6,0.4c-0.1,0.1-0.2,0.1-0.3,0.2
		c-0.1,0.1-0.2,0.1-0.3,0.2c0,0,0,0,0,0c0,0,0,0,0,0c-0.2,0.1-0.5,0.2-0.7,0.3c-0.2,0.1-0.5,0.2-0.7,0.3c-0.2,0.1-0.5,0.2-0.7,0.3
		c-0.3,0.1-0.5,0.2-0.8,0.2c-0.3,0.1-0.5,0.1-0.8,0.2c-0.3,0.1-0.5,0.1-0.8,0.2c-0.3,0.1-0.6,0.1-0.9,0.1c-0.3,0-0.6,0.1-0.9,0.1
		c-0.1,0-0.2,0-0.3,0c-0.1,0-0.2,0-0.3,0c-0.1,0-0.3,0-0.4,0c-0.7,0-1.3,0-1.9-0.1c0,8.4-6.2,15.2-14.3,16.2c3.3,9.1,9,15.4,17,19
		c0.3-0.7,0.6-1.4,0.8-1.9c2.4-6.1,9.3-9.1,15.4-6.7c3,1.2,5.3,3.4,6.5,6.3c1.1,2.6,1.3,5.4,0.5,8.1c10.7,0.8,28.4,0.5,48.1-6.3
		c0.1-0.1,0.2-0.1,0.3-0.1c0.6-0.2,1.2-0.4,1.8-0.7c0.6-0.2,1.2-0.5,1.8-0.7h0c0.2-0.1,0.4-0.2,0.6-0.2c0.6-0.2,1.3-0.5,1.9-0.8
		c0.1,0,0.2-0.1,0.3-0.1c0.7-0.3,1.3-0.5,2-0.8c0.6-0.3,1.2-0.6,1.9-0.8c0.2-0.1,0.4-0.2,0.6-0.3c0.6-0.3,1.1-0.5,1.7-0.8
		c0.1,0,0.1-0.1,0.2-0.1c0.5-0.2,1-0.5,1.5-0.8c0,0,0,0,0.1,0c0.3-0.2,0.6-0.3,1-0.5c0.5-0.3,1.1-0.6,1.6-0.9
		c11.4-6.1,21-14.2,28.8-24.1C239.3,229.2,238.5,229.3,237.7,229.3z"/>
	<path class="st4" d="M127.8,109.4c-0.1,0.2-0.3,0.3-0.5,0.2c-0.8-0.4-1.7-0.5-2.4-0.5c-0.6,0-1,0.2-1.1,0.4
		c-0.1,0.2,0.1,0.6,0.5,1.1c0.5,0.5,1.2,1,2,1.3c0.2,0.1,0.3,0.3,0.2,0.5c-0.1,0.2-0.2,0.3-0.4,0.3c-0.1,0-0.1,0-0.2,0
		c-1-0.4-1.8-0.9-2.3-1.5c-0.6-0.7-0.8-1.4-0.6-1.9c0.2-0.6,0.9-0.9,1.8-0.9c0.8,0,1.8,0.2,2.7,0.6
		C127.8,108.9,127.9,109.2,127.8,109.4z"/>
	<path class="st0" d="M136.6,280.4c-0.1,0-0.2,0-0.3,0c-0.7-0.1-1.2-0.6-1.3-1.3c-1.4-6.4-12.4,3-16.7-4.5c-0.3-0.5-0.3-1.1,0-1.6
		c1.6-3.2,3.2-6.6,4.7-10.2c0,0,0,0,0-0.1c0.5-1.2,0.9-2.2,1.2-3.1c1.6-4.2,5.8-7,10.3-7c1.4,0,2.7,0.3,4,0.8
		c2.7,1.1,4.9,3.1,6.1,5.8c1.2,2.7,1.2,5.7,0.2,8.4l-0.3,0.7c-1.1,2.8,0.9,0.1-6.6,11.3C137.7,280.1,137.2,280.4,136.6,280.4z"/>
	<path class="st3" d="M250.2,214.7c-0.1,0-0.1,0-0.2,0c-0.7-0.1-1.3-0.6-1.4-1.2c-1.1-4.3-4.6-7.8-7.3-10c-0.6-0.5-0.8-1.4-0.4-2.1
		c0.3-0.5,0.9-0.9,1.5-0.9c0.2,0,0.4,0,0.5,0.1c2.8,0.9,5.4,1.8,7.9,2.5c1,0.3,2,0.5,3.1,0.7c0.5,0.1,0.9,0.4,1.2,0.8
		c0.2,0.4,0.3,1,0.1,1.4c-1,2.6-2.2,5.2-3.4,7.7C251.4,214.4,250.8,214.7,250.2,214.7z"/>
	<path class="st5" d="M261.1,184.5c-0.4,0-0.8-0.1-1.1-0.4c-1.9-1.5-4.1-3.1-6.5-4.6c-0.6-0.4-0.9-1.2-0.7-1.9
		c1-3.3,1.8-6.8,2.2-10.2c0-0.4,0.2-0.7,0.5-1c1.9-1.9,3.6-3.2,4.7-3.9c0.3-0.2,0.6-0.3,1-0.3c0.2,0,0.4,0,0.6,0.1
		c0.5,0.2,0.9,0.6,1,1.2c0.9,3.7,2.1,11.1,0,19.8c-0.1,0.6-0.5,1-1.1,1.2C261.5,184.4,261.3,184.5,261.1,184.5z"/>
	<path class="st5" d="M235.6,171.7c-0.1,0-0.3,0-0.4-0.1c-2.8-0.7-5.6-1.3-8.6-1.7c-0.5-0.1-1-0.4-1.3-0.9c-0.2-0.5-0.2-1.1,0.1-1.6
		c4-7,9.2-11.3,11.9-13.3c0.3-0.2,0.6-0.3,1-0.3c0.2,0,0.4,0,0.6,0.1c0.5,0.2,0.9,0.6,1,1.2c0.4,1.7,1,4.4,1.1,7.8
		c0,0.3-0.1,0.7-0.3,1c-1.3,2.1-2.6,4.4-3.7,6.8C236.8,171.3,236.2,171.7,235.6,171.7z"/>
	<path class="st6" d="M252.3,178.4c-0.3,0-0.6-0.1-0.8-0.2c-0.1-0.1-0.7-0.4-0.7-0.4c-3.8-2.2-8.2-4-13.2-5.5
		c-0.5-0.1-0.9-0.5-1.1-0.9c-0.2-0.4-0.2-1,0-1.4c1.1-2.3,2.3-4.6,3.7-6.8l0.2-0.3c4.6-7.1,9.7-11.6,12.3-13.7
		c0.3-0.2,0.7-0.4,1-0.4c0.2,0,0.4,0,0.6,0.1c0.5,0.2,0.9,0.7,1.1,1.2c0.6,3,1.4,9.1,0.6,16.8c-0.4,3.4-1.1,6.8-2.1,10.2
		c-0.1,0.5-0.5,0.9-1,1.1C252.7,178.4,252.5,178.4,252.3,178.4z"/>
	<path class="st3" d="M236.1,177.6c-3.5-4.1-8.7-7.2-15.4-9.1c0,0-0.1,0-0.1,0c-2.6-0.7-5.5-1.3-8.5-1.7c-0.1,0-0.1,0-0.2,0
		c-0.5,0-0.9,0.2-1.2,0.5c-0.4,0.4-0.5,0.9-0.4,1.4c0.5,2.9,0.7,10.1-7.6,15.5c-0.6,0.4-0.9,1.2-0.7,1.9c0.1,0.2,0.1,0.3,0.2,0.5
		c0.3,0.4,0.8,0.7,1.4,0.7c2.2,0,4.1,0.9,5.6,2.5c1.9,2.1,2.8,5.3,2.5,8.9c-0.5,5.1-7.5,7.9-8.8,7.9c-0.8,0-1.4,0.5-1.6,1.3
		c-0.2,0.7,0.2,1.5,0.8,1.9c2.5,1.3,5.1,5.4,5,9.5c0,0.6,0.3,1.2,0.8,1.5c0.3,0.1,0.5,0.2,0.8,0.2c0.3,0,0.6-0.1,0.9-0.3
		c11.4-7,25.1-20.5,28.3-31.6c0.2-0.5,0.3-1.1,0.4-1.6C239.1,183.7,238.4,180.3,236.1,177.6z"/>
	<path class="st7" d="M137.3,121.6c-0.1,0.6-0.5,1-0.5,1"/>
	<path class="st7" d="M103.3,104.4c0,0-0.8,0.5-1.5,1.2"/>
	<path class="st8" d="M137.4,121.9c-2,3.8-8.2,6.5-13.7,8.2c-9.5,3-14.4,1.7-15.4,1l-0.1-0.1c-0.4-0.3-1-0.7-1-1.9
		c-0.1-1.4,0.6-4.2,3.8-9.2c2,0.4,4.2,0.9,6.3,1.3c0,0,0,0-0.1,0.1c-0.3,0.5-3.4,4.8-3.2,6.5c0,0.3,0.1,0.8,0.6,1.1
		c0.2,0.1,0.6,0.2,1,0.2c1.8,0,5.7-1.3,15.8-5.4c1.1,0.2,1.9,0.3,2,0.3c0.7,0.1,1.3-0.4,1.4-1c0.1-0.7-0.4-1.3-1-1.4
		c-0.3,0-27-4.3-33.5-7.1c-4.2-1.9-4.9-2.9-5-3.3c0-0.1-0.1-0.3,0.3-0.9c0.9-1.3,2.6-3,6.1-4.4c-1.2,1.1-2.3,2.8-0.2,4.2
		c3.5,2.2,22.4,7.5,30.2,8.7C136.8,119.5,137.6,121,137.4,121.9z"/>
	<path class="st6" d="M155.2,171.3C155.2,171.3,155.2,171.3,155.2,171.3c-0.3-0.4-0.8-0.6-1.3-0.6h-0.1c-1.3,0.1-2.6,0.1-3.9,0.1
		c-3.8,0-7.3-0.2-10.5-0.6c-12.7-1.5-20.4-5.4-23.5-7.3c-0.3-0.2-0.6-0.2-0.9-0.2c-0.1,0-0.3,0-0.4,0.1c-0.1,0-0.1,0-0.2,0.1
		c0,0,0,0,0,0c-0.5,0.2-0.8,0.6-1,1.1c-0.7,2.3-1.5,4.7-2.4,6.9c-0.3,0.7-0.5,1.4-0.8,2.1c-0.6,1.5-1.2,3.1-1.8,5
		c-0.2,0.5-0.1,1,0.2,1.4c0,0.1,0.1,0.1,0.2,0.2c0.1,0.1,0.2,0.2,0.3,0.3c1.7,1.1,9.4,5.7,22.9,7.7c3.7,0.5,8,0.9,12.6,0.9
		c0,0,0,0,0,0c1.5,0,3,0,4.4-0.1c0.3,0,0.6-0.1,0.8-0.3c0.4-0.2,0.6-0.6,0.7-1c0.6-2.1,1.9-4.2,4.1-6.1c0.4-0.3,0.6-0.8,0.6-1.2
		c0-2.3,0.2-4.7,0.5-7.1C155.7,172.1,155.5,171.6,155.2,171.3z"/>
	<path class="st9" d="M153.7,197.9c-2.4-1.7-3.5-4.7-3.4-8.8c0-0.4-0.1-0.8-0.4-1.1c0,0,0-0.1-0.1-0.1c-0.3-0.3-0.7-0.5-1.2-0.5
		h-0.1c-1.3,0.1-2.7,0.1-4,0.1c-4.5,0-8.5-0.3-12.2-0.8c-12.6-1.7-19.9-5.8-22.3-7.3c-0.3-0.2-0.6-0.3-0.9-0.3c-0.1,0-0.2,0-0.3,0
		c-0.1,0-0.2,0-0.2,0.1l0,0c-0.5,0.2-0.9,0.6-1,1c-1.5,4.6-2.8,9.4-3.8,14.1c-0.8,3.7-1.5,7.3-2,10.9h0c-0.7,4.9-1.1,9.7-1.1,14.1
		v0.1c0,0.2,0,0.3,0,0.5c0,3.1,0.1,6,0.4,8.8c0.4,4.1,1.2,8,2.2,11.5c0.2,0.7,0.9,1.2,1.6,1.2c0.1,0,0.1,0,0.2,0
		c8.1-0.7,14.1-7.4,14.1-15.5c0-0.3,0-0.6,0-0.9c0.9,0.2,1.8,0.3,2.8,0.3c0.1,0,0.2,0,0.3,0c8.5-0.2,15.3-7.1,15.3-15.6
		c0-0.4,0-0.7,0-1c0.9,0.2,1.8,0.2,2.6,0.2c6.1,0,11.5-3.4,14.1-8.9C154.6,199.3,154.4,198.4,153.7,197.9z"/>
	<path class="st10" d="M198,259.4c-0.6,0.2-1.2,0.5-1.8,0.7c-0.6,0.2-1.2,0.5-1.8,0.7c-0.1,0-0.2,0.1-0.3,0.1
		c-19.6,6.8-37.4,7.1-48.1,6.3c0.8-2.7,0.6-5.5-0.5-8.1c-1.3-2.9-3.6-5.1-6.5-6.3c-6.1-2.4-13,0.6-15.4,6.7
		c-0.2,0.5-0.5,1.2-0.8,1.9c-8-3.6-13.7-9.9-17-19c8.1-1,14.3-7.9,14.3-16.2c0.6,0.1,1.3,0.1,1.9,0.1c0.1,0,0.3,0,0.4,0
		C125.5,248.8,151,265.5,198,259.4z"/>
	<path class="st11" d="M122.6,214.6c-0.5,3.1-0.7,6.1-0.5,9.1h-0.2c-1,0-2-0.1-3-0.3l-1.7-0.4l0.2,1.7c0.1,0.4,0.1,0.9,0.1,1.3
		c0,7.3-5.5,13.2-12.6,13.9c-1.7-5.7-2.6-12.4-2.6-19.9c0.1-12,2.6-26.2,6.9-39.2c2.5,1.6,9.9,5.7,22.5,7.5
		C127.5,197.8,123.9,206.8,122.6,214.6z"/>
	<path class="st12" d="M149.1,133c0.2,11-4.1,23.7-9.4,36.4c-13.8-1.6-21.8-6.1-24-7.5c0.5-1.6,0.9-3.2,1.3-4.7
		c3.3-13.2,2.9-21.7,2.7-23.7c1.4-0.3,3-0.7,4.6-1.2c9.7-3.1,15.1-7,16-11.6C142.7,121.1,149,123.3,149.1,133z"/>
	<path class="st13" d="M138.7,171.8c-2,4.7-4.1,9.4-6.1,14.1c-13.6-1.9-21.1-6.5-22.7-7.5c0.6-1.7,1.2-3.3,1.8-4.9
		c1.2-3,2.3-6.1,3.2-9.1C118,166.2,125.9,170.2,138.7,171.8z"/>
	<path class="st4" d="M171.6,103.3c-0.1,2.2-0.4,4.6-1,7.5c-0.5,2.6-1.1,4.9-1.9,7.2c-0.6,1.9-2.3,3.1-4.3,3.1
		c-0.5,0-0.9-0.1-1.4-0.2c-1.1-0.4-2.1-1.1-2.6-2.2c-0.6-1.1-0.7-2.3-0.3-3.4c0-0.1,0.1-0.3,0.1-0.4c0,0,0-0.1,0-0.1
		c1.9-4.5,3.2-8.6,3.7-12.3c0.3-2.2,0.3-4-0.1-5.2c-0.2-0.6-0.5-0.9-0.6-1c-0.2-0.1-0.6-0.3-1.3-0.3c-0.1,0-0.2,0-0.3,0
		c-1.4,0-2.9,0.8-4.1,2.1c-1.2,1.3-2.3,2.9-3.3,5.2c-1.6,3.7-2.8,8-3.6,12.9c-0.1,0.8-0.8,1.4-1.6,1.4c-0.1,0-0.1,0-0.2,0
		c-0.9-0.1-1.5-0.8-1.5-1.7c0.1-2.3,0.3-4.7,0.7-7.2c0.4-2.6,1-4.9,1.7-7.1c1-3,2.1-5.1,3.5-7c1-1.3,2-2.3,3.2-3
		c1.3-0.9,2.9-1.5,4.4-1.7c0.6-0.1,1.1-0.1,1.7-0.1c1.3,0,2.5,0.3,3.6,0.8c1.7,0.8,3.1,2.3,3.9,4.2c0.7,1.7,1,3.2,1.1,4.4
		C171.7,100.4,171.7,101.7,171.6,103.3z"/>
	<path class="st7" d="M139.8,169.4c-0.1,0.3-0.2,0.6-0.4,0.8c-0.1,0.3-0.2,0.5-0.3,0.8c-0.1,0.3-0.2,0.6-0.3,0.8"/>
	<path class="st7" d="M122.1,223.7c0,0.6,0.1,1.1,0.2,1.7c0,0.3,0.1,0.6,0.1,0.8"/>
	<path class="st7" d="M198,259.4L198,259.4c1.5-0.2,3-0.4,4.5-0.6"/>
	<path class="st7" d="M131.6,188.3c0.1-0.3,0.2-0.5,0.4-0.8c0.1-0.3,0.2-0.5,0.3-0.8c0.1-0.3,0.2-0.5,0.4-0.8"/>
	<path class="st7" d="M140.4,120.6c-0.5-0.1-0.8-0.1-0.8-0.1"/>
	<path class="st14" d="M115,156.1c-2.3-1-8.2-3.9-14.7-10.4c-0.3-0.3-0.7-0.5-1.2-0.5h0c-0.5,0-0.9,0.2-1.2,0.5
		c-1.4,1.4-3.5,4.5-2.2,8.8c0.9,3.3,3,6.3,4.6,8.2c0,0-0.1,0-0.1,0c-3.4,1.2-7.3,3.8-7.6,8.7c-0.1,2.6,0.6,4.7,2,6.2
		c0.8,0.9,1.8,1.5,2.7,1.9c-1.4,2-2.8,5.3-1.3,8.9c1.4,3.6,4.5,5.5,6.8,6c0.1,0,0.2,0,0.4,0c0.8,0,1.5-0.5,1.6-1.3
		c1.6-7,3.7-13.8,6.2-20c0.3-0.6,0.5-1.3,0.7-1.9c1.7-4.4,3.1-8.8,4.2-13.2C116.2,157.2,115.8,156.4,115,156.1z"/>
	<path class="st14" d="M102.4,206.8c-0.5,3.9-0.8,7.7-0.9,11.3c0,0.6-0.3,1.1-0.8,1.4c0,0,0,0-0.1,0s0,0-0.1,0
		c-0.2,0.1-0.5,0.2-0.8,0.2c-0.3,0-0.5-0.1-0.8-0.2c-0.5-0.3-1.1-0.6-1.8-1c-3.8-2.1-10-6.2-15.8-12.6c-0.1-0.1-0.2-0.2-0.2-0.3
		c-2.2-2.5-4.4-5.3-6.4-8.4c-3.1-4.9-5.6-10.7-7-17.5c0,0,0-0.1,0-0.1c0-0.2-0.1-0.3-0.1-0.5c-1.5-7.5-1.8-14.3-1.3-20.2
		c0.5-6.5,1.8-11.9,3.3-16.2c0-0.1,0.1-0.3,0.1-0.4c2.2-6.3,4.7-9.9,5-10.3h0c0-0.1,0.1-0.1,0.2-0.2c0.9-1.1,3.9-4.5,7.8-4.5H83
		c1.4,0.1,2.7,0.5,3.9,1.5c1.2,0.9,2.4,2.3,3.5,4c1.1,1.9,2.3,3.6,3.5,5.3c0.3,0.4,0.4,0.9,0.3,1.4c-0.1,0.5-0.4,0.9-0.9,1.1
		c-1.8,0.9-6,3.6-6,8.6c0,0.7,0.1,1.3,0.2,1.9c0.8,5.1,4.8,7.3,5,7.4c0.6,0.3,1,1,0.8,1.7c-0.1,0.7-0.6,1.2-1.3,1.4
		c-0.3,0.1-8.3,1.8-8.3,10c0,8,7.7,9.2,8,9.3c0.8,0.1,1.3,0.7,1.4,1.5c0.1,0.7-0.3,1.5-1,1.7c-0.6,0.2-5.5,2.5-3,9.1
		c1.7,4.4,8.4,11.1,11.8,11.6c0.3,0.1,0.5,0.2,0.8,0.3C102.2,205.6,102.5,206.2,102.4,206.8z"/>
	<path class="st3" d="M116,158c-1.1,4.4-2.5,8.8-4.2,13.2c-3.7-2.4-7.6-5.3-11.6-8.5c0,0,0.1,0,0.1,0c-1.6-1.9-3.7-4.9-4.6-8.2
		c-1.2-4.3,0.9-7.4,2.2-8.8c0.3-0.3,0.7-0.5,1.2-0.5h0c0.4,0,0.9,0.2,1.2,0.5c6.5,6.5,12.5,9.4,14.7,10.4
		C115.8,156.4,116.2,157.2,116,158z"/>
	<path class="st3" d="M94.2,139.6c-0.1,0.5-0.4,0.9-0.9,1.1c-1.8,0.9-6,3.6-6,8.6c0,0.7,0.1,1.3,0.2,1.9c-0.4-0.4-0.8-0.8-1.2-1.2
		c-4.4-4.6-8-10.5-11-17.2c0.1-0.1,0.1-0.1,0.1-0.2c0.1-0.2,3.3-4.4,7.3-4.4c0.1,0,0.2,0,0.2,0c0.8,0,1.6,0.2,2.4,0.7
		c0.2,0.1,0.5,0.2,0.8,0.2c0.3,0,0.6-0.1,0.8-0.2c1.2,0.9,2.4,2.3,3.5,4c1.1,1.9,2.3,3.6,3.5,5.3C94.2,138.6,94.3,139.1,94.2,139.6z
		"/>
	<path class="st7" d="M76.6,166.2c-3.4-1.6-6.5-3.8-9.5-6.5"/>
	<path class="st15" d="M144.2,267.9c12,1.1,39.5,1.3,67.4-13.8c13.3-7.2,23.6-16.6,31.2-27.3"/>
	<path class="st15" d="M118.7,133.5c0,0,1,8.8-2.6,23.6c-1.2,4.8-2.8,10.1-5.2,16.1c-4.9,12.3-9.5,30.1-9.5,46.8
		c0,7.4,0.8,14.7,2.9,21.1c3.2,9.7,9.2,17.6,19.3,21.7"/>
	<path class="st15" d="M254.8,204.5c-1.7,4.4-3.7,8.7-6,12.8"/>
	<path class="st4" d="M164.4,121.5c-0.5,0-0.9-0.1-1.3-0.2c-1.1-0.4-2.1-1.1-2.6-2.2c-0.6-1.1-0.7-2.3-0.3-3.4
		c0-0.1,0.1-0.3,0.1-0.4c0,0,0-0.1,0-0.1c1.9-4.5,3.1-8.6,3.7-12.2c0.3-2.2,0.3-4-0.1-5.2c-0.2-0.6-0.5-0.8-0.6-0.9
		c-0.2-0.1-0.6-0.3-1.3-0.3c-0.1,0-0.2,0-0.2,0c-1.4,0-2.9,0.8-4.1,2.1c-1.2,1.2-2.2,2.9-3.3,5.2c-1.6,3.7-2.8,8-3.5,12.8
		c-0.1,0.8-0.8,1.4-1.6,1.4c-0.1,0-0.1,0-0.2,0c-0.9-0.1-1.5-0.8-1.5-1.7c0.1-2.3,0.3-4.7,0.7-7.1c0.4-2.6,1-4.9,1.7-7.1
		c1-2.9,2.1-5.1,3.5-6.9c1-1.3,2-2.3,3.2-3c1.3-0.9,2.8-1.5,4.4-1.7c0.6-0.1,1.1-0.1,1.7-0.1c1.3,0,2.5,0.3,3.5,0.8
		c1.7,0.8,3.1,2.3,3.9,4.1c0.7,1.6,1,3.2,1.1,4.4c0.1,1.2,0.2,2.5,0.1,4c-0.1,2.2-0.4,4.6-1,7.5c-0.5,2.6-1.1,4.9-1.8,7.2
		C168.1,120.3,166.4,121.5,164.4,121.5z"/>
	<path class="st16" d="M114.6,162.7c0,0,13.2,9.8,40,8.6"/>
	<path class="st16" d="M109.2,179.3c0,0,13.2,9.8,40,8.6"/>
	<path class="st16" d="M104.2,241c8.2-0.2,14.7-6.9,14.7-15.1c0-0.5,0-1-0.1-1.4c1,0.2,2.1,0.4,3.2,0.4c8.3,0,15.1-6.8,15.1-15.1
		c0-0.5,0-1-0.1-1.5c1,0.2,2,0.3,3.1,0.3c6.4,0,11.9-4,14.1-9.6"/>
	<path class="st17" d="M252.5,178.7c1.3-4.1,2.1-8,2.5-11.6c1.2-10.9-1-18.5-1-18.5s-7.4,4.9-13.9,15v0c-1.5,2.4-3,5.1-4.3,8.1"/>
	<path class="st17" d="M255,167.1c3.5-3.5,6.4-5.1,6.4-5.1s3.7,10.4-0.1,23.1"/>
	<path class="st17" d="M240.2,163.6L240.2,163.6c-0.2-5.9-1.6-9.8-1.6-9.8s-8.6,4.9-14.1,15.7"/>
	<path class="st18" d="M117.7,121.6c0,0-3.3,4.6-3.1,6.2s1.8,1.8,16.9-4.4"/>
	<path class="st18" d="M126.3,112.8c-1.8-0.8-3.1-2.1-2.7-2.9c0.4-0.8,2.1-0.9,4-0.1"/>
	<g>
		<path class="st16" d="M136.1,281.4c8.1-11.1,6.7-9.7,8.2-13.5c0.1-0.3,0.2-0.5,0.3-0.6c2.1-5.4-0.6-11.6-6-13.7
			c-5.4-2.1-11.6,0.6-13.7,6c-0.3,0.8-0.7,1.9-1.3,3.1c-1.2,2.9-3,6.8-5,10.8"/>
	</g>
	<path class="st17" d="M133.8,122.9c0,0-27-4.2-33.6-7.2c-6.7-2.9-6.2-4.6-5.2-6c1.5-2.1,6.2-7.1,22.1-7.5
		c12.2-0.3,21.6,11.8,22.3,16.3c0.8,5.7-5.9,9.9-15.1,12.8c-9.3,2.9-14.8,2-16.4,0.8c-0.7-0.5-4.6-2.4,2.6-13.2"/>
	<rect y="149.4" class="st19" width="38.2" height="55.8"/>
</g>
<g id="z-index2_x2F_cirkel" class="st20">
	<path class="st21" d="M286.3,152c7.9-5.7,12.3-15.6,10.5-25.9c-1.2-6.9-5.1-12.9-10.8-17c-2.4-1.7-5.1-3-7.9-3.8
		c1.6-2.4,2.9-5.1,3.6-8c1.8-6.8,0.9-13.9-2.6-20c-3.5-6.1-9.2-10.4-16-12.3c-2.9-0.8-5.8-1-8.7-0.8c0.7-2.8,0.9-5.7,0.7-8.7
		c-0.6-7-3.9-13.3-9.3-17.8c-8-6.7-18.8-7.8-27.7-3.8c-1-9.7-7.4-18.5-17.2-22c-9.8-3.6-20.3-0.9-27.3,5.9
		C169.4,9,160.4,2.9,150,2.9c-10.4,0-19.4,6.1-23.7,14.8c-7-6.8-17.5-9.4-27.3-5.9c-6.6,2.4-11.9,7.2-14.8,13.6
		c-1.3,2.7-2,5.6-2.3,8.4c-8.9-4-19.7-2.8-27.7,3.8c-5.4,4.5-8.7,10.9-9.3,17.8c-0.3,3,0,5.9,0.7,8.7c-2.9-0.2-5.8,0.1-8.7,0.8
		c-6.8,1.8-12.5,6.2-16,12.3c-3.5,6.1-4.4,13.2-2.6,20c0.8,2.9,2,5.6,3.6,8c-2.8,0.8-5.5,2.1-7.9,3.8c-5.8,4-9.6,10.1-10.8,17
		c-1.8,10.2,2.6,20.2,10.5,25.9c-2.4,1.7-4.4,3.8-6.1,6.2C3.5,164,2,171,3.2,177.9c1.8,10.2,9.3,18,18.7,20.7
		c-1.6,2.4-2.9,5.1-3.6,8c-1.8,6.8-0.9,13.9,2.6,20c4.9,8.4,13.7,13.1,22.8,13.1c0.6,0,1.2,0,1.9-0.1c-2.4,9.5,0.6,19.9,8.6,26.6
		c4.9,4.1,10.9,6.1,16.9,6.1c3.7,0,7.4-0.8,10.8-2.3c1,9.7,7.4,18.5,17.2,22c2.9,1.1,6,1.6,9,1.6c3.8,0,7.6-0.8,11.1-2.5
		c2.7-1.3,5.1-2.9,7.2-5c4.3,8.8,13.3,14.8,23.7,14.8c10.4,0,19.4-6.1,23.7-14.8c2.1,2,4.5,3.7,7.2,5c3.5,1.6,7.3,2.5,11.1,2.5
		c3,0,6.1-0.5,9-1.6c9.8-3.6,16.2-12.3,17.2-22c3.4,1.5,7.1,2.3,10.8,2.3c6,0,12-2,16.9-6.1c8-6.7,11-17.1,8.6-26.6
		c0.6,0,1.3,0.1,1.9,0.1c9.1,0,18-4.7,22.8-13.1c5.2-9,4.4-19.8-1-27.9c9.4-2.7,16.9-10.5,18.7-20.7
		C298.6,167.6,294.2,157.7,286.3,152z M150,256.2c-57.5,0-104.2-46.7-104.2-104.2S92.5,47.8,150,47.8S254.2,94.5,254.2,152
		S207.5,256.2,150,256.2z"/>
</g>
<g id="Layer_6" class="st20">
</g>
<g id="z-index3_x2F_banner" class="st20">
	<rect x="119.8" class="st21" width="60.5" height="30.4"/>
	<rect y="119.6" class="st21" width="30.2" height="30.4"/>
	<rect x="273" y="119.6" class="st21" width="27" height="30.4"/>
	<path class="st25" d="M0,120.8V10h108.7l-30,18.5C59.3,40.4,42.9,57,31.2,76.6c-0.5,0.9-1.1,1.8-1.6,2.6c-0.5,0.8-1,1.7-1.4,2.5
		l-0.1,0.2c-0.3,0.5-0.6,1-0.8,1.5l0,0l-0.6,1.1c-0.4,0.8-0.9,1.7-1.3,2.5L24.9,88c-0.2,0.5-0.5,1-0.7,1.5c-0.4,0.7-0.7,1.5-1,2.3
		c-0.4,0.8-0.7,1.5-1,2.3c0,0-0.4,0.8-0.5,1.2l-0.3,0.8l0,0.1l-0.3,0.7c-0.1,0.4-0.3,0.7-0.4,1.1l-0.4,0.9c-0.5,1.3-1.1,2.8-1.7,4.5
		c-0.6,1.6-1.1,3.3-1.7,5.1l-0.6,2.2l-0.1,0.5c-0.2,0.7-0.4,1.5-0.6,2.2l-2,7.4H0z"/>
	<path class="st27" d="M126.3,0c-9.1,1.6-18,4-26.5,7.1c-9.3,3.4-18.1,7.8-26.4,12.9H0V0H126.3z"/>
	<polygon class="st27" points="22.5,130.8 0,130.8 0,110.8 5.9,110.8 8.5,113.9 	"/>
	<path class="st32" d="M126.3,0v21.1c-0.2,0-0.3,0.1-0.5,0.1C80.9,30.3,44.4,62.4,29,104.6c-1.1,3.1-2.1,6.2-3,9.4
		c-1.4,5-2.6,10.2-3.3,15.5c0,0,0,0,0,0c-0.1,0.3-0.1,0.5-0.2,0.8L8.5,113.9l-2.7-3.2c0.2-0.8,0.4-1.6,0.7-2.3c0-0.1,0-0.1,0-0.2
		l0.2-0.7c0.2-0.7,0.4-1.3,0.6-2c0.6-1.8,1.2-3.6,1.8-5.4c0.6-1.6,1.2-3.3,1.8-4.9c0.3-0.7,0.6-1.5,0.9-2.2c0,0,0-0.1,0-0.1l0.1-0.4
		c0.2-0.4,0.3-0.8,0.5-1.2c0.2-0.4,0.3-0.8,0.5-1.2c0.4-0.8,0.7-1.7,1.1-2.5c0.4-0.8,0.8-1.6,1.1-2.5c0.4-0.9,0.8-1.7,1.2-2.5
		c0.5-1,0.9-1.9,1.4-2.8c0,0,0-0.1,0.1-0.1c0.5-0.9,1-1.9,1.5-2.8c0.5-1,1-1.9,1.6-2.8c0.5-0.9,1.1-1.8,1.6-2.8
		c12.6-20.9,30-38.6,50.8-51.4c8.3-5.1,17.2-9.5,26.4-12.9C108.3,4,117.2,1.6,126.3,0z"/>
	<path class="st25" d="M286.4,120.8l-2-7.4c-0.2-0.7-0.4-1.5-0.6-2.2l-0.2-0.8l-0.6-1.9c-0.5-1.7-1.1-3.4-1.6-5
		c-0.6-1.7-1.1-3.2-1.7-4.5l-0.4-0.9c-0.1-0.4-0.3-0.7-0.4-1.1l-0.6-1.6c-0.2-0.4-0.5-1.2-0.5-1.2c-0.3-0.8-0.6-1.5-1-2.2
		c-0.4-0.8-0.7-1.6-1.1-2.3c-0.2-0.5-1.1-2.4-1.1-2.4c-0.4-0.9-0.9-1.7-1.3-2.5l-0.5-1l0,0c-0.3-0.6-0.6-1.1-0.9-1.6l-0.1-0.2
		c-0.5-0.9-0.9-1.7-1.4-2.5c-0.5-0.9-1-1.8-1.6-2.7c-11.7-19.5-28.1-36.2-47.5-48.1L191.3,10H300v110.8H286.4z"/>
	<path class="st32" d="M173.7,0c9.1,1.6,18,4,26.5,7.1c9.3,3.4,18.1,7.8,26.4,12.9H300V0L173.7,0z"/>
	<polygon class="st28" points="277.5,130.8 300,130.8 300,110.8 294.1,110.8 291.5,113.9 	"/>
	<path class="st27" d="M173.7,0v21.1c0.2,0,0.3,0.1,0.5,0.1c44.9,9.1,81.4,41.1,96.7,83.4c1.1,3.1,2.1,6.2,3,9.4
		c1.4,5,2.6,10.2,3.3,15.5c0,0,0,0,0,0c0.1,0.3,0.1,0.5,0.2,0.8l13.9-16.4l2.7-3.2c-0.2-0.8-0.4-1.6-0.7-2.3c0-0.1,0-0.1,0-0.2
		l-0.2-0.7c-0.2-0.7-0.4-1.3-0.6-2c-0.6-1.8-1.2-3.6-1.8-5.4c-0.6-1.6-1.2-3.3-1.8-4.9c-0.3-0.7-0.6-1.5-0.9-2.2c0,0,0-0.1,0-0.1
		l-0.1-0.4c-0.2-0.4-0.3-0.8-0.5-1.2c-0.2-0.4-0.3-0.8-0.5-1.2c-0.4-0.8-0.7-1.7-1.1-2.5c-0.4-0.8-0.8-1.6-1.1-2.5
		c-0.4-0.9-0.8-1.7-1.2-2.5c-0.5-1-0.9-1.9-1.4-2.8c0,0,0-0.1-0.1-0.1c-0.5-0.9-1-1.9-1.5-2.8c-0.5-1-1-1.9-1.6-2.8
		c-0.5-0.9-1.1-1.8-1.6-2.8c-12.6-20.9-30-38.6-50.8-51.4c-8.3-5.1-17.2-9.5-26.4-12.9C191.7,4,182.8,1.6,173.7,0z"/>
</g>
<g id="z-index4_x2F_wings_x2B_crown" class="st20">
	<g class="st23">
		<path class="st5" d="M70,144.4c0.1-0.5,0.1-0.9-0.2-1.4c-0.3-0.5-0.9-1.6-1.8-3.2c-0.1-0.1-0.2-0.2-0.2-0.3c0-0.1-0.1-0.2-0.1-0.2
			c-1.2-1.6-2.3-3.4-3.7-5.4c-4.1-6.3-8.7-13.4-13.7-13.4c-2.6,0-4.7,1-6.2,2.7c-2.5,2.5-3.7,6.5-4.1,10c-0.3,2.7-0.5,12.7,7.2,26.8
			c5.2,9.6,13,15.8,18.6,19.4c0.3,0.2,0.6,0.3,0.9,0.3c0.3,0,0.7-0.1,0.9-0.3c0.6-0.4,0.8-1,0.7-1.7c-1.2-6.7-1.5-12.7-1.1-18
			C67.6,153.4,68.8,148.3,70,144.4z"/>
		<path class="st5" d="M101.5,220.8c0-0.6-0.3-1.1-0.7-1.4c0,0-0.1,0-0.1-0.1c0,0-0.1-0.1-0.1-0.1c-0.5-0.3-1.4-0.7-2.5-1.3
			c-3.5-2-9.5-5.8-15.2-11.8c-0.3-0.3-0.8-0.5-1.2-0.5c0,0-0.1,0-0.1,0c-0.1,0-0.2,0-0.3,0c-0.2,0-0.3,0.1-0.4,0.2
			c0,0-0.1,0.1-0.2,0.1c-0.1,0.1-0.2,0.2-0.4,0.3c-0.1,0.1-0.3,0.1-0.6,0.2c-0.1,0-0.2,0.1-0.2,0.1c-1,0.5-2,1-2.8,1.5h0
			c-2.5,1.3-4.3,2.2-5.1,2.5c0,0-2.1,0.8-4.4,2.3c-0.4,0.3-0.9,0.6-1.3,0.9c-2.2,1.7-4.3,4-4.3,6.9c0,2.3,2.7,6.3,7.6,9.2
			c2.9,1.7,7.6,3.8,14.1,3.8c5.6,0,11.6-1.6,17.6-4.7c0.1,0,0.1-0.1,0.2-0.1c0.5-0.3,0.8-0.9,0.7-1.5
			C101.6,225.2,101.5,223,101.5,220.8z"/>
		<path class="st5" d="M81.5,205.7C81.5,205.7,81.5,205.7,81.5,205.7c0,0.1,0,0.2-0.1,0.3c-0.1,0.4-0.4,0.7-0.8,0.9l-0.6,0.4
			c-0.1,0.1-0.2,0.1-0.3,0.1c-0.7,0.3-1.8,0.5-3.1,0.7h0c-1.2,0.2-2.7,0.3-4.6,0.3c-2.8,0-5.8-0.3-9-0.9
			c-13-2.4-18.2-11.5-18.7-18.5c-0.1-1.5,0-2.9,0.3-4.1c0.3-1.2,0.9-2.3,1.7-3.1c2.8-3,7.4-3,8.9-3c1.7,0,6.7,0.4,10.6,0.7h0
			c0,0,0,0,0.1,0l1,0.1c0.1,0,0.1,0,0.2,0h0c0.2,0,0.4,0.1,0.6,0.2c0.1,0,0.2,0.1,0.3,0.2l0.1,0.1c0.4,0.2,0.6,0.6,0.7,1
			c1.4,5.8,3.6,11.2,6.8,16.2c1.6,2.5,3.3,4.9,5.3,7.2C81.4,204.7,81.6,205.2,81.5,205.7z"/>
		<path class="st5" d="M87.7,126.8c-3.5-8.5-8.1-21.3-9.9-33.9c-0.8-5.9-3-9.8-6.3-11.8c-1.5-0.9-3.3-1.3-5.3-1.3
			c-1.2,0-2.3,0.2-3.1,0.4c-0.6,0.2-1.1,0.3-1.2,0.4c0,0-0.1,0-0.1,0c-1,0.4-10,4.7-7.3,23.7c1.5,11,6,22.1,9.8,29.9c0,0,0,0,0,0
			c1,2.2,2,4.1,2.9,5.7c0,0.1,0.1,0.2,0.2,0.2c0,0.1,0.1,0.2,0.1,0.2l0.3,0.6c0.1,0.3,0.3,0.5,0.4,0.7c0.3,0.5,0.8,0.8,1.4,0.9
			c0,0,0,0,0,0c0,0,0.1,0,0.1,0c0.1,0,0.1,0,0.2,0c0.6-0.1,1-0.5,1.2-1c1.9-4.9,3.8-7.8,4.3-8.6c0.1-0.1,0.1-0.1,0.1-0.2
			c0.1-0.2,3.3-4.4,7.3-4.4c0.1,0,0.2,0,0.2,0c0.8,0,1.6,0.2,2.4,0.7c0.2,0.1,0.5,0.2,0.8,0.2c0.3,0,0.6-0.1,0.8-0.2
			c0.1-0.1,0.2-0.1,0.3-0.2C87.8,128.2,87.9,127.4,87.7,126.8z"/>
		<path class="st38" d="M75.8,130.5c-3-2.8-3.7-6.7-4.9-10.3c-3.6-11.1-4.7-22.6-5.9-34.1c-0.2-1.5-0.4-3-0.6-4.5
			c6.7-0.4,9.4,1.5,11.4,8.6c1.8,6.4,3.3,12.8,4.8,19.2c1.2,5.1,3.1,10,5,14.9c0.3,0.9,1.5,1.9,0.2,2.9
			C81.6,125.7,78.6,127.8,75.8,130.5z"/>
		<path class="st38" d="M47.6,126.8c3.7-3.5,6.6-3.5,10-0.1c3,3,5.1,6.6,7.3,10.1c1.4,2.2,2.7,4.5,5,6c-0.4,5.8-3.3,11.3-2.5,17.3
			c-0.9,1,0.6,3-1.3,3.5c-1.1,0.3-2-0.8-2.7-1.7c-6.6-7.5-12.6-15.5-15.3-25.4C47.3,133.3,45.9,130.1,47.6,126.8z"/>
		<path class="st38" d="M47.9,184.2c1-3.8,4.1-4.6,7.3-4.9c4.3-0.4,8.4,1.2,12.7,1.7c2.3,4.9,4.5,9.9,6.8,14.8
			c0.1,1.8-1.3,1.5-2.3,1.5c-8.3-0.2-15.5-3.3-22-8.2C48.8,188,47.7,186.4,47.9,184.2z"/>
		<path class="st38" d="M92.2,216c-4.3,4.3-10,5.1-15.6,5.5c-3.2,0.2-6.6-0.3-9.8-0.7c-2-0.3-4.2-0.5-4.5-3.3
			c1.4-2.4,3.8-3.6,6.2-4.7c4.4-2.1,8.7-4.1,13.1-6.2C85.1,209.7,88.2,213.4,92.2,216z"/>
	</g>
	<g class="st23">
		<path class="st16" d="M116.2,157.1c0,0-14.4-4.6-25.8-23.6c-7.1-11.5-14.9-0.7-14.9-0.7s-12.9,17.8-6.8,47.1
			c6.1,29.3,32.9,40.2,32.9,40.2"/>
		<path class="st16" d="M90.1,133.1C90.1,133.1,90.1,133.1,90.1,133.1c-2.7-5.9-10.1-23-12.4-39.6c-2.4-17.1-15.4-11.9-15.4-11.9
			s-9.8,3.7-7.1,23.2c1.9,14.1,8.9,28.5,12.7,35.5c0,0,0,0,0,0c0,0,0,0,0,0c1.1,2,1.8,3.3,2.2,3.9"/>
		<path class="st16" d="M68,140.2C68,140.2,68,140.2,68,140.2C68,140.2,68,140.2,68,140.2c-5-6.6-10.9-18.9-17.2-18.9
			c-7.8,0-9.6,9.7-9.9,12.3c-0.3,2.6-0.5,12.4,7.1,26.4c6,11,15.4,17.6,20.8,20.6"/>
		<path class="st15" d="M80.9,206.6c0,0-5.1,2.7-17.3,0.5c-11.9-2.2-17.7-10.5-18.3-18c-0.7-9.5,7.8-9.8,10.5-9.8
			c1.8,0,7.2,0.4,10.6,0.7c0.4,0,0.8,0.1,1.1,0.1"/>
		<path class="st16" d="M82,205.9c0,0-7.7,4.2-9.9,5c-2.2,0.8-9.6,4.4-9.6,9.7c0,5.2,15.4,20.1,38.9,7.7l0-8.3"/>
		<path class="st4" d="M104.5,193c-2,0-5.3-1.4-6.7-5c-2-5,2.8-9.3,2.8-9.3s-6.3-0.2-6-7c0.3-6.8,9.1-7.8,9.1-7.8s-4.7-4.4-6.2-9.6
			c-1.5-5.2,2.9-8.1,2.9-8.1l-6.8-7c0,0-7.6,2.9-7.6,10.4c0,7.5,6,10.7,6,10.7s-9.6,2-9.6,11.5s9.4,10.9,9.4,10.9s-7,2.8-3.9,11.2
			c2,5.2,9.8,12.7,13.7,12.7L104.5,193z"/>
	</g>
	<g class="st23">
		<g>
			<g>
				<path class="st5" d="M258.4,205.2c-2.3,0-5-0.4-7.9-1.3c-6.5-1.9-12.7-4.2-15.8-5.4c-0.5-0.2-0.8-0.6-1-1
					c-0.2-0.5-0.1-1,0.2-1.4c1.6-2.6,2.7-5,3.3-7.1c1.3-4.5,0.7-8-1.7-10.8c-1.7-2-3.9-3.8-6.5-5.4c-0.7-0.4-1-1.3-0.7-2
					c0.2-0.7,0.9-1.1,1.6-1.1c0.1,0,0.2,0,0.3,0c5.6,1,13.9,3.2,21.1,7.3c13.1,7.5,19.6,15.3,18,21.2c-0.6,2.4-2.1,4.2-4.2,5.4
					C263.2,204.7,261,205.2,258.4,205.2z"/>
				<path class="st5" d="M169.7,254.6c-3.8,0-6.9-1.4-9-4c-5.2-6.5-3.9-18.8-3-23.8c0.1-0.5,0.4-1,0.9-1.2c0.2-0.1,0.5-0.2,0.8-0.2
					c0.2,0,0.5,0.1,0.7,0.2c4.3,2,9.5,3,15.6,3c2.3,0,4.8-0.2,7.3-0.4c0.1,0,0.1,0,0.2,0c0.4,0,0.8,0.1,1.1,0.4
					c0.4,0.3,0.6,0.7,0.6,1.2c0.3,4.2,0.3,14.7-5,20.7C177.4,253.2,174,254.6,169.7,254.6z"/>
				<path class="st5" d="M208.7,248.3c-5.9,0-14.9-2.6-24.3-14.9c-0.2-0.3-0.3-0.6-0.3-1c0-1.5-0.1-2.4-0.1-2.8
					c-0.1-0.9,0.5-1.7,1.4-1.8c6.5-1,12.4-2.7,16.2-3.9c1.8-0.6,3.9-1.6,6.3-3c0.3-0.2,0.5-0.2,0.8-0.2c0.2,0,0.4,0,0.6,0.1
					c2.1,0.8,4.1,1.7,5.7,2.7l0.3,0.2c3.7,2.3,6.1,4.9,7.2,7.8c3.3,9.5-3.1,13.8-6.1,15.2C215.5,247.2,212.7,248.3,208.7,248.3z"/>
				<path class="st5" d="M237.7,228.4c-3.7,0-8.1-1-13-2.1c-3.4-0.8-6.4-1.5-9.5-2c-0.2,0-0.4-0.1-0.6-0.2l-0.1-0.1
					c-1-0.6-2.3-1.2-3.7-1.8c-0.6-0.2-1-0.8-1-1.4c-0.1-0.6,0.2-1.2,0.8-1.5c8.3-5.4,16.6-13.3,21.7-20.6c0.3-0.5,0.8-0.7,1.4-0.7
					c0.2,0,0.5,0.1,0.7,0.2c9.6,4.7,18.4,13.3,14.4,23.2C246.7,226.2,243.2,228.4,237.7,228.4z"/>
				<path class="st38" d="M235,187c-0.4-5.4,1.1-11.3-5.1-15c7.9-1.7,26.2,9.2,31.6,18.4c1,3.2-0.6,4.6-3.5,5.1
					c-2.2,0.4-4.4-0.2-6.5-0.9c-4.6-1.5-9.1-3.2-13.5-5.1C236.7,189.1,235.3,188.6,235,187z"/>
				<path class="st38" d="M215.6,216.5c5.7-4.6,11.3-9.4,15.9-15.2c0.9-1.1,1.8-1.4,3.2-1.1c7,1.4,13.5,10.4,12.6,17.5
					c-0.3,1.9-1.3,3.3-2.7,4.5c-2.7,1.8-5.5,1.5-8.3,0.6c-6-1.9-12-4-18.4-4.5C216.8,218.2,215.5,218.1,215.6,216.5z"/>
				<path class="st38" d="M192.1,228c4.9-1.4,9.8-2.9,14.4-5.3c1.5-0.8,2.9-0.8,4.4-0.4c3.4,0.8,6,2.8,8.3,5.2
					c5.9,6.2,4.7,12.4-3,16.4c-3.3,1.4-6,0-8.3-2c-4.9-4.2-9.4-9-15.1-12.1C192.1,229.5,191.8,228.8,192.1,228z"/>
				<path class="st38" d="M158.5,231.9c0.4-6.5,0.5-6.6,6.8-4.7c4.1,1.2,8.3,1.7,12.6,2c5.6,0.4,6.9-2.1,5.8,6.1
					c-3.9,6.3-11.7,9.2-18.7,7C159.5,240.5,157.8,237.7,158.5,231.9z"/>
			</g>
			<path class="st3" d="M157.3,199.8c0,0-7.8-0.3-7.5-10.7c0.4-12,23.6-18.3,34.8-20.5c13.7-2.6,39.3-3.9,50.7,9.4
				c11.4,13.3-19.8,41.6-33.8,46.2c-10.5,3.4-30.6,8.1-43.6,0.7"/>
			<path class="st14" d="M238.3,187.7c-0.1,0.5-0.2,1-0.4,1.6c-3.1,11.1-16.9,24.6-28.3,31.6c-0.3,0.2-0.6,0.3-0.9,0.3
				c-0.3,0-0.6-0.1-0.8-0.2c-0.5-0.3-0.9-0.9-0.8-1.5c0.1-4.1-2.5-8.2-5-9.5c-0.7-0.4-1-1.1-0.8-1.9c0.2-0.7,0.9-1.3,1.6-1.3
				c1.3,0,8.3-2.9,8.8-7.9c0.3-3.6-0.6-6.8-2.5-8.9c-1.5-1.6-3.4-2.5-5.6-2.5c-0.6,0-1.1-0.3-1.4-0.7
				C216,183.9,228.9,184.4,238.3,187.7z"/>
			<path class="st14" d="M191.9,207.9c1.4,1.7,2.9,4.2,2.9,7.7c0,4.8-5.3,9.2-9.8,12.2c-0.2,0.1-0.5,0.2-0.7,0.3
				c-3,0.4-6,0.6-8.7,0.6c-6.7,0-12.4-1.2-16.9-3.6c0,0.1,0,0.1,0,0.2c-0.1,0.3-0.1,0.7-0.2,1.3c-0.7-1.1-1.1-2.3-1.4-3.6
				c-3.2-13.2,14.3-28.8,39.3-35.5h0c3.4,1.6,5.3,5.2,5.3,10.5C201.6,204.2,195.8,206.9,191.9,207.9z"/>
		</g>
		<g>
			<path class="st15" d="M157.3,199.8c0,0-7.8-0.3-7.5-10.7c0.4-12,23.6-18.3,34.8-20.5c13.7-2.6,39.3-3.9,50.7,9.4
				c11.4,13.3-19.8,41.6-33.8,46.2c-10.5,3.4-30.6,8.1-43.6,0.7"/>
			<path class="st16" d="M219.9,169.1c0,0,17.1,0.7,30.6,8.5c13.5,7.8,19.2,15.3,17.7,20.6c-1.5,5.4-7.3,8.5-18,5.4
				c-9.2-2.6-17.4-6-17.4-6"/>
			<path class="st16" d="M232.9,198.2c0,0,20.7,8.9,15,22.9c-5,12.1-18.9,4.8-33.2,2.7"/>
			<path class="st16" d="M158.3,225.3c0,0-6.1,28.6,11.4,28.6s14.5-25.5,14.5-25.5"/>
			<path class="st16" d="M208.4,220.9c1.8,0.7,4,1.6,6.2,2.9c0,0,0,0,0,0c3.1,1.8,6.1,4.4,7.2,7.7c2.9,8.3-1.8,12.7-5.9,14.6
				c-2.6,1.2-16.7,6.5-31.7-13.5"/>
			<path class="st4" d="M208.4,220.9c0.9-5.1-2.3-10.7-5.7-12.5c2,0,9.9-3.3,10.4-9.4c0.7-7.8-3.8-13.2-9.8-13.2
				c11.7-7.6,8-18.7,8-18.7l-18.3,0.4c0,0,6,2.9,5.5,8.8c-0.5,5.9-5.6,10.7-8.9,12.8c5.8-0.8,10.1,1.6,10.1,9.5c0,7.9-11.7,9-11.7,9
				s4.9,2.8,4.9,8.7s-11,11.9-11,11.9l15.1-2.4L208.4,220.9z"/>
		</g>
	</g>
	<path class="st40" d="M195.4,85.7C195.4,85.7,195.4,85.7,195.4,85.7C195.4,85.7,195.4,85.7,195.4,85.7c-0.4-0.8-0.9-1.5-1.4-2.3
		c-0.1-0.1-0.1-0.1-0.1-0.2c-0.2-0.3-0.4-0.6-0.6-0.9c-0.2-0.3-0.4-0.5-0.6-0.8c-0.1-0.1-0.1-0.2-0.2-0.2c-0.1-0.1-0.1-0.2-0.2-0.3
		c-0.3-0.4-0.6-0.8-1-1.3c-0.2-0.3-0.5-0.6-0.7-0.9c-0.1-0.2-0.3-0.3-0.4-0.5c-0.2-0.3-0.4-0.5-0.6-0.8c-0.2-0.3-0.5-0.5-0.7-0.8
		c0,0-0.1-0.1-0.1-0.1c0,0-0.1-0.1-0.1-0.1c0,0,0,0-0.1-0.1c0,0,0,0-0.1,0c0,0-0.1-0.1-0.1-0.1c-0.3-0.3-0.6-0.6-0.9-1
		c-0.3-0.3-0.6-0.6-0.9-1c-0.5-0.5-1-1-1.5-1.5c-0.3-0.2-0.5-0.5-0.8-0.7c-0.2-0.2-0.5-0.4-0.7-0.7c-0.7-0.7-1.5-1.3-2.2-1.8
		c-0.5-0.4-1-0.8-1.6-1.2c-0.1,0-0.1-0.1-0.2-0.1c-0.3-0.2-0.6-0.4-0.9-0.6c-0.4-0.3-0.9-0.6-1.3-0.9c-0.5-0.3-1-0.6-1.6-1
		c-0.3-0.2-0.5-0.3-0.8-0.4c-0.5-0.3-1-0.6-1.6-0.8c-0.3-0.1-0.5-0.3-0.8-0.4c-0.3-0.1-0.5-0.2-0.8-0.4c-0.3-0.1-0.5-0.2-0.8-0.3
		c-0.3-0.1-0.5-0.2-0.8-0.3c-0.5-0.2-1-0.4-1.4-0.5c-0.1,0-0.2-0.1-0.2-0.1c-0.1,0-0.2-0.1-0.2-0.1c-0.4-0.1-0.8-0.2-1.1-0.3
		c-0.2-0.1-0.5-0.1-0.7-0.2c-0.2-0.1-0.5-0.1-0.7-0.2c-0.2-0.1-0.5-0.1-0.7-0.1c-0.2,0-0.5-0.1-0.7-0.1c0,0,0,0,0,0
		c-0.2,0-0.4,0-0.6-0.1c-0.2,0-0.4,0-0.6,0c-0.2,0-0.5,0-0.7,0c-0.2,0-0.4,0-0.7,0c-0.2,0-0.3,0-0.5,0c-0.1,0-0.1,0-0.2,0h0
		c0,0-0.1,0-0.1,0c-0.1,0-0.2,0-0.3,0c-0.2,0-0.4,0-0.5,0.1c-0.4,0.1-0.7,0.1-1,0.2c-0.5,0.1-1.1,0.3-1.5,0.5l-0.3,0.2
		c-0.3,0.1-0.6,0.3-0.8,0.4c0,0,0,0,0,0c-0.5,0.3-1,0.7-1.5,1.2c-0.9,0.9-1.6,2-2,3.2c-0.1,0.2-0.1,0.3-0.2,0.5
		c-0.1,0.3-0.2,0.6-0.3,1c-0.1,0.5-0.2,1-0.2,1.6c0,0.4,0,0.8,0,1.2v0.1c0,0.2,0,0.4,0,0.6c0,0.3,0,0.5,0.1,0.8
		c0,0.2,0.1,0.3,0.1,0.4c0.1,0.3,0.3,0.5,0.5,0.7c0.2,0.2,0.5,0.3,0.8,0.4c6.2,1.1,11.2,4,14.9,8.5c0.1,0.2,0.3,0.3,0.5,0.4
		c0.1,0.1,0.3,0.1,0.4,0.2c0.2,0.1,0.4,0.1,0.7,0.1c0.4,0.1,0.8,0.1,1.2,0.2c0.9,0.1,1.9,0.2,2.9,0.2c3,0,7.2-0.7,11.2-3.6
		c-0.5,2.6-1.8,5.7-5.2,7c-0.5,0.2-0.9,0.7-1,1.2c-0.1,0.6,0.1,1.1,0.5,1.5c1.8,1.8,4.1,2.3,5.7,2.4c-1.1,2-3.5,5.3-8.4,5.8
		c0,0-0.1,0-0.1,0c-0.3,0-0.6,0.2-0.8,0.4c-0.1,0.1-0.2,0.2-0.3,0.3c-0.2,0.3-0.3,0.5-0.3,0.8c0,0.1,0,0.3,0,0.4
		c0.2,1.1,0.3,2.2,0.4,3c0,0.3,0.2,0.7,0.4,0.9c0.1,0.2,0.3,0.3,0.5,0.4c0,0,0,0,0.1,0c0.5,0.3,1.1,0.5,1.6,0.8c0,0,0,0,0.1,0
		c0.5,0.2,1,0.5,1.5,0.7c0.5,0.2,1,0.4,1.5,0.6c0.1,0,0.1,0,0.2,0.1c0.2,0.1,0.4,0.1,0.6,0.2c0.1,0.1,0.3,0.1,0.4,0.1
		c0,0,0.1,0,0.1,0c0.1,0.1,0.3,0.1,0.4,0.1c0.2,0,0.3,0.1,0.4,0.1c0.1,0,0.2,0.1,0.3,0.1c0.1,0,0.3,0.1,0.4,0.1
		c0.2,0.1,0.5,0.1,0.7,0.2c1.4,0.3,2.7,0.5,3.9,0.5c1.3,0,2.6-0.2,3.7-0.5c0,0,0,0,0,0c0.3-0.1,0.6-0.2,0.8-0.3
		c0.2-0.1,0.3-0.1,0.5-0.2c0.2-0.1,0.3-0.1,0.5-0.2c0.1-0.1,0.2-0.1,0.4-0.2c0.2-0.1,0.3-0.2,0.5-0.3c0.3-0.2,0.5-0.4,0.7-0.6
		c0.1-0.1,0.2-0.2,0.3-0.3c0.2-0.2,0.4-0.5,0.7-0.7c0.2-0.2,0.3-0.4,0.5-0.7c0,0,0.1-0.1,0.1-0.1h0c0,0,0,0,0,0
		c0.2-0.3,0.3-0.6,0.5-0.9c0-0.1,0.1-0.2,0.1-0.2c0.1-0.1,0.1-0.2,0.1-0.3c0.1-0.2,0.1-0.4,0.2-0.5c0-0.1,0.1-0.3,0.1-0.4
		c0-0.1,0-0.2,0.1-0.2c0,0,0,0,0,0C200.2,97.5,198.9,91.8,195.4,85.7z"/>
	<path class="st41" d="M177.1,100.9c-0.4,0-0.7-0.3-0.8-0.7c0-0.2-0.1-0.4-0.1-0.6l0-0.2c-0.1-0.3-0.1-0.7-0.2-1.1
		c-0.1-0.3-0.1-0.5-0.2-0.8l0-0.2c-0.1-0.3-0.1-0.6-0.2-0.9c-0.1-0.3-0.2-0.7-0.3-1c0-0.2-0.1-0.4-0.1-0.5l-0.1-0.3
		c-0.4-1.3-0.9-2.7-1.4-3.9c-0.1-0.3-0.2-0.5-0.3-0.7l-0.4-0.9l0-0.1c0-0.1-0.1-0.2-0.1-0.3c-0.1-0.2-0.2-0.4-0.3-0.6
		c-0.1-0.3-0.3-0.5-0.4-0.8l-0.1-0.2c-0.1-0.2-0.2-0.4-0.4-0.6l-0.1-0.1c-0.2-0.3-0.3-0.5-0.5-0.8c-0.2-0.3-0.4-0.6-0.6-0.9
		c-0.2-0.3-0.2-0.6,0-0.9c0.1-0.2,0.4-0.4,0.7-0.4c0,0,0.1,0,0.1,0c1.1,0.2,2.2,0.3,3.3,0.3c0.8,0,1.6-0.1,2.4-0.2
		c0.2,0,0.4-0.1,0.6-0.1c0.2,0,0.4-0.1,0.6-0.1l0.1,0c0.2,0,0.3-0.1,0.5-0.1l0.3,0.7l-0.2-0.8l0.5-0.1c0,0,0,0,0,0c0,0,0,0,0.1,0
		c0,0,0.1,0,0.1,0c0.2-0.1,0.4-0.1,0.6-0.2c0.2-0.1,0.5-0.2,0.7-0.3c0.3-0.1,0.6-0.3,0.9-0.4l0.2-0.1c0.1,0,0.2-0.1,0.3-0.1
		c1-0.5,1.9-1.1,2.7-1.7l0.1-0.1c0.1-0.1,0.1-0.1,0.2-0.2c0.2-0.1,0.3-0.3,0.5-0.4c0.1-0.1,0.3-0.2,0.5-0.2c0.1,0,0.2,0,0.3,0.1
		c0.3,0.1,0.5,0.4,0.5,0.7c0,0,0,0.3,0,0.4c0,0.1,0,0.3,0,0.4c0,0.1,0,0.3,0,0.4c0,0.2,0,0.3-0.1,0.5l0,0.3c0,0.3-0.1,0.7-0.2,1.1
		c0,0.1-0.1,0.3-0.1,0.5c-0.1,0.2-0.1,0.4-0.2,0.6c-0.1,0.1-0.1,0.3-0.2,0.4c0,0.1-0.1,0.1-0.1,0.2c-0.4,0.9-0.9,1.8-1.5,2.5
		c-0.1,0.1-0.2,0.2-0.3,0.3c-0.3,0.3-0.6,0.6-0.9,0.8c-0.2,0.2-0.4,0.3-0.6,0.5c-0.1,0.1-0.2,0.1-0.3,0.2l-0.1,0.1
		c-0.1,0.1-0.2,0.2-0.4,0.2c-0.1,0.1-0.3,0.1-0.4,0.2c-0.2,0.1-0.5,0.2-0.7,0.3c1.6,1.5,3.5,1.9,5,1.9c0,0,0,0,0,0
		c0.2,0,0.4,0,0.6,0c0,0,0,0,0.1,0c0.3,0,0.5,0.1,0.6,0.3c0.2,0.2,0.2,0.5,0.1,0.8C186.4,94.8,183.9,100.1,177.1,100.9
		C177.1,100.9,177.1,100.9,177.1,100.9z"/>
	<path class="st42" d="M224.8,86.8c-0.3-0.6-0.9-1-1.5-1h-18.9V58.1c0-0.9-0.8-1.7-1.7-1.7h-27.6V38.1c0-0.7-0.4-1.3-1-1.5
		c-0.2-0.1-0.4-0.1-0.6-0.1c-0.4,0-0.9,0.2-1.2,0.5L152,57.2c-0.2,0.2-0.4,0.4-0.6,0.7c0,0,0,0,0,0c-0.2,0.2-0.4,0.5-0.6,0.7
		c-0.1,0.2-0.3,0.4-0.4,0.5c0,0,0,0,0,0c-0.1,0.1-0.2,0.2-0.3,0.4c-0.2,0.2-0.3,0.4-0.5,0.7c-0.2,0.2-0.3,0.5-0.4,0.8
		c-0.2,0.3-0.3,0.6-0.5,0.8c-0.1,0.3-0.3,0.6-0.4,0.9c-0.1,0.2-0.2,0.4-0.3,0.6c-0.2,0.4-0.3,0.8-0.4,1.2c-0.1,0.3-0.2,0.6-0.3,1
		c-0.1,0.3-0.2,0.6-0.2,1c-0.1,0.3-0.1,0.7-0.2,1c-0.3,1.7-0.4,3.5-0.3,5.4v0.1c0,0.3,0.1,0.5,0.2,0.7c0.3,0.5,0.8,0.8,1.4,0.8
		c1.6,0,3,0.1,4.3,0.3c0.1,0,0.1,0,0.2,0c0.2,0,0.4,0,0.6-0.1c0.2-0.1,0.4-0.2,0.5-0.3c0.1-0.1,0.1-0.1,0.2-0.2
		c0.3-0.3,0.4-0.7,0.4-1.2c-0.2-3.1,0.5-5.5,2.2-7.1h0c0.1-0.1,0.2-0.2,0.3-0.3c0.1-0.1,0.3-0.3,0.5-0.4c0.1-0.1,0.2-0.1,0.3-0.2
		c0.1-0.1,0.1-0.1,0.2-0.2c0.2-0.1,0.3-0.2,0.5-0.3c0.1,0,0.1-0.1,0.2-0.1c0,0,0.1,0,0.1-0.1c0.1-0.1,0.3-0.1,0.4-0.2
		c0.2-0.1,0.5-0.2,0.8-0.3c0.1,0,0.3-0.1,0.4-0.1c0.1,0,0.3-0.1,0.4-0.1c0.1,0,0.1,0,0.2,0c0.1,0,0.1,0,0.2,0c0,0,0,0,0,0
		c0,0,0,0,0,0c0.1,0,0.3,0,0.4-0.1c0.1,0,0.2,0,0.3,0c0.1,0,0.1,0,0.2,0c0.2,0,0.3,0,0.5,0c0.1,0,0.2,0,0.4,0h0.1c0.3,0,0.7,0,1,0
		c0.1,0,0.1,0,0.2,0c0.6,0.1,1.3,0.1,1.9,0.3c3.6,0.7,7.6,2.4,11.6,5.1c0.1,0,0.1,0.1,0.1,0.1c0.3,0.2,0.7,0.5,1,0.7
		c0.1,0.1,0.2,0.1,0.3,0.2c0.1,0.1,0.1,0.1,0.2,0.1c0.2,0.2,0.5,0.4,0.7,0.5c0.2,0.2,0.4,0.3,0.6,0.5c0.3,0.2,0.5,0.4,0.8,0.6
		c0,0,0.1,0.1,0.1,0.1c0.5,0.4,1,0.8,1.5,1.2c0.5,0.4,1,0.9,1.4,1.3c0.2,0.2,0.5,0.4,0.7,0.7c0.2,0.2,0.5,0.5,0.7,0.7
		c0.1,0.2,0.3,0.3,0.4,0.4c0.1,0.1,0.2,0.2,0.3,0.3c0.1,0.1,0.1,0.1,0.2,0.2h0c0.1,0.1,0.1,0.1,0.2,0.2c0,0,0.1,0.1,0.1,0.1
		c0.1,0.1,0.1,0.1,0.1,0.1c0.1,0.1,0.1,0.1,0.2,0.2c0.1,0.1,0.2,0.2,0.3,0.3c0,0,0.1,0.1,0.1,0.1c0.1,0.1,0.1,0.1,0.2,0.2
		c0.3,0.3,0.5,0.6,0.8,0.9c0,0,0,0,0,0v0c0,0,0,0,0.1,0.1v0c0.2,0.2,0.3,0.4,0.5,0.6c0.1,0.2,0.3,0.3,0.4,0.5
		c0.1,0.2,0.3,0.3,0.4,0.5c0.2,0.2,0.3,0.4,0.4,0.6c0.2,0.3,0.4,0.5,0.6,0.8c0.4,0.5,0.8,1.1,1.2,1.6c0.1,0.2,0.3,0.4,0.4,0.6
		c0,0,0,0,0.1,0.1c0.2,0.2,0.3,0.5,0.4,0.7c0.3,0.5,0.6,0.9,0.8,1.4c0.1,0.1,0.1,0.2,0.2,0.3c0.1,0.2,0.2,0.4,0.3,0.6c0,0,0,0,0,0
		c0.1,0.3,0.3,0.5,0.4,0.7c0,0,0.1,0.1,0.1,0.1c0,0.1,0.1,0.2,0.1,0.3c0.1,0.1,0.1,0.2,0.2,0.3c0.1,0.1,0.1,0.2,0.2,0.3
		c0.1,0.2,0.2,0.5,0.3,0.7c0.1,0.1,0.1,0.2,0.2,0.3c0.2,0.5,0.5,1.1,0.7,1.6c0,0,0,0,0,0.1c0.2,0.5,0.4,1.1,0.5,1.6c0,0,0,0.1,0,0.1
		c0,0.1,0.1,0.3,0.1,0.4c0.1,0.3,0.2,0.5,0.2,0.8c0,0.1,0,0.2,0.1,0.3c0,0.1,0,0.1,0.1,0.2c0,0.1,0.1,0.2,0.1,0.3
		c0,0.2,0.1,0.3,0.1,0.5c0.1,0.2,0.1,0.4,0.1,0.7c0,0.2,0.1,0.3,0.1,0.5c0,0,0,0.1,0,0.1c0,0,0,0.1,0,0.1c0,0.1,0,0.1,0,0.2
		c0,0.2,0,0.4,0.1,0.6c0,0.4,0,0.8,0,1.1c0,0.6-0.1,1.3-0.1,1.8c-0.1,0.4-0.2,0.9-0.3,1.3c-0.1,0.3-0.2,0.5-0.3,0.8
		c-0.1,0.1-0.1,0.3-0.2,0.4c-0.1,0.2-0.2,0.5-0.4,0.7c-0.3,0.5-0.6,0.9-1,1.3h0c-0.5,0.5-1,0.8-1.5,1.2h0c0,0,0,0,0,0
		c-0.1,0-0.1,0.1-0.2,0.1c-0.2,0.1-0.4,0.2-0.5,0.3c-0.1,0.1-0.3,0.1-0.4,0.1c-0.3,0.1-0.5,0.2-0.8,0.2c0,0,0,0,0,0
		c-0.1,0-0.3,0.1-0.4,0.1c-0.7,0.1-1.5,0.2-2.3,0.2c-0.8,0-1.6-0.1-2.4-0.2c0,0,0,0,0,0c-0.8-0.1-1.7-0.3-2.6-0.5
		c-0.2-0.1-0.4-0.1-0.7-0.2c-0.2-0.1-0.4-0.1-0.7-0.2c-0.2-0.1-0.5-0.2-0.7-0.2c-0.1,0-0.2-0.1-0.3-0.1c-0.1,0-0.2-0.1-0.3-0.1
		c-0.2-0.1-0.5-0.2-0.7-0.3c-0.5-0.2-0.9-0.4-1.4-0.6c-0.2-0.1-0.5-0.2-0.7-0.3c0,0,0,0,0,0c-0.2-0.1-0.5-0.2-0.7-0.2
		c-0.3,0-0.6,0.1-0.9,0.3h0c-0.2,0.1-0.4,0.3-0.5,0.5c-0.2,0.3-0.3,0.6-0.3,1c0.1,0.9,0.1,1.7,0.1,2.6c0,0.6,0,1.3-0.1,1.9
		c0,0.6,0.3,1.2,0.8,1.5c0.1,0.1,0.2,0.1,0.2,0.1c0.2,0.1,0.4,0.2,0.6,0.2c0.7,0.3,1.3,0.5,2,0.7c0.2,0.1,0.3,0.1,0.5,0.2
		c0.2,0.1,0.4,0.1,0.6,0.2c0.3,0.1,0.5,0.2,0.7,0.2c0.2,0.1,0.4,0.1,0.7,0.2c0.1,0,0.3,0.1,0.4,0.1c0.2,0.1,0.5,0.1,0.7,0.2
		c0.6,0.1,1.3,0.3,1.9,0.4c0.2,0,0.4,0.1,0.7,0.1c0.2,0,0.3,0,0.5,0.1c0.2,0,0.4,0,0.6,0.1c0.4,0,0.9,0.1,1.3,0.1c0.4,0,0.7,0,1,0h0
		c0.3,0,0.6,0,0.9,0c0.1,0,0.2,0,0.3,0c0.3,0,0.7,0,1-0.1c0,0,0,0,0,0c0.4,0,0.7-0.1,1-0.1c0,0,0,0,0.1,0c0.2,0,0.4-0.1,0.6-0.1
		c0,0,0.1,0,0.1,0c0.2,0,0.3-0.1,0.5-0.1c0,0,0.1,0,0.1,0c0.1,0,0.2-0.1,0.4-0.1c0,0,0,0,0.1,0c0.3-0.1,0.5-0.1,0.8-0.2
		c0,0,0.1,0,0.1,0c0.2,0,0.3-0.1,0.5-0.1c0.2,0,0.3-0.1,0.5-0.1c0.1,0,0.1,0,0.2,0c0.3-0.1,0.6-0.2,0.9-0.3c0.3-0.1,0.7-0.2,1-0.4
		c0.3-0.1,0.6-0.3,1-0.4c0,0,0.1,0,0.1-0.1h0c0.3-0.1,0.5-0.2,0.8-0.4c0.3-0.2,0.6-0.3,0.9-0.5c0.1-0.1,0.3-0.2,0.4-0.3
		c0.1-0.1,0.3-0.2,0.4-0.3c0.3-0.2,0.5-0.3,0.7-0.5c0.2-0.2,0.5-0.4,0.7-0.5c0.2-0.2,0.4-0.4,0.7-0.6c0.2-0.2,0.5-0.4,0.7-0.7
		l19.6-20C225,88.1,225.1,87.4,224.8,86.8z M195.4,85.7L195.4,85.7c0.2,0.4,0.4,0.8,0.6,1.1C195.9,86.4,195.6,86.1,195.4,85.7z
		 M197.1,89c0.5,1.1,0.9,2.2,1.3,3.3C198,91.2,197.6,90.1,197.1,89z M199,101.8C199,101.8,199,101.8,199,101.8
		c0.4-1.6,0.5-3.4,0.3-5.4C199.5,98.4,199.5,100.2,199,101.8z"/>
	<path class="st43" d="M202,108.9c-4.9,3.7-13.5,5.8-23.8,1.4c0-0.6,0.1-1.3,0.1-2c0-0.8,0-1.7-0.1-2.7c0.2,0.1,0.5,0.2,0.7,0.3
		c0,0,0,0,0.1,0c0.5,0.2,1,0.5,1.5,0.7c0.5,0.2,1,0.4,1.5,0.6c0.1,0,0.1,0,0.2,0.1c0.2,0.1,0.4,0.1,0.6,0.2c0.1,0.1,0.3,0.1,0.4,0.1
		c0,0,0.1,0,0.1,0c0.1,0.1,0.3,0.1,0.4,0.1c0.2,0,0.3,0.1,0.4,0.1c0.1,0,0.2,0.1,0.3,0.1c0.1,0,0.3,0.1,0.4,0.1
		c0.2,0.1,0.5,0.1,0.7,0.2c1.4,0.3,2.7,0.5,3.9,0.5c1.3,0,2.6-0.2,3.7-0.5c0,0,0,0,0,0c0.3-0.1,0.6-0.2,0.8-0.3
		c0.2-0.1,0.3-0.1,0.5-0.2c0.2-0.1,0.3-0.1,0.5-0.2c0.1-0.1,0.2-0.1,0.4-0.2c0.2-0.1,0.3-0.2,0.5-0.3c0.3-0.2,0.5-0.4,0.7-0.6
		c0.1-0.1,0.2-0.2,0.3-0.3h0c0.2-0.2,0.4-0.5,0.6-0.7c0.2-0.2,0.3-0.4,0.5-0.7c0,0,0.1-0.1,0.1-0.1c0,0,0,0,0,0
		c0.2-0.3,0.3-0.6,0.5-0.9c0-0.1,0.1-0.2,0.1-0.2c2.2-4.9,0.5-12.4-4.4-20c-0.1-0.1-0.1-0.1-0.1-0.2c-0.2-0.3-0.4-0.6-0.6-0.9
		c-0.2-0.3-0.4-0.5-0.6-0.8c-0.1-0.1-0.1-0.2-0.2-0.2c-0.1-0.1-0.1-0.2-0.2-0.3c-0.3-0.4-0.6-0.8-1-1.3c-0.2-0.3-0.5-0.6-0.7-0.9
		c-0.1-0.2-0.3-0.3-0.4-0.5c-0.2-0.3-0.4-0.5-0.6-0.8c-0.2-0.3-0.5-0.5-0.7-0.8c0,0-0.1-0.1-0.1-0.1c0,0-0.1-0.1-0.1-0.1
		c0,0,0,0-0.1-0.1c-0.2-0.2-0.3-0.4-0.5-0.5c-0.2-0.2-0.4-0.4-0.6-0.6c-0.3-0.3-0.6-0.6-0.9-1c-0.5-0.5-1-1-1.5-1.5
		c-0.3-0.2-0.5-0.5-0.8-0.7c-0.3-0.2-0.5-0.4-0.7-0.7c-0.7-0.7-1.5-1.3-2.2-1.8c-0.5-0.4-1-0.8-1.6-1.2c-0.1,0-0.1-0.1-0.2-0.1
		c-0.3-0.2-0.6-0.4-0.9-0.6c-0.4-0.3-0.9-0.6-1.3-0.9c-0.5-0.3-1.1-0.7-1.6-1c-0.3-0.2-0.5-0.3-0.8-0.4c-0.5-0.3-1-0.6-1.6-0.8
		c-0.3-0.2-0.6-0.3-1-0.5c-0.1-0.1-0.3-0.1-0.4-0.2c-0.3-0.2-0.6-0.3-1-0.4c-0.3-0.1-0.5-0.2-0.8-0.3c-0.5-0.2-1-0.4-1.4-0.5
		c-0.1,0-0.2-0.1-0.2-0.1c-0.1,0-0.2-0.1-0.2-0.1c-0.4-0.1-0.8-0.2-1.1-0.3c-0.3-0.1-0.5-0.1-0.7-0.2c-0.2-0.1-0.5-0.1-0.7-0.2
		c-0.2-0.1-0.5-0.1-0.7-0.1c-0.2,0-0.5-0.1-0.7-0.1c0,0,0,0,0,0c-0.4,0-0.8-0.1-1.1-0.1c-0.1,0-0.1,0-0.2,0c-0.2,0-0.5,0-0.7,0
		c-0.2,0-0.4,0-0.7,0c-0.2,0-0.3,0-0.5,0c-0.1,0-0.1,0-0.2,0h0c0,0-0.1,0-0.1,0c-0.1,0-0.2,0-0.3,0c-0.2,0-0.4,0-0.5,0.1
		c-0.4,0.1-0.7,0.1-1,0.2c-0.5,0.1-1.1,0.3-1.5,0.5c-0.1,0-0.2,0.1-0.3,0.2c-0.3,0.1-0.6,0.3-0.8,0.4c0,0,0,0,0,0
		c-0.5,0.3-1,0.7-1.5,1.2c-0.6,0.6-1,1.2-1.4,1.9c-1,1.8-1.4,4-1.2,6.6c-1.4-0.2-2.9-0.3-4.4-0.3c-0.3-4.9,1-9.4,3.5-12.7
		c9-5.2,24.8-0.2,37.4,12.4C201.3,84.6,206.4,99.8,202,108.9z"/>
	<path class="st44" d="M168.4,82.9c0,0,10.1,4.1,18.7-4.1c0.2,2.6-0.7,9.1-6.7,11.1c2.8,3.3,7.2,2.4,7.2,2.4s-2.1,7.8-10.7,8.5"/>
	<g class="st23">
		<path class="st17" d="M153.7,75.1c-0.6-3.8,0.1-7.1,2.2-9.2c5.6-5.6,19.1-1.2,30.2,9.8c11,11.1,15.4,24.5,9.8,30.2
			c-3.8,3.8-11.3,3-19.2-1.5"/>
	</g>
	<path class="st45" d="M147.5,73.8c-0.7-7.2,1.7-12.8,5.1-16.1l21.6-21.6v21.1h21.1h8.1v8.1v21.1h21.6l-20.9,21.3
		c-4.9,4.9-14.9,8.3-27.3,2.6"/>
	<path class="st46" d="M112.2,102.6c0,0,7.2-28,35.4-28s29.3,28.3,29.3,34.1c0,26.8-22.1,40.5-22.1,71.5"/>
</g>
</svg>
