<?xml version="1.0" encoding="utf-8"?>
<!-- Generator: Adobe Illustrator 25.2.3, SVG Export Plug-In . SVG Version: 6.00 Build 0)  -->
<!DOCTYPE svg PUBLIC "-//W3C//DTD SVG 1.1//EN" "http://www.w3.org/Graphics/SVG/1.1/DTD/svg11.dtd" [
	<!ENTITY ns_extend "http://ns.adobe.com/Extensibility/1.0/">
	<!ENTITY ns_ai "http://ns.adobe.com/AdobeIllustrator/10.0/">
	<!ENTITY ns_graphs "http://ns.adobe.com/Graphs/1.0/">
	<!ENTITY ns_vars "http://ns.adobe.com/Variables/1.0/">
	<!ENTITY ns_imrep "http://ns.adobe.com/ImageReplacement/1.0/">
	<!ENTITY ns_sfw "http://ns.adobe.com/SaveForWeb/1.0/">
	<!ENTITY ns_custom "http://ns.adobe.com/GenericCustomNamespace/1.0/">
	<!ENTITY ns_adobe_xpath "http://ns.adobe.com/XPath/1.0/">
]>
<svg version="1.1" xmlns:x="&ns_extend;" xmlns:i="&ns_ai;" xmlns:graph="&ns_graphs;"
	 xmlns="http://www.w3.org/2000/svg" xmlns:xlink="http://www.w3.org/1999/xlink" x="0px" y="0px" viewBox="0 0 300 300"
	 style="enable-background:new 0 0 300 300;" xml:space="preserve">
<style type="text/css">
	.st0{fill:#FFD307;}
	.st1{fill:#E64037;}
	.st2{fill:#49AD39;}
	.st3{fill:#D1CFB5;}
	.st4{fill:#020203;}
	.st5{fill:#2E2F2F;}
	.st6{fill:#D1E7D5;}
	.st7{fill:none;}
	.st8{fill:#F5AA09;}
	.st9{fill:#7E4B26;}
	.st10{fill:#ADA77F;}
	.st11{fill:#3B1A0F;}
	.st12{fill:#129839;}
	.st13{fill:#ABD3B2;}
	.st14{fill:#ACA780;}
	.st15{fill:none;stroke:#020203;stroke-width:3;stroke-linecap:round;stroke-linejoin:round;stroke-miterlimit:10;}
	.st16{fill:none;stroke:#020203;stroke-width:3;stroke-miterlimit:10;}
	.st17{fill:none;stroke:#020203;stroke-width:3;stroke-linecap:round;stroke-miterlimit:10;}
	.st18{fill:none;stroke:#020203;stroke-linecap:round;stroke-miterlimit:10;}
	.st19{fill:#108036;}
	.st20{fill:#F1E856;}
	.st21{fill:#020304;}
	.st22{fill:#DECA7D;}
	.st23{fill:#A37134;}
	.st24{fill:#533E2D;}
	.st25{fill:#B88B49;}
	.st26{fill:#69695E;}
	.st27{fill:#8E8D82;}
	.st28{fill:#010202;}
	.st29{fill:#6E6E6E;}
	.st30{fill:#67247C;}
	.st31{fill:#9D8416;}
	.st32{fill:#109639;}
</style>
<metadata>
	<sfw  xmlns="&ns_sfw;">
		<slices></slices>
		<sliceSourceBounds  bottomLeftOrigin="true" height="479.9" width="1520" x="-130" y="-647.9"></sliceSourceBounds>
	</sfw>
</metadata>
<g id="z-index1_x2F_duck">
</g>
<g id="z-index2_x2F_cirkel">
</g>
<g id="Layer_6">
</g>
<g id="z-index3_x2F_banner">
	<path class="st19" d="M0,300h150c0-82.8,67.2-150,150-150l0-150H0V300z"/>
	<path class="st22" d="M9.7,300V10H300v110.8h-20.4c-0.8,0-1.6,0.1-2.3,0.3l-0.5,0.1l-0.5,0.1c-81.5,10.6-145.3,75-155.3,156.5
		c-0.1,0.6-0.1,1.1-0.1,1.6l0,0.2l0,20.4H9.7z"/>
	<path class="st7" d="M300,20v90.8h-20.4c-1.6,0-3.2,0.2-4.7,0.5c-86.1,11.2-153.3,78.8-163.9,165.2c-0.1,1.1-0.2,2.2-0.1,3.2
		l0,20.2H19.7V20H300z"/>
	<polygon class="st23" points="19.7,20 300,20 300,0 0,0 19.7,20 	"/>
	<polygon class="st24" points="19.7,20 0,0 0,0 0,300 19.7,300 	"/>
	<path class="st23" d="M274.9,111.3c-86.1,11.2-153.3,78.8-163.9,165.2c-0.1,1.1-0.2,2.2-0.1,3.2l0,20.2h20.3l0-21h0
		c9.5-77.4,71.2-139,148.7-148.1v-0.1H300v-20h-20.4C278,110.8,276.4,111,274.9,111.3z"/>
	<path class="st20" d="M300,204.3l-0.2,0V149c-2.4,0.1-26.8,1.3-49.8,12.9c-2.5,1.3-4.9,2.6-7.3,4l24.4,50.1c2-1.5,4.1-2.9,6.5-4.2
		C286.5,205.2,299.9,204.3,300,204.3z"/>
	<g>
		<path class="st26" d="M284.7,210.7l-20,8.3c-5.7,2.4-12.3-0.4-14.6-6.1l-14.3-34.7c-2.4-5.7,0.4-12.3,6.1-14.6l20-8.3
			c1.2-0.5,2.6,0.1,3.1,1.3l21,50.9C286.5,208.8,285.9,210.2,284.7,210.7z"/>
		<path class="st27" d="M261.3,156.5l-8.3,3.4c-1.7,0.7-2.5,2.7-1.8,4.4c0,0,4.9,7.2,6,9.9c4.3,10.3,7.5,22.8,7.5,22.8l3.8,12
			c0.7,1.7,4.9,5.1,6.6,4.3l8.3-3.4c1.2-0.5,1.8-1.9,1.3-3.2l-20.2-48.9C263.9,156.6,262.5,156,261.3,156.5z"/>
		<g>
			<path class="st28" d="M267.4,215.9c-2.6,1.4-5.8,1.8-8.8,1c-3-0.8-5.8-2.9-7.3-5.8c-0.7-1.4-1.3-2.7-1.9-4.1l-1.8-4l-3.4-8.1
				l-3.3-8.2l-1.6-4.1c-0.5-1.4-1.1-2.7-1.5-4.2c-0.5-1.6-0.7-3.2-0.5-4.8c0.2-1.6,0.7-3.1,1.5-4.5c1.6-2.7,4.1-4.7,7-5.5
				c-2.6,1.4-4.6,3.6-5.7,6.2c-1.1,2.5-1.1,5.4-0.1,7.8l3.5,8l3.4,8.1l3.3,8.2l3.1,8.2c1,2.4,3.1,4.4,5.6,5.5
				C261.5,216.6,264.5,216.7,267.4,215.9z"/>
		</g>
	</g>
</g>
<g id="z-index4_x2F_wings_x2B_crown">
</g>
</svg>
