<?xml version="1.0" encoding="utf-8"?>
<!-- Generator: Adobe Illustrator 25.2.3, SVG Export Plug-In . SVG Version: 6.00 Build 0)  -->
<!DOCTYPE svg PUBLIC "-//W3C//DTD SVG 1.1//EN" "http://www.w3.org/Graphics/SVG/1.1/DTD/svg11.dtd" [
	<!ENTITY ns_extend "http://ns.adobe.com/Extensibility/1.0/">
	<!ENTITY ns_ai "http://ns.adobe.com/AdobeIllustrator/10.0/">
	<!ENTITY ns_graphs "http://ns.adobe.com/Graphs/1.0/">
	<!ENTITY ns_vars "http://ns.adobe.com/Variables/1.0/">
	<!ENTITY ns_imrep "http://ns.adobe.com/ImageReplacement/1.0/">
	<!ENTITY ns_sfw "http://ns.adobe.com/SaveForWeb/1.0/">
	<!ENTITY ns_custom "http://ns.adobe.com/GenericCustomNamespace/1.0/">
	<!ENTITY ns_adobe_xpath "http://ns.adobe.com/XPath/1.0/">
]>
<svg version="1.1" xmlns:x="&ns_extend;" xmlns:i="&ns_ai;" xmlns:graph="&ns_graphs;"
	 xmlns="http://www.w3.org/2000/svg" xmlns:xlink="http://www.w3.org/1999/xlink" x="0px" y="0px" viewBox="0 0 300 300"
	 style="enable-background:new 0 0 300 300;" xml:space="preserve">
<style type="text/css">
	.st0{display:none;}
	.st1{display:inline;fill:#FFD307;}
	.st2{display:inline;fill:#E64037;}
	.st3{display:inline;fill:#49AD39;}
	.st4{display:inline;fill:#D1CFB5;}
	.st5{display:inline;fill:#020203;}
	.st6{display:inline;fill:#2E2F2F;}
	.st7{display:inline;fill:#D1E7D5;}
	.st8{display:inline;fill:none;}
	.st9{display:inline;fill:#F5AA09;}
	.st10{display:inline;fill:#7E4B26;}
	.st11{display:inline;fill:#ADA77F;}
	.st12{display:inline;fill:#3B1A0F;}
	.st13{display:inline;fill:#129839;}
	.st14{display:inline;fill:#ABD3B2;}
	.st15{display:inline;fill:#ACA780;}
	.st16{display:inline;fill:none;stroke:#020203;stroke-width:3;stroke-linecap:round;stroke-linejoin:round;stroke-miterlimit:10;}
	.st17{display:inline;fill:none;stroke:#020203;stroke-width:3;stroke-miterlimit:10;}
	.st18{display:inline;fill:none;stroke:#020203;stroke-width:3;stroke-linecap:round;stroke-miterlimit:10;}
	.st19{display:inline;fill:none;stroke:#020203;stroke-linecap:round;stroke-miterlimit:10;}
	.st20{display:inline;}
	.st21{fill:none;stroke:#020203;stroke-width:3;stroke-miterlimit:10;}
	.st22{display:inline;fill:#108036;}
	.st23{fill:#108036;}
	.st24{fill:#DECA7D;}
	.st25{fill:none;}
	.st26{fill:#A37134;}
	.st27{fill:#533E2D;}
	.st28{fill:#B88B49;}
	.st29{fill:#2E2F2F;}
	.st30{fill:#6E6E6E;}
	.st31{display:inline;fill:#67247C;}
	.st32{fill:none;stroke:#020203;stroke-width:3;stroke-linecap:round;stroke-linejoin:round;stroke-miterlimit:10;}
	.st33{fill:#020203;}
	.st34{fill:#D1CFB5;}
	.st35{fill:#ACA780;}
	.st36{display:inline;fill:#9D8416;}
	.st37{display:inline;fill:#109639;}
	.st38{fill:none;stroke:#020203;stroke-width:3;stroke-linecap:round;stroke-miterlimit:10;}
</style>
<metadata>
	<sfw  xmlns="&ns_sfw;">
		<slices></slices>
		<sliceSourceBounds  bottomLeftOrigin="true" height="474.9" width="1500" x="-120" y="-644.9"></sliceSourceBounds>
	</sfw>
</metadata>
<g id="z-index1_x2F_duck" class="st0">
</g>
<g id="z-index2_x2F_cirkel" class="st0">
</g>
<g id="z-index3_x2F_banner">
	<path class="st23" d="M0,300h150c0-82.8,67.2-150,150-150l0-150H0V300z"/>
	<path class="st24" d="M9.7,300V10H300v110.8h-20.4c-0.8,0-1.6,0.1-2.3,0.3l-0.5,0.1l-0.5,0.1c-81.5,10.6-145.3,75-155.3,156.5
		c-0.1,0.6-0.1,1.1-0.1,1.6l0,0.2l0,20.4H9.7z"/>
	<path class="st25" d="M300,20v90.8h-20.4c-1.6,0-3.2,0.2-4.7,0.5c-86.1,11.2-153.3,78.8-163.9,165.2c-0.1,1.1-0.2,2.2-0.1,3.2
		l0,20.2H19.7V20H300z"/>
	<polygon class="st26" points="19.7,20 300,20 300,0 0,0 19.7,20 	"/>
	<polygon class="st27" points="19.7,20 0,0 0,0 0,300 19.7,300 	"/>
	<path class="st26" d="M274.9,111.3c-86.1,11.2-153.3,78.8-163.9,165.2c-0.1,1.1-0.2,2.2-0.1,3.2l0,20.2h20.3l0-21h0
		c9.5-77.4,71.2-139,148.7-148.1v-0.1H300v-20h-20.4C278,110.8,276.4,111,274.9,111.3z"/>
</g>
<g id="z-index4_x2F_wings_x2B_crown" class="st0">
</g>
</svg>
